<?xml version="1.0" standalone="no"?>
<!DOCTYPE svg PUBLIC "-//W3C//DTD SVG 1.1//EN" "http://www.w3.org/Graphics/SVG/1.1/DTD/svg11.dtd" >
<svg xmlns="http://www.w3.org/2000/svg" xmlns:xlink="http://www.w3.org/1999/xlink" version="1.1">
<metadata>
Created by FontForge 20190801 at Sun Jan 27 18:21:17 2013
 By Jimmy Wärting
Copyright (c) 2013 by Anton Koovit. All rights reserved.
</metadata>
<defs>
<font id="U8-Hairline" horiz-adv-x="384" >
  <font-face 
    font-family="U8 Hairline"
    font-weight="250"
    font-stretch="normal"
    units-per-em="2000"
    panose-1="2 11 10 3 3 2 0 2 2 4"
    ascent="1600"
    descent="-400"
    x-height="988"
    cap-height="1546"
    bbox="-250 -550 2532 2292"
    underline-thickness="50"
    underline-position="-100"
    stemh="23"
    stemv="24"
    unicode-range="U+000D-FB04"
  />
<missing-glyph horiz-adv-x="1142" 
d="M114 0v1376h914v-1376h-914zM138 1352v-1328h866v1328h-866z" />
    <glyph glyph-name="fi" unicode="fi" horiz-adv-x="1020" 
d="M50 988h216v295c0 182 104 280 254 280c55 0 113 -12 162 -38l-10 -21c-33 17 -82 36 -152 36c-138 0 -230 -91 -230 -257v-295h252v-23h-252v-965h-24v965h-216v23zM786 0v988h24v-988h-24zM762 1319c0 19 15 34 34 34s34 -15 34 -34s-15 -34 -34 -34s-34 15 -34 34z
" />
    <glyph glyph-name="fl" unicode="fl" horiz-adv-x="1000" 
d="M776 0v1336c-12 103 -109 204 -238 204c-158 0 -248 -91 -248 -257v-295h252v-23h-252v-968h-24v968h-216v23h216v295c0 182 103 280 273 280c110 0 198 -65 237 -148v145h24v-1560h-24z" />
    <glyph glyph-name="f_f" unicode="ff" horiz-adv-x="1082" 
d="M50 988h216v293c0 182 104 280 254 280c78 0 160 -16 218 -76l-15 -15c-26 24 -83 68 -203 68c-138 0 -230 -91 -230 -257v-293h470v293c0 182 104 280 254 280c78 0 160 -16 218 -76l-16 -16c-26 24 -82 69 -202 69c-138 0 -230 -91 -230 -257v-293h321v-23h-321v-965
h-24v965h-470v-965h-24v965h-216v23z" />
    <glyph glyph-name="f_f_i" unicode="ffi" horiz-adv-x="1484" 
d="M50 988h220v293c0 182 104 280 254 280c78 0 160 -16 218 -76l-15 -15c-26 24 -83 68 -203 68c-138 0 -230 -91 -230 -257v-293h468v293c0 196 132 280 274 280c130 0 246 -78 268 -236l-22 -4c-22 146 -128 217 -246 217c-126 0 -250 -73 -250 -257v-293h232v-23h-232
v-965h-24v965h-468v-965h-24v965h-220v23zM1304 988v-988h-24v988h24z" />
    <glyph glyph-name="f_j" unicode="fj" horiz-adv-x="992" 
d="M50 988h220v293c0 196 132 280 274 280c130 0 246 -78 268 -236l-21 -4c-22 146 -129 217 -247 217c-126 0 -250 -73 -250 -257v-293h206v-23h-206v-965h-24v965h-220v23zM812 988v-1090c0 -196 -102 -298 -264 -308l-2 23c152 10 242 103 242 285v1090h24z" />
    <glyph glyph-name="f_b" unicode="fb" horiz-adv-x="1869" 
d="M50 988h220v293c0 196 132 280 274 280c173 0 268 -122 268 -281v-542c68 137 224 268 455 268c298 0 512 -225 512 -511c0 -281 -222 -513 -514 -513c-217 0 -391 138 -453 268v-250h-24v1280c0 142 -94 258 -244 258c-126 0 -250 -73 -250 -257v-293h206v-23h-206v-965
h-24v965h-220v23zM1267 983c-218 0 -387 -123 -455 -298v-382c71 -175 244 -298 453 -298c280 0 489 223 489 490c0 274 -203 488 -487 488z" />
    <glyph glyph-name="f_f_l" unicode="ffl" horiz-adv-x="1495" 
d="M760 0v965h-470v-965h-24v965h-216v23h216v295c0 182 104 280 254 280c78 0 160 -16 218 -76l-15 -15c-26 24 -83 68 -203 68c-138 0 -230 -91 -230 -257v-295h470v295c0 182 103 280 273 280c111 0 200 -66 238 -150v147h24v-1560h-24v1316c0 110 -101 224 -239 224
c-158 0 -248 -91 -248 -257v-295h252v-23h-252v-965h-24z" />
    <glyph glyph-name=".notdef" horiz-adv-x="1142" 
d="M114 0v1376h914v-1376h-914zM138 1352v-1328h866v1328h-866z" />
    <glyph glyph-name=".null" horiz-adv-x="1000" 
 />
    <glyph glyph-name=".null" horiz-adv-x="1000" 
 />
    <glyph glyph-name="CR" unicode="&#xd;" horiz-adv-x="400" 
 />
    <glyph glyph-name="space" unicode=" " horiz-adv-x="556" 
 />
    <glyph glyph-name="A" unicode="A" horiz-adv-x="1330" 
d="M15 2l634 1548h24l642 -1546l-22 -10l-146 351h-967l-143 -351zM661 1518l-471 -1150h948z" />
    <glyph glyph-name="B" unicode="B" horiz-adv-x="1280" 
d="M572 1546c284 0 496 -128 496 -394c0 -176 -119 -313 -271 -356c199 -18 333 -142 333 -366c0 -274 -228 -430 -536 -430h-354v1546h332zM732 781h-468v-758h330c296 0 511 149 511 407c0 228 -147 351 -373 351zM572 1523h-308v-719h436c158 0 343 128 343 348
c0 250 -199 371 -471 371z" />
    <glyph glyph-name="C" unicode="C" horiz-adv-x="1498" 
d="M882 -22c-432 0 -782 352 -782 790s350 792 782 792c202 0 388 -78 528 -204l-14 -16c-136 122 -318 197 -514 197c-420 0 -757 -343 -757 -769s337 -767 757 -767c206 0 396 81 532 215l14 -16c-140 -138 -334 -222 -546 -222z" />
    <glyph glyph-name="D" unicode="D" horiz-adv-x="1482" 
d="M240 1546h354c402 0 788 -326 788 -774c0 -424 -342 -772 -780 -772h-362v1546zM594 1523h-330v-1500h338c426 0 755 337 755 749c0 432 -373 751 -763 751z" />
    <glyph glyph-name="E" unicode="E" horiz-adv-x="1182" 
d="M240 1546h816v-22h-792v-730h768v-22h-768v-749h788v-23h-812v1546z" />
    <glyph glyph-name="F" unicode="F" horiz-adv-x="1096" 
d="M240 1546h816v-22h-792v-732h708v-22h-708v-770h-24v1546z" />
    <glyph glyph-name="G" unicode="G" horiz-adv-x="1754" 
d="M1212 746v22h452v-11c0 -432 -352 -779 -782 -779c-432 0 -782 352 -782 790s350 792 782 792c242 0 460 -112 604 -286l-17 -14c-140 168 -351 277 -587 277c-420 0 -757 -343 -757 -769s337 -767 757 -767c414 0 753 331 759 745h-429z" />
    <glyph glyph-name="H" unicode="H" horiz-adv-x="1548" 
d="M264 1546v-758h1020v758h24v-1546h-24v766h-1020v-766h-24v1546h24z" />
    <glyph glyph-name="I" unicode="I" horiz-adv-x="504" 
d="M264 1546v-1546h-24v1546h24z" />
    <glyph glyph-name="J" unicode="J" horiz-adv-x="1035" 
d="M845 1546v-1106c0 -318 -192 -461 -426 -461c-192 0 -355 109 -419 329l22 7c63 -208 213 -314 397 -314c222 0 402 137 402 439v1106h24z" />
    <glyph glyph-name="K" unicode="K" horiz-adv-x="1310" 
d="M240 0v1546h24v-937l854 945l15 -16l-483 -536l600 -1002h-28l-589 983l-369 -409v-574h-24z" />
    <glyph glyph-name="L" unicode="L" horiz-adv-x="1102" 
d="M264 1546v-1523h788v-23h-812v1546h24z" />
    <glyph glyph-name="M" unicode="M" horiz-adv-x="1674" 
d="M240 0v1549h25l570 -1005l574 1005h25v-1549h-24v1505l-565 -990h-20l-561 989v-1504h-24z" />
    <glyph glyph-name="N" unicode="N" horiz-adv-x="1548" 
d="M240 0v1550h25l1019 -1510v1506h24v-1546h-25l-1019 1510v-1510h-24z" />
    <glyph glyph-name="O" unicode="O" horiz-adv-x="1795" 
d="M898 1561c438 0 797 -353 797 -787c0 -441 -359 -796 -797 -796c-441 0 -798 355 -798 796c0 434 357 787 798 787zM125 774c0 -429 344 -773 773 -773c426 0 772 344 772 773c0 422 -346 764 -772 764c-429 0 -773 -342 -773 -764z" />
    <glyph glyph-name="P" unicode="P" horiz-adv-x="1221" 
d="M240 0v1546h474c238 0 432 -224 432 -464c0 -232 -194 -451 -430 -451h-452v-631h-24zM264 1523v-870h452c222 0 405 207 405 429c0 232 -185 441 -407 441h-450z" />
    <glyph glyph-name="Q" unicode="Q" horiz-adv-x="1795" 
d="M898 1561c438 0 797 -353 797 -787c0 -229 -97 -434 -251 -579l188 -187l-15 -15l-188 187c-142 -126 -328 -202 -531 -202c-441 0 -798 355 -798 796c0 434 357 787 798 787zM125 774c0 -429 344 -773 773 -773c197 0 378 74 514 196l-294 293l15 17l295 -296
c149 141 242 340 242 563c0 422 -346 764 -772 764c-429 0 -773 -342 -773 -764z" />
    <glyph glyph-name="R" unicode="R" horiz-adv-x="1259" 
d="M240 0v1546h511c232 0 429 -182 429 -414c0 -240 -201 -417 -435 -417h-145l584 -707l-17 -15l-596 722h-307v-715h-24zM264 1524v-788h482c222 0 409 172 409 396c0 220 -183 392 -403 392h-488z" />
    <glyph glyph-name="S" unicode="S" horiz-adv-x="1176" 
d="M596 2c270 0 435 175 435 374c0 150 -82 298 -300 383l-207 81c-208 84 -316 191 -316 364c0 216 164 357 400 357c164 0 296 -48 393 -156l-14 -15c-103 109 -227 148 -380 148c-224 0 -374 -130 -374 -334c0 -161 99 -262 299 -342l207 -81c229 -90 317 -245 317 -405
c0 -215 -178 -398 -460 -398c-208 0 -402 104 -516 234l20 16c106 -126 296 -226 496 -226z" />
    <glyph glyph-name="T" unicode="T" horiz-adv-x="1212" 
d="M30 1546h1152v-22h-564v-1524h-24v1524h-564v22z" />
    <glyph glyph-name="U" unicode="U" horiz-adv-x="1404" 
d="M1214 1546v-1042c0 -294 -198 -526 -514 -526c-312 0 -510 232 -510 526v1042h24v-1042c0 -282 186 -503 486 -503c304 0 490 221 490 503v1042h24z" />
    <glyph glyph-name="V" unicode="V" horiz-adv-x="1317" 
d="M1307 1542l-632 -1548h-23l-642 1546l23 8l630 -1520l622 1522z" />
    <glyph glyph-name="W" unicode="W" horiz-adv-x="1838" 
d="M38 1548l427 -1499l449 1491h18l431 -1491l438 1499l22 -4l-452 -1544h-19l-429 1491l-449 -1491h-23l-436 1544z" />
    <glyph glyph-name="X" unicode="X" horiz-adv-x="1165" 
d="M1058 -6l-474 764l-484 -763l-20 11l491 774l-473 764l20 12l468 -755l479 756l20 -11l-486 -767l479 -773z" />
    <glyph glyph-name="Y" unicode="Y" horiz-adv-x="1085" 
d="M534 0v615l-519 929l22 12l508 -915l503 916l22 -12l-513 -930v-615h-23z" />
    <glyph glyph-name="Z" unicode="Z" horiz-adv-x="1198" 
d="M1146 0h-1116v20l1105 1503h-1047v23h1080v-20l-1106 -1503h1084v-23z" />
    <glyph glyph-name="a" unicode="a" horiz-adv-x="1204" 
d="M572 1002c206 0 462 -106 462 -346v-656h-24v178c-91 -100 -259 -196 -453 -196c-202 0 -447 90 -447 312c0 164 148 322 458 322c179 0 355 -81 442 -188v228c0 220 -236 323 -438 323c-148 0 -286 -40 -388 -127l-14 18c108 91 250 132 402 132zM557 5
c193 0 370 106 453 206v184c-75 103 -252 198 -442 198c-298 0 -433 -151 -433 -299c0 -213 254 -289 422 -289z" />
    <glyph glyph-name="b" unicode="b" horiz-adv-x="1270" 
d="M190 0v1560h24v-824c69 137 224 266 454 266c298 0 512 -225 512 -511c0 -281 -222 -513 -514 -513c-216 0 -389 137 -452 266v-244h-24zM668 979c-217 0 -385 -122 -454 -295v-387c72 -175 244 -296 452 -296c280 0 489 223 489 490c0 274 -203 488 -487 488z" />
    <glyph glyph-name="c" unicode="c" horiz-adv-x="980" 
d="M592 -22c-280 0 -502 226 -502 512c0 284 222 512 502 512c118 0 224 -40 308 -104l-13 -19c-82 62 -183 100 -295 100c-266 0 -477 -217 -477 -489s211 -489 477 -489c108 0 208 36 286 94l14 -18c-84 -62 -186 -99 -300 -99z" />
    <glyph glyph-name="d" unicode="d" horiz-adv-x="1274" 
d="M1060 0v252c-65 -143 -228 -274 -458 -274c-298 0 -512 225 -512 511c0 281 222 513 514 513c222 0 395 -142 456 -272v830h24v-1560h-24zM602 1c221 0 391 127 458 306v363c-69 178 -245 309 -456 309c-280 0 -489 -223 -489 -490c0 -274 203 -488 487 -488z" />
    <glyph glyph-name="e" unicode="e" horiz-adv-x="1148" 
d="M612 -20c-322 0 -522 234 -522 522c0 269 184 498 488 498c290 0 478 -189 500 -445v-11h-961c-1 -14 -2 -28 -2 -42c0 -273 189 -499 497 -499c166 0 268 35 400 147l16 -18c-134 -114 -242 -152 -416 -152zM578 977c-267 0 -433 -184 -459 -410h933
c-26 238 -204 410 -474 410z" />
    <glyph glyph-name="f" unicode="f" horiz-adv-x="608" 
d="M70 988h216v295c0 182 104 280 254 280c78 0 160 -16 218 -76l-15 -15c-26 24 -83 68 -203 68c-138 0 -230 -91 -230 -257v-295h252v-23h-252v-965h-24v965h-216v23z" />
    <glyph glyph-name="g" unicode="g" horiz-adv-x="1262" 
d="M602 -356c-212 0 -406 66 -538 190l16 16c128 -116 314 -183 522 -183c296 0 456 171 456 405v175c-66 -141 -229 -269 -456 -269c-298 0 -512 225 -512 511c0 281 222 513 514 513c219 0 391 -139 454 -268v254h24v-916c0 -246 -168 -428 -480 -428zM602 1
c219 0 388 124 456 300v374c-71 175 -245 304 -454 304c-280 0 -489 -223 -489 -490c0 -274 203 -488 487 -488z" />
    <glyph glyph-name="h" unicode="h" horiz-adv-x="1220" 
d="M620 1002c218 0 430 -144 430 -404v-598h-24v595c0 240 -188 385 -408 385c-188 0 -331 -127 -394 -236v-744h-24v1560h24v-776c60 101 209 218 396 218z" />
    <glyph glyph-name="i" unicode="i" 
d="M158 1319c0 19 15 34 34 34s34 -15 34 -34s-15 -34 -34 -34s-34 15 -34 34zM180 0v988h24v-988h-24z" />
    <glyph glyph-name="j" unicode="j" 
d="M158 1319c0 19 15 34 34 34s34 -15 34 -34s-15 -34 -34 -34s-34 15 -34 34zM204 988v-1090c0 -196 -102 -298 -264 -308l-2 23c152 10 242 103 242 285v1090h24z" />
    <glyph glyph-name="k" unicode="k" horiz-adv-x="948" 
d="M838 972l-384 -352l444 -612l-20 -16l-442 612l-212 -195v-409h-24v1560h24v-1118l598 549z" />
    <glyph glyph-name="l" unicode="l" horiz-adv-x="424" 
d="M200 0v1560h24v-1560h-24z" />
    <glyph glyph-name="m" unicode="m" horiz-adv-x="2046" 
d="M610 1002c192 0 375 -106 419 -280c39 139 199 280 411 280c215 0 436 -148 436 -404v-598h-24v598c0 240 -207 382 -412 382c-212 0 -400 -156 -400 -350v-630h-24v625c0 226 -188 355 -408 355c-198 0 -347 -141 -404 -254v-726h-24v988h24v-222
c53 104 208 236 406 236z" />
    <glyph glyph-name="n" unicode="n" horiz-adv-x="1210" 
d="M610 1002c218 0 430 -144 430 -404v-598h-24v595c0 240 -188 385 -408 385c-198 0 -347 -141 -404 -254v-726h-24v988h24v-222c53 104 208 236 406 236z" />
    <glyph glyph-name="o" unicode="o" horiz-adv-x="1206" 
d="M604 1002c292 0 512 -226 512 -510c0 -279 -214 -514 -512 -514c-300 0 -514 233 -514 514c0 284 222 510 514 510zM115 492c0 -269 203 -491 489 -491s487 224 487 491c0 272 -209 487 -487 487c-280 0 -489 -215 -489 -487z" />
    <glyph glyph-name="p" unicode="p" horiz-adv-x="1266" 
d="M664 1002c298 0 512 -225 512 -511c0 -281 -222 -513 -514 -513c-209 0 -379 129 -446 255v-633h-24v1388h24v-241c72 133 225 255 448 255zM664 979c-211 0 -376 -116 -448 -282v-414c75 -167 244 -282 446 -282c280 0 489 223 489 490c0 274 -203 488 -487 488z" />
    <glyph glyph-name="q" unicode="q" horiz-adv-x="1272" 
d="M1058 -400v647c-66 -141 -229 -269 -456 -269c-298 0 -512 225 -512 511c0 281 222 513 514 513c219 0 391 -139 454 -268v254h24v-1388h-24zM602 1c219 0 388 124 456 300v374c-71 175 -245 304 -454 304c-280 0 -489 -223 -489 -490c0 -274 203 -488 487 -488z" />
    <glyph glyph-name="r" unicode="r" horiz-adv-x="832" 
d="M464 1002c172 0 293 -126 293 -306h-23c0 164 -112 283 -270 283c-127 0 -223 -84 -260 -203v-776h-24v988h24v-155c41 88 132 169 260 169z" />
    <glyph glyph-name="s" unicode="s" horiz-adv-x="1054" 
d="M556 3c240 0 393 102 393 252c0 134 -103 200 -251 226l-306 52c-171 30 -238 113 -238 224c0 137 132 245 380 245c166 0 284 -58 370 -108l-11 -21c-86 52 -199 107 -359 107c-240 0 -355 -104 -355 -223c0 -122 91 -178 217 -201l306 -52c160 -28 272 -101 272 -249
c0 -164 -164 -275 -418 -275c-184 0 -346 46 -496 134l12 20c146 -84 304 -131 484 -131z" />
    <glyph glyph-name="t" unicode="t" horiz-adv-x="632" 
d="M70 988h232v440h24v-440h236v-23h-236v-965h-24v965h-232v23z" />
    <glyph glyph-name="u" unicode="u" horiz-adv-x="1202" 
d="M596 -22c-216 0 -426 148 -426 414v596h24v-596c0 -252 198 -391 402 -391c162 0 333 91 402 262v725h24v-988h-24v213c-70 -141 -233 -235 -402 -235z" />
    <glyph glyph-name="v" unicode="v" horiz-adv-x="928" 
d="M856 996l22 -8l-408 -992h-20l-400 984l22 8l388 -956z" />
    <glyph glyph-name="w" unicode="w" horiz-adv-x="1556" 
d="M1484 996l22 -8l-354 -992h-22l-346 956l-352 -956h-22l-360 988l22 8l350 -958l350 954h24l344 -954z" />
    <glyph glyph-name="x" unicode="x" horiz-adv-x="918" 
d="M847 -7l-384 489l-393 -490l-20 16l397 494l-378 481l19 15l374 -477l386 481l20 -16l-390 -485l388 -493z" />
    <glyph glyph-name="y" unicode="y" horiz-adv-x="943" 
d="M893 988l-594 -1388l-24 8l176 411l-401 961l23 8l391 -938l407 946z" />
    <glyph glyph-name="z" unicode="z" horiz-adv-x="980" 
d="M900 22v-22h-830l767 966h-745v22h794l-767 -966h781z" />
    <glyph glyph-name="zero" unicode="0" horiz-adv-x="1224" 
d="M1020 401v715c0 242 -176 407 -410 407s-406 -169 -406 -411v-711c0 -244 172 -401 406 -401s410 159 410 401zM610 -23c-246 0 -430 168 -430 424v711c0 258 184 434 430 434c250 0 434 -176 434 -430v-715c0 -254 -188 -424 -434 -424z" />
    <glyph glyph-name="one" unicode="1" horiz-adv-x="686" 
d="M462 0v1528l-390 -224l-12 20l408 234l18 -10v-1548h-24z" />
    <glyph glyph-name="two" unicode="2" horiz-adv-x="1056" 
d="M966 0h-866l-10 20l688 902c60 79 99 178 99 258c0 194 -149 345 -367 345c-190 0 -357 -141 -361 -357h-23c4 228 178 380 384 380c230 0 392 -162 392 -368c0 -88 -40 -190 -104 -274l-676 -883h844v-23z" />
    <glyph glyph-name="three" unicode="3" horiz-adv-x="1030" 
d="M876 1162c0 186 -150 358 -384 358c-181 0 -343 -140 -366 -330l-24 4c23 202 197 350 390 350c246 0 408 -184 408 -382c0 -169 -94 -314 -316 -354c215 -47 336 -195 336 -410c0 -242 -193 -420 -414 -420c-205 0 -363 114 -416 330l24 4c49 -200 195 -310 392 -310
c209 0 390 166 390 396c0 223 -138 371 -382 401c-10 0 -20 -1 -30 -1v24c279 10 392 160 392 340z" />
    <glyph glyph-name="four" unicode="4" horiz-adv-x="982" 
d="M652 0v438h-591l-11 14l575 1101l20 -12l-564 -1081h571v290h24v-290h266v-22h-266v-438h-24z" />
    <glyph glyph-name="five" unicode="5" horiz-adv-x="1141" 
d="M995 1523h-772v-736c72 67 184 139 338 139c274 0 480 -210 480 -474c0 -258 -200 -475 -484 -475c-220 0 -393 130 -457 314l23 9c60 -176 222 -300 434 -300c272 0 459 206 459 452c0 252 -193 451 -455 451c-154 0 -269 -76 -337 -146l-25 13v776h796v-23z" />
    <glyph glyph-name="six" unicode="6" horiz-adv-x="1138" 
d="M588 1537c-218 0 -384 -163 -384 -405l1 -590c59 182 233 282 387 282c232 0 426 -192 426 -422c0 -234 -194 -426 -426 -426s-412 194 -412 428v728c0 254 178 428 408 428c210 0 386 -150 386 -372h-23c0 210 -165 349 -363 349zM592 801c-162 0 -387 -143 -387 -383
v-14c0 -222 167 -405 387 -405s401 181 401 403c0 218 -181 399 -401 399z" />
    <glyph glyph-name="seven" unicode="7" horiz-adv-x="878" 
d="M228 4l602 1520h-790v22h806l12 -16l-606 -1534z" />
    <glyph glyph-name="eight" unicode="8" horiz-adv-x="1072" 
d="M536 1546c200 0 369 -166 369 -368c0 -173 -120 -317 -278 -358c191 -41 336 -210 336 -414c0 -234 -193 -427 -427 -427s-427 193 -427 427c0 204 144 372 335 414c-162 40 -279 185 -279 358c0 202 165 368 371 368zM134 406c0 -222 180 -404 402 -404s402 182 402 404
s-180 402 -402 402s-402 -180 -402 -402zM190 1178c0 -194 152 -347 346 -347c188 0 344 153 344 347c0 190 -156 345 -344 345c-194 0 -346 -155 -346 -345z" />
    <glyph glyph-name="nine" unicode="9" horiz-adv-x="959" 
d="M312 4l443 844c-71 -68 -172 -102 -267 -102c-220 0 -403 169 -403 399c0 254 210 402 404 402c206 0 395 -164 395 -392c0 -86 -22 -152 -53 -212l-499 -951zM488 769c146 0 274 93 318 176l5 10c26 50 48 127 48 200c0 216 -176 369 -370 369
c-182 0 -379 -141 -379 -379c0 -218 176 -376 378 -376z" />
    <glyph glyph-name="onesuperior" unicode="&#xb9;" horiz-adv-x="460" 
d="M296 772v761l-266 -150l-10 20l300 170v-801h-24z" />
    <glyph glyph-name="twosuperior" unicode="&#xb2;" horiz-adv-x="702" 
d="M60 770l418 374c44 38 92 110 92 174c0 120 -84 222 -238 222c-124 0 -234 -100 -234 -236h-24c0 150 120 260 258 260c166 0 262 -114 262 -246c0 -74 -52 -152 -100 -192l-372 -332h520v-24h-582z" />
    <glyph glyph-name="threesuperior" unicode="&#xb3;" horiz-adv-x="698" 
d="M334 764c-142 0 -254 104 -254 216v24h24v-24c0 -96 98 -192 230 -192s230 90 230 192c0 88 -80 166 -192 180c-12 2 -24 2 -38 2c0 2 -2 24 0 24c14 0 26 2 40 4c100 16 174 98 174 182c0 94 -94 176 -214 176s-214 -84 -214 -180v-26h-24v26c0 114 108 204 238 204
s238 -90 238 -200c0 -86 -66 -166 -156 -196c102 -28 172 -104 172 -196c0 -118 -112 -216 -254 -216z" />
    <glyph glyph-name="onehalf" unicode="&#xbd;" horiz-adv-x="1751" 
d="M141 5l1212 1547l19 -14l-1212 -1547zM396 772v761l-266 -150l-10 20l300 170v-801h-24zM1019 -10l418 374c44 38 92 110 92 174c0 120 -84 222 -238 222c-124 0 -234 -100 -234 -236h-24c0 150 120 260 258 260c166 0 262 -114 262 -246c0 -74 -52 -152 -100 -192
l-372 -332h520v-24h-582z" />
    <glyph glyph-name="onequarter" unicode="&#xbc;" horiz-adv-x="1600" 
d="M141 5l1212 1547l19 -14l-1212 -1547zM912 200l352 620l22 -12l-332 -584h364v226h24v-226h118v-24h-118v-193h-24v193h-406zM396 772v761l-266 -150l-10 20l300 170v-801h-24z" />
    <glyph glyph-name="threequarters" unicode="&#xbe;" horiz-adv-x="1801" 
d="M394 764c-142 0 -254 104 -254 216v24h24v-24c0 -96 98 -192 230 -192s230 90 230 192c0 88 -80 166 -192 180c-12 2 -24 2 -38 2c0 2 -2 24 0 24c14 0 26 2 40 4c100 16 174 98 174 182c0 94 -94 176 -214 176s-214 -84 -214 -180v-26h-24v26c0 114 108 204 238 204
s238 -90 238 -200c0 -86 -66 -166 -156 -196c102 -28 172 -104 172 -196c0 -118 -112 -216 -254 -216zM342 5l1212 1547l19 -14l-1212 -1547zM1113 200l352 620l22 -12l-332 -584h364v226h24v-226h118v-24h-118v-193h-24v193h-406z" />
    <glyph glyph-name="comma" unicode="," horiz-adv-x="330" 
d="M31 -328l-23 8l164 390l39 -15z" />
    <glyph glyph-name="hyphen" unicode="-" horiz-adv-x="680" 
d="M100 530h480v-23h-480v23z" />
    <glyph glyph-name="hyphen" unicode="&#xad;" horiz-adv-x="680" 
d="M100 530h480v-23h-480v23z" />
    <glyph glyph-name="period" unicode="." horiz-adv-x="366" 
d="M150 26c0 18 16 32 34 32s32 -14 32 -32s-14 -34 -32 -34s-34 16 -34 34z" />
    <glyph glyph-name="slash" unicode="/" horiz-adv-x="734" 
d="M20 -228l670 1788l24 -8l-670 -1788z" />
    <glyph glyph-name="parenleft" unicode="(" horiz-adv-x="558" 
d="M155 672c0 -376 155 -750 383 -1012l-20 -16c-228 266 -388 644 -388 1028c0 346 150 758 382 1018l16 -16c-224 -256 -373 -660 -373 -1002z" />
    <glyph glyph-name="parenright" unicode=")" horiz-adv-x="558" 
d="M428 672c0 -384 -160 -762 -388 -1028l-20 16c228 262 383 636 383 1012c0 342 -149 746 -373 1002l16 16c232 -260 382 -672 382 -1018z" />
    <glyph glyph-name="braceleft" unicode="{" horiz-adv-x="624" 
d="M524 1721h-90c-74 0 -124 -43 -124 -169v-708c0 -60 -26 -92 -68 -106c44 -18 68 -50 68 -108v-708c0 -116 40 -171 124 -171h90v-23h-90c-60 0 -148 24 -148 194v708c0 58 -24 94 -126 96v24c82 0 126 20 126 94v708c0 138 60 192 148 192h90v-23z" />
    <glyph glyph-name="braceright" unicode="}" horiz-adv-x="624" 
d="M100 -249h90c84 0 124 55 124 171v710c0 60 26 92 66 108c-40 16 -66 48 -66 108v704c0 126 -50 169 -124 169h-90v23h90c88 0 148 -54 148 -192v-704c0 -76 44 -96 126 -96v-24c-82 0 -126 -20 -126 -96v-710c0 -170 -88 -194 -148 -194h-90v23z" />
    <glyph glyph-name="exclam" unicode="!" horiz-adv-x="450" 
d="M224 320l-16 1226h44l-16 -1226h-12zM196 25c0 18 15 33 33 33s33 -15 33 -33s-15 -33 -33 -33s-33 15 -33 33z" />
    <glyph glyph-name="exclamdown" unicode="&#xa1;" horiz-adv-x="460" 
d="M212 -316l16 1036h12l16 -1036h-44zM200 1015c0 18 15 33 33 33s33 -15 33 -33s-15 -33 -33 -33s-33 15 -33 33z" />
    <glyph glyph-name="question" unicode="?" horiz-adv-x="1040" 
d="M549 1532c252 0 406 -172 406 -395c0 -118 -83 -255 -219 -343l-118 -76c-107 -69 -128 -148 -128 -352h-24c0 210 25 298 140 372l118 76c132 86 206 217 206 323c0 209 -142 372 -381 372c-250 0 -401 -169 -417 -407h-24c16 256 181 430 441 430zM436 26
c0 18 16 32 34 32s32 -14 32 -32s-14 -34 -32 -34s-34 16 -34 34z" />
    <glyph glyph-name="questiondown" unicode="&#xbf;" horiz-adv-x="1040" 
d="M504 -374c-252 0 -406 172 -406 395c0 118 83 255 219 343l118 76c100 78 128 148 128 352h24c0 -210 -32 -288 -140 -372l-118 -76c-132 -86 -206 -217 -206 -323c0 -209 142 -372 381 -372c250 0 401 169 417 407h24c-16 -256 -181 -430 -441 -430zM543 1015
c0 18 15 33 33 33s33 -15 33 -33s-15 -33 -33 -33s-33 15 -33 33z" />
    <glyph glyph-name="emdash" unicode="&#x2014;" horiz-adv-x="1890" 
d="M0 636h1890v-23h-1890v23z" />
    <glyph glyph-name="endash" unicode="&#x2013;" horiz-adv-x="1200" 
d="M100 636h1000v-23h-1000v23z" />
    <glyph glyph-name="ampersand" unicode="&#x26;" horiz-adv-x="1266" 
d="M1231 -46l-276 314l-12 -21c-148 -215 -275 -255 -413 -255c-239 0 -410 191 -410 396c0 170 97 318 346 437l-74 85c-109 116 -148 218 -148 308c0 194 151 336 337 336c205 0 331 -161 331 -308c0 -165 -94 -308 -334 -398c-26 -10 -51 -21 -75 -32l446 -509
c63 130 95 296 115 449l22 -4c-21 -158 -55 -330 -121 -463l281 -320zM924 260l15 27l-457 520c-240 -115 -337 -255 -337 -419c0 -193 167 -373 385 -373c132 0 253 42 394 245zM268 1218c0 -84 32 -178 140 -292l80 -92c25 12 51 23 80 34c229 85 319 219 319 378
c0 129 -110 285 -306 285c-174 0 -313 -133 -313 -313z" />
    <glyph glyph-name="dollar" unicode="$" horiz-adv-x="1078" 
d="M574 1546v-226c134 -4 230 -44 316 -135l-15 -14c-89 86 -173 122 -301 126v-592l91 -35c197 -77 273 -213 273 -351c0 -176 -140 -327 -364 -340v-195h-24v194h-7c-179 0 -345 90 -443 201l19 15c91 -108 253 -193 424 -193h7v690l-68 27c-180 70 -272 159 -272 304
c0 179 140 296 340 298v226h24zM659 648l-85 33v-679c211 13 339 156 339 317c0 129 -68 255 -254 329zM235 1022c0 -134 81 -216 253 -283l62 -24v582c-189 -2 -315 -108 -315 -275z" />
    <glyph glyph-name="percent" unicode="%" horiz-adv-x="1963" 
d="M200 1173c0 24 2 56 2 56c2 186 143 327 327 327c187 0 327 -145 329 -328c0 0 2 -31 2 -54c0 -25 -2 -54 -2 -54c-2 -188 -144 -328 -329 -328c-186 0 -325 142 -327 327c0 3 -2 31 -2 54zM224 1173c0 -24 2 -52 2 -54c1 -172 131 -304 303 -304c174 0 303 133 305 305
c0 2 2 29 2 54c0 23 -2 53 -2 53c-2 171 -132 306 -305 306c-172 0 -301 -135 -303 -304c0 -2 -2 -32 -2 -56zM1103 371c0 24 2 56 2 56c2 186 143 327 327 327c187 0 327 -145 329 -328c0 0 2 -31 2 -54c0 -25 -2 -54 -2 -54c-2 -188 -144 -328 -329 -328
c-186 0 -325 142 -327 327c0 3 -2 31 -2 54zM1127 371c0 -24 2 -52 2 -54c1 -172 131 -304 303 -304c174 0 303 133 305 305c0 2 2 29 2 54c0 23 -2 53 -2 53c-2 171 -132 306 -305 306c-172 0 -301 -135 -303 -304c0 -2 -2 -32 -2 -56zM374 5l1212 1547l19 -14l-1212 -1547
z" />
    <glyph glyph-name="perthousand" unicode="&#x2030;" horiz-adv-x="2732" 
d="M200 1173c0 24 2 56 2 56c2 186 143 327 327 327c187 0 327 -145 329 -328c0 0 2 -31 2 -54c0 -25 -2 -54 -2 -54c-2 -188 -144 -328 -329 -328c-186 0 -325 142 -327 327c0 3 -2 31 -2 54zM224 1173c0 -24 2 -52 2 -54c1 -172 131 -304 303 -304c174 0 303 133 305 305
c0 2 2 29 2 54c0 23 -2 53 -2 53c-2 171 -132 306 -305 306c-172 0 -301 -135 -303 -304c0 -2 -2 -32 -2 -56zM1103 371c0 24 2 56 2 56c2 186 143 327 327 327c187 0 327 -145 329 -328c0 0 2 -31 2 -54c0 -25 -2 -54 -2 -54c-2 -188 -144 -328 -329 -328
c-186 0 -325 142 -327 327c0 3 -2 31 -2 54zM1127 371c0 -24 2 -52 2 -54c1 -172 131 -304 303 -304c174 0 303 133 305 305c0 2 2 29 2 54c0 23 -2 53 -2 53c-2 171 -132 306 -305 306c-172 0 -301 -135 -303 -304c0 -2 -2 -32 -2 -56zM374 5l1212 1547l19 -14l-1212 -1547
zM1872 371c0 24 2 56 2 56c2 186 143 327 327 327c187 0 327 -145 329 -328c0 0 2 -31 2 -54c0 -25 -2 -54 -2 -54c-2 -188 -144 -328 -329 -328c-186 0 -325 142 -327 327c0 3 -2 31 -2 54zM1896 371c0 -24 2 -52 2 -54c1 -172 131 -304 303 -304c174 0 303 133 305 305
c0 2 2 29 2 54c0 23 -2 53 -2 53c-2 171 -132 306 -305 306c-172 0 -301 -135 -303 -304c0 -2 -2 -32 -2 -56z" />
    <glyph glyph-name="plus" unicode="+" horiz-adv-x="1200" 
d="M612 1214v-494h494v-22h-494v-496h-24v496h-494v22h494v494h24z" />
    <glyph glyph-name="plusminus" unicode="&#xb1;" horiz-adv-x="1200" 
d="M612 1008v-442h494v-22h-494v-457h-24v457h-494v22h494v442h24zM94 36h1012v-22h-1012v22z" />
    <glyph glyph-name="minus" unicode="&#x2212;" horiz-adv-x="1112" 
d="M100 720h912v-22h-912v22z" />
    <glyph glyph-name="divide" unicode="&#xf7;" horiz-adv-x="1102" 
d="M518 307c0 18 16 32 34 32s32 -14 32 -32s-14 -34 -32 -34s-34 16 -34 34zM95 720h912v-22h-912v22zM518 1113c0 18 16 32 34 32s32 -14 32 -32s-14 -34 -32 -34s-34 16 -34 34z" />
    <glyph glyph-name="multiply" unicode="&#xd7;" horiz-adv-x="1202" 
d="M1024 184l-423 451l-429 -451l-16 16l429 452l-435 464l18 16l433 -464l433 456l18 -16l-435 -457l423 -451z" />
    <glyph glyph-name="bracketleft" unicode="[" horiz-adv-x="644" 
d="M574 1537h-350v-1813h350v-23h-374v1859h374v-23z" />
    <glyph glyph-name="backslash" unicode="\" horiz-adv-x="748" 
d="M44 1560l670 -1788l-24 -8l-670 1788z" />
    <glyph glyph-name="bracketright" unicode="]" horiz-adv-x="644" 
d="M70 -276h350v1813h-350v23h374v-1859h-374v23z" />
    <glyph glyph-name="less" unicode="&#x3c;" horiz-adv-x="933" 
d="M833 266l-8 -24l-745 302v16l745 302l8 -24l-709 -286z" />
    <glyph glyph-name="equal" unicode="=" horiz-adv-x="1126" 
d="M130 923h866v-23h-866v23zM130 567h866v-24h-866v24z" />
    <glyph glyph-name="notequal" unicode="&#x2260;" horiz-adv-x="1126" 
d="M130 923h490l152 405l24 -8l-149 -397h349v-23h-357l-125 -333h482v-24h-491l-155 -414l-24 8l152 406h-348v24h357l124 333h-481v23z" />
    <glyph glyph-name="greater" unicode="&#x3e;" horiz-adv-x="933" 
d="M108 242l-8 24l709 286l-709 286l8 24l745 -302v-16z" />
    <glyph glyph-name="fraction" unicode="&#x2044;" horiz-adv-x="564" 
d="M-240 -60l1024 1666l20 -12l-1024 -1666z" />
    <glyph glyph-name="fraction" unicode="&#x2215;" horiz-adv-x="564" 
d="M-240 -60l1024 1666l20 -12l-1024 -1666z" />
    <glyph glyph-name="degree" unicode="&#xb0;" horiz-adv-x="492" 
d="M247 1411c94 0 165 -72 165 -162c0 -89 -69 -163 -165 -163c-98 0 -167 74 -167 163c0 90 72 162 167 162zM104 1249c0 -77 60 -140 143 -140s141 65 141 140c0 76 -60 138 -141 138s-143 -62 -143 -138z" />
    <glyph glyph-name="quotedbl" unicode="&#x22;" horiz-adv-x="480" 
d="M126 1074l-4 486h32l-6 -486h-22zM330 1074l-4 486h32l-6 -486h-22z" />
    <glyph glyph-name="numbersign" unicode="#" horiz-adv-x="1260" 
d="M694 2l76 379h-395l-77 -383l-24 4l76 379h-310v23h314l98 489h-322v23h327l79 392l24 -4l-78 -388h395l79 392l24 -4l-78 -388h318v-23h-323l-98 -489h331v-23h-335l-77 -383zM477 893l-98 -489h395l98 489h-395z" />
    <glyph glyph-name="quotesingle" unicode="'" horiz-adv-x="276" 
d="M126 1074l-4 486h32l-6 -486h-22z" />
    <glyph glyph-name="bullet" unicode="&#x2022;" horiz-adv-x="373" 
d="M110 503c0 42 34 77 76 77s77 -35 77 -77s-35 -76 -77 -76s-76 34 -76 76z" />
    <glyph glyph-name="dagger" unicode="&#x2020;" horiz-adv-x="676" 
d="M327 -360v1319h-233v23h233v564h24v-564h232v-23h-232v-1319h-24z" />
    <glyph glyph-name="daggerdbl" unicode="&#x2021;" horiz-adv-x="676" 
d="M94 982h233v564h24v-564h232v-23h-232v-719h232v-23h-232v-577h-24v577h-233v23h233v719h-233v23z" />
    <glyph glyph-name="infinity" unicode="&#x221e;" horiz-adv-x="1632" 
d="M1184 456c175 0 323 142 323 320c0 179 -152 323 -320 323c-184 0 -303 -137 -362 -323c58 -182 178 -320 359 -320zM447 1099c-177 0 -322 -146 -322 -323c0 -173 149 -320 322 -320c178 0 292 137 351 320c-59 186 -173 323 -351 323zM811 747
c-54 -170 -176 -314 -364 -314c-189 0 -347 155 -347 343c0 192 155 346 347 346c188 0 310 -143 364 -314c58 171 183 314 376 314c184 0 345 -152 345 -346c0 -193 -157 -343 -348 -343c-193 0 -315 144 -373 314z" />
    <glyph glyph-name="ellipsis" unicode="&#x2026;" horiz-adv-x="1348" 
d="M200 26c0 18 16 32 34 32s32 -14 32 -32s-14 -34 -32 -34s-34 16 -34 34zM641 26c0 18 16 32 34 32s32 -14 32 -32s-14 -34 -32 -34s-34 16 -34 34zM1082 26c0 18 16 32 34 32s32 -14 32 -32s-14 -34 -32 -34s-34 16 -34 34z" />
    <glyph glyph-name="underscore" unicode="_" horiz-adv-x="976" 
d="M90 -123h796v-23h-796v23z" />
    <glyph glyph-name="asterisk" unicode="*" horiz-adv-x="996" 
d="M486 1228v350h24v-350h-24zM434 1172l-334 108l8 24l332 -108zM546 1124l206 -284l-18 -14l-206 282zM464 1110l-204 -284l-20 14l206 284zM556 1198l334 108l6 -22l-332 -108z" />
    <glyph glyph-name="semicolon" unicode=";" horiz-adv-x="440" 
d="M175 833c0 18 16 32 34 32s32 -14 32 -32s-14 -34 -32 -34s-34 16 -34 34zM51 -328l-23 8l164 390l39 -15z" />
    <glyph glyph-name="colon" unicode=":" horiz-adv-x="446" 
d="M180 833c0 18 16 32 34 32s32 -14 32 -32s-14 -34 -32 -34s-34 16 -34 34zM180 26c0 18 16 32 34 32s32 -14 32 -32s-14 -34 -32 -34s-34 16 -34 34z" />
    <glyph glyph-name="quoteleft" unicode="&#x2018;" horiz-adv-x="374" 
d="M120 1223l-40 16l170 357l24 -9z" />
    <glyph glyph-name="quoteright" unicode="&#x2019;" horiz-adv-x="373" 
d="M254 1596l39 -16l-170 -357l-23 9z" />
    <glyph glyph-name="quotedblleft" unicode="&#x201c;" horiz-adv-x="594" 
d="M120 1223l-40 16l170 357l24 -9zM340 1223l-40 16l170 357l24 -9z" />
    <glyph glyph-name="quotedblright" unicode="&#x201d;" horiz-adv-x="593" 
d="M254 1596l39 -16l-170 -357l-23 9zM474 1596l39 -16l-170 -357l-23 9z" />
    <glyph glyph-name="quotedblbase" unicode="&#x201e;" horiz-adv-x="539" 
d="M400 70l39 -15l-180 -383l-23 8zM172 70l39 -15l-180 -383l-23 8z" />
    <glyph glyph-name="quotesinglbase" unicode="&#x201a;" horiz-adv-x="311" 
d="M172 70l39 -15l-180 -383l-23 8z" />
    <glyph glyph-name="apostrophe" unicode="&#x2bc;" horiz-adv-x="251" 
d="M80 1156l32 426h39l-51 -429z" />
    <glyph glyph-name="guilsinglleft" unicode="&#x2039;" horiz-adv-x="455" 
d="M113 595l242 -396l-20 -12l-250 408l250 408l20 -12z" />
    <glyph glyph-name="guillemotleft" unicode="&#xab;" horiz-adv-x="726" 
d="M384 595l242 -396l-20 -12l-250 408l250 408l20 -12zM113 595l242 -396l-20 -12l-250 408l250 408l20 -12z" />
    <glyph glyph-name="guilsinglright" unicode="&#x203a;" horiz-adv-x="455" 
d="M100 199l242 396l-242 396l20 12l250 -408l-250 -408z" />
    <glyph glyph-name="guillemotright" unicode="&#xbb;" horiz-adv-x="750" 
d="M395 199l242 396l-242 396l20 12l250 -408l-250 -408zM100 199l242 396l-242 396l20 12l250 -408l-250 -408z" />
    <glyph glyph-name="at" unicode="@" horiz-adv-x="2066" 
d="M1346 332v41c-56 -112 -172 -199 -344 -199c-228 0 -394 168 -394 384c0 210 172 386 394 386c169 0 295 -106 344 -194v208h24v-620c0 -124 90 -176 176 -176c216 0 326 228 326 452c0 418 -370 774 -840 774c-466 0 -838 -374 -838 -838s372 -838 838 -838
c158 0 308 44 434 120l12 -20c-130 -78 -284 -124 -446 -124c-480 0 -862 384 -862 862s382 862 862 862c482 0 864 -364 864 -798c0 -228 -112 -476 -350 -476c-90 0 -200 56 -200 194zM1002 198c163 0 291 92 344 226v265c-51 133 -183 231 -344 231
c-208 0 -370 -164 -370 -362c0 -202 154 -360 370 -360z" />
    <glyph glyph-name="registered" unicode="&#xae;" horiz-adv-x="1214" 
d="M606 554c-278 0 -506 228 -506 506c0 277 228 504 506 504c279 0 508 -227 508 -504c0 -279 -229 -506 -508 -506zM606 578c266 0 484 217 484 482c0 264 -218 480 -484 480c-265 0 -482 -216 -482 -480c0 -266 217 -482 482 -482zM818 726l-241 278h-131v-270h-24v636
h222c104 0 190 -85 190 -190c0 -96 -87 -176 -194 -176h-34l230 -262zM446 1346v-318h194c93 0 170 69 170 152c0 93 -75 166 -166 166h-198z" />
    <glyph glyph-name="trademark" unicode="&#x2122;" horiz-adv-x="1576" 
d="M806 816v764l322 -472l328 476v-766h-24v690l-304 -442l-298 436v-686h-24zM40 1522v24h616v-24h-296v-706h-24v706h-296z" />
    <glyph glyph-name="copyright" unicode="&#xa9;" horiz-adv-x="1874" 
d="M1276 460l16 -18c-86 -84 -206 -136 -336 -136c-268 0 -482 214 -482 480s214 482 482 482c124 0 238 -48 324 -126l-16 -18c-82 74 -190 120 -308 120c-254 0 -458 -204 -458 -458c0 -252 204 -456 458 -456c124 0 236 50 320 130zM936 -24c-448 0 -806 358 -806 806
c0 446 358 804 806 804c446 0 808 -358 808 -804c0 -448 -362 -806 -808 -806zM936 0c432 0 784 348 784 782c0 432 -352 780 -784 780c-434 0 -782 -348 -782 -780c0 -434 348 -782 782 -782z" />
    <glyph glyph-name="Euro" unicode="&#x20ac;" horiz-adv-x="1478" 
d="M1412 218l16 -18c-140 -138 -334 -222 -546 -222c-432 0 -782 348 -782 780s350 782 782 782c202 0 388 -78 528 -204l-16 -18c-136 122 -316 198 -512 198c-371 0 -677 -264 -744 -614h960v-24h-965c-6 -39 -9 -79 -9 -120c0 -27 1 -54 4 -80h946v-24h-943
c50 -370 366 -652 751 -652c206 0 394 82 530 216z" />
    <glyph glyph-name="cent" unicode="&#xa2;" horiz-adv-x="980" 
d="M583 1161v-179h9c118 0 224 -40 308 -104l-13 -19c-82 62 -183 100 -295 100h-9v-958h9c108 0 208 36 286 94l14 -18c-84 -62 -186 -99 -300 -99h-9v-193h-24v194c-264 17 -469 232 -469 501c0 267 205 484 469 501v180h24zM115 480c0 -255 193 -462 444 -478v956
c-251 -17 -444 -223 -444 -478z" />
    <glyph glyph-name="yen" unicode="&#xa5;" horiz-adv-x="1085" 
d="M124 396h410v219l-2 3h-408v23h395l-504 903l22 12l508 -915l503 916l22 -12l-499 -904h396v-23h-409l-1 -3v-219h410v-24h-410v-372h-23v372h-410v24z" />
    <glyph glyph-name="sterling" unicode="&#xa3;" horiz-adv-x="1088" 
d="M958 1228h-24c0 164 -136 288 -310 288c-168 0 -292 -118 -292 -290c0 -116 38 -171 78 -266l72 -171h396v-23h-386l42 -100c26 -62 42 -128 42 -200c0 -210 -144 -375 -303 -442h627v-24h-800v24h101c175 46 350 216 350 442c0 63 -12 128 -39 190l-47 110h-311v23h302
l-68 161c-39 93 -80 154 -80 276c0 184 136 314 316 314c186 0 334 -134 334 -312z" />
    <glyph glyph-name="florin" unicode="&#x192;" horiz-adv-x="924" 
d="M244 988h224l62 290c38 178 160 276 310 276c122 0 176 -44 204 -76l-18 -16c-22 26 -70 69 -186 69c-138 0 -252 -91 -288 -259l-61 -284h245v-23h-250l-222 -1050c-38 -178 -160 -276 -310 -276c-122 0 -176 44 -204 76l18 16c22 -26 70 -69 186 -69
c138 0 253 91 288 259l221 1044h-219v23z" />
    <glyph glyph-name="paragraph" unicode="&#xb6;" horiz-adv-x="834" 
d="M714 1537h-90v-1537h-24v1537h-155v-1537h-24v976h-39c-162 0 -292 130 -292 292s130 292 296 292h328v-23z" />
    <glyph glyph-name="section" unicode="&#xa7;" horiz-adv-x="892" 
d="M468 276c-32 0 -63 6 -94 15l104 -45c142 -62 242 -162 242 -296c0 -168 -132 -280 -298 -280c-128 0 -226 36 -282 124l20 12c52 -80 142 -113 262 -113c154 0 273 103 273 257c0 120 -87 214 -227 274l-146 64c-163 72 -222 184 -222 306c0 168 126 326 326 326
c28 0 56 -4 83 -12l-93 42c-144 64 -244 164 -244 298c0 168 132 280 300 280c128 0 224 -38 280 -124l-20 -12c-52 78 -142 113 -260 113c-154 0 -275 -103 -275 -257c0 -120 89 -214 229 -276l144 -64c162 -72 222 -182 222 -304c0 -168 -126 -328 -324 -328zM426 897
c-186 0 -301 -147 -301 -303c0 -60 15 -116 51 -166c61 -79 175 -129 292 -129c184 0 299 149 299 305c0 57 -13 110 -46 158c-59 83 -180 135 -295 135z" />
    <glyph glyph-name="bar" unicode="|" horiz-adv-x="464" 
d="M244 1546v-1906h-24v1906h24z" />
    <glyph glyph-name="brokenbar" unicode="&#xa6;" horiz-adv-x="464" 
d="M244 1546v-768h-24v768h24zM244 409v-768h-24v768h24z" />
    <glyph glyph-name="Aacute" unicode="&#xc1;" horiz-adv-x="1330" 
d="M15 2l634 1548h24l642 -1546l-22 -10l-146 351h-967l-143 -351zM661 1518l-471 -1150h948zM905 1938l16 -23l-317 -237l-11 16z" />
    <glyph glyph-name="aacute" unicode="&#xe1;" horiz-adv-x="1214" 
d="M572 1002c206 0 462 -106 462 -346v-656h-24v178c-91 -100 -259 -196 -453 -196c-202 0 -447 90 -447 312c0 164 148 322 458 322c179 0 355 -81 442 -188v228c0 220 -236 323 -438 323c-148 0 -286 -40 -388 -127l-14 18c108 91 250 132 402 132zM557 5
c193 0 370 106 453 206v184c-75 103 -252 198 -442 198c-298 0 -433 -151 -433 -299c0 -213 254 -289 422 -289zM815 1400l16 -22l-314 -243l-11 17z" />
    <glyph glyph-name="Acircumflex" unicode="&#xc2;" horiz-adv-x="1330" 
d="M15 2l634 1548h24l642 -1546l-22 -10l-146 351h-967l-143 -351zM661 1518l-471 -1150h948zM387 1651l-13 16l280 246h17l280 -247l-13 -16l-276 239z" />
    <glyph glyph-name="acircumflex" unicode="&#xe2;" horiz-adv-x="1214" 
d="M572 1002c206 0 462 -106 462 -346v-656h-24v178c-91 -100 -259 -196 -453 -196c-202 0 -447 90 -447 312c0 164 148 322 458 322c179 0 355 -81 442 -188v228c0 220 -236 323 -438 323c-148 0 -286 -40 -388 -127l-14 18c108 91 250 132 402 132zM557 5
c193 0 370 106 453 206v184c-75 103 -252 198 -442 198c-298 0 -433 -151 -433 -299c0 -213 254 -289 422 -289zM819 1106l-16 -14l-230 280l-232 -280l-15 14l247 301z" />
    <glyph glyph-name="Adieresis" unicode="&#xc4;" horiz-adv-x="1330" 
d="M15 2l634 1548h24l642 -1546l-22 -10l-146 351h-967l-143 -351zM661 1518l-471 -1150h948zM851 1790c0 18 16 32 34 32s32 -14 32 -32s-14 -34 -32 -34s-34 16 -34 34zM411 1790c0 18 16 32 34 32s32 -14 32 -32s-14 -34 -32 -34s-34 16 -34 34z" />
    <glyph glyph-name="adieresis" unicode="&#xe4;" horiz-adv-x="1214" 
d="M572 1002c206 0 462 -106 462 -346v-656h-24v178c-91 -100 -259 -196 -453 -196c-202 0 -447 90 -447 312c0 164 148 322 458 322c179 0 355 -81 442 -188v228c0 220 -236 323 -438 323c-148 0 -286 -40 -388 -127l-14 18c108 91 250 132 402 132zM557 5
c193 0 370 106 453 206v184c-75 103 -252 198 -442 198c-298 0 -433 -151 -433 -299c0 -213 254 -289 422 -289zM357 1236c-18 0 -34 16 -34 34s16 32 34 32s32 -14 32 -32s-14 -34 -32 -34zM797 1236c-18 0 -34 16 -34 34s16 32 34 32s32 -14 32 -32s-14 -34 -32 -34z" />
    <glyph glyph-name="Agrave" unicode="&#xc0;" horiz-adv-x="1330" 
d="M15 2l634 1548h24l642 -1546l-22 -10l-146 351h-967l-143 -351zM661 1518l-471 -1150h948zM408 1933l17 21l313 -241l-11 -17z" />
    <glyph glyph-name="agrave" unicode="&#xe0;" horiz-adv-x="1214" 
d="M572 1002c206 0 462 -106 462 -346v-656h-24v178c-91 -100 -259 -196 -453 -196c-202 0 -447 90 -447 312c0 164 148 322 458 322c179 0 355 -81 442 -188v228c0 220 -236 323 -438 323c-148 0 -286 -40 -388 -127l-14 18c108 91 250 132 402 132zM557 5
c193 0 370 106 453 206v184c-75 103 -252 198 -442 198c-298 0 -433 -151 -433 -299c0 -213 254 -289 422 -289zM432 1375l17 21l313 -241l-11 -17z" />
    <glyph glyph-name="Atilde" unicode="&#xc3;" horiz-adv-x="1330" 
d="M15 2l634 1548h24l642 -1546l-22 -10l-146 351h-967l-143 -351zM661 1518l-471 -1150h948zM803 1774c62 0 107 26 139 82l21 -13c-46 -80 -114 -92 -158 -92c-108 0 -190 96 -286 96c-62 0 -108 -31 -136 -81l-20 14c42 76 112 90 156 90c108 0 188 -94 284 -96z" />
    <glyph glyph-name="atilde" unicode="&#xe3;" horiz-adv-x="1214" 
d="M572 1002c206 0 462 -106 462 -346v-656h-24v178c-91 -100 -259 -196 -453 -196c-202 0 -447 90 -447 312c0 164 148 322 458 322c179 0 355 -81 442 -188v228c0 220 -236 323 -438 323c-148 0 -286 -40 -388 -127l-14 18c108 91 250 132 402 132zM557 5
c193 0 370 106 453 206v184c-75 103 -252 198 -442 198c-298 0 -433 -151 -433 -299c0 -213 254 -289 422 -289zM716 1216c62 0 107 26 139 82l21 -13c-46 -80 -114 -92 -158 -92c-108 0 -190 96 -286 96c-62 0 -108 -31 -136 -81l-20 14c42 76 112 90 156 90
c108 0 188 -94 284 -96z" />
    <glyph glyph-name="Aring" unicode="&#xc5;" horiz-adv-x="1330" 
d="M15 2l634 1548h24l642 -1546l-22 -10l-146 351h-967l-143 -351zM661 1518l-471 -1150h948zM663 1644c-98 0 -165 74 -165 163c0 90 70 162 165 162c94 0 165 -72 165 -162c0 -89 -69 -163 -165 -163zM663 1666c83 0 142 66 142 141c0 76 -61 140 -142 140
s-142 -64 -142 -140c0 -77 59 -141 142 -141z" />
    <glyph glyph-name="aring" unicode="&#xe5;" horiz-adv-x="1214" 
d="M572 1002c206 0 462 -106 462 -346v-656h-24v178c-91 -100 -259 -196 -453 -196c-202 0 -447 90 -447 312c0 164 148 322 458 322c179 0 355 -81 442 -188v228c0 220 -236 323 -438 323c-148 0 -286 -40 -388 -127l-14 18c108 91 250 132 402 132zM557 5
c193 0 370 106 453 206v184c-75 103 -252 198 -442 198c-298 0 -433 -151 -433 -299c0 -213 254 -289 422 -289zM570 1116c-98 0 -165 74 -165 163c0 90 70 162 165 162c94 0 165 -72 165 -162c0 -89 -69 -163 -165 -163zM570 1138c83 0 142 66 142 141
c0 76 -61 140 -142 140s-142 -64 -142 -140c0 -77 59 -141 142 -141z" />
    <glyph glyph-name="AE" unicode="&#xc6;" horiz-adv-x="1731" 
d="M1605 1524h-790v-774h768v-22h-768v-705h788v-23h-812v728h-397l-363 -732l-21 13l763 1537h832v-22zM789 1524l-384 -774h386v774h-2z" />
    <glyph glyph-name="ae" unicode="&#xe6;" horiz-adv-x="2060" 
d="M1524 -20c-220 0 -384 109 -465 270c-89 -165 -302 -268 -497 -268c-202 0 -452 90 -452 312c0 164 148 322 458 322c176 0 349 -79 438 -183c-3 23 -4 46 -4 69s1 46 4 68v85c0 219 -233 324 -434 324c-148 0 -286 -40 -388 -127l-14 18c108 91 250 132 402 132
c226 0 443 -115 458 -324c62 186 225 322 460 322c290 0 478 -189 500 -445v-11h-961c-1 -14 -2 -28 -2 -42c0 -273 189 -499 497 -499c166 0 268 35 400 147l16 -18c-134 -114 -242 -152 -416 -152zM562 5c189 0 402 105 486 271c-16 36 -29 75 -36 116
c-75 104 -253 201 -444 201c-298 0 -433 -151 -433 -299c0 -213 259 -289 427 -289zM1490 977c-267 0 -433 -184 -459 -410h933c-26 238 -204 410 -474 410z" />
    <glyph glyph-name="Ccaron" unicode="&#x10c;" horiz-adv-x="1498" 
d="M1147 1912l13 -16l-280 -246h-17l-280 247l13 16l276 -239zM882 -22c-432 0 -782 352 -782 790s350 792 782 792c202 0 388 -78 528 -204l-14 -16c-136 122 -318 197 -514 197c-420 0 -757 -343 -757 -769s337 -767 757 -767c206 0 396 81 532 215l14 -16
c-140 -138 -334 -222 -546 -222z" />
    <glyph glyph-name="ccaron" unicode="&#x10d;" horiz-adv-x="980" 
d="M592 -22c-280 0 -502 226 -502 512c0 284 222 512 502 512c118 0 224 -40 308 -104l-13 -19c-82 62 -183 100 -295 100c-266 0 -477 -217 -477 -489s211 -489 477 -489c108 0 208 36 286 94l14 -18c-84 -62 -186 -99 -300 -99zM817 1474l16 -14l-238 -290h-17l-238 290
l15 14l232 -280z" />
    <glyph glyph-name="Ccedilla" unicode="&#xc7;" horiz-adv-x="1498" 
d="M882 -22c-432 0 -782 352 -782 790s350 792 782 792c202 0 388 -78 528 -204l-14 -16c-136 122 -318 197 -514 197c-420 0 -757 -343 -757 -769s337 -767 757 -767c206 0 396 81 532 215l14 -16c-140 -138 -334 -222 -546 -222zM543 -380v23c182 0 311 116 311 298h25
c0 -192 -131 -321 -336 -321z" />
    <glyph glyph-name="ccedilla" unicode="&#xe7;" horiz-adv-x="980" 
d="M592 -22c-280 0 -502 226 -502 512c0 284 222 512 502 512c118 0 224 -40 308 -104l-13 -19c-82 62 -183 100 -295 100c-266 0 -477 -217 -477 -489s211 -489 477 -489c108 0 208 36 286 94l14 -18c-84 -62 -186 -99 -300 -99zM265 -382v23c182 0 311 116 311 298h25
c0 -192 -131 -321 -336 -321z" />
    <glyph glyph-name="Ecircumflex" unicode="&#xca;" horiz-adv-x="1182" 
d="M240 1546h816v-22h-792v-730h768v-22h-768v-749h788v-23h-812v1546zM386 1657l-13 16l280 246h17l280 -247l-13 -16l-276 239z" />
    <glyph glyph-name="ecircumflex" unicode="&#xea;" horiz-adv-x="1148" 
d="M612 -20c-322 0 -522 234 -522 522c0 269 184 498 488 498c290 0 478 -189 500 -445v-11h-961c-1 -14 -2 -28 -2 -42c0 -273 189 -499 497 -499c166 0 268 35 400 147l16 -18c-134 -114 -242 -152 -416 -152zM578 977c-267 0 -433 -184 -459 -410h933
c-26 238 -204 410 -474 410zM830 1106l-16 -14l-230 280l-232 -280l-15 14l247 301z" />
    <glyph glyph-name="Eacute" unicode="&#xc9;" horiz-adv-x="1182" 
d="M240 1546h816v-22h-792v-730h768v-22h-768v-749h788v-23h-812v1546zM890 1938l16 -23l-317 -237l-11 16z" />
    <glyph glyph-name="eacute" unicode="&#xe9;" horiz-adv-x="1148" 
d="M612 -20c-322 0 -522 234 -522 522c0 269 184 498 488 498c290 0 478 -189 500 -445v-11h-961c-1 -14 -2 -28 -2 -42c0 -273 189 -499 497 -499c166 0 268 35 400 147l16 -18c-134 -114 -242 -152 -416 -152zM578 977c-267 0 -433 -184 -459 -410h933
c-26 238 -204 410 -474 410zM826 1400l16 -22l-314 -243l-11 17z" />
    <glyph glyph-name="Edieresis" unicode="&#xcb;" horiz-adv-x="1182" 
d="M240 1546h816v-22h-792v-730h768v-22h-768v-749h788v-23h-812v1546zM413 1796c0 18 16 32 34 32s32 -14 32 -32s-14 -34 -32 -34s-34 16 -34 34zM853 1796c0 18 16 32 34 32s32 -14 32 -32s-14 -34 -32 -34s-34 16 -34 34z" />
    <glyph glyph-name="edieresis" unicode="&#xeb;" horiz-adv-x="1148" 
d="M612 -20c-322 0 -522 234 -522 522c0 269 184 498 488 498c290 0 478 -189 500 -445v-11h-961c-1 -14 -2 -28 -2 -42c0 -273 189 -499 497 -499c166 0 268 35 400 147l16 -18c-134 -114 -242 -152 -416 -152zM578 977c-267 0 -433 -184 -459 -410h933
c-26 238 -204 410 -474 410zM364 1236c-18 0 -34 16 -34 34s16 32 34 32s32 -14 32 -32s-14 -34 -32 -34zM804 1236c-18 0 -34 16 -34 34s16 32 34 32s32 -14 32 -32s-14 -34 -32 -34z" />
    <glyph glyph-name="Egrave" unicode="&#xc8;" horiz-adv-x="1182" 
d="M240 1546h816v-22h-792v-730h768v-22h-768v-749h788v-23h-812v1546zM390 1933l17 21l313 -241l-11 -17z" />
    <glyph glyph-name="egrave" unicode="&#xe8;" horiz-adv-x="1148" 
d="M612 -20c-322 0 -522 234 -522 522c0 269 184 498 488 498c290 0 478 -189 500 -445v-11h-961c-1 -14 -2 -28 -2 -42c0 -273 189 -499 497 -499c166 0 268 35 400 147l16 -18c-134 -114 -242 -152 -416 -152zM578 977c-267 0 -433 -184 -459 -410h933
c-26 238 -204 410 -474 410zM409 1375l17 21l313 -241l-11 -17z" />
    <glyph glyph-name="Iacute" unicode="&#xcd;" horiz-adv-x="504" 
d="M546 1938l16 -23l-317 -237l-11 16zM264 1546v-1546h-24v1546h24z" />
    <glyph glyph-name="iacute" unicode="&#xed;" 
d="M409 1450l27 -20l-252 -306l-19 15zM180 0v988h24v-988h-24z" />
    <glyph glyph-name="Idieresis" unicode="&#xcf;" horiz-adv-x="504" 
d="M264 1546v-1546h-24v1546h24zM92 1779c0 18 16 32 34 32s32 -14 32 -32s-14 -34 -32 -34s-34 16 -34 34zM332 1779c0 18 16 32 34 32s32 -14 32 -32s-14 -34 -32 -34s-34 16 -34 34z" />
    <glyph glyph-name="idieresis" unicode="&#xef;" 
d="M180 0v988h24v-988h-24zM34 1323c0 18 16 32 34 32s32 -14 32 -32s-14 -34 -32 -34s-34 16 -34 34zM274 1323c0 18 16 32 34 32s32 -14 32 -32s-14 -34 -32 -34s-34 16 -34 34z" />
    <glyph glyph-name="Icircumflex" unicode="&#xce;" horiz-adv-x="504" 
d="M444 1592l-19 -11l-172 275l-174 -275l-19 10l192 305h2zM264 1546v-1546h-24v1546h24z" />
    <glyph glyph-name="icircumflex" unicode="&#xee;" 
d="M381 1102l-19 -11l-172 275l-174 -275l-19 10l192 305h2zM180 0v988h24v-988h-24z" />
    <glyph glyph-name="Igrave" unicode="&#xcc;" horiz-adv-x="504" 
d="M11 1986l21 17l246 -311l-14 -14zM264 1546v-1546h-24v1546h24z" />
    <glyph glyph-name="igrave" unicode="&#xec;" 
d="M-47 1433l21 17l246 -311l-14 -14zM180 0v988h24v-988h-24z" />
    <glyph glyph-name="dotlessi" unicode="&#x131;" 
d="M180 0v988h24v-988h-24z" />
    <glyph glyph-name="i.TRK" 
d="M158 1319c0 19 15 34 34 34s34 -15 34 -34s-15 -34 -34 -34s-34 15 -34 34zM180 0v988h24v-988h-24z" />
    <glyph glyph-name="ntilde" unicode="&#xf1;" horiz-adv-x="1210" 
d="M610 1002c218 0 430 -144 430 -404v-598h-24v595c0 240 -188 385 -408 385c-198 0 -347 -141 -404 -254v-726h-24v988h24v-222c53 104 208 236 406 236zM736 1198c62 0 107 26 139 82l21 -13c-46 -80 -114 -92 -158 -92c-108 0 -190 96 -286 96c-62 0 -108 -31 -136 -81
l-20 14c42 76 112 90 156 90c108 0 188 -94 284 -96z" />
    <glyph glyph-name="Oacute" unicode="&#xd3;" horiz-adv-x="1795" 
d="M1186 1938l16 -23l-317 -237l-11 16zM898 1561c438 0 797 -353 797 -787c0 -441 -359 -796 -797 -796c-441 0 -798 355 -798 796c0 434 357 787 798 787zM125 774c0 -429 344 -773 773 -773c426 0 772 344 772 773c0 422 -346 764 -772 764c-429 0 -773 -342 -773 -764z
" />
    <glyph glyph-name="oacute" unicode="&#xf3;" horiz-adv-x="1206" 
d="M604 1002c292 0 512 -226 512 -510c0 -279 -214 -514 -512 -514c-300 0 -514 233 -514 514c0 284 222 510 514 510zM115 492c0 -269 203 -491 489 -491s487 224 487 491c0 272 -209 487 -487 487c-280 0 -489 -215 -489 -487zM905 1394l16 -22l-314 -243l-11 17z" />
    <glyph glyph-name="Ocircumflex" unicode="&#xd4;" horiz-adv-x="1795" 
d="M625 1651l-13 16l280 246h17l280 -247l-13 -16l-276 239zM898 1561c438 0 797 -353 797 -787c0 -441 -359 -796 -797 -796c-441 0 -798 355 -798 796c0 434 357 787 798 787zM125 774c0 -429 344 -773 773 -773c426 0 772 344 772 773c0 422 -346 764 -772 764
c-429 0 -773 -342 -773 -764z" />
    <glyph glyph-name="ocircumflex" unicode="&#xf4;" horiz-adv-x="1206" 
d="M604 1002c292 0 512 -226 512 -510c0 -279 -214 -514 -512 -514c-300 0 -514 233 -514 514c0 284 222 510 514 510zM115 492c0 -269 203 -491 489 -491s487 224 487 491c0 272 -209 487 -487 487c-280 0 -489 -215 -489 -487zM851 1100l-16 -14l-230 280l-232 -280
l-15 14l247 301z" />
    <glyph glyph-name="Odieresis" unicode="&#xd6;" horiz-adv-x="1795" 
d="M652 1790c0 18 16 32 34 32s32 -14 32 -32s-14 -34 -32 -34s-34 16 -34 34zM1092 1790c0 18 16 32 34 32s32 -14 32 -32s-14 -34 -32 -34s-34 16 -34 34zM898 1561c438 0 797 -353 797 -787c0 -441 -359 -796 -797 -796c-441 0 -798 355 -798 796c0 434 357 787 798 787z
M125 774c0 -429 344 -773 773 -773c426 0 772 344 772 773c0 422 -346 764 -772 764c-429 0 -773 -342 -773 -764z" />
    <glyph glyph-name="odieresis" unicode="&#xf6;" horiz-adv-x="1206" 
d="M604 1002c292 0 512 -226 512 -510c0 -279 -214 -514 -512 -514c-300 0 -514 233 -514 514c0 284 222 510 514 510zM115 492c0 -269 203 -491 489 -491s487 224 487 491c0 272 -209 487 -487 487c-280 0 -489 -215 -489 -487zM385 1230c-18 0 -34 16 -34 34s16 32 34 32
s32 -14 32 -32s-14 -34 -32 -34zM825 1230c-18 0 -34 16 -34 34s16 32 34 32s32 -14 32 -32s-14 -34 -32 -34z" />
    <glyph glyph-name="Ohungarumlaut" unicode="&#x150;" horiz-adv-x="1795" 
d="M996 2011l22 -16l-226 -326l-16 13zM1237 2011l22 -16l-226 -326l-16 13zM898 1561c438 0 797 -353 797 -787c0 -441 -359 -796 -797 -796c-441 0 -798 355 -798 796c0 434 357 787 798 787zM125 774c0 -429 344 -773 773 -773c426 0 772 344 772 773
c0 422 -346 764 -772 764c-429 0 -773 -342 -773 -764z" />
    <glyph glyph-name="ohungarumlaut" unicode="&#x151;" horiz-adv-x="1206" 
d="M604 1002c292 0 512 -226 512 -510c0 -279 -214 -514 -512 -514c-300 0 -514 233 -514 514c0 284 222 510 514 510zM115 492c0 -269 203 -491 489 -491s487 224 487 491c0 272 -209 487 -487 487c-280 0 -489 -215 -489 -487zM656 1474l22 -16l-226 -326l-16 13z
M987 1474l22 -16l-226 -326l-16 13z" />
    <glyph glyph-name="Oslash" unicode="&#xd8;" horiz-adv-x="1795" 
d="M898 1561c166 0 320 -51 448 -138l105 144l19 -13l-105 -144c200 -143 330 -375 330 -636c0 -441 -359 -796 -797 -796c-174 0 -336 55 -467 149l-112 -154l-20 13l113 155c-190 145 -312 374 -312 633c0 434 357 787 798 787zM1670 774c0 254 -125 479 -318 618
l-907 -1246c127 -91 283 -145 453 -145c426 0 772 344 772 773zM125 774c0 -251 118 -473 301 -614l907 1245c-124 84 -274 133 -435 133c-429 0 -773 -342 -773 -764z" />
    <glyph glyph-name="oslash" unicode="&#xf8;" horiz-adv-x="1206" 
d="M604 1002c117 0 223 -36 307 -98l117 149l19 -14l-117 -150c115 -93 186 -236 186 -397c0 -279 -214 -514 -512 -514c-120 0 -226 37 -310 99l-104 -132l-19 14l104 133c-115 94 -185 239 -185 400c0 284 222 510 514 510zM1091 492c0 154 -67 289 -176 378l-607 -774
c80 -60 181 -95 296 -95c286 0 487 224 487 491zM115 492c0 -153 65 -291 175 -381l606 774c-80 59 -181 94 -292 94c-280 0 -489 -215 -489 -487z" />
    <glyph glyph-name="Ograve" unicode="&#xd2;" horiz-adv-x="1795" 
d="M616 1933l17 21l313 -241l-11 -17zM898 1561c438 0 797 -353 797 -787c0 -441 -359 -796 -797 -796c-441 0 -798 355 -798 796c0 434 357 787 798 787zM125 774c0 -429 344 -773 773 -773c426 0 772 344 772 773c0 422 -346 764 -772 764c-429 0 -773 -342 -773 -764z
" />
    <glyph glyph-name="ograve" unicode="&#xf2;" horiz-adv-x="1206" 
d="M604 1002c292 0 512 -226 512 -510c0 -279 -214 -514 -512 -514c-300 0 -514 233 -514 514c0 284 222 510 514 510zM115 492c0 -269 203 -491 489 -491s487 224 487 491c0 272 -209 487 -487 487c-280 0 -489 -215 -489 -487zM368 1375l17 21l313 -241l-11 -17z" />
    <glyph glyph-name="Otilde" unicode="&#xd5;" horiz-adv-x="1795" 
d="M1041 1774c62 0 107 26 139 82l21 -13c-46 -80 -114 -92 -158 -92c-108 0 -190 96 -286 96c-62 0 -108 -31 -136 -81l-20 14c42 76 112 90 156 90c108 0 188 -94 284 -96zM898 1561c438 0 797 -353 797 -787c0 -441 -359 -796 -797 -796c-441 0 -798 355 -798 796
c0 434 357 787 798 787zM125 774c0 -429 344 -773 773 -773c426 0 772 344 772 773c0 422 -346 764 -772 764c-429 0 -773 -342 -773 -764z" />
    <glyph glyph-name="otilde" unicode="&#xf5;" horiz-adv-x="1206" 
d="M604 1002c292 0 512 -226 512 -510c0 -279 -214 -514 -512 -514c-300 0 -514 233 -514 514c0 284 222 510 514 510zM115 492c0 -269 203 -491 489 -491s487 224 487 491c0 272 -209 487 -487 487c-280 0 -489 -215 -489 -487zM748 1210c62 0 107 26 139 82l21 -13
c-46 -80 -114 -92 -158 -92c-108 0 -190 96 -286 96c-62 0 -108 -31 -136 -81l-20 14c42 76 112 90 156 90c108 0 188 -94 284 -96z" />
    <glyph glyph-name="Scaron" unicode="&#x160;" horiz-adv-x="1176" 
d="M893 1912l13 -16l-280 -246h-17l-280 247l13 16l276 -239zM596 2c270 0 435 175 435 374c0 150 -82 298 -300 383l-207 81c-208 84 -316 191 -316 364c0 216 164 357 400 357c164 0 296 -48 393 -156l-14 -15c-103 109 -227 148 -380 148c-224 0 -374 -130 -374 -334
c0 -161 99 -262 299 -342l207 -81c229 -90 317 -245 317 -405c0 -215 -178 -398 -460 -398c-208 0 -402 104 -516 234l20 16c106 -126 296 -226 496 -226z" />
    <glyph glyph-name="scaron" unicode="&#x161;" horiz-adv-x="1054" 
d="M556 3c240 0 393 102 393 252c0 134 -103 200 -251 226l-306 52c-171 30 -238 113 -238 224c0 137 132 245 380 245c166 0 284 -58 370 -108l-11 -21c-86 52 -199 107 -359 107c-240 0 -355 -104 -355 -223c0 -122 91 -178 217 -201l306 -52c160 -28 272 -101 272 -249
c0 -164 -164 -275 -418 -275c-184 0 -346 46 -496 134l12 20c146 -84 304 -131 484 -131zM781 1473l16 -14l-238 -290h-17l-238 290l15 14l232 -280z" />
    <glyph glyph-name="Uacute" unicode="&#xda;" horiz-adv-x="1404" 
d="M969 1938l16 -23l-317 -237l-11 16zM1214 1546v-1042c0 -294 -198 -526 -514 -526c-312 0 -510 232 -510 526v1042h24v-1042c0 -282 186 -503 486 -503c304 0 490 221 490 503v1042h24z" />
    <glyph glyph-name="uacute" unicode="&#xfa;" horiz-adv-x="1202" 
d="M596 -22c-216 0 -426 148 -426 414v596h24v-596c0 -252 198 -391 402 -391c162 0 333 91 402 262v725h24v-988h-24v213c-70 -141 -233 -235 -402 -235zM857 1399l16 -22l-314 -243l-11 17z" />
    <glyph glyph-name="Ucircumflex" unicode="&#xdb;" horiz-adv-x="1404" 
d="M411 1651l-13 16l280 246h17l280 -247l-13 -16l-276 239zM1214 1546v-1042c0 -294 -198 -526 -514 -526c-312 0 -510 232 -510 526v1042h24v-1042c0 -282 186 -503 486 -503c304 0 490 221 490 503v1042h24z" />
    <glyph glyph-name="ucircumflex" unicode="&#xfb;" horiz-adv-x="1202" 
d="M596 -22c-216 0 -426 148 -426 414v596h24v-596c0 -252 198 -391 402 -391c162 0 333 91 402 262v725h24v-988h-24v213c-70 -141 -233 -235 -402 -235zM830 1105l-16 -14l-230 280l-232 -280l-15 14l247 301z" />
    <glyph glyph-name="Udieresis" unicode="&#xdc;" horiz-adv-x="1404" 
d="M438 1790c0 18 16 32 34 32s32 -14 32 -32s-14 -34 -32 -34s-34 16 -34 34zM878 1790c0 18 16 32 34 32s32 -14 32 -32s-14 -34 -32 -34s-34 16 -34 34zM1214 1546v-1042c0 -294 -198 -526 -514 -526c-312 0 -510 232 -510 526v1042h24v-1042c0 -282 186 -503 486 -503
c304 0 490 221 490 503v1042h24z" />
    <glyph glyph-name="udieresis" unicode="&#xfc;" horiz-adv-x="1202" 
d="M596 -22c-216 0 -426 148 -426 414v596h24v-596c0 -252 198 -391 402 -391c162 0 333 91 402 262v725h24v-988h-24v213c-70 -141 -233 -235 -402 -235zM823 1236c-18 0 -34 16 -34 34s16 32 34 32s32 -14 32 -32s-14 -34 -32 -34zM383 1236c-18 0 -34 16 -34 34
s16 32 34 32s32 -14 32 -32s-14 -34 -32 -34z" />
    <glyph glyph-name="Ugrave" unicode="&#xd9;" horiz-adv-x="1404" 
d="M452 1933l17 21l313 -241l-11 -17zM1214 1546v-1042c0 -294 -198 -526 -514 -526c-312 0 -510 232 -510 526v1042h24v-1042c0 -282 186 -503 486 -503c304 0 490 221 490 503v1042h24z" />
    <glyph glyph-name="ugrave" unicode="&#xf9;" horiz-adv-x="1202" 
d="M596 -22c-216 0 -426 148 -426 414v596h24v-596c0 -252 198 -391 402 -391c162 0 333 91 402 262v725h24v-988h-24v213c-70 -141 -233 -235 -402 -235zM415 1375l17 21l313 -241l-11 -17z" />
    <glyph glyph-name="Uhungarumlaut" unicode="&#x170;" horiz-adv-x="1404" 
d="M782 2011l22 -16l-226 -326l-16 13zM1023 2011l22 -16l-226 -326l-16 13zM1214 1546v-1042c0 -294 -198 -526 -514 -526c-312 0 -510 232 -510 526v1042h24v-1042c0 -282 186 -503 486 -503c304 0 490 221 490 503v1042h24z" />
    <glyph glyph-name="uhungarumlaut" unicode="&#x171;" horiz-adv-x="1202" 
d="M596 -22c-216 0 -426 148 -426 414v596h24v-596c0 -252 198 -391 402 -391c162 0 333 91 402 262v725h24v-988h-24v213c-70 -141 -233 -235 -402 -235zM955 1480l22 -16l-226 -326l-16 13zM624 1480l22 -16l-226 -326l-16 13z" />
    <glyph glyph-name="Yacute" unicode="&#xdd;" horiz-adv-x="1085" 
d="M534 0v615l-519 929l22 12l508 -915l503 916l22 -12l-513 -930v-615h-23zM788 1938l16 -23l-317 -237l-11 16z" />
    <glyph glyph-name="yacute" unicode="&#xfd;" horiz-adv-x="943" 
d="M893 988l-594 -1388l-24 8l176 411l-401 961l23 8l391 -938l407 946zM657 1399l16 -22l-314 -243l-11 17z" />
    <glyph glyph-name="Ydieresis" unicode="&#x178;" horiz-adv-x="1085" 
d="M534 0v615l-519 929l22 12l508 -915l503 916l22 -12l-513 -930v-615h-23zM734 1790c0 18 16 32 34 32s32 -14 32 -32s-14 -34 -32 -34s-34 16 -34 34zM294 1790c0 18 16 32 34 32s32 -14 32 -32s-14 -34 -32 -34s-34 16 -34 34z" />
    <glyph glyph-name="ydieresis" unicode="&#xff;" horiz-adv-x="943" 
d="M893 988l-594 -1388l-24 8l176 411l-401 961l23 8l391 -938l407 946zM687 1235c-18 0 -34 16 -34 34s16 32 34 32s32 -14 32 -32s-14 -34 -32 -34zM247 1235c-18 0 -34 16 -34 34s16 32 34 32s32 -14 32 -32s-14 -34 -32 -34z" />
    <glyph glyph-name="Zcaron" unicode="&#x17d;" horiz-adv-x="1198" 
d="M1146 0h-1116v20l1105 1503h-1047v23h1080v-20l-1106 -1503h1084v-23zM902 1912l13 -16l-280 -246h-17l-280 247l13 16l276 -239z" />
    <glyph glyph-name="zcaron" unicode="&#x17e;" horiz-adv-x="986" 
d="M910 22v-22h-830l767 966h-745v22h794l-767 -966h781zM685 1473l16 -14l-238 -290h-17l-238 290l15 14l232 -280z" />
    <glyph glyph-name="Lslash" unicode="&#x141;" horiz-adv-x="1140" 
d="M302 1546v-795l511 388l14 -19l-525 -398v-699h788v-23h-812v704l-215 -162l-13 19l228 172v813h24z" />
    <glyph glyph-name="lslash" unicode="&#x142;" horiz-adv-x="464" 
d="M215 0v759l-182 -137l-13 19l195 148v771h24v-753l191 145l14 -19l-205 -156v-777h-24z" />
    <glyph glyph-name="Eth" unicode="&#xd0;" horiz-adv-x="1496" 
d="M100 794h154v752h354c402 0 788 -326 788 -774c0 -424 -342 -772 -780 -772h-362v771h-154v23zM608 1523h-330v-729h302v-23h-302v-748h338c426 0 755 337 755 749c0 432 -373 751 -763 751z" />
    <glyph glyph-name="eth" unicode="&#xf0;" horiz-adv-x="1146" 
d="M342 1102l200 188l-217 249l18 14l215 -247l204 192l16 -16l-205 -193l422 -482c75 -85 121 -201 121 -325c0 -276 -218 -504 -510 -504c-302 0 -516 226 -516 504s220 500 516 500c103 0 199 -31 273 -78l-322 369l-199 -187zM606 958c-284 0 -492 -210 -492 -476
s202 -480 492 -480c280 0 486 216 486 480c0 120 -42 227 -115 310l-25 28c-85 86 -208 138 -346 138z" />
    <glyph glyph-name="Thorn" unicode="&#xde;" horiz-adv-x="1286" 
d="M264 1546v-284h423c258 0 434 -164 434 -410c0 -250 -176 -414 -430 -414h-427v-438h-24v1546h24zM687 1239h-423v-778h427c242 0 405 157 405 391s-167 387 -409 387z" />
    <glyph glyph-name="thorn" unicode="&#xfe;" horiz-adv-x="1280" 
d="M678 1002c298 0 512 -225 512 -511c0 -281 -222 -513 -514 -513c-216 0 -389 137 -452 266v-604h-24v1920h24v-824c69 137 224 266 454 266zM678 979c-217 0 -385 -122 -454 -295v-387c72 -175 244 -296 452 -296c280 0 489 223 489 490c0 274 -203 488 -487 488z" />
    <glyph glyph-name="acute" unicode="&#xb4;" horiz-adv-x="525" 
d="M409 1400l16 -22l-314 -243l-11 17z" />
    <glyph glyph-name="caron" unicode="&#x2c7;" horiz-adv-x="733" 
d="M597 1396l16 -14l-238 -290h-17l-238 290l15 14l232 -280z" />
    <glyph glyph-name="cedilla" unicode="&#xb8;" horiz-adv-x="686" 
d="M150 -360v23c182 0 311 116 311 298h25c0 -192 -131 -321 -336 -321z" />
    <glyph glyph-name="ogonek" unicode="&#x2db;" horiz-adv-x="622" 
d="M332 0l-158 -149c-35 -33 -49 -67 -49 -102c0 -68 61 -128 123 -128c36 0 65 13 101 46l157 147l16 -16l-154 -145c-43 -40 -77 -55 -120 -55c-80 0 -148 74 -148 152c0 41 16 81 61 122l155 143z" />
    <glyph glyph-name="breve" unicode="&#x2d8;" horiz-adv-x="721" 
d="M360 1111c-142 0 -260 122 -260 273h24c0 -136 103 -250 236 -250c134 0 238 114 238 250h23c0 -151 -118 -273 -261 -273z" />
    <glyph glyph-name="circumflex" unicode="&#x2c6;" horiz-adv-x="673" 
d="M583 1106l-16 -14l-230 280l-232 -280l-15 14l247 301z" />
    <glyph glyph-name="dieresis" unicode="&#xa8;" horiz-adv-x="706" 
d="M134 1158c-18 0 -34 16 -34 34s16 32 34 32s32 -14 32 -32s-14 -34 -32 -34zM574 1158c-18 0 -34 16 -34 34s16 32 34 32s32 -14 32 -32s-14 -34 -32 -34z" />
    <glyph glyph-name="grave" unicode="`" horiz-adv-x="530" 
d="M100 1375l17 21l313 -241l-11 -17z" />
    <glyph glyph-name="hungarumlaut" unicode="&#x2dd;" horiz-adv-x="773" 
d="M320 1480l22 -16l-226 -326l-16 13zM651 1480l22 -16l-226 -326l-16 13z" />
    <glyph glyph-name="ring" unicode="&#x2da;" horiz-adv-x="690" 
d="M345 1116c-98 0 -165 74 -165 163c0 90 70 162 165 162c94 0 165 -72 165 -162c0 -89 -69 -163 -165 -163zM345 1138c83 0 142 66 142 141c0 76 -61 140 -142 140s-142 -64 -142 -140c0 -77 59 -141 142 -141z" />
    <glyph glyph-name="tilde" unicode="&#x2dc;" horiz-adv-x="840" 
d="M560 1216c62 0 107 26 139 82l21 -13c-46 -80 -114 -92 -158 -92c-108 0 -190 96 -286 96c-62 0 -108 -31 -136 -81l-20 14c42 76 112 90 156 90c108 0 188 -94 284 -96z" />
    <glyph glyph-name="macron" unicode="&#xaf;" horiz-adv-x="708" 
d="M110 1232h488v-23h-488v23z" />
    <glyph glyph-name="macron" unicode="&#x2c9;" horiz-adv-x="708" 
d="M110 1232h488v-23h-488v23z" />
    <glyph glyph-name="dotaccent" unicode="&#x2d9;" horiz-adv-x="308" 
d="M120 1229c0 19 15 34 34 34s34 -15 34 -34s-15 -34 -34 -34s-34 15 -34 34z" />
    <glyph glyph-name="commaaccent" unicode="&#xf6c3;" horiz-adv-x="352" 
d="M123 1181l-23 11l133 283l19 -9z" />
    <glyph glyph-name="germandbls" unicode="&#xdf;" horiz-adv-x="1191" 
d="M204 -1h-24v1160c0 192 150 402 413 402c251 0 412 -167 412 -392c0 -167 -120 -295 -257 -327c218 -41 359 -195 359 -428c0 -251 -195 -436 -421 -436c-47 0 -93 6 -134 19l5 21c40 -12 84 -18 129 -18c212 0 397 175 397 414c0 258 -181 420 -476 420v20
c25 0 41 -1 55 -2c162 1 319 129 319 317c0 209 -148 370 -388 370c-248 0 -389 -200 -389 -380v-1160z" />
    <glyph glyph-name="OE" unicode="&#x152;" horiz-adv-x="2327" 
d="M882 -22c-432 0 -782 348 -782 780s350 782 782 782c195 0 369 -70 503 -182v188h816v-22h-792v-730h768v-22h-768v-749h788v-23h-812v160c-134 -113 -307 -182 -503 -182zM882 1c193 0 369 71 503 190v1135c-134 119 -310 191 -503 191c-420 0 -757 -339 -757 -759
s337 -757 757 -757z" />
    <glyph glyph-name="oe" unicode="&#x153;" horiz-adv-x="2149" 
d="M1613 -20c-275 0 -461 170 -510 398c-49 -226 -243 -400 -499 -400c-300 0 -514 233 -514 514c0 284 222 510 514 510c249 0 445 -164 498 -389c44 218 216 387 477 387c290 0 478 -189 500 -445v-11h-961c-1 -14 -2 -28 -2 -42c0 -273 189 -499 497 -499
c166 0 268 35 400 147l16 -18c-134 -114 -242 -152 -416 -152zM115 492c0 -269 203 -491 489 -491s487 224 487 491c0 272 -209 487 -487 487c-280 0 -489 -215 -489 -487zM1579 977c-267 0 -433 -184 -459 -410h933c-26 238 -204 410 -474 410z" />
    <glyph glyph-name="IJ" unicode="&#x132;" horiz-adv-x="1406" 
d="M190 646v900h24v-900h-24zM702 -22c-312 0 -510 232 -510 526v42h24v-42c0 -282 186 -502 486 -502c304 0 490 220 490 502v1042h24v-1042c0 -294 -198 -526 -514 -526z" />
    <glyph glyph-name="lozenge" unicode="&#x25ca;" horiz-adv-x="1153" 
d="M100 772l477 798l477 -798l-476 -794c-5 2 -469 781 -478 794zM1025 773l-448 749l-449 -749l449 -749z" />
    <glyph glyph-name="logicalnot" unicode="&#xac;" horiz-adv-x="1214" 
d="M1079 295v253h-975v22h999v-275h-24z" />
    <glyph glyph-name="ordfeminine" unicode="&#xaa;" horiz-adv-x="804" 
d="M118 1416l-14 20c72 54 170 78 272 78c138 0 304 -68 304 -226v-436h-24v111c-61 -58 -167 -111 -296 -111c-180 0 -298 84 -298 206c0 108 104 210 310 210c107 0 227 -51 284 -101v121c0 136 -151 204 -290 204c-94 0 -183 -26 -248 -76zM360 874c131 0 241 62 296 121
v138c-46 53 -168 113 -284 113c-198 0 -286 -98 -286 -188c0 -102 100 -184 274 -184z" />
    <glyph glyph-name="radical" unicode="&#x221a;" horiz-adv-x="1064" 
d="M32 966v22h219l372 -956l504 1572l22 -7l-516 -1601h-20l-379 970h-202z" />
    <glyph glyph-name="integral" unicode="&#x222b;" horiz-adv-x="413" 
d="M34 -550c-99 0 -168 68 -183 195l22 2c21 -122 81 -174 161 -174c111 0 163 76 163 217v1826c0 153 66 240 187 240c99 0 164 -68 182 -195l-24 -3c-22 122 -78 175 -158 175c-108 0 -163 -82 -163 -217v-1826c0 -151 -59 -240 -187 -240z" />
    <glyph glyph-name="asciitilde" unicode="~" horiz-adv-x="880" 
d="M568 466c62 0 107 26 139 82l21 -13c-46 -80 -114 -92 -158 -92c-108 0 -190 96 -286 96c-62 0 -108 -31 -136 -81l-20 14c42 76 112 90 156 90c108 0 188 -94 284 -96z" />
    <glyph glyph-name="summation" unicode="&#x2211;" horiz-adv-x="1042" 
d="M945 1523h-778l462 -719l-462 -782h778v-22h-820l476 804l-476 742h820v-23z" />
    <glyph glyph-name="partialdiff" unicode="&#x2202;" horiz-adv-x="1190" 
d="M606 982c103 0 199 -31 273 -78l-554 635l18 14l652 -746c75 -85 121 -201 121 -325c0 -276 -218 -504 -510 -504c-302 0 -516 226 -516 504s220 500 516 500zM606 958c-284 0 -492 -210 -492 -476s202 -480 492 -480c280 0 486 216 486 480c0 120 -42 227 -115 310
l-25 28c-85 86 -208 138 -346 138z" />
    <glyph glyph-name="Delta" unicode="&#x394;" horiz-adv-x="1332" 
d="M14 0l635 1550h24l644 -1550h-18l-4 23h-15l-619 1495l-613 -1495h-13l-4 -23h-17zM1280 23l10 -23h-1251l9 23h1232z" />
    <glyph glyph-name="Delta" unicode="&#x2206;" horiz-adv-x="1332" 
d="M14 0l635 1550h24l644 -1550h-18l-4 23h-15l-619 1495l-613 -1495h-13l-4 -23h-17zM1280 23l10 -23h-1251l9 23h1232z" />
    <glyph glyph-name="pi" unicode="&#x3c0;" horiz-adv-x="1178" 
d="M1078 932h-266v-666c0 -164 58 -248 184 -248c52 0 88 16 124 46l16 -18c-40 -34 -82 -52 -140 -52c-144 0 -208 102 -208 272v666h-520v-932h-24v932h-180v24h1014v-24z" />
    <glyph glyph-name="asciicircum" unicode="^" horiz-adv-x="1024" 
d="M512 1512l-442 -592l-20 16l462 616l462 -616l-20 -16z" />
    <glyph glyph-name="ordmasculine" unicode="&#xba;" horiz-adv-x="780" 
d="M99 1204c0 -20 2 -44 2 -46c2 -150 124 -266 288 -266c166 0 288 116 290 266c0 2 2 26 2 48c0 20 -2 46 -2 46c-2 150 -124 268 -290 268c-164 0 -286 -118 -288 -266c0 -2 -2 -28 -2 -50zM75 1204c0 22 2 50 2 50c2 166 138 290 312 290c178 0 312 -128 314 -290
c0 0 2 -28 2 -48c0 -22 -2 -48 -2 -48c-2 -168 -138 -290 -314 -290s-310 124 -312 290c0 2 -2 26 -2 46z" />
    <glyph glyph-name="mu" unicode="&#xb5;" horiz-adv-x="1212" 
d="M606 -22c-173 0 -341 94 -402 267v-605h-24v1348h24v-596c0 -252 198 -391 402 -391c162 0 333 91 402 262v725h24v-988h-24v213c-70 -141 -233 -235 -402 -235z" />
    <glyph glyph-name="mu" unicode="&#x3bc;" horiz-adv-x="1212" 
d="M606 -22c-173 0 -341 94 -402 267v-605h-24v1348h24v-596c0 -252 198 -391 402 -391c162 0 333 91 402 262v725h24v-988h-24v213c-70 -141 -233 -235 -402 -235z" />
    <glyph glyph-name="currency" unicode="&#xa4;" horiz-adv-x="1128" 
d="M170 206l119 158c-91 77 -149 192 -149 320s58 243 149 320l-119 160l20 14l119 -159c71 53 159 85 255 85c85 0 165 -25 231 -68l109 142l18 -14l-106 -142c104 -77 172 -200 172 -338s-67 -261 -171 -337l105 -141l-18 -14l-107 141c-67 -44 -147 -69 -233 -69
c-96 0 -185 32 -256 85l-118 -157zM164 684c0 -218 180 -396 400 -396s400 178 400 396s-180 396 -400 396s-400 -178 -400 -396z" />
    <glyph glyph-name="periodcentered" unicode="&#xb7;" horiz-adv-x="346" 
d="M140 744c0 18 16 32 34 32s32 -14 32 -32s-14 -34 -32 -34s-34 16 -34 34z" />
    <glyph glyph-name="periodcentered" unicode="&#x2219;" horiz-adv-x="346" 
d="M140 744c0 18 16 32 34 32s32 -14 32 -32s-14 -34 -32 -34s-34 16 -34 34z" />
    <glyph glyph-name="Omega" unicode="&#x3a9;" horiz-adv-x="1796" 
d="M1076 0v22c339 84 578 386 578 736c0 420 -339 759 -757 759c-420 0 -757 -339 -757 -759c0 -350 243 -658 580 -736v-22h-605v22h523c-304 106 -523 394 -523 736c0 432 350 782 782 782c430 0 782 -350 782 -782c0 -342 -220 -630 -524 -736h526v-22h-605z" />
    <glyph glyph-name="Omega" unicode="&#x2126;" horiz-adv-x="1796" 
d="M1076 0v22c339 84 578 386 578 736c0 420 -339 759 -757 759c-420 0 -757 -339 -757 -759c0 -350 243 -658 580 -736v-22h-605v22h523c-304 106 -523 394 -523 736c0 432 350 782 782 782c430 0 782 -350 782 -782c0 -342 -220 -630 -524 -736h526v-22h-605z" />
    <glyph glyph-name="product" unicode="&#x220f;" horiz-adv-x="1380" 
d="M296 -356v1878h-256v24h1300v-24h-260v-1878h-24v1878h-736v-1878h-24z" />
    <glyph glyph-name="approxequal" unicode="&#x2248;" horiz-adv-x="1016" 
d="M912 1110l24 -2c-18 -138 -102 -224 -210 -224c-236 0 -224 196 -436 196c-96 0 -170 -78 -186 -200l-24 4c16 130 98 220 210 220c234 0 220 -196 436 -196c94 0 168 74 186 202zM912 782l24 -2c-18 -138 -102 -224 -210 -224c-236 0 -224 196 -436 196
c-96 0 -170 -78 -186 -200l-24 4c16 130 98 220 210 220c234 0 220 -196 436 -196c94 0 168 74 186 202z" />
    <glyph glyph-name="Abreve" unicode="&#x102;" horiz-adv-x="1330" 
d="M15 2l634 1548h24l642 -1546l-22 -10l-146 351h-967l-143 -351zM661 1518l-471 -1150h948zM665 1669c-142 0 -260 122 -260 273h24c0 -136 103 -250 236 -250c134 0 238 114 238 250h23c0 -151 -118 -273 -261 -273z" />
    <glyph glyph-name="Amacron" unicode="&#x100;" horiz-adv-x="1330" 
d="M15 2l634 1548h24l642 -1546l-22 -10l-146 351h-967l-143 -351zM661 1518l-471 -1150h948zM423 1790h488v-23h-488v23z" />
    <glyph glyph-name="Aogonek" unicode="&#x104;" horiz-adv-x="1330" 
d="M15 2l634 1548h24l642 -1546l-158 -149c-35 -33 -49 -67 -49 -102c0 -68 61 -128 123 -128c36 0 65 13 101 46l157 147l16 -16l-154 -145c-43 -40 -77 -55 -120 -55c-80 0 -148 74 -148 152c0 41 16 81 61 122l143 132l-140 337h-967l-143 -351zM661 1518l-471 -1150h948
z" />
    <glyph glyph-name="Aringacute" unicode="&#x1fa;" horiz-adv-x="1330" 
d="M15 2l634 1548h24l642 -1546l-22 -10l-146 351h-967l-143 -351zM661 1518l-471 -1150h948zM663 1644c-98 0 -165 74 -165 163c0 90 70 162 165 162c94 0 165 -72 165 -162c0 -89 -69 -163 -165 -163zM663 1666c83 0 142 66 142 141c0 76 -61 140 -142 140
s-142 -64 -142 -140c0 -77 59 -141 142 -141zM1055 2292l16 -23l-317 -237l-11 16z" />
    <glyph glyph-name="Adotaccent" horiz-adv-x="1330" 
d="M15 2l634 1548h24l642 -1546l-22 -10l-146 351h-967l-143 -351zM661 1518l-471 -1150h948zM628 1787c0 19 15 34 34 34s34 -15 34 -34s-15 -34 -34 -34s-34 15 -34 34z" />
    <glyph glyph-name="Adotbelow" unicode="&#x1ea0;" horiz-adv-x="1330" 
d="M15 2l634 1548h24l642 -1546l-22 -10l-146 351h-967l-143 -351zM661 1518l-471 -1150h948zM628 -217c0 18 16 32 34 32s32 -14 32 -32s-14 -34 -32 -34s-34 16 -34 34z" />
    <glyph glyph-name="AEacute" unicode="&#x1fc;" horiz-adv-x="1731" 
d="M1605 1524h-790v-774h768v-22h-768v-705h788v-23h-812v728h-397l-363 -732l-21 13l763 1537h832v-22zM789 1524l-384 -774h386v774h-2zM1414 1941l16 -23l-317 -237l-11 16z" />
    <glyph glyph-name="Cacute" unicode="&#x106;" horiz-adv-x="1498" 
d="M1116 1938l16 -23l-317 -237l-11 16zM882 -22c-432 0 -782 352 -782 790s350 792 782 792c202 0 388 -78 528 -204l-14 -16c-136 122 -318 197 -514 197c-420 0 -757 -343 -757 -769s337 -767 757 -767c206 0 396 81 532 215l14 -16c-140 -138 -334 -222 -546 -222z" />
    <glyph glyph-name="Ccircumflex" unicode="&#x108;" horiz-adv-x="1498" 
d="M595 1651l-13 16l280 246h17l280 -247l-13 -16l-276 239zM882 -22c-432 0 -782 352 -782 790s350 792 782 792c202 0 388 -78 528 -204l-14 -16c-136 122 -318 197 -514 197c-420 0 -757 -343 -757 -769s337 -767 757 -767c206 0 396 81 532 215l14 -16
c-140 -138 -334 -222 -546 -222z" />
    <glyph glyph-name="Cdotaccent" unicode="&#x10a;" horiz-adv-x="1498" 
d="M871 1753c-19 0 -34 15 -34 34s15 34 34 34s34 -15 34 -34s-15 -34 -34 -34zM882 -22c-432 0 -782 352 -782 790s350 792 782 792c202 0 388 -78 528 -204l-14 -16c-136 122 -318 197 -514 197c-420 0 -757 -343 -757 -769s337 -767 757 -767c206 0 396 81 532 215
l14 -16c-140 -138 -334 -222 -546 -222z" />
    <glyph glyph-name="Dcroat" unicode="&#x110;" horiz-adv-x="1496" 
d="M100 794h154v752h354c402 0 788 -326 788 -774c0 -424 -342 -772 -780 -772h-362v771h-154v23zM608 1523h-330v-729h302v-23h-302v-748h338c426 0 755 337 755 749c0 432 -373 751 -763 751z" />
    <glyph glyph-name="Dcaron" unicode="&#x10e;" horiz-adv-x="1482" 
d="M240 1546h354c402 0 788 -326 788 -774c0 -424 -342 -772 -780 -772h-362v1546zM594 1523h-330v-1500h338c426 0 755 337 755 749c0 432 -373 751 -763 751zM860 1918l13 -16l-280 -246h-17l-280 247l13 16l276 -239z" />
    <glyph glyph-name="Ebreve" unicode="&#x114;" horiz-adv-x="1182" 
d="M240 1546h816v-22h-792v-730h768v-22h-768v-749h788v-23h-812v1546zM646 1669c-142 0 -260 122 -260 273h24c0 -136 103 -250 236 -250c134 0 238 114 238 250h23c0 -151 -118 -273 -261 -273z" />
    <glyph glyph-name="Edotaccent" unicode="&#x116;" horiz-adv-x="1182" 
d="M240 1546h816v-22h-792v-730h768v-22h-768v-749h788v-23h-812v1546zM645 1753c-19 0 -34 15 -34 34s15 34 34 34s34 -15 34 -34s-15 -34 -34 -34z" />
    <glyph glyph-name="Ecaron" unicode="&#x11a;" horiz-adv-x="1182" 
d="M240 1546h816v-22h-792v-730h768v-22h-768v-749h788v-23h-812v1546zM943 1923l13 -16l-280 -246h-17l-280 247l13 16l276 -239z" />
    <glyph glyph-name="Eogonek" unicode="&#x118;" horiz-adv-x="1182" 
d="M1053 0l-158 -149c-35 -33 -49 -67 -49 -102c0 -68 61 -128 123 -128c36 0 65 13 101 46l157 147l16 -16l-154 -145c-43 -40 -77 -55 -120 -55c-80 0 -148 74 -148 152c0 41 16 81 61 122l138 128h-780v1546h816v-22h-792v-730h768v-22h-768v-749h788v-22z" />
    <glyph glyph-name="Emacron" unicode="&#x112;" horiz-adv-x="1182" 
d="M240 1546h816v-22h-792v-730h768v-22h-768v-749h788v-23h-812v1546zM422 1796h488v-23h-488v23z" />
    <glyph glyph-name="Gdotaccent" unicode="&#x120;" horiz-adv-x="1754" 
d="M880 1753c-19 0 -34 15 -34 34s15 34 34 34s34 -15 34 -34s-15 -34 -34 -34zM1212 746v22h452v-11c0 -432 -352 -779 -782 -779c-432 0 -782 352 -782 790s350 792 782 792c242 0 460 -112 604 -286l-17 -14c-140 168 -351 277 -587 277c-420 0 -757 -343 -757 -769
s337 -767 757 -767c414 0 753 331 759 745h-429z" />
    <glyph glyph-name="Gbreve" unicode="&#x11e;" horiz-adv-x="1754" 
d="M882 1669c-142 0 -260 122 -260 273h24c0 -136 103 -250 236 -250c134 0 238 114 238 250h23c0 -151 -118 -273 -261 -273zM1212 746v22h452v-11c0 -432 -352 -779 -782 -779c-432 0 -782 352 -782 790s350 792 782 792c242 0 460 -112 604 -286l-17 -14
c-140 168 -351 277 -587 277c-420 0 -757 -343 -757 -769s337 -767 757 -767c414 0 753 331 759 745h-429z" />
    <glyph glyph-name="Gcircumflex" unicode="&#x11c;" horiz-adv-x="1754" 
d="M604 1651l-13 16l280 246h17l280 -247l-13 -16l-276 239zM1212 746v22h452v-11c0 -432 -352 -779 -782 -779c-432 0 -782 352 -782 790s350 792 782 792c242 0 460 -112 604 -286l-17 -14c-140 168 -351 277 -587 277c-420 0 -757 -343 -757 -769s337 -767 757 -767
c414 0 753 331 759 745h-429z" />
    <glyph glyph-name="Gcommaaccent" unicode="&#x122;" horiz-adv-x="1754" 
d="M808 -377l-23 8l121 289l35 -15zM1212 746v22h452v-11c0 -432 -352 -779 -782 -779c-432 0 -782 352 -782 790s350 792 782 792c242 0 460 -112 604 -286l-17 -14c-140 168 -351 277 -587 277c-420 0 -757 -343 -757 -769s337 -767 757 -767c414 0 753 331 759 745h-429z
" />
    <glyph glyph-name="Hbar" unicode="&#x126;" horiz-adv-x="1548" 
d="M264 1546v-390h1020v390h24v-390h204v-23h-204v-1133h-24v766h-1020v-766h-24v1133h-202v23h202v390h24zM264 1133v-345h1020v345h-1020z" />
    <glyph glyph-name="Hcircumflex" unicode="&#x124;" horiz-adv-x="1548" 
d="M264 1546v-758h1020v758h24v-1546h-24v766h-1020v-766h-24v1546h24zM502 1651l-13 16l280 246h17l280 -247l-13 -16l-276 239z" />
    <glyph glyph-name="Ibreve" unicode="&#x12c;" horiz-adv-x="504" 
d="M251 1668c-142 0 -260 122 -260 273h24c0 -136 103 -250 236 -250c134 0 238 114 238 250h23c0 -151 -118 -273 -261 -273zM264 1546v-1546h-24v1546h24z" />
    <glyph glyph-name="Itilde" unicode="&#x128;" horiz-adv-x="504" 
d="M342 1759c42 0 65 29 76 85l23 -7c-15 -74 -50 -101 -99 -101c-41 0 -71 23 -99 56c-25 29 -46 48 -79 48c-42 0 -65 -29 -76 -85l-23 7c15 74 50 101 99 101c41 0 71 -23 98 -55c26 -31 49 -49 80 -49zM264 1546v-1546h-24v1546h24z" />
    <glyph glyph-name="Idotaccent" unicode="&#x130;" horiz-adv-x="504" 
d="M249 1752c-19 0 -34 15 -34 34s15 34 34 34s34 -15 34 -34s-15 -34 -34 -34zM264 1546v-1546h-24v1546h24z" />
    <glyph glyph-name="Icaron" unicode="&#x1cf;" horiz-adv-x="504" 
d="M525 1911l13 -16l-280 -246h-17l-280 247l13 16l276 -239zM264 1546v-1546h-24v1546h24z" />
    <glyph glyph-name="Iogonek" unicode="&#x12e;" horiz-adv-x="504" 
d="M264 1546v-1546l-158 -149c-35 -33 -49 -67 -49 -102c0 -68 61 -128 123 -128c36 0 65 13 101 46l157 147l16 -16l-154 -145c-43 -40 -77 -55 -120 -55c-80 0 -148 74 -148 152c0 41 16 81 61 122l147 135v1539h24z" />
    <glyph glyph-name="Imacron" unicode="&#x12a;" horiz-adv-x="504" 
d="M9 1789h488v-23h-488v23zM264 1546v-1546h-24v1546h24z" />
    <glyph glyph-name="Jcircumflex" unicode="&#x134;" horiz-adv-x="1035" 
d="M845 1546v-1106c0 -318 -192 -461 -426 -461c-192 0 -355 109 -419 329l22 7c63 -208 213 -314 397 -314c222 0 402 137 402 439v1106h24zM1080 1664l-16 -14l-230 280l-232 -280l-15 14l247 301z" />
    <glyph glyph-name="Kcommaaccent" unicode="&#x136;" horiz-adv-x="1310" 
d="M240 0v1546h24v-937l854 945l15 -16l-483 -536l600 -1002h-28l-589 983l-369 -409v-574h-24zM615 -377l-23 8l121 289l35 -15z" />
    <glyph glyph-name="Lcaron" unicode="&#x13d;" horiz-adv-x="1102" 
d="M264 1546v-1523h788v-23h-812v1546h24zM565 1128l32 426h39l-51 -429z" />
    <glyph glyph-name="Ldot" unicode="&#x13f;" horiz-adv-x="1102" 
d="M264 1546v-1523h788v-23h-812v1546h24zM618 776c0 18 16 32 34 32s32 -14 32 -32s-14 -34 -32 -34s-34 16 -34 34z" />
    <glyph glyph-name="Lacute" unicode="&#x139;" horiz-adv-x="1102" 
d="M264 1546v-1523h788v-23h-812v1546h24zM539 1938l16 -23l-317 -237l-11 16z" />
    <glyph glyph-name="Lcommaaccent" unicode="&#x13b;" horiz-adv-x="1102" 
d="M264 1546v-1523h788v-23h-812v1546h24zM523 -377l-23 8l121 289l35 -15z" />
    <glyph glyph-name="Nacute" unicode="&#x143;" horiz-adv-x="1548" 
d="M1027 1937l16 -23l-317 -237l-11 16zM240 0v1550h25l1019 -1510v1506h24v-1546h-25l-1019 1510v-1510h-24z" />
    <glyph glyph-name="Ntilde" unicode="&#xd1;" horiz-adv-x="1548" 
d="M922 1773c62 0 107 26 139 82l21 -13c-46 -80 -114 -92 -158 -92c-108 0 -190 96 -286 96c-62 0 -108 -31 -136 -81l-20 14c42 76 112 90 156 90c108 0 188 -94 284 -96zM240 0v1550h25l1019 -1510v1506h24v-1546h-25l-1019 1510v-1510h-24z" />
    <glyph glyph-name="Ncommaaccent" unicode="&#x145;" horiz-adv-x="1548" 
d="M646 -377l-23 8l121 289l35 -15zM240 0v1550h25l1019 -1510v1506h24v-1546h-25l-1019 1510v-1510h-24z" />
    <glyph glyph-name="Ncaron" unicode="&#x147;" horiz-adv-x="1548" 
d="M1058 1911l13 -16l-280 -246h-17l-280 247l13 16l276 -239zM240 0v1550h25l1019 -1510v1506h24v-1546h-25l-1019 1510v-1510h-24z" />
    <glyph glyph-name="Ncircumflex" horiz-adv-x="1548" 
d="M506 1650l-13 16l280 246h17l280 -247l-13 -16l-276 239zM240 0v1550h25l1019 -1510v1506h24v-1546h-25l-1019 1510v-1510h-24z" />
    <glyph glyph-name="Mcircumflex" horiz-adv-x="1674" 
d="M558 1651l-13 16l280 246h17l280 -247l-13 -16l-276 239zM240 0v1549h25l570 -1005l574 1005h25v-1549h-24v1505l-565 -990h-20l-561 989v-1504h-24z" />
    <glyph glyph-name="Eng" unicode="&#x14a;" horiz-adv-x="1548" 
d="M1308 1546v-1444c0 -318 -192 -461 -426 -461h-13v22h13c197 0 361 109 395 345l-1013 1502v-1510h-24v1550h25l1016 -1506c2 18 3 38 3 58v1444h24z" />
    <glyph glyph-name="Omacron" unicode="&#x14c;" horiz-adv-x="1795" 
d="M661 1790h488v-23h-488v23zM898 1561c438 0 797 -353 797 -787c0 -441 -359 -796 -797 -796c-441 0 -798 355 -798 796c0 434 357 787 798 787zM125 774c0 -429 344 -773 773 -773c426 0 772 344 772 773c0 422 -346 764 -772 764c-429 0 -773 -342 -773 -764z" />
    <glyph glyph-name="Obreve" unicode="&#x14e;" horiz-adv-x="1795" 
d="M903 1669c-142 0 -260 122 -260 273h24c0 -136 103 -250 236 -250c134 0 238 114 238 250h23c0 -151 -118 -273 -261 -273zM898 1561c438 0 797 -353 797 -787c0 -441 -359 -796 -797 -796c-441 0 -798 355 -798 796c0 434 357 787 798 787zM125 774
c0 -429 344 -773 773 -773c426 0 772 344 772 773c0 422 -346 764 -772 764c-429 0 -773 -342 -773 -764z" />
    <glyph glyph-name="Odotbelow" unicode="&#x1ecc;" horiz-adv-x="1795" 
d="M840 -217c0 18 16 32 34 32s32 -14 32 -32s-14 -34 -32 -34s-34 16 -34 34zM898 1561c438 0 797 -353 797 -787c0 -441 -359 -796 -797 -796c-441 0 -798 355 -798 796c0 434 357 787 798 787zM125 774c0 -429 344 -773 773 -773c426 0 772 344 772 773
c0 422 -346 764 -772 764c-429 0 -773 -342 -773 -764z" />
    <glyph glyph-name="Oslashacute" unicode="&#x1fe;" horiz-adv-x="1795" 
d="M898 1561c166 0 320 -51 448 -138l105 144l19 -13l-105 -144c200 -143 330 -375 330 -636c0 -441 -359 -796 -797 -796c-174 0 -336 55 -467 149l-112 -154l-20 13l113 155c-190 145 -312 374 -312 633c0 434 357 787 798 787zM1670 774c0 254 -125 479 -318 618
l-907 -1246c127 -91 283 -145 453 -145c426 0 772 344 772 773zM125 774c0 -251 118 -473 301 -614l907 1245c-124 84 -274 133 -435 133c-429 0 -773 -342 -773 -764zM1177 1938l16 -23l-317 -237l-11 16z" />
    <glyph glyph-name="Ohorn" unicode="&#x1a0;" horiz-adv-x="1795" 
d="M898 1561c251 0 476 -116 622 -297c101 22 166 80 166 254v43h25v-34c0 -194 -73 -261 -176 -282c100 -132 160 -295 160 -471c0 -441 -359 -796 -797 -796c-441 0 -798 355 -798 796c0 434 357 787 798 787zM125 774c0 -429 344 -773 773 -773c426 0 772 344 772 773
c0 422 -346 764 -772 764c-429 0 -773 -342 -773 -764z" />
    <glyph glyph-name="Rcommaaccent" unicode="&#x156;" horiz-adv-x="1259" 
d="M240 0v1546h511c232 0 429 -182 429 -414c0 -240 -201 -417 -435 -417h-145l584 -707l-17 -15l-596 722h-307v-715h-24zM264 1524v-788h482c222 0 409 172 409 396c0 220 -183 392 -403 392h-488zM601 -377l-23 8l121 289l35 -15z" />
    <glyph glyph-name="Rcaron" unicode="&#x158;" horiz-adv-x="1259" 
d="M240 0v1546h511c232 0 429 -182 429 -414c0 -240 -201 -417 -435 -417h-145l584 -707l-17 -15l-596 722h-307v-715h-24zM264 1524v-788h482c222 0 409 172 409 396c0 220 -183 392 -403 392h-488zM929 1912l13 -16l-280 -246h-17l-280 247l13 16l276 -239z" />
    <glyph glyph-name="Racute" unicode="&#x154;" horiz-adv-x="1259" 
d="M240 0v1546h511c232 0 429 -182 429 -414c0 -240 -201 -417 -435 -417h-145l584 -707l-17 -15l-596 722h-307v-715h-24zM264 1524v-788h482c222 0 409 172 409 396c0 220 -183 392 -403 392h-488zM888 1938l16 -23l-317 -237l-11 16z" />
    <glyph glyph-name="Scedilla" unicode="&#x15e;" horiz-adv-x="1176" 
d="M297 -340v23c181 0 310 115 311 296c-4 0 -8 -1 -12 -1c-208 0 -402 104 -516 234l20 16c106 -126 296 -226 496 -226c270 0 435 175 435 374c0 150 -82 298 -300 383l-207 81c-208 84 -316 191 -316 364c0 216 164 357 400 357c164 0 296 -48 393 -156l-14 -15
c-103 109 -227 148 -380 148c-224 0 -374 -130 -374 -334c0 -161 99 -262 299 -342l207 -81c229 -90 317 -245 317 -405c0 -206 -163 -381 -423 -396c-1 -191 -132 -320 -336 -320z" />
    <glyph glyph-name="Scircumflex" unicode="&#x15c;" horiz-adv-x="1176" 
d="M341 1651l-13 16l280 246h17l280 -247l-13 -16l-276 239zM596 2c270 0 435 175 435 374c0 150 -82 298 -300 383l-207 81c-208 84 -316 191 -316 364c0 216 164 357 400 357c164 0 296 -48 393 -156l-14 -15c-103 109 -227 148 -380 148c-224 0 -374 -130 -374 -334
c0 -161 99 -262 299 -342l207 -81c229 -90 317 -245 317 -405c0 -215 -178 -398 -460 -398c-208 0 -402 104 -516 234l20 16c106 -126 296 -226 496 -226z" />
    <glyph glyph-name="Scommaaccent" unicode="&#x218;" horiz-adv-x="1176" 
d="M518 -377l-23 8l121 289l35 -15zM596 2c270 0 435 175 435 374c0 150 -82 298 -300 383l-207 81c-208 84 -316 191 -316 364c0 216 164 357 400 357c164 0 296 -48 393 -156l-14 -15c-103 109 -227 148 -380 148c-224 0 -374 -130 -374 -334c0 -161 99 -262 299 -342
l207 -81c229 -90 317 -245 317 -405c0 -215 -178 -398 -460 -398c-208 0 -402 104 -516 234l20 16c106 -126 296 -226 496 -226z" />
    <glyph glyph-name="Sacute" unicode="&#x15a;" horiz-adv-x="1176" 
d="M945 1938l16 -23l-317 -237l-11 16zM596 2c270 0 435 175 435 374c0 150 -82 298 -300 383l-207 81c-208 84 -316 191 -316 364c0 216 164 357 400 357c164 0 296 -48 393 -156l-14 -15c-103 109 -227 148 -380 148c-224 0 -374 -130 -374 -334c0 -161 99 -262 299 -342
l207 -81c229 -90 317 -245 317 -405c0 -215 -178 -398 -460 -398c-208 0 -402 104 -516 234l20 16c106 -126 296 -226 496 -226z" />
    <glyph glyph-name="Tcaron" unicode="&#x164;" horiz-adv-x="1212" 
d="M30 1546h1152v-22h-564v-1524h-24v1524h-564v22zM886 1911l13 -16l-280 -246h-17l-280 247l13 16l276 -239z" />
    <glyph glyph-name="Tcommaaccent" unicode="&#x162;" horiz-adv-x="1212" 
d="M30 1546h1152v-22h-564v-1524h-24v1524h-564v22zM511 -377l-23 8l121 289l35 -15z" />
    <glyph glyph-name="Tcommaaccent" unicode="&#x21a;" horiz-adv-x="1212" 
d="M30 1546h1152v-22h-564v-1524h-24v1524h-564v22zM511 -377l-23 8l121 289l35 -15z" />
    <glyph glyph-name="Tbar" unicode="&#x166;" horiz-adv-x="1252" 
d="M140 844h474v680h-564v22h1152v-22h-564v-680h502v-23h-502v-821h-24v821h-474v23z" />
    <glyph glyph-name="Uring" unicode="&#x16e;" horiz-adv-x="1404" 
d="M687 1644c-98 0 -165 74 -165 163c0 90 70 162 165 162c94 0 165 -72 165 -162c0 -89 -69 -163 -165 -163zM687 1666c83 0 142 66 142 141c0 76 -61 140 -142 140s-142 -64 -142 -140c0 -77 59 -141 142 -141zM1214 1546v-1042c0 -294 -198 -526 -514 -526
c-312 0 -510 232 -510 526v1042h24v-1042c0 -282 186 -503 486 -503c304 0 490 221 490 503v1042h24z" />
    <glyph glyph-name="Umacron" unicode="&#x16a;" horiz-adv-x="1404" 
d="M447 1790h488v-23h-488v23zM1214 1546v-1042c0 -294 -198 -526 -514 -526c-312 0 -510 232 -510 526v1042h24v-1042c0 -282 186 -503 486 -503c304 0 490 221 490 503v1042h24z" />
    <glyph glyph-name="Ubreve" unicode="&#x16c;" horiz-adv-x="1404" 
d="M689 1669c-142 0 -260 122 -260 273h24c0 -136 103 -250 236 -250c134 0 238 114 238 250h23c0 -151 -118 -273 -261 -273zM1214 1546v-1042c0 -294 -198 -526 -514 -526c-312 0 -510 232 -510 526v1042h24v-1042c0 -282 186 -503 486 -503c304 0 490 221 490 503v1042
h24z" />
    <glyph glyph-name="Utilde" unicode="&#x168;" horiz-adv-x="1404" 
d="M827 1774c62 0 107 26 139 82l21 -13c-46 -80 -114 -92 -158 -92c-108 0 -190 96 -286 96c-62 0 -108 -31 -136 -81l-20 14c42 76 112 90 156 90c108 0 188 -94 284 -96zM1214 1546v-1042c0 -294 -198 -526 -514 -526c-312 0 -510 232 -510 526v1042h24v-1042
c0 -282 186 -503 486 -503c304 0 490 221 490 503v1042h24z" />
    <glyph glyph-name="Uogonek" unicode="&#x172;" horiz-adv-x="1404" 
d="M1214 1546v-1042c0 -162 -60 -305 -167 -401l-267 -252c-35 -33 -49 -67 -49 -102c0 -68 61 -128 123 -128c36 0 65 13 101 46l157 147l16 -16l-154 -145c-43 -40 -77 -55 -120 -55c-80 0 -148 74 -148 152c0 41 16 81 61 122l170 157c-68 -32 -148 -51 -237 -51
c-312 0 -510 232 -510 526v1042h24v-1042c0 -282 186 -503 486 -503c304 0 490 221 490 503v1042h24z" />
    <glyph glyph-name="Udotbelow" unicode="&#x1ee4;" horiz-adv-x="1404" 
d="M660 -217c0 18 16 32 34 32s32 -14 32 -32s-14 -34 -32 -34s-34 16 -34 34zM1214 1546v-1042c0 -294 -198 -526 -514 -526c-312 0 -510 232 -510 526v1042h24v-1042c0 -282 186 -503 486 -503c304 0 490 221 490 503v1042h24z" />
    <glyph glyph-name="Uhorn" unicode="&#x1af;" horiz-adv-x="1404" 
d="M1214 1546v-295c96 23 157 83 157 252v43h25v-34c0 -198 -76 -264 -182 -284v-724c0 -294 -198 -526 -514 -526c-312 0 -510 232 -510 526v1042h24v-1042c0 -282 186 -503 486 -503c304 0 490 221 490 503v1042h24z" />
    <glyph glyph-name="Wdieresis" unicode="&#x1e84;" horiz-adv-x="1838" 
d="M675 1790c0 18 16 32 34 32s32 -14 32 -32s-14 -34 -32 -34s-34 16 -34 34zM1115 1790c0 18 16 32 34 32s32 -14 32 -32s-14 -34 -32 -34s-34 16 -34 34zM38 1548l427 -1499l449 1491h18l431 -1491l438 1499l22 -4l-452 -1544h-19l-429 1491l-449 -1491h-23l-436 1544z
" />
    <glyph glyph-name="Wacute" unicode="&#x1e82;" horiz-adv-x="1838" 
d="M1169 1938l16 -23l-317 -237l-11 16zM38 1548l427 -1499l449 1491h18l431 -1491l438 1499l22 -4l-452 -1544h-19l-429 1491l-449 -1491h-23l-436 1544z" />
    <glyph glyph-name="Wgrave" unicode="&#x1e80;" horiz-adv-x="1838" 
d="M669 1933l17 21l313 -241l-11 -17zM38 1548l427 -1499l449 1491h18l431 -1491l438 1499l22 -4l-452 -1544h-19l-429 1491l-449 -1491h-23l-436 1544z" />
    <glyph glyph-name="Wcircumflex" unicode="&#x174;" horiz-adv-x="1838" 
d="M648 1651l-13 16l280 246h17l280 -247l-13 -16l-276 239zM38 1548l427 -1499l449 1491h18l431 -1491l438 1499l22 -4l-452 -1544h-19l-429 1491l-449 -1491h-23l-436 1544z" />
    <glyph glyph-name="Ygrave" unicode="&#x1ef2;" horiz-adv-x="1085" 
d="M534 0v615l-519 929l22 12l508 -915l503 916l22 -12l-513 -930v-615h-23zM318 1933l17 21l313 -241l-11 -17z" />
    <glyph glyph-name="Ycircumflex" unicode="&#x176;" horiz-adv-x="1085" 
d="M534 0v615l-519 929l22 12l508 -915l503 916l22 -12l-513 -930v-615h-23zM267 1651l-13 16l280 246h17l280 -247l-13 -16l-276 239z" />
    <glyph glyph-name="Ymacron" horiz-adv-x="1085" 
d="M534 0v615l-519 929l22 12l508 -915l503 916l22 -12l-513 -930v-615h-23zM303 1790h488v-23h-488v23z" />
    <glyph glyph-name="Zdotaccent" unicode="&#x17b;" horiz-adv-x="1198" 
d="M1146 0h-1116v20l1105 1503h-1047v23h1080v-20l-1106 -1503h1084v-23zM626 1753c-19 0 -34 15 -34 34s15 34 34 34s34 -15 34 -34s-15 -34 -34 -34z" />
    <glyph glyph-name="Zacute" unicode="&#x179;" horiz-adv-x="1198" 
d="M1146 0h-1116v20l1105 1503h-1047v23h1080v-20l-1106 -1503h1084v-23zM871 1938l16 -23l-317 -237l-11 16z" />
    <glyph glyph-name="amacron" unicode="&#x101;" horiz-adv-x="1204" 
d="M572 1002c206 0 462 -106 462 -346v-656h-24v178c-91 -100 -259 -196 -453 -196c-202 0 -447 90 -447 312c0 164 148 322 458 322c179 0 355 -81 442 -188v228c0 220 -236 323 -438 323c-148 0 -286 -40 -388 -127l-14 18c108 91 250 132 402 132zM557 5
c193 0 370 106 453 206v184c-75 103 -252 198 -442 198c-298 0 -433 -151 -433 -299c0 -213 254 -289 422 -289zM335 1237h488v-23h-488v23z" />
    <glyph glyph-name="abreve" unicode="&#x103;" horiz-adv-x="1204" 
d="M572 1002c206 0 462 -106 462 -346v-656h-24v178c-91 -100 -259 -196 -453 -196c-202 0 -447 90 -447 312c0 164 148 322 458 322c179 0 355 -81 442 -188v228c0 220 -236 323 -438 323c-148 0 -286 -40 -388 -127l-14 18c108 91 250 132 402 132zM557 5
c193 0 370 106 453 206v184c-75 103 -252 198 -442 198c-298 0 -433 -151 -433 -299c0 -213 254 -289 422 -289zM574 1111c-142 0 -260 122 -260 273h24c0 -136 103 -250 236 -250c134 0 238 114 238 250h23c0 -151 -118 -273 -261 -273z" />
    <glyph glyph-name="aringacute" unicode="&#x1fb;" horiz-adv-x="1204" 
d="M572 1002c206 0 462 -106 462 -346v-656h-24v178c-91 -100 -259 -196 -453 -196c-202 0 -447 90 -447 312c0 164 148 322 458 322c179 0 355 -81 442 -188v228c0 220 -236 323 -438 323c-148 0 -286 -40 -388 -127l-14 18c108 91 250 132 402 132zM557 5
c193 0 370 106 453 206v184c-75 103 -252 198 -442 198c-298 0 -433 -151 -433 -299c0 -213 254 -289 422 -289zM570 1116c-98 0 -165 74 -165 163c0 90 70 162 165 162c94 0 165 -72 165 -162c0 -89 -69 -163 -165 -163zM570 1138c83 0 142 66 142 141
c0 76 -61 140 -142 140s-142 -64 -142 -140c0 -77 59 -141 142 -141zM834 1729l16 -23l-317 -237l-11 16z" />
    <glyph glyph-name="aogonek" unicode="&#x105;" horiz-adv-x="1204" 
d="M572 1002c206 0 462 -106 462 -346v-656l-158 -149c-35 -33 -49 -67 -49 -102c0 -68 61 -128 123 -128c36 0 65 13 101 46l157 147l16 -16l-154 -145c-43 -40 -77 -55 -120 -55c-80 0 -148 74 -148 152c0 41 16 81 61 122l147 135v171c-91 -100 -259 -196 -453 -196
c-202 0 -447 90 -447 312c0 164 148 322 458 322c179 0 355 -81 442 -188v228c0 220 -236 323 -438 323c-148 0 -286 -40 -388 -127l-14 18c108 91 250 132 402 132zM557 5c193 0 370 106 453 206v184c-75 103 -252 198 -442 198c-298 0 -433 -151 -433 -299
c0 -213 254 -289 422 -289z" />
    <glyph glyph-name="adotaccent" horiz-adv-x="1214" 
d="M572 1002c206 0 462 -106 462 -346v-656h-24v178c-91 -100 -259 -196 -453 -196c-202 0 -447 90 -447 312c0 164 148 322 458 322c179 0 355 -81 442 -188v228c0 220 -236 323 -438 323c-148 0 -286 -40 -388 -127l-14 18c108 91 250 132 402 132zM557 5
c193 0 370 106 453 206v184c-75 103 -252 198 -442 198c-298 0 -433 -151 -433 -299c0 -213 254 -289 422 -289zM546 1229c0 19 15 34 34 34s34 -15 34 -34s-15 -34 -34 -34s-34 15 -34 34z" />
    <glyph glyph-name="adotbelow" unicode="&#x1ea1;" horiz-adv-x="1204" 
d="M572 1002c206 0 462 -106 462 -346v-656h-24v178c-91 -100 -259 -196 -453 -196c-202 0 -447 90 -447 312c0 164 148 322 458 322c179 0 355 -81 442 -188v228c0 220 -236 323 -438 323c-148 0 -286 -40 -388 -127l-14 18c108 91 250 132 402 132zM557 5
c193 0 370 106 453 206v184c-75 103 -252 198 -442 198c-298 0 -433 -151 -433 -299c0 -213 254 -289 422 -289zM530 -217c0 18 16 32 34 32s32 -14 32 -32s-14 -34 -32 -34s-34 16 -34 34z" />
    <glyph glyph-name="aeacute" unicode="&#x1fd;" horiz-adv-x="2060" 
d="M1524 -20c-220 0 -384 109 -465 270c-89 -165 -302 -268 -497 -268c-202 0 -452 90 -452 312c0 164 148 322 458 322c176 0 349 -79 438 -183c-3 23 -4 46 -4 69s1 46 4 68v85c0 219 -233 324 -434 324c-148 0 -286 -40 -388 -127l-14 18c108 91 250 132 402 132
c226 0 443 -115 458 -324c62 186 225 322 460 322c290 0 478 -189 500 -445v-11h-961c-1 -14 -2 -28 -2 -42c0 -273 189 -499 497 -499c166 0 268 35 400 147l16 -18c-134 -114 -242 -152 -416 -152zM562 5c189 0 402 105 486 271c-16 36 -29 75 -36 116
c-75 104 -253 201 -444 201c-298 0 -433 -151 -433 -299c0 -213 259 -289 427 -289zM1490 977c-267 0 -433 -184 -459 -410h933c-26 238 -204 410 -474 410zM1261 1400l16 -22l-314 -243l-11 17z" />
    <glyph glyph-name="cacute" unicode="&#x107;" horiz-adv-x="980" 
d="M592 -22c-280 0 -502 226 -502 512c0 284 222 512 502 512c118 0 224 -40 308 -104l-13 -19c-82 62 -183 100 -295 100c-266 0 -477 -217 -477 -489s211 -489 477 -489c108 0 208 36 286 94l14 -18c-84 -62 -186 -99 -300 -99zM779 1400l16 -22l-314 -243l-11 17z" />
    <glyph glyph-name="ccircumflex" unicode="&#x109;" horiz-adv-x="980" 
d="M592 -22c-280 0 -502 226 -502 512c0 284 222 512 502 512c118 0 224 -40 308 -104l-13 -19c-82 62 -183 100 -295 100c-266 0 -477 -217 -477 -489s211 -489 477 -489c108 0 208 36 286 94l14 -18c-84 -62 -186 -99 -300 -99zM835 1106l-16 -14l-230 280l-232 -280
l-15 14l247 301z" />
    <glyph glyph-name="cdotaccent" unicode="&#x10b;" horiz-adv-x="980" 
d="M592 -22c-280 0 -502 226 -502 512c0 284 222 512 502 512c118 0 224 -40 308 -104l-13 -19c-82 62 -183 100 -295 100c-266 0 -477 -217 -477 -489s211 -489 477 -489c108 0 208 36 286 94l14 -18c-84 -62 -186 -99 -300 -99zM552 1229c0 19 15 34 34 34s34 -15 34 -34
s-15 -34 -34 -34s-34 15 -34 34z" />
    <glyph glyph-name="dcaron" unicode="&#x10f;" horiz-adv-x="1330" 
d="M1060 0v252c-65 -143 -228 -274 -458 -274c-298 0 -512 225 -512 511c0 281 222 513 514 513c222 0 395 -142 456 -272v830h24v-1560h-24zM602 1c221 0 391 127 458 306v363c-69 178 -245 309 -456 309c-280 0 -489 -223 -489 -490c0 -274 203 -488 487 -488zM1239 1156
l32 426h39l-51 -429z" />
    <glyph glyph-name="dcroat" unicode="&#x111;" horiz-adv-x="1285" 
d="M1060 0v252c-65 -143 -228 -274 -458 -274c-298 0 -512 225 -512 511c0 281 222 513 514 513c222 0 395 -142 456 -272v522h-235v23h235v285h24v-285h221v-23h-221v-1252h-24zM602 1c221 0 391 127 458 306v363c-69 178 -245 309 -456 309c-280 0 -489 -223 -489 -490
c0 -274 203 -488 487 -488z" />
    <glyph glyph-name="ecaron" unicode="&#x11b;" horiz-adv-x="1148" 
d="M612 -20c-322 0 -522 234 -522 522c0 269 184 498 488 498c290 0 478 -189 500 -445v-11h-961c-1 -14 -2 -28 -2 -42c0 -273 189 -499 497 -499c166 0 268 35 400 147l16 -18c-134 -114 -242 -152 -416 -152zM578 977c-267 0 -433 -184 -459 -410h933
c-26 238 -204 410 -474 410zM812 1474l16 -14l-238 -290h-17l-238 290l15 14l232 -280z" />
    <glyph glyph-name="ebreve" unicode="&#x115;" horiz-adv-x="1148" 
d="M612 -20c-322 0 -522 234 -522 522c0 269 184 498 488 498c290 0 478 -189 500 -445v-11h-961c-1 -14 -2 -28 -2 -42c0 -273 189 -499 497 -499c166 0 268 35 400 147l16 -18c-134 -114 -242 -152 -416 -152zM578 977c-267 0 -433 -184 -459 -410h933
c-26 238 -204 410 -474 410zM585 1111c-142 0 -260 122 -260 273h24c0 -136 103 -250 236 -250c134 0 238 114 238 250h23c0 -151 -118 -273 -261 -273z" />
    <glyph glyph-name="eogonek" unicode="&#x119;" horiz-adv-x="1148" 
d="M612 -20c-322 0 -522 234 -522 522c0 269 184 498 488 498c290 0 478 -189 500 -445v-11h-961c-1 -14 -2 -28 -2 -42c0 -273 189 -499 497 -499c166 0 268 35 400 147l16 -18l-158 -149c-35 -33 -49 -67 -49 -102c0 -68 61 -128 123 -128c36 0 65 13 101 46l157 147
l16 -16l-154 -145c-43 -40 -77 -55 -120 -55c-80 0 -148 74 -148 152c0 41 16 81 61 122l39 36c-84 -43 -170 -60 -284 -60zM578 977c-267 0 -433 -184 -459 -410h933c-26 238 -204 410 -474 410z" />
    <glyph glyph-name="emacron" unicode="&#x113;" horiz-adv-x="1148" 
d="M612 -20c-322 0 -522 234 -522 522c0 269 184 498 488 498c290 0 478 -189 500 -445v-11h-961c-1 -14 -2 -28 -2 -42c0 -273 189 -499 497 -499c166 0 268 35 400 147l16 -18c-134 -114 -242 -152 -416 -152zM578 977c-267 0 -433 -184 -459 -410h933
c-26 238 -204 410 -474 410zM346 1237h488v-23h-488v23z" />
    <glyph glyph-name="edotaccent" unicode="&#x117;" horiz-adv-x="1148" 
d="M612 -20c-322 0 -522 234 -522 522c0 269 184 498 488 498c290 0 478 -189 500 -445v-11h-961c-1 -14 -2 -28 -2 -42c0 -273 189 -499 497 -499c166 0 268 35 400 147l16 -18c-134 -114 -242 -152 -416 -152zM578 977c-267 0 -433 -184 -459 -410h933
c-26 238 -204 410 -474 410zM547 1229c0 19 15 34 34 34s34 -15 34 -34s-15 -34 -34 -34s-34 15 -34 34z" />
    <glyph glyph-name="gdotaccent" unicode="&#x121;" horiz-adv-x="1300" 
d="M630 -356c-212 0 -406 66 -538 190l16 16c128 -116 314 -183 522 -183c296 0 456 171 456 405v175c-66 -141 -229 -269 -456 -269c-298 0 -512 225 -512 511c0 281 222 513 514 513c219 0 391 -139 454 -268v254h24v-916c0 -246 -168 -428 -480 -428zM630 1
c219 0 388 124 456 300v374c-71 175 -245 304 -454 304c-280 0 -489 -223 -489 -490c0 -274 203 -488 487 -488zM594 1230c0 19 15 34 34 34s34 -15 34 -34s-15 -34 -34 -34s-34 15 -34 34z" />
    <glyph glyph-name="gcommaaccent" unicode="&#x123;" horiz-adv-x="1262" 
d="M602 -356c-212 0 -406 66 -538 190l16 16c128 -116 314 -183 522 -183c296 0 456 171 456 405v175c-66 -141 -229 -269 -456 -269c-298 0 -512 225 -512 511c0 281 222 513 514 513c219 0 391 -139 454 -268v254h24v-916c0 -246 -168 -428 -480 -428zM602 1
c219 0 388 124 456 300v374c-71 175 -245 304 -454 304c-280 0 -489 -223 -489 -490c0 -274 203 -488 487 -488zM590 1128l-23 11l133 283l19 -9z" />
    <glyph glyph-name="gbreve" unicode="&#x11f;" horiz-adv-x="1262" 
d="M602 -356c-212 0 -406 66 -538 190l16 16c128 -116 314 -183 522 -183c296 0 456 171 456 405v175c-66 -141 -229 -269 -456 -269c-298 0 -512 225 -512 511c0 281 222 513 514 513c219 0 391 -139 454 -268v254h24v-916c0 -246 -168 -428 -480 -428zM602 1
c219 0 388 124 456 300v374c-71 175 -245 304 -454 304c-280 0 -489 -223 -489 -490c0 -274 203 -488 487 -488zM604 1112c-142 0 -260 122 -260 273h24c0 -136 103 -250 236 -250c134 0 238 114 238 250h23c0 -151 -118 -273 -261 -273z" />
    <glyph glyph-name="gcircumflex" unicode="&#x11d;" horiz-adv-x="1262" 
d="M602 -356c-212 0 -406 66 -538 190l16 16c128 -116 314 -183 522 -183c296 0 456 171 456 405v175c-66 -141 -229 -269 -456 -269c-298 0 -512 225 -512 511c0 281 222 513 514 513c219 0 391 -139 454 -268v254h24v-916c0 -246 -168 -428 -480 -428zM602 1
c219 0 388 124 456 300v374c-71 175 -245 304 -454 304c-280 0 -489 -223 -489 -490c0 -274 203 -488 487 -488zM849 1107l-16 -14l-230 280l-232 -280l-15 14l247 301z" />
    <glyph glyph-name="hbar" unicode="&#x127;" horiz-adv-x="1220" 
d="M620 1002c218 0 430 -144 430 -404v-598h-24v595c0 240 -188 385 -408 385c-188 0 -331 -127 -394 -236v-744h-24v1252h-169v23h169v285h24v-285h287v-23h-287v-468c60 101 209 218 396 218z" />
    <glyph glyph-name="hcircumflex" unicode="&#x125;" horiz-adv-x="1220" 
d="M620 1002c218 0 430 -144 430 -404v-598h-24v595c0 240 -188 385 -408 385c-188 0 -331 -127 -394 -236v-744h-24v1560h24v-776c60 101 209 218 396 218zM904 1179l-16 -14l-230 280l-232 -280l-15 14l247 301z" />
    <glyph glyph-name="imacron" unicode="&#x12b;" 
d="M180 0v988h24v-988h-24zM21 1238h342v-23h-342v23z" />
    <glyph glyph-name="icaron" unicode="&#x1d0;" 
d="M180 0v988h24v-988h-24zM421 1475l16 -14l-238 -290h-17l-238 290l15 14l232 -280z" />
    <glyph glyph-name="iogonek" unicode="&#x12f;" 
d="M204 0l-158 -149c-35 -33 -49 -67 -49 -102c0 -68 61 -128 123 -128c36 0 65 13 101 46l157 147l16 -16l-154 -145c-43 -40 -77 -55 -120 -55c-80 0 -148 74 -148 152c0 41 16 81 61 122l147 135v981h24v-988zM156 1319c0 19 15 34 34 34s34 -15 34 -34s-15 -34 -34 -34
s-34 15 -34 34z" />
    <glyph glyph-name="ibreve" unicode="&#x12d;" 
d="M180 0v988h24v-988h-24zM194 1112c-142 0 -260 122 -260 273h24c0 -136 103 -250 236 -250c134 0 238 114 238 250h23c0 -151 -118 -273 -261 -273z" />
    <glyph glyph-name="itilde" unicode="&#x129;" 
d="M283 1213c42 0 65 29 76 85l23 -7c-15 -74 -50 -101 -99 -101c-41 0 -71 23 -99 56c-25 29 -46 48 -79 48c-42 0 -65 -29 -76 -85l-23 7c15 74 50 101 99 101c41 0 71 -23 98 -55c26 -31 49 -49 80 -49zM180 0v988h24v-988h-24z" />
    <glyph glyph-name="ij" unicode="&#x133;" horiz-adv-x="838" 
d="M180 0v988h24v-988h-24zM156 1319c0 19 15 34 34 34s34 -15 34 -34s-15 -34 -34 -34s-34 15 -34 34zM612 1319c0 19 15 34 34 34s34 -15 34 -34s-15 -34 -34 -34s-34 15 -34 34zM658 988v-1090c0 -196 -102 -298 -264 -308l-2 23c152 10 242 103 242 285v1090h24z" />
    <glyph glyph-name="jcircumflex" unicode="&#x135;" 
d="M383 1101l-19 -11l-172 275l-174 -275l-19 10l192 305h2zM204 988v-1090c0 -196 -102 -298 -264 -308l-2 23c152 10 242 103 242 285v1090h24z" />
    <glyph glyph-name="dotlessj" unicode="&#x237;" 
d="M204 988v-1090c0 -196 -102 -298 -264 -308l-2 23c152 10 242 103 242 285v1090h24z" />
    <glyph glyph-name="kgreenlandic" unicode="&#x138;" horiz-adv-x="928" 
d="M818 972l-384 -352l444 -612l-20 -16l-442 612l-212 -195v-409h-24v988h24v-547l599 549z" />
    <glyph glyph-name="kcommaaccent" unicode="&#x137;" horiz-adv-x="948" 
d="M838 972l-384 -352l444 -612l-20 -16l-442 612l-212 -195v-409h-24v1560h24v-1118l598 549zM428 -377l-23 8l121 289l35 -15z" />
    <glyph glyph-name="lcommaaccent" unicode="&#x13c;" horiz-adv-x="424" 
d="M153 -377l-23 8l121 289l35 -15zM200 0v1560h24v-1560h-24z" />
    <glyph glyph-name="lacute" unicode="&#x13a;" horiz-adv-x="424" 
d="M200 0v1560h24v-1560h-24zM484 1938l16 -23l-317 -237l-11 16z" />
    <glyph glyph-name="ldot" unicode="&#x140;" horiz-adv-x="494" 
d="M200 0v1560h24v-1560h-24zM318 653c0 18 16 32 34 32s32 -14 32 -32s-14 -34 -32 -34s-34 16 -34 34z" />
    <glyph glyph-name="lcaron" unicode="&#x13e;" horiz-adv-x="454" 
d="M200 0v1560h24v-1560h-24zM367 1074l-4 486h32l-6 -486h-22z" />
    <glyph glyph-name="nacute" unicode="&#x144;" horiz-adv-x="1210" 
d="M610 1002c218 0 430 -144 430 -404v-598h-24v595c0 240 -188 385 -408 385c-198 0 -347 -141 -404 -254v-726h-24v988h24v-222c53 104 208 236 406 236zM783 1382l16 -22l-314 -243l-11 17z" />
    <glyph glyph-name="ncommaaccent" unicode="&#x146;" horiz-adv-x="1210" 
d="M610 1002c218 0 430 -144 430 -404v-598h-24v595c0 240 -188 385 -408 385c-198 0 -347 -141 -404 -254v-726h-24v988h24v-222c53 104 208 236 406 236zM498 -377l-23 8l121 289l35 -15z" />
    <glyph glyph-name="ncaron" unicode="&#x148;" horiz-adv-x="1210" 
d="M610 1002c218 0 430 -144 430 -404v-598h-24v595c0 240 -188 385 -408 385c-198 0 -347 -141 -404 -254v-726h-24v988h24v-222c53 104 208 236 406 236zM821 1456l16 -14l-238 -290h-17l-238 290l15 14l232 -280z" />
    <glyph glyph-name="ncircumflex" horiz-adv-x="1210" 
d="M610 1002c218 0 430 -144 430 -404v-598h-24v595c0 240 -188 385 -408 385c-198 0 -347 -141 -404 -254v-726h-24v988h24v-222c53 104 208 236 406 236zM873 1106l-16 -14l-230 280l-232 -280l-15 14l247 301z" />
    <glyph glyph-name="napostrophe" unicode="&#x149;" horiz-adv-x="1210" 
d="M610 1002c218 0 430 -144 430 -404v-598h-24v595c0 240 -188 385 -408 385c-198 0 -347 -141 -404 -254v-726h-24v988h24v-222c53 104 208 236 406 236zM204 1156l32 426h39l-51 -429z" />
    <glyph glyph-name="mcircumflex" horiz-adv-x="2046" 
d="M610 1002c192 0 375 -106 419 -280c39 139 199 280 411 280c215 0 436 -148 436 -404v-598h-24v598c0 240 -207 382 -412 382c-212 0 -400 -156 -400 -350v-630h-24v625c0 226 -188 355 -408 355c-198 0 -347 -141 -404 -254v-726h-24v988h24v-222
c53 104 208 236 406 236zM754 1118l-13 16l280 246h17l280 -247l-13 -16l-276 239z" />
    <glyph glyph-name="eng" unicode="&#x14b;" horiz-adv-x="1210" 
d="M180 0v988h24v-222c53 104 208 236 406 236c218 0 430 -144 430 -404v-700c0 -196 -102 -298 -264 -308l-2 23c152 10 242 103 242 285v697c0 240 -188 385 -408 385c-198 0 -347 -141 -404 -254v-726h-24z" />
    <glyph glyph-name="omacron" unicode="&#x14d;" horiz-adv-x="1206" 
d="M604 1002c292 0 512 -226 512 -510c0 -279 -214 -514 -512 -514c-300 0 -514 233 -514 514c0 284 222 510 514 510zM115 492c0 -269 203 -491 489 -491s487 224 487 491c0 272 -209 487 -487 487c-280 0 -489 -215 -489 -487zM367 1231h488v-23h-488v23z" />
    <glyph glyph-name="obreve" unicode="&#x14f;" horiz-adv-x="1206" 
d="M604 1002c292 0 512 -226 512 -510c0 -279 -214 -514 -512 -514c-300 0 -514 233 -514 514c0 284 222 510 514 510zM115 492c0 -269 203 -491 489 -491s487 224 487 491c0 272 -209 487 -487 487c-280 0 -489 -215 -489 -487zM606 1105c-142 0 -260 122 -260 273h24
c0 -136 103 -250 236 -250c134 0 238 114 238 250h23c0 -151 -118 -273 -261 -273z" />
    <glyph glyph-name="oslashacute" unicode="&#x1ff;" horiz-adv-x="1206" 
d="M604 1002c117 0 223 -36 307 -98l117 149l19 -14l-117 -150c115 -93 186 -236 186 -397c0 -279 -214 -514 -512 -514c-120 0 -226 37 -310 99l-104 -132l-19 14l104 133c-115 94 -185 239 -185 400c0 284 222 510 514 510zM1091 492c0 154 -67 289 -176 378l-607 -774
c80 -60 181 -95 296 -95c286 0 487 224 487 491zM115 492c0 -153 65 -291 175 -381l606 774c-80 59 -181 94 -292 94c-280 0 -489 -215 -489 -487zM853 1400l16 -22l-314 -243l-11 17z" />
    <glyph glyph-name="odotbelow" unicode="&#x1ecd;" horiz-adv-x="1206" 
d="M560 -217c0 18 16 32 34 32s32 -14 32 -32s-14 -34 -32 -34s-34 16 -34 34zM604 1002c292 0 512 -226 512 -510c0 -279 -214 -514 -512 -514c-300 0 -514 233 -514 514c0 284 222 510 514 510zM115 492c0 -269 203 -491 489 -491s487 224 487 491
c0 272 -209 487 -487 487c-280 0 -489 -215 -489 -487z" />
    <glyph glyph-name="ohorn" unicode="&#x1a1;" horiz-adv-x="1206" 
d="M604 1002c215 0 392 -123 469 -302c93 24 151 84 151 250v43h25v-34c0 -189 -69 -258 -167 -281c22 -57 34 -120 34 -186c0 -279 -214 -514 -512 -514c-300 0 -514 233 -514 514c0 284 222 510 514 510zM115 492c0 -269 203 -491 489 -491s487 224 487 491
c0 272 -209 487 -487 487c-280 0 -489 -215 -489 -487z" />
    <glyph glyph-name="racute" unicode="&#x155;" horiz-adv-x="832" 
d="M464 1002c172 0 293 -126 293 -306h-23c0 164 -112 283 -270 283c-127 0 -223 -84 -260 -203v-776h-24v988h24v-155c41 88 132 169 260 169zM642 1400l16 -22l-314 -243l-11 17z" />
    <glyph glyph-name="rcaron" unicode="&#x159;" horiz-adv-x="832" 
d="M464 1002c172 0 293 -126 293 -306h-23c0 164 -112 283 -270 283c-127 0 -223 -84 -260 -203v-776h-24v988h24v-155c41 88 132 169 260 169zM680 1474l16 -14l-238 -290h-17l-238 290l15 14l232 -280z" />
    <glyph glyph-name="rcommaaccent" unicode="&#x157;" horiz-adv-x="832" 
d="M464 1002c172 0 293 -126 293 -306h-23c0 164 -112 283 -270 283c-127 0 -223 -84 -260 -203v-776h-24v988h24v-155c41 88 132 169 260 169zM324 -377l-23 8l121 289l35 -15z" />
    <glyph glyph-name="scommaaccent" unicode="&#x219;" horiz-adv-x="1054" 
d="M442 -397l-23 8l121 289l35 -15zM556 3c240 0 393 102 393 252c0 134 -103 200 -251 226l-306 52c-171 30 -238 113 -238 224c0 137 132 245 380 245c166 0 284 -58 370 -108l-11 -21c-86 52 -199 107 -359 107c-240 0 -355 -104 -355 -223c0 -122 91 -178 217 -201
l306 -52c160 -28 272 -101 272 -249c0 -164 -164 -275 -418 -275c-184 0 -346 46 -496 134l12 20c146 -84 304 -131 484 -131z" />
    <glyph glyph-name="sacute" unicode="&#x15b;" horiz-adv-x="1054" 
d="M556 3c240 0 393 102 393 252c0 134 -103 200 -251 226l-306 52c-171 30 -238 113 -238 224c0 137 132 245 380 245c166 0 284 -58 370 -108l-11 -21c-86 52 -199 107 -359 107c-240 0 -355 -104 -355 -223c0 -122 91 -178 217 -201l306 -52c160 -28 272 -101 272 -249
c0 -164 -164 -275 -418 -275c-184 0 -346 46 -496 134l12 20c146 -84 304 -131 484 -131zM783 1399l16 -22l-314 -243l-11 17z" />
    <glyph glyph-name="scedilla" unicode="&#x15f;" horiz-adv-x="1054" 
d="M556 3c240 0 393 102 393 252c0 134 -103 200 -251 226l-306 52c-171 30 -238 113 -238 224c0 137 132 245 380 245c166 0 284 -58 370 -108l-11 -21c-86 52 -199 107 -359 107c-240 0 -355 -104 -355 -223c0 -122 91 -178 217 -201l306 -52c160 -28 272 -101 272 -249
c0 -164 -164 -275 -418 -275c-184 0 -346 46 -496 134l12 20c146 -84 304 -131 484 -131zM241 -380v23c182 0 311 116 311 298h25c0 -192 -131 -321 -336 -321z" />
    <glyph glyph-name="scircumflex" unicode="&#x15d;" horiz-adv-x="1054" 
d="M556 3c240 0 393 102 393 252c0 134 -103 200 -251 226l-306 52c-171 30 -238 113 -238 224c0 137 132 245 380 245c166 0 284 -58 370 -108l-11 -21c-86 52 -199 107 -359 107c-240 0 -355 -104 -355 -223c0 -122 91 -178 217 -201l306 -52c160 -28 272 -101 272 -249
c0 -164 -164 -275 -418 -275c-184 0 -346 46 -496 134l12 20c146 -84 304 -131 484 -131zM799 1105l-16 -14l-230 280l-232 -280l-15 14l247 301z" />
    <glyph glyph-name="tcaron" unicode="&#x165;" horiz-adv-x="642" 
d="M70 988h232v440h24v-440h236v-23h-236v-965h-24v965h-232v23zM477 1156l32 426h39l-51 -429z" />
    <glyph glyph-name="tbar" unicode="&#x167;" horiz-adv-x="654" 
d="M82 988h232v440h24v-440h236v-23h-236v-370h230v-23h-230v-572h-24v572h-234v23h234v370h-232v23z" />
    <glyph glyph-name="tcommaaccent" unicode="&#x163;" horiz-adv-x="632" 
d="M70 988h232v440h24v-440h236v-23h-236v-965h-24v965h-232v23zM203 -377l-23 8l121 289l35 -15z" />
    <glyph glyph-name="ubreve" unicode="&#x16d;" horiz-adv-x="1202" 
d="M596 -22c-216 0 -426 148 -426 414v596h24v-596c0 -252 198 -391 402 -391c162 0 333 91 402 262v725h24v-988h-24v213c-70 -141 -233 -235 -402 -235zM585 1110c-142 0 -260 122 -260 273h24c0 -136 103 -250 236 -250c134 0 238 114 238 250h23
c0 -151 -118 -273 -261 -273z" />
    <glyph glyph-name="utilde" unicode="&#x169;" horiz-adv-x="1202" 
d="M596 -22c-216 0 -426 148 -426 414v596h24v-596c0 -252 198 -391 402 -391c162 0 333 91 402 262v725h24v-988h-24v213c-70 -141 -233 -235 -402 -235zM727 1215c62 0 107 26 139 82l21 -13c-46 -80 -114 -92 -158 -92c-108 0 -190 96 -286 96c-62 0 -108 -31 -136 -81
l-20 14c42 76 112 90 156 90c108 0 188 -94 284 -96z" />
    <glyph glyph-name="umacron" unicode="&#x16b;" horiz-adv-x="1202" 
d="M596 -22c-216 0 -426 148 -426 414v596h24v-596c0 -252 198 -391 402 -391c162 0 333 91 402 262v725h24v-988h-24v213c-70 -141 -233 -235 -402 -235zM346 1236h488v-23h-488v23z" />
    <glyph glyph-name="uring" unicode="&#x16f;" horiz-adv-x="1202" 
d="M581 1115c-98 0 -165 74 -165 163c0 90 70 162 165 162c94 0 165 -72 165 -162c0 -89 -69 -163 -165 -163zM596 -22c-216 0 -426 148 -426 414v596h24v-596c0 -252 198 -391 402 -391c162 0 333 91 402 262v725h24v-988h-24v213c-70 -141 -233 -235 -402 -235zM581 1137
c83 0 142 66 142 141c0 76 -61 140 -142 140s-142 -64 -142 -140c0 -77 59 -141 142 -141z" />
    <glyph glyph-name="uogonek" unicode="&#x173;" horiz-adv-x="1202" 
d="M596 -22c-216 0 -426 148 -426 414v596h24v-596c0 -252 198 -391 402 -391c162 0 333 91 402 262v725h24v-988l-158 -149c-35 -33 -49 -67 -49 -102c0 -68 61 -128 123 -128c36 0 65 13 101 46l157 147l16 -16l-154 -145c-43 -40 -77 -55 -120 -55
c-80 0 -148 74 -148 152c0 41 16 81 61 122l147 135v206c-70 -141 -233 -235 -402 -235z" />
    <glyph glyph-name="udotbelow" unicode="&#x1ee5;" horiz-adv-x="1202" 
d="M596 -22c-216 0 -426 148 -426 414v596h24v-596c0 -252 198 -391 402 -391c162 0 333 91 402 262v725h24v-988h-24v213c-70 -141 -233 -235 -402 -235zM563 -221c0 18 16 32 34 32s32 -14 32 -32s-14 -34 -32 -34s-34 16 -34 34z" />
    <glyph glyph-name="uhorn" unicode="&#x1b0;" horiz-adv-x="1204" 
d="M1024 988v-294c96 23 157 83 157 252v43h25v-34c0 -198 -76 -264 -182 -284v-671h-24v213c-70 -141 -233 -235 -402 -235c-216 0 -426 148 -426 414v596h24v-596c0 -252 198 -391 402 -391c162 0 333 91 402 262v725h24z" />
    <glyph glyph-name="wdieresis" unicode="&#x1e85;" horiz-adv-x="1556" 
d="M1484 996l22 -8l-354 -992h-22l-346 956l-352 -956h-22l-360 988l22 8l350 -958l350 954h24l344 -954zM567 1235c-18 0 -34 16 -34 34s16 32 34 32s32 -14 32 -32s-14 -34 -32 -34zM1007 1235c-18 0 -34 16 -34 34s16 32 34 32s32 -14 32 -32s-14 -34 -32 -34z" />
    <glyph glyph-name="wacute" unicode="&#x1e83;" horiz-adv-x="1556" 
d="M1484 996l22 -8l-354 -992h-22l-346 956l-352 -956h-22l-360 988l22 8l350 -958l350 954h24l344 -954zM1047 1399l16 -22l-314 -243l-11 17z" />
    <glyph glyph-name="wgrave" unicode="&#x1e81;" horiz-adv-x="1556" 
d="M1484 996l22 -8l-354 -992h-22l-346 956l-352 -956h-22l-360 988l22 8l350 -958l350 954h24l344 -954zM513 1375l17 21l313 -241l-11 -17z" />
    <glyph glyph-name="wcircumflex" unicode="&#x175;" horiz-adv-x="1556" 
d="M1484 996l22 -8l-354 -992h-22l-346 956l-352 -956h-22l-360 988l22 8l350 -958l350 954h24l344 -954zM1033 1105l-16 -14l-230 280l-232 -280l-15 14l247 301z" />
    <glyph glyph-name="ycircumflex" unicode="&#x177;" horiz-adv-x="943" 
d="M893 988l-594 -1388l-24 8l176 411l-401 961l23 8l391 -938l407 946zM713 1105l-16 -14l-230 280l-232 -280l-15 14l247 301z" />
    <glyph glyph-name="ygrave" unicode="&#x1ef3;" horiz-adv-x="943" 
d="M893 988l-594 -1388l-24 8l176 411l-401 961l23 8l391 -938l407 946zM247 1375l17 21l313 -241l-11 -17z" />
    <glyph glyph-name="ymacron" horiz-adv-x="943" 
d="M893 988l-594 -1388l-24 8l176 411l-401 961l23 8l391 -938l407 946zM229 1236h488v-23h-488v23z" />
    <glyph glyph-name="zdotaccent" unicode="&#x17c;" horiz-adv-x="980" 
d="M900 22v-22h-830l767 966h-745v22h794l-767 -966h781zM410 1228c0 19 15 34 34 34s34 -15 34 -34s-15 -34 -34 -34s-34 15 -34 34z" />
    <glyph glyph-name="zacute" unicode="&#x17a;" horiz-adv-x="980" 
d="M900 22v-22h-830l767 966h-745v22h794l-767 -966h781zM637 1399l16 -22l-314 -243l-11 17z" />
    <glyph glyph-name="estimated" unicode="&#x212e;" horiz-adv-x="1632" 
d="M810 -30c-400 0 -710 250 -710 648c0 426 338 652 706 652c436 0 702 -268 716 -670h-1132c-16 0 -28 -2 -28 -32v-330c0 -72 178 -216 448 -216c188 0 356 86 452 204h130c-170 -182 -354 -256 -582 -256zM806 1218c-224 0 -444 -102 -444 -202v-332c0 -24 8 -32 30 -32
h832c30 0 34 10 34 32v332c0 104 -248 202 -452 202z" />
    <glyph glyph-name="zero.plf" horiz-adv-x="1170" 
d="M135 708c0 102 6 292 6 292c0 242 198 444 444 444s444 -202 444 -442c0 0 6 -194 6 -290c0 -102 -6 -292 -6 -292c0 -252 -198 -440 -446 -440s-442 188 -442 438c0 0 -6 192 -6 290zM165 418c0 -238 184 -415 418 -415c236 0 422 179 422 417c4 116 6 234 6 292
s-2 174 -6 290c0 226 -188 419 -420 419s-420 -193 -420 -421c-4 -118 -6 -234 -6 -292s2 -174 6 -290z" />
    <glyph glyph-name="one.plf" horiz-adv-x="711" 
d="M57 1166l-12 20l486 276v-1462h-24v1422z" />
    <glyph glyph-name="two.plf" horiz-adv-x="1088" 
d="M562 1444c280 0 456 -190 456 -440c0 -112 -44 -210 -128 -290l-731 -691h851v-23h-910l774 730c78 72 119 164 119 274c0 238 -165 417 -431 417c-230 0 -428 -183 -430 -429h-24c2 258 212 452 454 452z" />
    <glyph glyph-name="three.plf" horiz-adv-x="1066" 
d="M132 1034h-24v46c0 200 182 364 406 364s406 -164 406 -358c0 -162 -126 -309 -298 -354c186 -43 324 -192 324 -364c0 -210 -188 -390 -432 -390s-434 186 -434 384c0 14 2 28 2 42h24c0 -14 -2 -28 -2 -42c0 -182 176 -360 410 -360c232 0 408 172 408 366
c0 180 -166 338 -380 351c-9 -1 -19 -1 -28 -1v26c9 0 19 -1 28 -1c200 14 354 173 354 343c0 178 -170 334 -382 334s-382 -156 -382 -340v-46z" />
    <glyph glyph-name="four.plf" horiz-adv-x="987" 
d="M733 750v-384h204v-23h-204v-343h-24v343h-669l597 1103l20 -12l-578 -1068h630v384h24z" />
    <glyph glyph-name="five.plf" horiz-adv-x="1090" 
d="M918 1396h-758v-685c87 98 219 153 360 153c258 0 470 -196 470 -439c0 -239 -209 -447 -470 -447c-216 0 -395 158 -440 352l22 4c42 -182 214 -333 418 -333c248 0 445 198 445 424c0 227 -199 416 -445 416c-146 0 -282 -61 -362 -169l-22 10v737h782v-23z" />
    <glyph glyph-name="six.plf" horiz-adv-x="1128" 
d="M577 866c260 0 470 -196 470 -438c0 -236 -210 -444 -470 -444c-258 0 -466 210 -466 442c0 76 20 144 56 210l439 798l20 -12l-376 -682c84 78 200 126 327 126zM577 843c-168 0 -315 -89 -391 -219c-34 -64 -50 -127 -50 -198c0 -218 197 -419 441 -419
c246 0 445 199 445 421c0 228 -199 415 -445 415z" />
    <glyph glyph-name="seven.plf" horiz-adv-x="904" 
d="M50 1397v23h834l-610 -1424l-24 8l599 1393h-799z" />
    <glyph glyph-name="eight.plf" horiz-adv-x="1086" 
d="M544 1444c224 0 406 -164 406 -358c0 -162 -126 -309 -298 -354c186 -43 324 -192 324 -364c0 -210 -188 -390 -432 -390s-434 186 -434 384c0 177 138 327 326 370c-172 46 -298 196 -298 348c0 200 182 364 406 364zM134 362c0 -182 176 -360 410 -360
c232 0 408 172 408 366c0 180 -166 338 -380 351c-9 -1 -19 -1 -28 -1c-10 0 -19 0 -28 1c-215 -13 -382 -169 -382 -357zM162 1080c0 -162 155 -325 357 -337c8 0 16 1 25 1s19 -1 28 -1c200 14 354 173 354 343c0 178 -170 334 -382 334s-382 -156 -382 -340z" />
    <glyph glyph-name="nine.plf" horiz-adv-x="1116" 
d="M557 562c-260 0 -470 196 -470 438c0 236 210 444 470 444c258 0 466 -210 466 -442c0 -76 -20 -144 -56 -210l-439 -798l-20 12l376 681c-85 -78 -201 -125 -327 -125zM557 585c168 0 315 89 391 219c33 63 50 126 50 198c0 218 -197 419 -441 419
c-246 0 -445 -199 -445 -421c0 -228 199 -415 445 -415z" />
    <glyph glyph-name="zero.tlf" horiz-adv-x="1094" 
d="M954 401v718c0 242 -176 407 -410 407s-406 -169 -406 -411v-714c0 -244 172 -401 406 -401s410 159 410 401zM544 -23c-246 0 -430 168 -430 424v714c0 258 184 434 430 434c250 0 434 -176 434 -430v-718c0 -254 -188 -424 -434 -424z" />
    <glyph glyph-name="one.tlf" horiz-adv-x="1094" 
d="M340 0v23h262v1505l-390 -224l-12 20l408 234l18 -10v-1525h242v-23h-528z" />
    <glyph glyph-name="two.tlf" horiz-adv-x="1094" 
d="M1026 0h-866l-10 20l684 896c62 81 99 185 99 268c0 194 -149 345 -367 345c-190 0 -357 -141 -361 -357h-23c4 228 178 380 384 380c230 0 392 -162 392 -368c0 -91 -38 -198 -104 -284l-672 -877h844v-23z" />
    <glyph glyph-name="three.tlf" horiz-adv-x="1094" 
d="M928 1172c0 186 -146 358 -374 358c-176 0 -334 -140 -356 -330l-24 4c22 202 192 350 380 350c240 0 398 -184 398 -382c0 -169 -86 -323 -292 -364c196 -56 312 -194 312 -410c0 -242 -188 -420 -404 -420c-200 0 -354 114 -406 330l24 4c48 -200 190 -310 382 -310
c204 0 380 166 380 396c0 225 -135 363 -356 402c-15 -1 -30 -2 -46 -2v24c272 0 382 165 382 350z" />
    <glyph glyph-name="four.tlf" horiz-adv-x="1094" 
d="M766 0v438h-611l-11 14l575 1101l20 -12l-564 -1081h591v290h24v-290h276v-22h-276v-438h-24z" />
    <glyph glyph-name="five.tlf" horiz-adv-x="1094" 
d="M949 1523h-772v-736c72 67 184 139 338 139c274 0 480 -210 480 -474c0 -258 -200 -475 -484 -475c-220 0 -393 130 -457 314l23 9c60 -176 222 -300 434 -300c272 0 459 206 459 452c0 252 -193 451 -455 451c-154 0 -269 -76 -337 -146l-25 13v776h796v-23z" />
    <glyph glyph-name="six.tlf" horiz-adv-x="1094" 
d="M566 1527c-218 0 -384 -163 -384 -405l1 -580c59 182 233 282 387 282c232 0 426 -192 426 -422c0 -234 -194 -426 -426 -426s-412 194 -412 428v718c0 254 178 428 408 428c210 0 386 -150 386 -372h-23c0 210 -165 349 -363 349zM570 801c-162 0 -387 -143 -387 -383
v-14c0 -222 167 -405 387 -405s401 181 401 403c0 218 -181 399 -401 399z" />
    <glyph glyph-name="seven.tlf" horiz-adv-x="1094" 
d="M350 4l602 1520h-790v22h806l12 -16l-606 -1534z" />
    <glyph glyph-name="eight.tlf" horiz-adv-x="1094" 
d="M546 1539c200 0 368 -165 368 -367c0 -173 -120 -315 -278 -356c191 -41 336 -209 336 -413c0 -234 -192 -425 -426 -425s-426 191 -426 425c0 204 143 371 334 413c-162 40 -278 183 -278 356c0 202 164 367 370 367zM145 403c0 -222 179 -402 401 -402s401 180 401 402
s-179 401 -401 401s-401 -179 -401 -401zM201 1172c0 -194 151 -345 345 -345c188 0 343 151 343 345c0 190 -155 344 -343 344c-194 0 -345 -154 -345 -344z" />
    <glyph glyph-name="nine.tlf" horiz-adv-x="1094" 
d="M396 4l438 835c-71 -67 -172 -102 -267 -102c-220 0 -403 169 -403 399c0 254 210 402 404 402c206 0 395 -164 395 -392c0 -86 -22 -152 -53 -212l-494 -942zM567 760c146 0 274 93 318 176l5 10c26 50 48 127 48 200c0 216 -176 369 -370 369
c-182 0 -379 -141 -379 -379c0 -218 176 -376 378 -376z" />
    <glyph glyph-name="zero.sup" horiz-adv-x="840" 
d="M419 878c-180 0 -315 147 -317 332c0 3 -2 40 -2 63c0 24 2 80 2 80c2 186 139 320 317 320c181 0 317 -138 319 -321c0 0 2 -55 2 -78c0 -25 -2 -63 -2 -63c-2 -188 -140 -333 -319 -333zM419 901c168 0 293 138 295 310c0 2 2 38 2 63c0 23 -2 77 -2 77
c-2 171 -128 299 -295 299c-166 0 -291 -128 -293 -297c0 -2 -2 -56 -2 -80s2 -61 2 -63c1 -172 127 -309 293 -309z" />
    <glyph glyph-name="one.sup" horiz-adv-x="460" 
d="M296 882v761l-266 -150l-10 20l300 170v-801h-24z" />
    <glyph glyph-name="two.sup" horiz-adv-x="702" 
d="M60 880l418 374c44 38 92 110 92 174c0 120 -84 222 -238 222c-124 0 -234 -100 -234 -236h-24c0 150 120 260 258 260c166 0 262 -114 262 -246c0 -74 -52 -152 -100 -192l-372 -332h520v-24h-582z" />
    <glyph glyph-name="three.sup" horiz-adv-x="698" 
d="M334 874c-142 0 -254 104 -254 216v24h24v-24c0 -96 98 -192 230 -192s230 90 230 192c0 88 -80 166 -192 180c-12 2 -24 2 -38 2c0 2 -2 24 0 24c14 0 26 2 40 4c100 16 174 98 174 182c0 94 -94 176 -214 176s-214 -84 -214 -180v-26h-24v26c0 114 108 204 238 204
s238 -90 238 -200c0 -86 -66 -166 -156 -196c102 -28 172 -104 172 -196c0 -118 -112 -216 -254 -216z" />
    <glyph glyph-name="four.sup" horiz-adv-x="628" 
d="M30 1066l352 620l22 -12l-332 -584h364v226h24v-226h118v-24h-118v-193h-24v193h-406z" />
    <glyph glyph-name="five.sup" horiz-adv-x="712" 
d="M132 1668h436v-24h-412v-359c49 49 119 79 192 79c150 0 264 -105 264 -246c0 -137 -113 -250 -264 -250c-122 0 -222 90 -248 198l24 6c22 -98 114 -182 224 -182c135 0 240 103 240 228c0 129 -103 224 -240 224c-80 0 -152 -33 -194 -93l-22 9v410z" />
    <glyph glyph-name="six.sup" horiz-adv-x="726" 
d="M364 868c-146 0 -264 118 -264 248c0 44 12 82 32 118l244 442l20 -12l-196 -354c47 36 102 54 164 54c144 0 262 -110 262 -246c0 -134 -118 -250 -262 -250zM364 1340c-126 0 -240 -94 -240 -224c0 -116 106 -224 240 -224c132 0 238 106 238 226
c0 122 -106 222 -238 222z" />
    <glyph glyph-name="seven.sup" horiz-adv-x="538" 
d="M146 884l324 754h-430v24h468l-340 -788z" />
    <glyph glyph-name="eight.sup" horiz-adv-x="706" 
d="M354 1682c124 0 228 -92 228 -202c0 -87 -63 -165 -151 -195c95 -28 165 -107 165 -201c0 -118 -106 -220 -242 -220c-138 0 -244 106 -244 218c0 96 70 175 166 204c-88 30 -152 109 -152 192c0 112 104 204 230 204zM354 888c124 0 218 94 218 196s-96 189 -218 189
c-124 0 -220 -87 -220 -191c0 -96 94 -194 220 -194zM354 1658c-116 0 -206 -84 -206 -180c0 -90 92 -181 206 -181s204 89 204 183s-90 178 -204 178z" />
    <glyph glyph-name="nine.sup" horiz-adv-x="726" 
d="M362 1176c-144 0 -262 110 -262 246c0 134 118 250 262 250c146 0 264 -118 264 -248c0 -44 -12 -82 -32 -118l-243 -439l-20 12l195 351c-48 -36 -103 -54 -164 -54zM362 1200c126 0 240 94 240 224c0 116 -106 224 -240 224c-132 0 -238 -106 -238 -226
c0 -122 106 -222 238 -222z" />
    <glyph glyph-name="zero.num" horiz-adv-x="840" 
d="M419 770c-180 0 -315 147 -317 332c0 3 -2 40 -2 63c0 24 2 80 2 80c2 186 139 320 317 320c181 0 317 -138 319 -321c0 0 2 -55 2 -78c0 -25 -2 -63 -2 -63c-2 -188 -140 -333 -319 -333zM419 793c168 0 293 138 295 310c0 2 2 38 2 63c0 23 -2 77 -2 77
c-2 171 -128 299 -295 299c-166 0 -291 -128 -293 -297c0 -2 -2 -56 -2 -80s2 -61 2 -63c1 -172 127 -309 293 -309z" />
    <glyph glyph-name="one.num" horiz-adv-x="460" 
d="M296 772v761l-266 -150l-10 20l300 170v-801h-24z" />
    <glyph glyph-name="two.num" horiz-adv-x="702" 
d="M60 770l418 374c44 38 92 110 92 174c0 120 -84 222 -238 222c-124 0 -234 -100 -234 -236h-24c0 150 120 260 258 260c166 0 262 -114 262 -246c0 -74 -52 -152 -100 -192l-372 -332h520v-24h-582z" />
    <glyph glyph-name="three.num" horiz-adv-x="698" 
d="M334 764c-142 0 -254 104 -254 216v24h24v-24c0 -96 98 -192 230 -192s230 90 230 192c0 88 -80 166 -192 180c-12 2 -24 2 -38 2c0 2 -2 24 0 24c14 0 26 2 40 4c100 16 174 98 174 182c0 94 -94 176 -214 176s-214 -84 -214 -180v-26h-24v26c0 114 108 204 238 204
s238 -90 238 -200c0 -86 -66 -166 -156 -196c102 -28 172 -104 172 -196c0 -118 -112 -216 -254 -216z" />
    <glyph glyph-name="four.num" horiz-adv-x="628" 
d="M30 956l352 620l22 -12l-332 -584h364v226h24v-226h118v-24h-118v-193h-24v193h-406z" />
    <glyph glyph-name="five.num" horiz-adv-x="712" 
d="M132 1564h436v-24h-412v-359c49 49 119 79 192 79c150 0 264 -105 264 -246c0 -137 -113 -250 -264 -250c-122 0 -222 90 -248 198l24 6c22 -98 114 -182 224 -182c135 0 240 103 240 228c0 129 -103 224 -240 224c-80 0 -152 -33 -194 -93l-22 9v410z" />
    <glyph glyph-name="six.num" horiz-adv-x="726" 
d="M364 758c-146 0 -264 118 -264 248c0 44 12 82 32 118l244 442l20 -12l-196 -354c47 36 102 54 164 54c144 0 262 -110 262 -246c0 -134 -118 -250 -262 -250zM364 1230c-126 0 -240 -94 -240 -224c0 -116 106 -224 240 -224c132 0 238 106 238 226
c0 122 -106 222 -238 222z" />
    <glyph glyph-name="seven.num" horiz-adv-x="538" 
d="M146 774l324 754h-430v24h468l-340 -788z" />
    <glyph glyph-name="eight.num" horiz-adv-x="706" 
d="M354 1572c124 0 228 -92 228 -202c0 -87 -63 -165 -151 -195c95 -28 165 -107 165 -201c0 -118 -106 -220 -242 -220c-138 0 -244 106 -244 218c0 96 70 175 166 204c-88 30 -152 109 -152 192c0 112 104 204 230 204zM354 778c124 0 218 94 218 196s-96 189 -218 189
c-124 0 -220 -87 -220 -191c0 -96 94 -194 220 -194zM354 1548c-116 0 -206 -84 -206 -180c0 -90 92 -181 206 -181s204 89 204 183s-90 178 -204 178z" />
    <glyph glyph-name="nine.num" horiz-adv-x="726" 
d="M362 1066c-144 0 -262 110 -262 246c0 134 118 250 262 250c146 0 264 -118 264 -248c0 -44 -12 -82 -32 -118l-243 -439l-20 12l195 351c-48 -36 -103 -54 -164 -54zM362 1090c126 0 240 94 240 224c0 116 -106 224 -240 224c-132 0 -238 -106 -238 -226
c0 -122 106 -222 238 -222z" />
    <glyph glyph-name="zero.den" horiz-adv-x="840" 
d="M419 -16c-180 0 -315 148 -317 333c0 3 -2 42 -2 65c0 24 2 81 2 81c2 186 139 323 317 323c181 0 317 -141 319 -324c0 0 2 -56 2 -79c0 -25 -2 -65 -2 -65c-2 -188 -140 -334 -319 -334zM419 8c168 0 293 138 295 310c0 2 2 40 2 65c0 23 -2 78 -2 78
c-2 171 -128 301 -295 301c-166 0 -291 -130 -293 -299c0 -2 -2 -57 -2 -81s2 -63 2 -65c1 -172 127 -309 293 -309z" />
    <glyph glyph-name="one.den" horiz-adv-x="460" 
d="M296 0v753l-266 -150l-10 20l300 170v-793h-24z" />
    <glyph glyph-name="two.den" horiz-adv-x="702" 
d="M70 0l408 364c44 38 92 110 92 174c0 120 -84 222 -238 222c-124 0 -234 -100 -234 -236h-24c0 150 120 260 258 260c166 0 262 -114 262 -246c0 -74 -52 -152 -100 -192l-362 -322h520v-24h-582z" />
    <glyph glyph-name="three.den" horiz-adv-x="698" 
d="M334 -16c-142 0 -254 104 -254 216v24h24v-24c0 -96 98 -192 230 -192s230 90 230 192c0 88 -80 166 -192 180c-12 2 -24 2 -38 2c0 2 -2 24 0 24c14 0 26 2 40 4c100 16 174 98 174 182c0 94 -94 176 -214 176s-214 -84 -214 -180v-26h-24v26c0 114 108 204 238 204
s238 -90 238 -200c0 -86 -66 -166 -156 -196c102 -28 172 -104 172 -196c0 -118 -112 -216 -254 -216z" />
    <glyph glyph-name="four.den" horiz-adv-x="628" 
d="M30 200l352 620l22 -12l-332 -584h364v226h24v-226h118v-24h-118v-200h-24v200h-406z" />
    <glyph glyph-name="five.den" horiz-adv-x="712" 
d="M132 778h436v-24h-412v-359c49 49 119 79 192 79c150 0 264 -105 264 -246c0 -137 -113 -250 -264 -250c-122 0 -222 90 -248 198l24 6c22 -98 114 -182 224 -182c135 0 240 103 240 228c0 129 -103 224 -240 224c-80 0 -152 -33 -194 -93l-22 9v410z" />
    <glyph glyph-name="six.den" horiz-adv-x="726" 
d="M364 -22c-146 0 -264 118 -264 248c0 44 12 82 32 118l244 442l20 -12l-196 -354c47 36 102 54 164 54c144 0 262 -110 262 -246c0 -134 -118 -250 -262 -250zM364 450c-126 0 -240 -94 -240 -224c0 -116 106 -224 240 -224c132 0 238 106 238 226
c0 122 -106 222 -238 222z" />
    <glyph glyph-name="seven.den" horiz-adv-x="538" 
d="M146 -6l324 754h-430v24h468l-340 -788z" />
    <glyph glyph-name="eight.den" horiz-adv-x="706" 
d="M354 792c124 0 228 -92 228 -202c0 -87 -63 -165 -151 -195c95 -28 165 -107 165 -201c0 -118 -106 -220 -242 -220c-138 0 -244 106 -244 218c0 96 70 175 166 204c-88 30 -152 109 -152 192c0 112 104 204 230 204zM354 -2c124 0 218 94 218 196s-96 189 -218 189
c-124 0 -220 -87 -220 -191c0 -96 94 -194 220 -194zM354 768c-116 0 -206 -84 -206 -180c0 -90 92 -181 206 -181s204 89 204 183s-90 178 -204 178z" />
    <glyph glyph-name="nine.den" horiz-adv-x="726" 
d="M362 286c-144 0 -262 110 -262 246c0 134 118 250 262 250c146 0 264 -118 264 -248c0 -44 -12 -82 -32 -118l-244 -442l-20 12l196 354c-48 -36 -103 -54 -164 -54zM362 310c126 0 240 94 240 224c0 116 -106 224 -240 224c-132 0 -238 -106 -238 -226
c0 -122 106 -222 238 -222z" />
    <glyph glyph-name="zero.sub" horiz-adv-x="840" 
d="M419 -166c-180 0 -315 148 -317 333c0 3 -2 42 -2 65c0 24 2 81 2 81c2 186 139 323 317 323c181 0 317 -141 319 -324c0 0 2 -56 2 -79c0 -25 -2 -65 -2 -65c-2 -188 -140 -334 -319 -334zM419 -142c168 0 293 138 295 310c0 2 2 40 2 65c0 23 -2 78 -2 78
c-2 171 -128 301 -295 301c-166 0 -291 -130 -293 -299c0 -2 -2 -57 -2 -81s2 -63 2 -65c1 -172 127 -309 293 -309z" />
    <glyph glyph-name="one.sub" horiz-adv-x="460" 
d="M296 -150v753l-266 -150l-10 20l300 170v-793h-24z" />
    <glyph glyph-name="two.sub" horiz-adv-x="702" 
d="M70 -150l408 364c44 38 92 110 92 174c0 120 -84 222 -238 222c-124 0 -234 -100 -234 -236h-24c0 150 120 260 258 260c166 0 262 -114 262 -246c0 -74 -52 -152 -100 -192l-362 -322h520v-24h-582z" />
    <glyph glyph-name="three.sub" horiz-adv-x="698" 
d="M334 -166c-142 0 -254 104 -254 216v24h24v-24c0 -96 98 -192 230 -192s230 90 230 192c0 88 -80 166 -192 180c-12 2 -24 2 -38 2c0 2 -2 24 0 24c14 0 26 2 40 4c100 16 174 98 174 182c0 94 -94 176 -214 176s-214 -84 -214 -180v-26h-24v26c0 114 108 204 238 204
s238 -90 238 -200c0 -86 -66 -166 -156 -196c102 -28 172 -104 172 -196c0 -118 -112 -216 -254 -216z" />
    <glyph glyph-name="four.sub" horiz-adv-x="628" 
d="M30 50l352 620l22 -12l-332 -584h364v226h24v-226h118v-24h-118v-200h-24v200h-406z" />
    <glyph glyph-name="five.sub" horiz-adv-x="712" 
d="M132 628h436v-24h-412v-359c49 49 119 79 192 79c150 0 264 -105 264 -246c0 -137 -113 -250 -264 -250c-122 0 -222 90 -248 198l24 6c22 -98 114 -182 224 -182c135 0 240 103 240 228c0 129 -103 224 -240 224c-80 0 -152 -33 -194 -93l-22 9v410z" />
    <glyph glyph-name="six.sub" horiz-adv-x="726" 
d="M364 -172c-146 0 -264 118 -264 248c0 44 12 82 32 118l244 442l20 -12l-196 -354c47 36 102 54 164 54c144 0 262 -110 262 -246c0 -134 -118 -250 -262 -250zM364 300c-126 0 -240 -94 -240 -224c0 -116 106 -224 240 -224c132 0 238 106 238 226
c0 122 -106 222 -238 222z" />
    <glyph glyph-name="seven.sub" horiz-adv-x="538" 
d="M146 -156l324 754h-430v24h468l-340 -788z" />
    <glyph glyph-name="eight.sub" horiz-adv-x="706" 
d="M354 642c124 0 228 -92 228 -202c0 -87 -63 -165 -151 -195c95 -28 165 -107 165 -201c0 -118 -106 -220 -242 -220c-138 0 -244 106 -244 218c0 96 70 175 166 204c-88 30 -152 109 -152 192c0 112 104 204 230 204zM354 -152c124 0 218 94 218 196s-96 189 -218 189
c-124 0 -220 -87 -220 -191c0 -96 94 -194 220 -194zM354 618c-116 0 -206 -84 -206 -180c0 -90 92 -181 206 -181s204 89 204 183s-90 178 -204 178z" />
    <glyph glyph-name="nine.sub" horiz-adv-x="726" 
d="M362 136c-144 0 -262 110 -262 246c0 134 118 250 262 250c146 0 264 -118 264 -248c0 -44 -12 -82 -32 -118l-244 -442l-20 12l196 354c-48 -36 -103 -54 -164 -54zM362 160c126 0 240 94 240 224c0 116 -106 224 -240 224c-132 0 -238 -106 -238 -226
c0 -122 106 -222 238 -222z" />
    <glyph glyph-name="a.sup" horiz-adv-x="813" 
d="M122 1453l-15 19c73 54 170 78 272 78c138 0 313 -68 313 -226v-444h-24v116c-57 -62 -168 -123 -305 -120c-180 4 -297 84 -297 205c0 109 103 210 310 210c108 0 240 -55 292 -107v140c0 136 -154 202 -289 202c-99 0 -190 -23 -257 -73zM376 1267
c-200 0 -286 -95 -286 -186c0 -101 98 -181 273 -181c139 0 240 57 305 129v121c-54 61 -178 117 -292 117z" />
    <glyph glyph-name="b.sup" horiz-adv-x="868" 
d="M133 879v1098h24v-586c59 95 167 159 293 159c193 0 343 -152 343 -336c0 -188 -144 -335 -343 -335c-129 0 -235 62 -293 157v-157h-24zM450 903c186 0 319 136 319 311c0 171 -139 312 -319 312c-135 0 -246 -78 -293 -187v-253c48 -108 155 -183 293 -183z" />
    <glyph glyph-name="c.sup" horiz-adv-x="663" 
d="M604 964l14 -19c-55 -42 -125 -67 -201 -67c-186 0 -336 149 -336 335c0 187 150 336 336 336c79 0 149 -27 206 -70l-15 -19c-53 40 -118 65 -191 65c-173 0 -312 -138 -312 -312c0 -173 139 -311 312 -311c71 0 136 23 187 62z" />
    <glyph glyph-name="d.sup" horiz-adv-x="900" 
d="M711 1389v588h24v-1091h-24v149c-59 -95 -164 -157 -293 -157c-199 0 -343 147 -343 335c0 184 150 336 343 336c126 0 234 -64 293 -160zM418 1525c-180 0 -319 -141 -319 -312c0 -175 133 -311 319 -311c137 0 245 75 293 183v253c-47 109 -159 187 -293 187z" />
    <glyph glyph-name="e.sup" horiz-adv-x="806" 
d="M99 1244v-21c0 -177 124 -319 325 -319c110 0 175 23 261 96l15 -18c-89 -76 -162 -102 -276 -102c-214 0 -349 154 -349 343c0 187 137 325 326 325c192 0 319 -123 334 -290l1 -13zM102 1268l608 1c-20 148 -133 255 -309 255c-170 0 -280 -112 -299 -256z" />
    <glyph glyph-name="f.sup" horiz-adv-x="462" 
d="M175 1522h-142v24h142v234c0 120 70 189 172 189c76 0 121 -26 147 -52l-17 -16c-22 21 -59 44 -130 44c-89 0 -148 -56 -148 -165v-234h132v-24h-132v-640h-24v640z" />
    <glyph glyph-name="g.sup" horiz-adv-x="916" 
d="M757 1399v148h24v-568c0 -166 -115 -279 -321 -279c-141 0 -269 44 -358 126l16 18c84 -77 206 -120 342 -120c195 0 297 103 297 255v47c-60 -90 -162 -148 -287 -148c-199 0 -343 147 -343 335c0 184 150 336 343 336c122 0 227 -60 287 -150zM470 1525
c-180 0 -319 -141 -319 -312c0 -175 133 -311 319 -311c132 0 236 69 287 170v280c-50 102 -158 173 -287 173z" />
    <glyph glyph-name="h.sup" horiz-adv-x="881" 
d="M189 1371v-491h-24v1097h24v-560c46 64 131 131 252 131c142 0 299 -98 299 -271v-397h-24v397c0 156 -142 247 -275 247c-131 0 -216 -86 -252 -153z" />
    <glyph glyph-name="i.sup" horiz-adv-x="388" 
d="M202 1545v-664h-24v664h24zM160 1850c0 19 15 34 34 34s34 -15 34 -34s-15 -34 -34 -34s-34 15 -34 34z" />
    <glyph glyph-name="j.sup" horiz-adv-x="332" 
d="M165 908v640h24v-640c0 -130 -69 -201 -179 -207l-1 24c97 5 156 63 156 183zM143 1850c0 19 15 34 34 34s34 -15 34 -34s-15 -34 -34 -34s-34 15 -34 34z" />
    <glyph glyph-name="k.sup" horiz-adv-x="790" 
d="M189 1179l457 465l17 -17l-252 -256l347 -477l-20 -15l-344 475l-198 -202l-7 7v-279h-24v1097h24v-798z" />
    <glyph glyph-name="l.sup" horiz-adv-x="354" 
d="M189 1977v-1096h-24v1096h24z" />
    <glyph glyph-name="m.sup" horiz-adv-x="1408" 
d="M164 1367v-486h-24v664h24v-133c46 65 130 133 253 133c116 0 241 -66 284 -184c18 86 112 184 267 184c142 0 299 -98 299 -271v-393h-24v393c0 156 -142 247 -275 247c-79 0 -158 -36 -195 -79c-34 -39 -57 -80 -57 -168v-393h-24v393c0 156 -142 247 -275 247
c-132 0 -217 -86 -253 -154z" />
    <glyph glyph-name="n.sup" horiz-adv-x="856" 
d="M163 1366v-486h-24v664h24v-133c46 65 131 133 253 133c142 0 299 -98 299 -271v-393h-24v393c0 156 -142 247 -275 247c-132 0 -217 -86 -253 -154z" />
    <glyph glyph-name="o.sup" horiz-adv-x="836" 
d="M99 1212c0 -172 133 -313 319 -313s319 143 319 313c0 173 -137 311 -319 311s-319 -138 -319 -311zM75 1212c0 187 148 335 343 335s343 -148 343 -335c0 -183 -144 -337 -343 -337s-343 152 -343 337z" />
    <glyph glyph-name="p.sup" horiz-adv-x="868" 
d="M137 633v911h24v-150c60 92 166 153 289 153c193 0 343 -152 343 -336c0 -188 -144 -335 -343 -335c-126 0 -230 59 -289 150v-393h-24zM450 900c186 0 319 136 319 311c0 171 -139 312 -319 312c-131 0 -240 -73 -289 -178v-271c50 -103 155 -174 289 -174z" />
    <glyph glyph-name="q.sup" horiz-adv-x="896" 
d="M418 875c-199 0 -343 148 -343 336c0 184 150 337 343 337c123 0 229 -61 289 -153v151h24v-913h-24v392c-59 -91 -163 -150 -289 -150zM418 1524c-180 0 -319 -142 -319 -313c0 -175 133 -312 319 -312c133 0 239 71 289 174v273c-49 105 -159 178 -289 178z" />
    <glyph glyph-name="r.sup" horiz-adv-x="630" 
d="M170 1390l-6 1v-511h-24v667h24v-107c33 64 98 108 177 108c115 0 199 -85 199 -200h-24c0 103 -73 176 -175 176c-84 0 -149 -56 -171 -134z" />
    <glyph glyph-name="s.sup" horiz-adv-x="838" 
d="M50 967l12 20c96 -55 199 -85 317 -85c161 0 256 68 256 161c0 66 -38 123 -162 144l-203 34c-112 19 -160 76 -160 148c0 92 92 162 255 162c110 0 188 -38 246 -72l-13 -20c-55 33 -129 68 -233 68c-159 0 -231 -66 -231 -138c0 -58 34 -107 140 -125l203 -34
c131 -22 182 -87 182 -167c0 -114 -115 -185 -280 -185c-122 0 -230 31 -329 89z" />
    <glyph glyph-name="t.sup" horiz-adv-x="458" 
d="M216 1523h-150v24h150v360h24v-360h150v-24h-150v-644h-24v644z" />
    <glyph glyph-name="u.sup" horiz-adv-x="871" 
d="M691 1056l1 -1v491h24v-667h-24v132c-47 -66 -132 -134 -253 -133c-142 0 -299 98 -299 271v397h24v-397c0 -156 142 -247 275 -247c132 -1 217 86 252 154z" />
    <glyph glyph-name="v.sup" horiz-adv-x="664" 
d="M332 927l288 630l22 -9l-305 -671h-10l-295 669l22 9z" />
    <glyph glyph-name="w.sup" horiz-adv-x="1093" 
d="M782 932l233 624l23 -8l-252 -673h-10l-225 638l-233 -638h-12l-249 671l22 9l233 -627l231 633h17z" />
    <glyph glyph-name="x.sup" horiz-adv-x="779" 
d="M362 1227l268 -340l-19 -14l-264 335l-270 -337l-18 15l273 341l-248 316l19 15l244 -312l252 315l19 -15z" />
    <glyph glyph-name="y.sup" horiz-adv-x="698" 
d="M342 959l259 603l22 -10l-376 -876l-22 9l105 244h-1l-259 620l23 10z" />
    <glyph glyph-name="z.sup" horiz-adv-x="618" 
d="M113 899h426v-24h-473l462 652h-459v24h506z" />
    <glyph glyph-name="percent.alt1" horiz-adv-x="1997" 
d="M1408 765c213 0 389 -174 389 -389c0 -214 -175 -388 -389 -388c-216 0 -389 174 -389 388c0 215 174 389 389 389zM1044 376c0 -199 164 -365 364 -365c199 0 364 166 364 365c0 200 -165 366 -364 366c-201 0 -364 -166 -364 -366zM589 1556c213 0 389 -174 389 -389
c0 -214 -175 -388 -389 -388c-216 0 -389 174 -389 388c0 215 174 389 389 389zM225 1167c0 -199 164 -365 364 -365c199 0 364 165 364 365s-165 366 -364 366c-201 0 -364 -166 -364 -366zM381 5l1212 1547l19 -14l-1212 -1547z" />
    <glyph glyph-name="perthousand.alt1" horiz-adv-x="2726" 
d="M1288 755c213 0 389 -174 389 -389c0 -214 -175 -388 -389 -388c-216 0 -389 174 -389 388c0 215 174 389 389 389zM924 366c0 -199 164 -365 364 -365c199 0 364 166 364 365c0 200 -165 366 -364 366c-201 0 -364 -166 -364 -366zM589 1540c213 0 389 -174 389 -389
c0 -214 -175 -388 -389 -388c-216 0 -389 174 -389 388c0 215 174 389 389 389zM225 1151c0 -199 164 -365 364 -365c199 0 364 165 364 365s-165 366 -364 366c-201 0 -364 -166 -364 -366zM2137 755c213 0 389 -174 389 -389c0 -214 -175 -388 -389 -388
c-216 0 -389 174 -389 388c0 215 174 389 389 389zM1773 366c0 -199 164 -365 364 -365c199 0 364 166 364 365c0 200 -165 366 -364 366c-201 0 -364 -166 -364 -366zM331 5l1212 1547l19 -14l-1212 -1547z" />
    <glyph glyph-name="registered.alt" horiz-adv-x="1834" 
d="M916 -21c-436 0 -786 351 -786 793c0 440 350 791 786 791c434 0 788 -351 788 -791c0 -442 -354 -793 -788 -793zM916 3c420 0 764 341 764 769c0 426 -344 767 -764 767c-422 0 -762 -341 -762 -767c0 -428 340 -769 762 -769zM1218 291l-372 458h-200v-450h-24v996
h332c152 0 280 -118 280 -272c0 -156 -130 -274 -284 -274h-74l360 -442zM646 1271v-498h304c142 0 260 108 260 250c0 140 -116 248 -256 248h-308z" />
    <glyph glyph-name="at.case" horiz-adv-x="2066" 
d="M1346 515v41c-56 -112 -172 -199 -344 -199c-228 0 -394 168 -394 384c0 210 172 386 394 386c169 0 295 -106 344 -194v208h24v-620c0 -124 90 -176 176 -176c216 0 326 228 326 452c0 418 -370 774 -840 774c-466 0 -838 -374 -838 -838s372 -838 838 -838
c158 0 308 44 434 120l12 -20c-130 -78 -284 -124 -446 -124c-480 0 -862 384 -862 862s382 862 862 862c482 0 864 -364 864 -798c0 -228 -112 -476 -350 -476c-90 0 -200 56 -200 194zM1002 381c163 0 291 92 344 226v265c-51 133 -183 231 -344 231
c-208 0 -370 -164 -370 -362c0 -202 154 -360 370 -360z" />
    <glyph glyph-name="colon.case" horiz-adv-x="446" 
d="M180 1143c0 18 16 32 34 32s32 -14 32 -32s-14 -34 -32 -34s-34 16 -34 34zM180 336c0 18 16 32 34 32s32 -14 32 -32s-14 -34 -32 -34s-34 16 -34 34z" />
    <glyph glyph-name="hyphen.case" horiz-adv-x="680" 
d="M100 788h480v-23h-480v23z" />
    <glyph glyph-name="longs" unicode="&#x17f;" horiz-adv-x="510" 
d="M200 0v1276c0 182 104 280 254 280c78 0 160 -16 218 -76l-15 -15c-26 24 -83 68 -203 68c-138 0 -230 -91 -230 -257v-1276h-24z" />
    <glyph glyph-name="f_l.dlig" horiz-adv-x="1012" 
d="M50 988h220v293c0 196 132 280 274 280c173 0 268 -122 268 -281v-1280h-24v1280c0 142 -94 258 -244 258c-126 0 -250 -73 -250 -257v-293h206v-23h-206v-965h-24v965h-220v23z" />
    <glyph glyph-name="f_f_l.dlig" horiz-adv-x="1504" 
d="M270 0v965h-220v23h220v293c0 182 104 280 254 280c78 0 160 -16 218 -76l-15 -15c-26 24 -83 68 -203 68c-138 0 -230 -91 -230 -257v-293h468v293c0 196 132 280 274 280c173 0 268 -132 268 -271v-1290h-24v1291c0 131 -94 247 -244 247c-126 0 -250 -73 -250 -257
v-293h232v-23h-232v-965h-24v965h-468v-965h-24z" />
    <glyph glyph-name="thinspace" unicode="&#x2009;" horiz-adv-x="100" 
 />
    <glyph glyph-name="dieresis.i" horiz-adv-x="428" 
d="M56 1222c0 18 16 32 34 32s32 -14 32 -32s-14 -34 -32 -34s-34 16 -34 34zM296 1222c0 18 16 32 34 32s32 -14 32 -32s-14 -34 -32 -34s-34 16 -34 34z" />
    <glyph glyph-name="f_i.dlig" horiz-adv-x="992" 
d="M50 988h220v293c0 196 132 280 274 280c130 0 246 -78 268 -236l-21 -4c-22 146 -129 217 -247 217c-126 0 -250 -73 -250 -257v-293h206v-23h-206v-965h-24v965h-220v23zM788 0v988h24v-988h-24z" />
    <glyph glyph-name="lessequal" unicode="&#x2264;" horiz-adv-x="940" 
d="M847 376l-8 -21l-745 268v16l725 324l9 -23l-690 -309zM94 215h753v-22h-753v22z" />
    <glyph glyph-name="greaterequal" unicode="&#x2265;" horiz-adv-x="940" 
d="M102 353l-8 23l712 266l-693 310l9 23l724 -325l1 -17zM94 215h753v-22h-753v22z" />
    <glyph glyph-name="twoinferior" unicode="&#x2082;" horiz-adv-x="702" 
d="M70 0l408 364c43 39 92 110 92 174c0 120 -84 222 -238 222c-124 0 -234 -100 -234 -236h-24c0 150 120 260 258 260c166 0 262 -114 262 -246c0 -74 -53 -150 -100 -192l-362 -322h520v-24h-582z" />
    <glyph glyph-name="fourinferior" unicode="&#x2084;" horiz-adv-x="628" 
d="M30 200l352 620l22 -12l-332 -584h364v226h24v-226h118v-24h-118v-200h-24v200h-406z" />
    </font>
</defs>
</svg>
