<?xml version="1.0" standalone="no"?>
<!DOCTYPE svg PUBLIC "-//W3C//DTD SVG 1.1//EN" "http://www.w3.org/Graphics/SVG/1.1/DTD/svg11.dtd" >
<svg xmlns="http://www.w3.org/2000/svg" xmlns:xlink="http://www.w3.org/1999/xlink" version="1.1">
<metadata>
Created by FontForge 20190801 at Sun Jan 27 18:21:42 2013
 By Jimmy Wärting
Copyright (c) 2013 by Anton Koovit. All rights reserved.
</metadata>
<defs>
<font id="U8-Regular" horiz-adv-x="578" >
  <font-face 
    font-family="U8"
    font-weight="400"
    font-stretch="normal"
    units-per-em="1000"
    panose-1="2 11 10 3 3 2 0 2 2 4"
    ascent="820"
    descent="-180"
    x-height="498"
    cap-height="773"
    bbox="-164 -203 1300 1151"
    underline-thickness="50"
    underline-position="-100"
    stemh="82"
    stemv="96"
    unicode-range="U+000D-FB04"
  />
<missing-glyph horiz-adv-x="500" 
 />
    <glyph glyph-name="fi" unicode="fi" horiz-adv-x="519" 
d="M15 416v82h77v114c0 106 71 167 164 167c32 0 50 -4 68 -10l-16 -78c-12 4 -26 7 -46 7c-48 0 -81 -33 -81 -92v-108h88v-82h-88v-416h-89v416h-77zM358 0v498h91v-498h-91zM404 632c-32 0 -56 26 -56 57c0 32 24 57 56 57c31 0 57 -25 57 -57c0 -31 -26 -57 -57 -57z
" />
    <glyph glyph-name="fl" unicode="fl" horiz-adv-x="510" 
d="M350 0v606c0 60 -34 92 -84 92c-51 0 -85 -33 -85 -92v-108h88v-82h-88v-416h-89v416h-77v82h77v114c0 108 73 167 164 167c40 0 70 -9 94 -27v28h91v-780h-91z" />
    <glyph glyph-name="f_f_i" unicode="ffi" horiz-adv-x="796" 
d="M15 416v82h82v114c0 108 73 167 163 167c56 0 95 -14 126 -41l-44 -67c-21 18 -44 27 -75 27c-49 0 -82 -33 -82 -92v-108h193v114c0 107 70 167 163 167c27 0 52 -4 71 -12l-19 -77c-13 5 -27 8 -45 8c-49 0 -82 -33 -82 -92v-108h89v-82h-89v-416h-88v416h-193v-416
h-88v416h-82zM644 0v498h91v-498h-91zM689 632c-32 0 -56 26 -56 57c0 32 24 57 56 57c31 0 57 -25 57 -57c0 -31 -26 -57 -57 -57z" />
    <glyph glyph-name="f_f" unicode="ff" horiz-adv-x="551" 
d="M185 416v-416h-88v416h-82v82h82v114c0 108 73 167 163 167c56 0 95 -14 126 -41l-44 -67c-21 18 -44 27 -75 27c-49 0 -82 -33 -82 -92v-108h183v114c0 108 73 167 163 167c56 0 95 -14 126 -41l-44 -67c-21 18 -44 27 -75 27c-49 0 -82 -33 -82 -92v-108h89v-82h-89
v-416h-88v416h-183z" />
    <glyph glyph-name="f_f_l" unicode="ffl" horiz-adv-x="789" 
d="M371 0v416h-186v-416h-88v416h-82v82h82v114c0 108 73 167 163 167c56 0 95 -14 126 -41l-44 -67c-21 18 -44 27 -75 27c-49 0 -82 -33 -82 -92v-108h186v114c0 108 73 167 164 167c40 0 70 -9 94 -27v28h91v-780h-91v610c-2 57 -36 88 -84 88c-51 0 -85 -33 -85 -92
v-108h88v-82h-88v-416h-89z" />
    <glyph glyph-name="f_j" unicode="fj" horiz-adv-x="519" 
d="M15 416v82h77v114c0 106 71 167 164 167c32 0 50 -4 68 -10l-16 -78c-12 4 -26 7 -46 7c-48 0 -81 -33 -81 -92v-108h88v-82h-88v-416h-89v416h-77zM277 -184l-1 76c55 2 82 38 82 103v503h91v-498c0 -124 -66 -181 -172 -184zM404 632c-32 0 -56 26 -56 57
c0 32 24 57 56 57c31 0 57 -25 57 -57c0 -31 -26 -57 -57 -57z" />
    <glyph glyph-name="f_b" unicode="fb" horiz-adv-x="883" 
d="M350 0v610c-2 57 -36 88 -84 88c-51 0 -85 -33 -85 -92v-108h88v-82h-88v-416h-89v416h-77v82h77v114c0 108 73 167 164 167c40 0 70 -9 94 -27v28h91v-330c40 33 94 55 155 55c149 0 258 -116 258 -256s-109 -257 -258 -257c-61 0 -114 22 -155 57v-49h-91zM592 419
c-67 0 -122 -34 -151 -85v-168c29 -52 85 -88 150 -88c99 0 173 76 173 171c0 96 -73 170 -172 170z" />
    <glyph glyph-name=".notdef" horiz-adv-x="500" 
 />
    <glyph glyph-name="b" unicode="b" horiz-adv-x="602" 
d="M69 0v780h91v-330c40 33 94 55 155 55c149 0 258 -116 258 -256s-109 -257 -258 -257c-61 0 -114 22 -155 57v-49h-91zM311 419c-67 0 -122 -34 -151 -85v-168c29 -52 85 -88 150 -88c99 0 173 76 173 171c0 96 -73 170 -172 170z" />
    <glyph glyph-name="c" unicode="c" horiz-adv-x="466" 
d="M286 -9c-142 0 -257 115 -257 258c0 141 115 256 257 256c63 0 122 -22 167 -59l-51 -71c-32 27 -68 42 -113 42c-95 0 -169 -76 -169 -169c0 -95 75 -169 169 -169c45 0 83 17 112 41l48 -71c-41 -34 -95 -58 -163 -58z" />
    <glyph glyph-name="d" unicode="d" horiz-adv-x="607" 
d="M447 0v53c-42 -37 -98 -61 -160 -61c-150 0 -259 116 -259 257c0 140 110 256 259 256c65 0 120 -26 160 -65v340h91v-780h-91zM292 78c69 0 127 40 155 98v139c-28 62 -87 104 -156 104c-99 0 -172 -74 -172 -170c0 -95 74 -171 173 -171z" />
    <glyph glyph-name="e" unicode="e" horiz-adv-x="563" 
d="M295 -9c-166 0 -266 122 -266 262c0 138 98 252 253 252c146 0 250 -102 257 -237c1 -10 1 -22 1 -33h-424c2 -92 75 -163 178 -163c66 0 106 16 156 58l52 -56c-61 -58 -117 -83 -207 -83zM281 427c-95 0 -141 -55 -158 -120h321c-16 67 -74 120 -163 120z" />
    <glyph glyph-name="f" unicode="f" horiz-adv-x="280" 
d="M15 416v82h82v114c0 108 73 167 163 167c56 0 95 -14 126 -41l-44 -67c-21 18 -44 27 -75 27c-49 0 -82 -33 -82 -92v-108h89v-82h-89v-416h-88v416h-82z" />
    <glyph glyph-name="g" unicode="g" horiz-adv-x="607" 
d="M287 -8c-150 0 -258 113 -258 256c0 138 110 255 258 255c62 0 118 -20 161 -54v49h90v-459c0 -127 -100 -211 -249 -211c-98 0 -190 30 -252 84l44 65c52 -42 126 -68 208 -68c113 0 159 58 159 141v2c-44 -38 -100 -60 -161 -60zM291 79c73 0 129 39 157 97v146
c-28 58 -87 97 -156 97c-98 0 -173 -78 -173 -171c0 -97 73 -169 172 -169z" />
    <glyph glyph-name="h" unicode="h" horiz-adv-x="579" 
d="M432 0v280c0 87 -67 137 -139 137c-54 0 -103 -28 -132 -74v-343h-91v780h91v-333c31 33 76 58 143 58c115 0 219 -77 219 -212v-293h-91z" />
    <glyph glyph-name="i" unicode="i" horiz-adv-x="230" 
d="M69 0v498h91v-498h-91zM115 632c-32 0 -56 26 -56 57c0 32 24 57 56 57c31 0 57 -25 57 -57c0 -31 -26 -57 -57 -57z" />
    <glyph glyph-name="j" unicode="j" horiz-adv-x="230" 
d="M115 632c-32 0 -56 26 -56 57c0 32 24 57 56 57c31 0 57 -25 57 -57c0 -31 -26 -57 -57 -57zM-12 -184l-1 76c55 2 82 38 82 103v503h91v-498c0 -124 -66 -181 -172 -184z" />
    <glyph glyph-name="k" unicode="k" horiz-adv-x="517" 
d="M387 498h112l-196 -198l211 -300h-107l-166 238l-81 -82v-156h-91v780h91v-512z" />
    <glyph glyph-name="l" unicode="l" horiz-adv-x="230" 
d="M69 0v780h91v-780h-91z" />
    <glyph glyph-name="m" unicode="m" horiz-adv-x="928" 
d="M425 0v288c0 83 -54 129 -131 129c-54 0 -104 -28 -134 -74v-343h-91v498h91v-52c32 33 78 59 145 59c75 0 140 -29 180 -83c40 49 101 83 174 83c113 0 213 -79 213 -212v-293h-91v281c0 84 -61 136 -133 136c-57 0 -103 -31 -132 -79v-338h-91z" />
    <glyph glyph-name="n" unicode="n" 
d="M431 0v280c0 87 -67 137 -139 137c-54 0 -103 -28 -132 -74v-343h-91v498h91v-51c31 33 76 58 143 58c115 0 219 -77 219 -212v-293h-91z" />
    <glyph glyph-name="o" unicode="o" horiz-adv-x="585" 
d="M292 78c102 0 173 79 173 172c0 97 -74 170 -173 170c-98 0 -172 -73 -172 -170c0 -94 73 -172 172 -172zM292 -9c-156 0 -263 119 -263 259c0 141 111 258 263 258s264 -117 264 -258c0 -140 -108 -259 -264 -259z" />
    <glyph glyph-name="p" unicode="p" horiz-adv-x="607" 
d="M320 -8c-64 0 -118 24 -160 61v-231h-91v676h91v-53c41 36 97 60 160 60c149 0 258 -116 258 -256s-109 -257 -258 -257zM316 419c-71 0 -129 -38 -156 -94v-149c27 -58 86 -98 155 -98c99 0 173 76 173 171c0 96 -73 170 -172 170z" />
    <glyph glyph-name="q" unicode="q" horiz-adv-x="591" 
d="M430 -178v217c-40 -29 -89 -47 -143 -47c-150 0 -259 116 -259 257c0 140 110 256 259 256c56 0 105 -19 143 -50v43h91v-676h-91zM292 78c57 0 107 27 138 69v198c-32 45 -82 74 -139 74c-99 0 -172 -74 -172 -170c0 -95 74 -171 173 -171z" />
    <glyph glyph-name="r" unicode="r" horiz-adv-x="427" 
d="M69 0v498h91v-39c26 27 60 43 102 43c92 0 158 -69 158 -159v-16h-83c0 53 -36 91 -89 91c-42 0 -79 -31 -88 -71v-347h-91z" />
    <glyph glyph-name="s" unicode="s" horiz-adv-x="511" 
d="M264 -12c-94 0 -171 22 -249 67l46 73c61 -39 130 -61 205 -61c85 0 136 30 136 74c0 30 -20 52 -77 63l-142 27c-92 18 -137 61 -137 135c0 80 68 143 210 143c82 0 154 -22 206 -56l-43 -71c-48 28 -104 48 -164 48c-69 0 -122 -19 -122 -62c0 -28 16 -44 65 -53
l132 -23c109 -21 159 -70 159 -146c0 -99 -99 -158 -225 -158z" />
    <glyph glyph-name="t" unicode="t" horiz-adv-x="285" 
d="M15 416v82h82v186l90 54v-240h83v-82h-83v-416h-90v416h-82z" />
    <glyph glyph-name="u" unicode="u" 
d="M272 -8c-109 0 -216 77 -216 211l1 295h91v-286c0 -87 66 -137 137 -137c61 0 108 34 132 83v340h91v-498h-91v52c-35 -35 -82 -60 -145 -60z" />
    <glyph glyph-name="v" unicode="v" horiz-adv-x="491" 
d="M198 0l-200 498h98l151 -383l150 383h96l-202 -498h-93z" />
    <glyph glyph-name="w" unicode="w" horiz-adv-x="820" 
d="M183 0l-182 498h95l136 -378l132 378h89l133 -385l142 385h91l-188 -498h-93l-131 374l-135 -374h-89z" />
    <glyph glyph-name="x" unicode="x" horiz-adv-x="497" 
d="M388 0l-141 186l-140 -186h-109l189 253l-181 245h109l133 -179l136 179h107l-183 -246l190 -252h-110z" />
    <glyph glyph-name="y" unicode="y" horiz-adv-x="505" 
d="M-2 498h102l153 -379l159 379h96l-289 -676h-90l77 183z" />
    <glyph glyph-name="z" unicode="z" horiz-adv-x="479" 
d="M11 0l285 415h-265v83h430l-288 -415h289v-83h-451z" />
    <glyph glyph-name="space" unicode=" " horiz-adv-x="278" 
 />
    <glyph glyph-name="A" unicode="A" horiz-adv-x="712" 
d="M3 0l316 773h78l312 -773h-102l-52 128h-400l-52 -128h-100zM357 620l-167 -407h331z" />
    <glyph glyph-name="B" unicode="B" horiz-adv-x="623" 
d="M89 0v773h228c137 0 239 -81 239 -211c0 -75 -38 -134 -99 -168c73 -29 123 -93 123 -179c0 -133 -104 -215 -246 -215h-245zM334 350h-151v-266h141c99 0 162 53 162 136c0 72 -48 130 -152 130zM309 688h-126v-259h152c69 0 129 52 129 134c0 76 -63 125 -155 125z" />
    <glyph glyph-name="C" unicode="C" horiz-adv-x="741" 
d="M442 -14c-222 0 -401 179 -401 401s179 401 401 401c107 0 204 -43 276 -111l-67 -67c-55 52 -128 85 -209 85c-170 0 -304 -137 -304 -308s134 -308 304 -308c83 0 159 35 214 88l68 -65c-73 -71 -172 -116 -282 -116z" />
    <glyph glyph-name="D" unicode="D" horiz-adv-x="724" 
d="M89 0v773h205c209 0 389 -168 389 -385c0 -224 -175 -388 -391 -388h-203zM296 684h-113v-595h116c163 0 287 133 287 299c0 168 -134 296 -290 296z" />
    <glyph glyph-name="E" unicode="E" horiz-adv-x="577" 
d="M512 348h-327v-262h346v-86h-442v773h437v-87h-341v-251h327v-87z" />
    <glyph glyph-name="F" unicode="F" horiz-adv-x="530" 
d="M89 0v773h424v-87h-328v-262h287v-86h-287v-338h-96z" />
    <glyph glyph-name="G" unicode="G" horiz-adv-x="880" 
d="M601 343v87h244v-46c-5 -233 -187 -397 -400 -397c-228 0 -404 182 -404 400c0 220 176 401 404 401c118 0 224 -50 299 -132l-68 -65c-59 65 -140 105 -231 105c-177 0 -307 -139 -307 -309c0 -169 131 -308 307 -308c152 0 278 103 303 264h-147z" />
    <glyph glyph-name="H" unicode="H" horiz-adv-x="774" 
d="M589 0v344h-404v-344h-96v773h96v-338h404v338h96v-773h-96z" />
    <glyph glyph-name="I" unicode="I" horiz-adv-x="275" 
d="M89 0v773h96v-773h-96z" />
    <glyph glyph-name="J" unicode="J" horiz-adv-x="542" 
d="M220 -11c-113 0 -206 65 -240 176l85 39c23 -79 81 -124 155 -124c94 0 155 62 155 173v520h96v-521c0 -177 -116 -263 -251 -263z" />
    <glyph glyph-name="K" unicode="K" horiz-adv-x="669" 
d="M89 0v773h94v-380l337 380h123l-273 -306l280 -467h-111l-235 393l-121 -135v-258h-94z" />
    <glyph glyph-name="L" unicode="L" horiz-adv-x="527" 
d="M89 0v773h96v-683h329v-90h-425z" />
    <glyph glyph-name="M" unicode="M" horiz-adv-x="881" 
d="M89 0v773h93l256 -433l259 433h95v-773h-94v600h-3l-257 -425l-254 420h-1v-595h-94z" />
    <glyph glyph-name="N" unicode="N" horiz-adv-x="787" 
d="M89 0v773h61l452 -574v574h96v-773h-58l-455 576v-576h-96z" />
    <glyph glyph-name="O" unicode="O" horiz-adv-x="885" 
d="M442 79c170 0 305 137 305 308s-136 308 -305 308c-170 0 -304 -137 -304 -308s134 -308 304 -308zM442 -14c-221 0 -401 179 -401 401s180 401 401 401c222 0 402 -179 402 -401s-180 -401 -402 -401z" />
    <glyph glyph-name="P" unicode="P" horiz-adv-x="625" 
d="M89 0v773h269c142 0 251 -107 251 -252c0 -142 -112 -249 -252 -249h-172v-272h-96zM351 683h-166v-321h168c90 0 158 63 158 159c0 93 -69 162 -160 162z" />
    <glyph glyph-name="Q" unicode="Q" horiz-adv-x="885" 
d="M442 -14c-221 0 -401 179 -401 401s180 401 401 401c222 0 402 -179 402 -401c0 -97 -34 -185 -91 -254l96 -94l-61 -61l-96 95c-69 -54 -155 -87 -250 -87zM442 79c69 0 132 22 183 61l-111 111l61 60l111 -110c38 51 61 116 61 186c0 171 -136 308 -305 308
c-170 0 -304 -137 -304 -308s134 -308 304 -308z" />
    <glyph glyph-name="R" unicode="R" horiz-adv-x="658" 
d="M89 0v773h290c137 0 245 -94 245 -233c0 -133 -100 -223 -230 -231l239 -309h-112l-238 310h-98v-310h-96zM368 688h-183v-298h182c92 0 160 59 160 150c0 84 -67 148 -159 148z" />
    <glyph glyph-name="S" unicode="S" horiz-adv-x="585" 
d="M290 -9c-103 0 -203 48 -267 117l65 71c47 -55 126 -100 205 -100c94 0 155 55 155 128c0 54 -29 105 -111 138l-93 37c-108 43 -166 102 -166 201c0 113 94 201 219 201c97 0 165 -31 222 -85l-58 -73c-44 44 -96 69 -164 69c-73 0 -127 -42 -127 -109
c0 -48 27 -83 109 -116l96 -39c118 -48 167 -124 167 -218c0 -130 -98 -222 -252 -222z" />
    <glyph glyph-name="T" unicode="T" horiz-adv-x="630" 
d="M11 683v90h608v-90h-256v-683h-96v683h-256z" />
    <glyph glyph-name="U" unicode="U" horiz-adv-x="711" 
d="M355 -13c-169 0 -284 123 -284 284v502h96v-495c0 -112 69 -200 188 -200s189 86 189 200v495h96v-502c0 -161 -114 -284 -285 -284z" />
    <glyph glyph-name="V" unicode="V" horiz-adv-x="699" 
d="M309 0l-306 773h102l245 -620l246 620h100l-308 -773h-79z" />
    <glyph glyph-name="W" unicode="W" horiz-adv-x="1105" 
d="M262 0l-254 773h100l198 -611l197 611h101l192 -617l207 617h94l-262 -773h-83l-199 632l-209 -632h-82z" />
    <glyph glyph-name="X" unicode="X" horiz-adv-x="614" 
d="M14 773h110l183 -300l184 300h108l-234 -382l240 -391h-112l-187 308l-187 -308h-110l239 390z" />
    <glyph glyph-name="Y" unicode="Y" horiz-adv-x="609" 
d="M507 773h104l-257 -464v-309h-96v306l-260 467h108l202 -368z" />
    <glyph glyph-name="Z" unicode="Z" horiz-adv-x="618" 
d="M27 0v57l438 630h-416v86h542v-63l-435 -624h427v-86h-556z" />
    <glyph glyph-name="germandbls" unicode="&#xdf;" 
d="M305 77c79 0 143 66 143 150c0 81 -63 146 -144 147h-33v83h35c67 2 111 63 111 122c0 73 -46 128 -129 128c-81 0 -128 -67 -128 -141v-566h-88v577c0 103 78 212 216 212c132 0 216 -86 216 -202c0 -74 -36 -129 -85 -157c75 -38 124 -113 124 -202
c0 -141 -105 -234 -237 -234c-19 0 -35 2 -53 6l13 82c13 -3 25 -5 39 -5z" />
    <glyph glyph-name="dotlessi" unicode="&#x131;" horiz-adv-x="230" 
d="M69 0v498h91v-498h-91z" />
    <glyph glyph-name="quotedbl" unicode="&#x22;" horiz-adv-x="305" 
d="M57 551l-14 229h78l-1 -229h-63zM185 551l-1 229h78l-14 -229h-63z" />
    <glyph glyph-name="quotesingle" unicode="'" horiz-adv-x="173" 
d="M54 551l-11 229h87l-14 -229h-62z" />
    <glyph glyph-name="quotedblbase" unicode="&#x201e;" horiz-adv-x="445" 
d="M99 -170l-57 21l90 239l83 -30zM285 -170l-57 21l90 239l83 -30z" />
    <glyph glyph-name="quotesinglbase" unicode="&#x201a;" horiz-adv-x="259" 
d="M99 -170l-57 21l90 239l83 -30z" />
    <glyph glyph-name="comma" unicode="," horiz-adv-x="212" 
d="M-2 -143l89 239l84 -30l-117 -230z" />
    <glyph glyph-name="hyphen" unicode="-" horiz-adv-x="393" 
d="M46 242v82h301v-82h-301z" />
    <glyph glyph-name="hyphen" unicode="&#xad;" horiz-adv-x="393" 
d="M46 242v82h301v-82h-301z" />
    <glyph glyph-name="endash" unicode="&#x2013;" horiz-adv-x="617" 
d="M50 267v82h517v-82h-517z" />
    <glyph glyph-name="emdash" unicode="&#x2014;" horiz-adv-x="935" 
d="M17 267v82h900v-82h-900z" />
    <glyph glyph-name="zero" unicode="0" horiz-adv-x="633" 
d="M316 -12c-138 0 -247 104 -247 248v304c0 143 109 247 247 247c141 0 248 -105 248 -245v-307c0 -143 -110 -247 -248 -247zM316 76c90 0 158 64 158 159v305c0 94 -68 159 -158 159c-91 0 -156 -66 -156 -160v-303c0 -95 67 -160 156 -160z" />
    <glyph glyph-name="one" unicode="1" horiz-adv-x="358" 
d="M185 0v659l-157 -85v91l204 114h42v-779h-89z" />
    <glyph glyph-name="two" unicode="2" horiz-adv-x="535" 
d="M31 0v54l318 419c29 38 41 70 41 104c0 72 -55 127 -134 127c-75 0 -131 -58 -133 -142h-88c0 126 95 225 221 225c131 0 224 -91 224 -210c0 -55 -26 -108 -70 -164l-255 -330h342v-83h-466z" />
    <glyph glyph-name="three" unicode="3" horiz-adv-x="531" 
d="M250 -12c-123 0 -227 100 -230 219h84c2 -76 72 -135 145 -135c84 0 149 62 149 143c0 84 -64 147 -149 147h-36l1 84h35c83 0 141 60 141 129c0 77 -58 132 -139 132c-78 0 -137 -60 -137 -134h-84c-1 119 97 214 222 214c130 0 226 -92 226 -212
c0 -80 -48 -145 -119 -172c77 -26 127 -96 127 -189c0 -125 -105 -226 -236 -226z" />
    <glyph glyph-name="four" unicode="4" horiz-adv-x="540" 
d="M23 184v49l285 540h95l-265 -507h190v129h84v-129h108v-82h-108v-184h-84v184h-305z" />
    <glyph glyph-name="five" unicode="5" horiz-adv-x="575" 
d="M282 -12c-119 0 -213 70 -247 172l83 32c21 -68 84 -117 164 -117c102 0 172 76 172 169c0 97 -77 168 -170 168c-59 0 -100 -28 -124 -52h-87v413h429v-85h-341v-231c32 21 75 37 123 37c155 0 260 -108 260 -250c0 -141 -113 -256 -262 -256z" />
    <glyph glyph-name="six" unicode="6" horiz-adv-x="568" 
d="M295 -12c-128 0 -226 104 -226 228v335c0 141 101 235 227 235c118 0 217 -82 217 -212h-85c0 77 -57 130 -133 130c-80 0 -141 -60 -141 -149v-183c36 44 86 70 142 70c130 0 229 -101 229 -227c0 -125 -102 -227 -230 -227zM295 70c79 0 144 66 144 145
c0 78 -65 144 -144 144c-64 0 -140 -50 -140 -143c0 -80 62 -146 140 -146z" />
    <glyph glyph-name="seven" unicode="7" horiz-adv-x="467" 
d="M78 6l270 681h-335v86h448v-41l-295 -738z" />
    <glyph glyph-name="eight" unicode="8" horiz-adv-x="557" 
d="M278 -12c-131 0 -237 103 -237 234c0 84 48 156 116 195c-53 36 -89 96 -89 166c0 114 95 204 210 204c113 0 211 -90 211 -204c0 -70 -37 -129 -91 -166c70 -39 118 -110 118 -195c0 -131 -106 -234 -238 -234zM278 72c83 0 148 68 148 150c0 83 -65 147 -148 147
c-82 0 -147 -64 -147 -147c0 -82 65 -150 147 -150zM278 705c-71 0 -124 -56 -124 -125c0 -70 53 -126 124 -126c69 0 125 56 125 126c0 69 -56 125 -125 125z" />
    <glyph glyph-name="nine" unicode="9" horiz-adv-x="516" 
d="M250 335c-116 0 -222 96 -222 225c0 135 116 227 231 227c120 0 227 -97 227 -223c0 -47 -8 -76 -27 -114c-78 -151 -159 -299 -237 -450h-96c59 115 121 228 181 342c-18 -5 -37 -7 -57 -7zM256 416c86 0 144 64 144 148c0 82 -65 141 -141 141
c-71 0 -145 -55 -145 -145c0 -81 68 -144 142 -144z" />
    <glyph glyph-name="question" unicode="?" horiz-adv-x="548" 
d="M246 -11c-31 0 -56 25 -56 56c0 33 25 58 56 58c32 0 58 -25 58 -58c0 -31 -26 -56 -58 -56zM203 193v31c0 82 22 120 79 155l53 33c50 33 80 74 80 131c0 73 -47 136 -139 136s-142 -68 -145 -160h-85c4 143 93 241 231 241c140 0 227 -98 227 -214
c0 -77 -38 -139 -117 -190l-54 -36c-33 -19 -45 -41 -45 -96v-31h-85z" />
    <glyph glyph-name="exclam" unicode="!" horiz-adv-x="279" 
d="M99 193l-11 559h103l-11 -559h-81zM138 -11c-31 0 -56 25 -56 56c0 33 25 58 56 58c32 0 58 -25 58 -58c0 -31 -26 -56 -58 -56z" />
    <glyph glyph-name="ae" unicode="&#xe6;" horiz-adv-x="948" 
d="M251 -12c-127 0 -223 63 -223 166c0 97 93 170 229 170c52 0 118 -20 157 -48v40c0 74 -90 105 -153 105c-56 0 -112 -12 -159 -52l-44 69c64 47 133 67 204 67c77 0 163 -28 208 -88c44 53 112 88 197 88c146 0 249 -102 257 -238c0 -10 1 -21 1 -32h-424
c2 -92 75 -163 178 -163c66 0 105 16 156 58l52 -56c-61 -58 -118 -83 -208 -83c-91 0 -163 36 -208 92c-59 -62 -132 -95 -220 -95zM256 63c75 0 134 31 178 79c-6 16 -12 32 -15 49c-31 27 -94 59 -158 59c-100 0 -150 -44 -150 -96c0 -51 56 -91 145 -91zM666 427
c-95 0 -141 -55 -158 -120h321c-17 67 -75 120 -163 120z" />
    <glyph glyph-name="colon" unicode=":" horiz-adv-x="242" 
d="M120 95c30 0 57 -23 57 -53c0 -28 -27 -53 -57 -53c-32 0 -57 25 -57 53c0 30 25 53 57 53zM121 476c31 0 58 -23 58 -53c0 -28 -27 -53 -58 -53s-57 25 -57 53c0 30 26 53 57 53z" />
    <glyph glyph-name="acute" unicode="&#xb4;" horiz-adv-x="300" 
d="M43 576v17l113 142h101v-12l-154 -147h-60z" />
    <glyph glyph-name="circumflex" unicode="&#x2c6;" horiz-adv-x="423" 
d="M46 581l135 154h61l135 -154h-80l-86 94l-84 -94h-81z" />
    <glyph glyph-name="macron" unicode="&#xaf;" horiz-adv-x="403" 
d="M53 613v71h297v-71h-297z" />
    <glyph glyph-name="macron" unicode="&#x2c9;" horiz-adv-x="403" 
d="M53 613v71h297v-71h-297z" />
    <glyph glyph-name="breve" unicode="&#x2d8;" horiz-adv-x="472" 
d="M236 587c-87 0 -151 54 -154 146h69c1 -47 34 -84 85 -84s84 37 86 84h67c-3 -95 -66 -146 -153 -146z" />
    <glyph glyph-name="dotaccent" unicode="&#x2d9;" horiz-adv-x="179" 
d="M89 632c-32 0 -56 26 -56 57c0 32 24 57 56 57c31 0 57 -25 57 -57c0 -31 -26 -57 -57 -57z" />
    <glyph glyph-name="ring" unicode="&#x2da;" horiz-adv-x="341" 
d="M170 624c25 0 44 20 44 44s-19 45 -44 45c-24 0 -44 -21 -44 -45s20 -44 44 -44zM170 567c-56 0 -101 45 -101 101s45 101 101 101s101 -45 101 -101s-45 -101 -101 -101z" />
    <glyph glyph-name="cedilla" unicode="&#xb8;" horiz-adv-x="319" 
d="M102 -200v57c10 -2 18 -3 25 -3c31 0 54 9 54 38c0 27 -23 39 -50 39c-2 0 -4 0 -8 -1v88h65v-54c35 -7 61 -37 61 -75c0 -59 -44 -92 -118 -92c-9 0 -19 1 -29 3z" />
    <glyph glyph-name="hungarumlaut" unicode="&#x2dd;" horiz-adv-x="444" 
d="M40 576l90 156h93l-118 -156h-65zM208 576l102 156h94l-130 -156h-66z" />
    <glyph glyph-name="ogonek" unicode="&#x2db;" horiz-adv-x="265" 
d="M147 -178c-68 0 -113 33 -113 85c0 74 75 110 141 121l45 -28c-75 -19 -112 -45 -112 -80c0 -26 20 -41 53 -41c22 0 39 5 50 10l17 -50c-12 -7 -50 -17 -81 -17z" />
    <glyph glyph-name="caron" unicode="&#x2c7;" horiz-adv-x="423" 
d="M181 581l-135 154h81l85 -95l85 95h80l-135 -154h-61z" />
    <glyph glyph-name="grave" unicode="`" horiz-adv-x="301" 
d="M190 576l-149 146l-1 13h97l124 -147v-12h-71z" />
    <glyph glyph-name="dieresis" unicode="&#xa8;" horiz-adv-x="409" 
d="M315 611c-29 0 -52 22 -52 52c0 29 23 52 52 52s53 -23 53 -52c0 -30 -24 -52 -53 -52zM93 611c-29 0 -52 22 -52 52c0 29 23 52 52 52s52 -23 52 -52c0 -30 -23 -52 -52 -52z" />
    <glyph glyph-name="ampersand" unicode="&#x26;" horiz-adv-x="653" 
d="M269 -12c-125 0 -218 92 -218 218c0 95 55 157 141 208l-17 19c-38 42 -71 95 -71 163c0 105 84 188 193 188c103 0 189 -81 189 -188c0 -100 -75 -163 -162 -203c-1 -1 -2 -1 -2 -1l142 -154c17 45 28 96 38 146l82 -6c-9 -60 -26 -139 -58 -207l124 -134l-62 -58
l-107 118c-57 -75 -128 -109 -212 -109zM271 71c68 0 115 30 153 88l-177 194c-71 -42 -109 -88 -109 -146c0 -77 55 -136 133 -136zM186 596c0 -44 25 -84 53 -114l27 -30l18 9c82 36 119 76 119 135c0 61 -44 110 -106 110c-64 0 -111 -48 -111 -110z" />
    <glyph glyph-name="asterisk" unicode="*" horiz-adv-x="484" 
d="M451 602l-147 -48l91 -125l-62 -44l-92 126l-91 -126l-60 44l89 124l-146 48l24 72l147 -48v155h75v-154l149 48zM218 605l-14 -43l37 -27l38 27l-13 43h-48z" />
    <glyph glyph-name="plus" unicode="+" horiz-adv-x="610" 
d="M53 314v80h210v212h84v-212h210v-80h-210v-214h-84v214h-210z" />
    <glyph glyph-name="parenright" unicode=")" horiz-adv-x="328" 
d="M184 330c0 168 -69 355 -175 481l67 49c122 -142 196 -346 196 -530c0 -206 -84 -398 -199 -533l-67 50c101 122 178 298 178 483z" />
    <glyph glyph-name="parenleft" unicode="(" horiz-adv-x="328" 
d="M56 329c0 184 74 388 197 531l66 -51c-106 -126 -174 -313 -174 -480c0 -186 76 -362 176 -484l-67 -48c-114 135 -198 326 -198 532z" />
    <glyph glyph-name="semicolon" unicode=";" horiz-adv-x="246" 
d="M129 476c31 0 58 -23 58 -53c0 -28 -27 -53 -58 -53s-56 25 -56 53c0 30 25 53 56 53zM8 -143l89 239l84 -30l-117 -230z" />
    <glyph glyph-name="at" unicode="@" horiz-adv-x="1028" 
d="M504 50c-126 0 -217 96 -217 212c0 115 94 211 213 211c50 0 92 -19 125 -48l2 53h78v-283c0 -48 28 -71 66 -71c78 0 113 84 113 173c0 186 -159 342 -371 342c-204 0 -369 -166 -369 -369c0 -212 165 -377 369 -377c78 0 152 18 215 57l39 -67
c-75 -45 -162 -66 -254 -66c-246 0 -447 198 -447 453c0 246 201 446 447 446c250 0 449 -188 449 -419c0 -120 -63 -248 -195 -248c-59 0 -99 28 -122 69c-29 -36 -79 -68 -141 -68zM504 131c53 0 97 31 120 78v103c-22 48 -68 82 -120 82c-75 0 -133 -60 -133 -132
c0 -75 56 -131 133 -131z" />
    <glyph glyph-name="bracketleft" unicode="[" horiz-adv-x="326" 
d="M82 -152v932h221v-70h-139v-792h139v-70h-221z" />
    <glyph glyph-name="backslash" unicode="\" horiz-adv-x="379" 
d="M292 -126l-299 906h78l300 -906h-79z" />
    <glyph glyph-name="bracketright" unicode="]" horiz-adv-x="326" 
d="M244 780v-932h-221v70h139v792h-139v70h221z" />
    <glyph glyph-name="slash" unicode="/" horiz-adv-x="379" 
d="M8 -126l301 906h77l-299 -906h-79z" />
    <glyph glyph-name="dollar" unicode="$" horiz-adv-x="558" 
d="M255 765h82v-97c59 -8 109 -30 153 -63l-52 -74c-31 26 -65 43 -101 50v-173l22 -7c108 -37 151 -105 151 -178c0 -89 -66 -161 -173 -179v-109h-82v106c-84 6 -162 41 -216 92l65 74c36 -36 91 -69 151 -77v205l-16 6c-99 35 -151 84 -151 166c0 81 65 149 167 162v96z
M415 216c0 35 -21 67 -78 91v-173c50 13 78 46 78 82zM181 511c0 -31 19 -53 74 -75v147c-48 -9 -74 -35 -74 -72z" />
    <glyph glyph-name="copyright" unicode="&#xa9;" horiz-adv-x="909" 
d="M469 164c-127 0 -228 100 -228 227c0 128 101 225 228 225c61 0 113 -20 157 -55l-47 -63c-30 25 -65 39 -107 39c-85 0 -148 -63 -148 -146s65 -148 148 -148c43 0 78 17 106 40l45 -63c-40 -35 -91 -56 -154 -56zM454 -12c-221 0 -398 178 -398 399
c0 220 177 398 398 398c220 0 398 -178 398 -398c0 -221 -178 -399 -398 -399zM454 56c183 0 327 147 327 331c0 183 -144 331 -327 331s-327 -148 -327 -331c0 -184 144 -331 327 -331z" />
    <glyph glyph-name="zero.plf" horiz-adv-x="596" 
d="M298 77c85 0 152 69 153 156c0 0 3 59 3 118c0 57 -3 119 -3 119c-1 83 -68 156 -153 156c-86 0 -151 -72 -152 -156c0 0 -3 -63 -3 -119c0 -60 3 -118 3 -118c1 -87 65 -156 152 -156zM298 -10c-134 0 -242 98 -243 242c0 0 -2 60 -2 119c0 57 2 118 2 118
c1 141 111 244 243 244c131 0 242 -104 243 -244c0 -1 2 -62 2 -118c0 -61 -2 -119 -2 -119c-1 -144 -111 -242 -243 -242z" />
    <glyph glyph-name="one.plf" horiz-adv-x="340" 
d="M183 0v594l-155 -88v94l192 109h50v-709h-87z" />
    <glyph glyph-name="two.plf" horiz-adv-x="519" 
d="M31 0v62l295 295c40 40 60 82 60 125c0 76 -46 142 -136 142c-78 0 -135 -66 -135 -158h-89c0 143 99 246 225 246c140 0 225 -104 225 -230c0 -75 -35 -130 -91 -186l-211 -213h313v-83h-456z" />
    <glyph glyph-name="three.plf" horiz-adv-x="519" 
d="M257 -13c-131 0 -229 89 -229 228h88c0 -80 52 -144 141 -144c81 0 136 58 136 123c0 76 -56 125 -140 125h-32v79h28c80 0 132 46 132 118c0 58 -50 113 -124 113c-79 0 -129 -49 -129 -135h-87c0 136 93 218 216 218c117 0 211 -85 211 -193c0 -77 -41 -130 -92 -157
c55 -23 105 -80 105 -166c0 -114 -97 -209 -224 -209z" />
    <glyph glyph-name="four.plf" horiz-adv-x="525" 
d="M23 146v67l266 487h98l-254 -472h210v153h85v-153h77v-82h-77v-146h-85v146h-320z" />
    <glyph glyph-name="five.plf" horiz-adv-x="550" 
d="M62 322v378h418v-83h-332v-197c34 26 79 43 130 43c136 0 237 -101 237 -235c0 -133 -104 -238 -240 -238c-120 0 -208 73 -239 180l86 26c18 -70 76 -120 150 -120c92 0 154 71 154 152c0 83 -63 151 -152 151c-58 0 -103 -26 -127 -57h-85z" />
    <glyph glyph-name="six.plf" horiz-adv-x="535" 
d="M267 -10c-130 0 -236 109 -236 232c0 51 12 91 47 155l177 323h104l-141 -253c16 3 32 5 48 5c130 0 237 -99 237 -229c0 -128 -108 -233 -236 -233zM267 76c81 0 147 69 147 147s-66 144 -147 144c-65 0 -146 -52 -146 -145c0 -78 66 -146 146 -146z" />
    <glyph glyph-name="seven.plf" horiz-adv-x="466" 
d="M87 0l257 613h-328v87h439v-52l-271 -648h-97z" />
    <glyph glyph-name="eight.plf" horiz-adv-x="531" 
d="M266 -12c-126 0 -221 95 -221 211c0 70 39 130 99 164c-53 36 -88 92 -88 153c0 111 95 196 210 196c116 0 209 -85 209 -194c0 -64 -35 -121 -87 -156c59 -35 98 -94 98 -163c0 -115 -96 -211 -220 -211zM266 70c79 0 135 59 135 129c0 66 -56 125 -135 125
s-136 -59 -136 -125c0 -69 55 -129 136 -129zM266 631c-72 0 -124 -54 -124 -117c0 -57 52 -117 124 -117c71 0 123 59 123 119c0 61 -50 115 -123 115z" />
    <glyph glyph-name="nine.plf" horiz-adv-x="535" 
d="M268 710c130 0 235 -109 235 -232c0 -51 -11 -91 -46 -155l-177 -323h-104l140 253c-16 -4 -32 -5 -48 -5c-129 0 -237 99 -237 229c0 128 109 233 237 233zM268 624c-81 0 -147 -69 -147 -147s66 -144 147 -144c65 0 146 52 146 145c0 78 -66 146 -146 146z" />
    <glyph glyph-name="guillemotleft" unicode="&#xab;" horiz-adv-x="445" 
d="M156 76l-125 183v18l126 183h76l-121 -192l121 -192h-77zM331 76l-125 183v18l126 183h76l-121 -192l121 -192h-77z" />
    <glyph glyph-name="guillemotright" unicode="&#xbb;" horiz-adv-x="445" 
d="M37 76l121 190l-122 194h77l125 -183v-18l-126 -183h-75zM212 76l121 190l-122 194h77l125 -183v-18l-126 -183h-75z" />
    <glyph glyph-name="a" unicode="a" horiz-adv-x="560" 
d="M251 -12c-130 0 -223 67 -223 164c0 98 93 172 229 172c58 0 123 -23 157 -46v38c0 74 -90 105 -153 105c-56 0 -112 -12 -159 -52l-44 69c64 47 133 67 204 67c112 0 240 -57 240 -189v-316h-88v42c-31 -26 -91 -54 -163 -54zM256 63c68 0 122 27 158 59v73
c-34 27 -94 55 -153 55c-100 0 -150 -43 -150 -96c0 -52 58 -91 145 -91z" />
    <glyph glyph-name="CR" unicode="&#xd;" horiz-adv-x="200" 
 />
    <glyph glyph-name=".null" horiz-adv-x="500" 
 />
    <glyph glyph-name=".null" horiz-adv-x="500" 
 />
    <glyph glyph-name="less" unicode="&#x3c;" horiz-adv-x="450" 
d="M36 244v70l367 150v-81l-263 -103l263 -105v-83z" />
    <glyph glyph-name="greater" unicode="&#x3e;" horiz-adv-x="450" 
d="M414 312v-70l-367 -150v81l263 103l-263 105v83z" />
    <glyph glyph-name="bar" unicode="|" horiz-adv-x="269" 
d="M89 -178v958h90v-958h-90z" />
    <glyph glyph-name="braceleft" unicode="{" horiz-adv-x="333" 
d="M237 -188c-46 0 -90 17 -104 73c-6 24 -8 44 -8 78v167c0 60 0 113 -3 162c-6 36 -26 39 -66 43v57c51 5 61 15 66 39c3 49 3 104 3 166v170c0 27 1 42 4 62c12 67 59 88 108 88c31 0 53 -1 63 -1v-72h-23c-50 3 -59 -21 -59 -86v-306c0 -48 -17 -76 -47 -91
c30 -18 47 -47 47 -89v-299c0 -65 9 -87 43 -89c8 0 23 0 39 1v-72c-10 0 -32 -1 -63 -1z" />
    <glyph glyph-name="braceright" unicode="}" horiz-adv-x="333" 
d="M95 -188c-31 0 -52 1 -62 1v72h23c50 -3 59 21 59 86v306c0 48 16 75 46 90c-29 18 -46 46 -46 89v300c0 65 -9 87 -44 88c-8 1 -22 0 -38 0v73c10 0 31 2 62 2c46 0 90 -19 105 -76c6 -23 7 -43 7 -77v-168c0 -59 0 -113 4 -162c5 -36 26 -39 66 -43v-56
c-52 -6 -62 -16 -66 -40c-4 -49 -4 -104 -4 -166v-169c0 -27 0 -42 -4 -63c-11 -66 -58 -87 -108 -87z" />
    <glyph glyph-name="fraction" unicode="&#x2044;" horiz-adv-x="262" 
d="M-164 0l505 773h85l-505 -773h-85z" />
    <glyph glyph-name="fraction" unicode="&#x2215;" horiz-adv-x="262" 
d="M-164 0l505 773h85l-505 -773h-85z" />
    <glyph glyph-name="bullet" unicode="&#x2022;" horiz-adv-x="278" 
d="M140 162c-59 0 -105 47 -105 105s46 104 105 104c57 0 104 -45 104 -104c0 -58 -47 -105 -104 -105z" />
    <glyph glyph-name="underscore" unicode="_" horiz-adv-x="476" 
d="M25 -86v56h426v-56h-426z" />
    <glyph glyph-name="asciicircum" unicode="^" horiz-adv-x="542" 
d="M16 399l218 374h73l218 -374h-101l-154 271l-154 -271h-100z" />
    <glyph glyph-name="asciitilde" unicode="~" horiz-adv-x="522" 
d="M359 219c-97 0 -129 85 -200 85c-32 0 -59 -24 -64 -73l-62 11c6 68 46 136 127 136c91 0 128 -85 200 -85c35 0 59 23 66 74l63 -12c-5 -70 -47 -136 -130 -136z" />
    <glyph glyph-name="equal" unicode="=" horiz-adv-x="583" 
d="M73 421v80h438v-80h-438zM73 227v81h438v-81h-438z" />
    <glyph glyph-name="numbersign" unicode="#" horiz-adv-x="662" 
d="M72 416l15 77h123l31 157h87l-31 -157h135l31 157h87l-31 -157h123l-15 -77h-124l-37 -187h123l-16 -77h-123l-30 -152h-87l30 152h-135l-30 -152h-87l30 152h-123l16 77h123l37 187h-122zM281 416l-37 -187h135l37 187h-135z" />
    <glyph glyph-name="guilsinglleft" unicode="&#x2039;" horiz-adv-x="269" 
d="M156 76l-125 183v18l126 183h76l-121 -192l121 -192h-77z" />
    <glyph glyph-name="guilsinglright" unicode="&#x203a;" horiz-adv-x="269" 
d="M37 76l121 190l-122 194h77l125 -183v-18l-126 -183h-75z" />
    <glyph glyph-name="degree" unicode="&#xb0;" horiz-adv-x="354" 
d="M177 520c-74 0 -131 59 -131 133s58 132 131 132c72 0 130 -56 130 -132c0 -73 -57 -133 -130 -133zM177 582c39 0 66 31 66 71c0 42 -28 70 -66 70s-67 -29 -67 -70c0 -40 29 -71 67 -71z" />
    <glyph glyph-name="multiply" unicode="&#xd7;" horiz-adv-x="604" 
d="M116 97l-60 54l190 202l-193 209l59 54l189 -204l190 202l60 -55l-194 -206l188 -202l-60 -54l-184 197z" />
    <glyph glyph-name="period" unicode="." horiz-adv-x="212" 
d="M105 -11c-31 0 -56 25 -56 56c0 33 25 58 56 58c32 0 58 -25 58 -58c0 -31 -26 -56 -58 -56z" />
    <glyph glyph-name="paragraph" unicode="&#xb6;" horiz-adv-x="581" 
d="M193 0v426c-80 17 -147 82 -147 174c0 107 89 173 209 173h277v-78h-85v-695h-82v695h-91v-695h-81z" />
    <glyph glyph-name="percent" unicode="%" horiz-adv-x="920" 
d="M685 59c69 0 86 59 86 136c0 69 -16 134 -85 134c-68 0 -85 -59 -85 -134c0 -74 16 -136 84 -136zM685 -7c-97 0 -150 75 -153 165c0 8 -1 20 -1 36c0 15 1 29 1 38c2 89 63 163 154 163s150 -74 153 -163c1 -7 1 -21 1 -37c0 -20 0 -27 -1 -38
c-3 -94 -64 -164 -154 -164zM233 444c69 0 86 59 86 136c0 69 -16 134 -85 134c-68 0 -85 -59 -85 -134c0 -74 16 -136 84 -136zM233 378c-97 0 -150 75 -153 165c0 8 -1 20 -1 36c0 15 1 29 1 38c2 89 63 163 154 163s150 -74 153 -163c1 -7 1 -21 1 -37
c0 -20 0 -27 -1 -38c-3 -94 -64 -164 -154 -164zM164 0l505 773h85l-505 -773h-85z" />
    <glyph glyph-name="AE" unicode="&#xc6;" horiz-adv-x="889" 
d="M415 0v244h-201l-110 -244h-106l358 773h483v-87h-328v-251h313v-87h-313v-262h331v-86h-427zM413 686l-161 -357h163v357h-2z" />
    <glyph glyph-name="OE" unicode="&#x152;" horiz-adv-x="1149" 
d="M647 0v49c-52 -39 -129 -63 -206 -63c-220 0 -400 179 -400 401s179 401 400 401c85 0 157 -27 206 -63v48h437v-87h-341v-251h327v-87h-327v-262h346v-86h-442zM442 79c81 0 152 32 205 81v453c-54 52 -126 82 -205 82c-170 0 -304 -137 -304 -308s134 -308 304 -308z
" />
    <glyph glyph-name="sterling" unicode="&#xa3;" horiz-adv-x="568" 
d="M46 329v81h98c-26 50 -48 103 -48 164c0 127 94 209 217 209c133 0 219 -87 218 -219h-96c-1 55 -33 128 -123 128c-75 0 -120 -51 -120 -118c0 -61 25 -113 53 -164h182v-81h-141c13 -33 23 -67 23 -104c0 -56 -22 -106 -54 -139h265v-86h-462v86h85c47 24 75 74 75 129
c0 38 -14 76 -33 114h-139z" />
    <glyph glyph-name="registered" unicode="&#xae;" horiz-adv-x="623" 
d="M310 278c-140 0 -254 113 -254 254c0 139 114 253 254 253c141 0 256 -114 256 -253c0 -140 -115 -254 -256 -254zM310 332c108 0 199 90 199 200c0 108 -91 199 -199 199s-196 -91 -196 -199s88 -200 196 -200zM359 399l-76 108h-17v-108h-50v266h100
c54 0 95 -26 95 -78c0 -45 -29 -71 -70 -79l79 -109h-61zM305 621h-39v-72h38c30 0 54 10 54 37c0 26 -23 35 -53 35z" />
    <glyph glyph-name="quoteleft" unicode="&#x2018;" horiz-adv-x="249" 
d="M126 541l-83 30l116 230l57 -21z" />
    <glyph glyph-name="quoteright" unicode="&#x2019;" horiz-adv-x="252" 
d="M93 541l-57 21l90 239l83 -30z" />
    <glyph glyph-name="quotedblleft" unicode="&#x201c;" horiz-adv-x="445" 
d="M126 541l-83 30l116 230l57 -21zM312 541l-83 30l116 230l57 -21z" />
    <glyph glyph-name="quotedblright" unicode="&#x201d;" horiz-adv-x="445" 
d="M99 541l-57 21l90 239l83 -30zM285 541l-57 21l90 239l83 -30z" />
    <glyph glyph-name="minus" unicode="&#x2212;" horiz-adv-x="550" 
d="M53 313v80h444v-80h-444z" />
    <glyph glyph-name="cent" unicode="&#xa2;" horiz-adv-x="482" 
d="M230 -124v124c-110 28 -191 129 -191 249c0 118 81 218 191 247v128h86v-120c55 -4 106 -25 147 -58l-51 -71c-28 23 -59 38 -96 41v-336c37 3 69 19 95 40l48 -71c-37 -31 -85 -53 -143 -57v-116h-86zM130 248c0 -70 41 -129 100 -155v309c-60 -26 -100 -85 -100 -154z
" />
    <glyph glyph-name="ellipsis" unicode="&#x2026;" horiz-adv-x="648" 
d="M98 -11c-31 0 -56 25 -56 56c0 33 25 58 56 58c32 0 58 -25 58 -58c0 -31 -26 -56 -58 -56zM323 -11c-31 0 -56 25 -56 56c0 33 25 58 56 58c32 0 58 -25 58 -58c0 -31 -26 -56 -58 -56zM547 -11c-31 0 -56 25 -56 56c0 33 25 58 56 58c32 0 58 -25 58 -58
c0 -31 -26 -56 -58 -56z" />
    <glyph glyph-name="plusminus" unicode="&#xb1;" horiz-adv-x="604" 
d="M50 398v80h210v207h84v-207h210v-80h-210v-208h-84v208h-210zM50 64v80h504v-80h-504z" />
    <glyph glyph-name="tilde" unicode="&#x2dc;" horiz-adv-x="433" 
d="M288 597c-62 0 -103 52 -147 52c-26 0 -41 -18 -43 -43l-52 9c0 57 38 101 97 101c61 0 104 -54 147 -54c29 0 40 20 42 45l55 -10c0 -55 -37 -100 -99 -100z" />
    <glyph glyph-name="Ntilde" unicode="&#xd1;" horiz-adv-x="787" 
d="M89 0v773h61l452 -574v574h96v-773h-58l-455 576v-576h-96zM469 846c-62 0 -103 52 -147 52c-26 0 -41 -18 -43 -43l-52 9c0 57 38 101 97 101c61 0 104 -54 147 -54c29 0 40 20 42 45l55 -10c0 -55 -37 -100 -99 -100z" />
    <glyph glyph-name="Sacute" unicode="&#x15a;" horiz-adv-x="585" 
d="M290 -9c-103 0 -203 48 -267 117l65 71c47 -55 126 -100 205 -100c94 0 155 55 155 128c0 54 -29 105 -111 138l-93 37c-108 43 -166 102 -166 201c0 113 94 201 219 201c97 0 165 -31 222 -85l-58 -73c-44 44 -96 69 -164 69c-73 0 -127 -42 -127 -109
c0 -48 27 -83 109 -116l96 -39c118 -48 167 -124 167 -218c0 -130 -98 -222 -252 -222zM255 826v17l93 112h99v-12l-132 -117h-60z" />
    <glyph glyph-name="Oslash" unicode="&#xd8;" horiz-adv-x="885" 
d="M97 -16l76 105c-81 74 -132 180 -132 298c0 222 180 401 401 401c72 0 140 -19 198 -52l66 91l64 -43l-67 -93c86 -73 141 -182 141 -304c0 -222 -180 -401 -402 -401c-76 0 -146 21 -207 57l-74 -103zM442 79c170 0 305 137 305 308c0 90 -38 172 -99 228l-358 -496
c45 -25 96 -40 152 -40zM138 387c0 -87 34 -165 90 -221l357 493c-43 23 -92 36 -143 36c-170 0 -304 -137 -304 -308z" />
    <glyph glyph-name="oslash" unicode="&#xf8;" horiz-adv-x="585" 
d="M57 -73l73 116c-63 48 -101 123 -101 207c0 141 111 258 263 258c43 0 82 -9 117 -26l82 129l55 -34l-83 -129c58 -48 93 -119 93 -198c0 -140 -108 -259 -264 -259c-39 0 -75 8 -107 21l-74 -117zM120 250c0 -52 22 -100 59 -131l182 288c-21 8 -44 13 -69 13
c-98 0 -172 -73 -172 -170zM292 78c102 0 173 79 173 172c0 49 -19 91 -50 122l-181 -285c18 -6 37 -9 58 -9z" />
    <glyph glyph-name="oe" unicode="&#x153;" horiz-adv-x="1000" 
d="M732 -9c-101 0 -178 45 -222 112c-41 -62 -119 -112 -218 -112c-156 0 -263 119 -263 259c0 141 111 258 263 258c98 0 172 -47 216 -111c43 65 116 108 211 108c146 0 250 -102 257 -237c1 -10 1 -22 1 -33h-424c2 -92 75 -163 178 -163c66 0 106 16 156 58l52 -56
c-61 -58 -117 -83 -207 -83zM292 78c102 0 173 79 173 172c0 97 -74 170 -173 170c-98 0 -172 -73 -172 -170c0 -94 73 -172 172 -172zM718 427c-95 0 -141 -55 -158 -120h321c-16 67 -74 120 -163 120z" />
    <glyph glyph-name="exclamdown" unicode="&#xa1;" horiz-adv-x="279" 
d="M180 375l11 -559h-103l11 559h81zM138 438c-31 0 -56 25 -56 56c0 33 25 58 56 58c32 0 58 -25 58 -58c0 -31 -26 -56 -58 -56z" />
    <glyph glyph-name="integral" unicode="&#x222b;" horiz-adv-x="305" 
d="M36 -181c-50 0 -97 12 -129 42l43 66c20 -19 50 -27 78 -27c50 0 81 28 81 101v614c0 106 71 164 161 164c52 0 98 -14 128 -41l-43 -66c-21 18 -48 26 -77 26c-49 0 -81 -33 -81 -92v-615c0 -114 -59 -172 -161 -172z" />
    <glyph glyph-name="brokenbar" unicode="&#xa6;" horiz-adv-x="269" 
d="M89 360v420h90v-420h-90zM89 -178v451h90v-451h-90z" />
    <glyph glyph-name="florin" unicode="&#x192;" horiz-adv-x="387" 
d="M64 416v82h78v117c0 106 71 164 161 164c52 0 98 -14 128 -41l-43 -66c-21 18 -48 26 -77 26c-49 0 -81 -33 -81 -92v-108h88v-82h-88v-425c0 -114 -59 -172 -161 -172c-50 0 -97 12 -129 42l43 66c20 -19 50 -27 78 -27c50 0 81 28 81 101v415h-78z" />
    <glyph glyph-name="Eng" unicode="&#x14a;" horiz-adv-x="787" 
d="M89 0v773h61l452 -572v572h96v-690c0 -177 -117 -263 -252 -263v94c83 0 142 48 154 137l-415 526v-577h-96z" />
    <glyph glyph-name="infinity" unicode="&#x221e;" horiz-adv-x="871" 
d="M251 181c-114 0 -202 92 -202 206c0 115 88 207 202 207c84 0 143 -45 186 -119c44 71 105 119 185 119c112 0 199 -94 199 -207c0 -112 -87 -206 -199 -206c-84 0 -144 47 -187 123c-42 -72 -101 -123 -184 -123zM618 513c-71 0 -120 -53 -144 -122l2 -4
c25 -73 73 -125 142 -125c67 0 122 58 122 125c0 71 -55 126 -122 126zM252 262c71 0 117 55 142 125l2 7c-22 63 -78 119 -144 119c-68 0 -121 -55 -121 -126c0 -67 53 -125 121 -125z" />
    <glyph glyph-name="dagger" unicode="&#x2020;" horiz-adv-x="583" 
d="M33 423v82h214v275h90v-275h213v-82h-213v-601h-90v601h-214z" />
    <glyph glyph-name="daggerdbl" unicode="&#x2021;" horiz-adv-x="603" 
d="M43 466v82h214v232h90v-232h213v-82h-213v-343h213v-82h-213v-219h-90v219h-214v82h214v343h-214z" />
    <glyph glyph-name="section" unicode="&#xa7;" horiz-adv-x="517" 
d="M273 775c75 0 131 -24 182 -69l-54 -68c-34 35 -77 57 -130 57c-59 0 -99 -36 -99 -82c0 -40 22 -70 74 -91l77 -32c108 -45 159 -109 159 -193c0 -75 -49 -132 -118 -161c61 -35 86 -80 86 -142c0 -96 -80 -166 -204 -166c-82 0 -160 33 -211 88l57 69
c38 -44 92 -75 156 -75c76 0 115 34 115 81c0 36 -21 64 -76 86l-84 35c-89 36 -159 94 -159 194c0 72 47 134 117 164c-47 31 -75 76 -75 140c0 95 85 165 187 165zM130 309c0 -53 33 -88 104 -117l31 -13c78 6 133 52 133 111c0 54 -35 87 -102 116l-42 18
c-66 -8 -124 -48 -124 -115z" />
    <glyph glyph-name="threequarters" unicode="&#xbe;" horiz-adv-x="867" 
d="M147 0l505 773h85l-505 -773h-85zM181 354c-79 0 -151 50 -149 138h72c0 -42 32 -70 77 -70s72 28 72 61c0 36 -28 59 -76 59h-30v57h23c48 0 76 19 76 55c0 31 -24 56 -66 56c-40 0 -69 -22 -69 -61h-72c0 78 62 129 141 129c81 0 141 -53 141 -118
c0 -42 -21 -70 -52 -86c34 -16 60 -49 60 -95c0 -67 -62 -125 -148 -125zM517 86v56l165 271h81l-161 -262h121v80h70v-80h46v-65h-46v-86h-70v86h-206z" />
    <glyph glyph-name="zero.sup" horiz-adv-x="412" 
d="M206 506c75 0 85 65 85 139c0 67 -5 138 -85 138c-77 0 -85 -65 -85 -138c0 -68 8 -139 85 -139zM206 434c-83 0 -142 49 -156 124c-6 28 -7 46 -7 87c0 42 3 62 7 85c13 74 73 125 156 125c84 0 142 -50 156 -125c6 -28 7 -48 7 -85c0 -44 -1 -62 -7 -87
c-15 -75 -73 -124 -156 -124z" />
    <glyph glyph-name="one.sup" horiz-adv-x="242" 
d="M111 440v321l-89 -44v74l125 65h39v-416h-75z" />
    <glyph glyph-name="two.sup" horiz-adv-x="376" 
d="M38 440v53l185 165c23 20 35 39 35 60c0 36 -25 69 -75 69c-43 0 -74 -33 -74 -79h-73c0 87 63 150 147 150c97 0 152 -63 152 -137c0 -49 -25 -81 -65 -114l-114 -99h180v-68h-298z" />
    <glyph glyph-name="three.sup" horiz-adv-x="369" 
d="M181 434c-79 0 -151 50 -149 138h72c0 -42 32 -70 77 -70s72 28 72 61c0 36 -28 59 -76 59h-30v57h23c48 0 76 19 76 55c0 31 -24 56 -66 56c-40 0 -69 -22 -69 -61h-72c0 78 62 129 141 129c81 0 141 -53 141 -118c0 -42 -21 -70 -52 -86c34 -16 60 -49 60 -95
c0 -67 -62 -125 -148 -125z" />
    <glyph glyph-name="four.sup" horiz-adv-x="369" 
d="M19 526v56l165 271h81l-161 -262h121v80h70v-80h46v-65h-46v-86h-70v86h-206z" />
    <glyph glyph-name="five.sup" horiz-adv-x="391" 
d="M196 434c-80 0 -137 42 -156 106l71 22c11 -37 39 -63 84 -63c49 0 81 35 81 73c0 41 -32 73 -81 73c-32 0 -55 -14 -67 -29h-72v237h277v-67h-204v-96c18 12 43 19 70 19c91 0 152 -56 152 -136c0 -82 -68 -139 -155 -139z" />
    <glyph glyph-name="six.sup" horiz-adv-x="375" 
d="M187 434c-90 0 -156 65 -156 141c0 32 10 59 32 96l109 182h89l-85 -139c4 1 7 1 11 1c90 0 156 -61 156 -139c0 -77 -67 -142 -156 -142zM187 502c48 0 80 35 80 74s-33 73 -80 73c-39 0 -80 -27 -80 -73c0 -35 27 -74 80 -74z" />
    <glyph glyph-name="seven.sup" horiz-adv-x="320" 
d="M63 440l156 342h-198v71h289v-48l-165 -365h-82z" />
    <glyph glyph-name="eight.sup" horiz-adv-x="366" 
d="M183 435c-86 0 -143 58 -143 127c0 38 20 71 52 93c-28 21 -45 51 -45 84c0 66 57 121 136 121c80 0 136 -55 136 -120c0 -34 -17 -65 -45 -86c33 -21 52 -55 52 -92c0 -69 -57 -127 -143 -127zM183 500c46 0 71 29 71 63c0 32 -24 62 -71 62c-46 0 -71 -29 -71 -62
c0 -32 27 -63 71 -63zM183 796c-40 0 -64 -28 -64 -59c0 -28 21 -55 58 -57h6c41 0 65 28 65 58s-23 58 -65 58z" />
    <glyph glyph-name="nine.sup" horiz-adv-x="375" 
d="M188 859c90 0 155 -65 155 -142c0 -31 -9 -59 -31 -95l-109 -182h-89l84 138h-10c-90 0 -157 61 -157 139c0 77 67 142 157 142zM188 791c-48 0 -81 -35 -81 -74s34 -73 81 -73c39 0 79 27 79 73c0 35 -26 74 -79 74z" />
    <glyph glyph-name="trademark" unicode="&#x2122;" horiz-adv-x="850" 
d="M406 400v373h70l119 -188l119 188h73v-373h-70v248h-2l-120 -183l-117 181h-2v-246h-70zM26 707v66h315v-66h-122v-307h-71v307h-122z" />
    <glyph glyph-name="Euro" unicode="&#x20ac;" horiz-adv-x="740" 
d="M443 -14c-229 0 -401 179 -401 401s173 401 401 401c106 0 204 -43 276 -111l-61 -62c-56 54 -131 88 -214 88c-142 0 -249 -82 -292 -197h396l-41 -78h-374c-1 -14 -2 -27 -2 -41c0 -13 0 -26 2 -38h415l-41 -79h-356c43 -117 151 -199 293 -199c85 0 163 36 219 91
l62 -60c-73 -71 -172 -116 -282 -116z" />
    <glyph glyph-name="onesuperior" unicode="&#xb9;" horiz-adv-x="242" 
d="M111 360v321l-89 -44v74l125 65h39v-416h-75z" />
    <glyph glyph-name="twosuperior" unicode="&#xb2;" horiz-adv-x="376" 
d="M38 360v53l185 165c23 20 35 39 35 60c0 36 -25 69 -75 69c-43 0 -74 -33 -74 -79h-73c0 87 63 150 147 150c97 0 152 -63 152 -137c0 -49 -25 -81 -65 -114l-114 -99h180v-68h-298z" />
    <glyph glyph-name="threesuperior" unicode="&#xb3;" horiz-adv-x="369" 
d="M181 354c-79 0 -151 50 -149 138h72c0 -42 32 -70 77 -70s72 28 72 61c0 36 -28 59 -76 59h-30v57h23c48 0 76 19 76 55c0 31 -24 56 -66 56c-40 0 -69 -22 -69 -61h-72c0 78 62 129 141 129c81 0 141 -53 141 -118c0 -42 -21 -70 -52 -86c34 -16 60 -49 60 -95
c0 -67 -62 -125 -148 -125z" />
    <glyph glyph-name="twoinferior" unicode="&#x2082;" horiz-adv-x="374" 
d="M40 0v53l185 165c23 20 35 39 35 60c0 36 -25 69 -75 69c-43 0 -74 -33 -74 -79h-73c0 87 63 150 147 150c97 0 152 -63 152 -137c0 -49 -25 -81 -65 -114l-114 -99h180v-68h-298z" />
    <glyph glyph-name="fourinferior" unicode="&#x2084;" horiz-adv-x="380" 
d="M25 86v56l165 271h81l-161 -262h121v80h70v-80h46v-65h-46v-86h-70v86h-206z" />
    <glyph glyph-name="onequarter" unicode="&#xbc;" horiz-adv-x="800" 
d="M80 0l505 773h85l-505 -773h-85zM450 86v56l165 271h81l-161 -262h121v80h70v-80h46v-65h-46v-86h-70v86h-206zM111 360v321l-89 -44v74l125 65h39v-416h-75z" />
    <glyph glyph-name="onehalf" unicode="&#xbd;" horiz-adv-x="910" 
d="M516 0v53l185 165c23 20 35 39 35 60c0 36 -25 69 -75 69c-43 0 -74 -33 -74 -79h-73c0 87 63 150 147 150c97 0 152 -63 152 -137c0 -49 -25 -81 -65 -114l-114 -99h180v-68h-298zM80 0l505 773h85l-505 -773h-85zM111 360v321l-89 -44v74l125 65h39v-416h-75z" />
    <glyph glyph-name="notequal" unicode="&#x2260;" horiz-adv-x="583" 
d="M73 421v80h219l60 161h81l-60 -161h138v-80h-167l-42 -113h209v-81h-239l-58 -159h-82l59 159h-118v81h148l42 113h-190z" />
    <glyph glyph-name="perthousand" unicode="&#x2030;" horiz-adv-x="1284" 
d="M685 59c69 0 86 59 86 136c0 69 -16 134 -85 134c-68 0 -85 -59 -85 -134c0 -74 16 -136 84 -136zM685 -7c-97 0 -150 75 -153 165c0 8 -1 20 -1 36c0 15 1 29 1 38c2 89 63 163 154 163s150 -74 153 -163c1 -7 1 -21 1 -37c0 -20 0 -27 -1 -38
c-3 -94 -64 -164 -154 -164zM233 444c69 0 86 59 86 136c0 69 -16 134 -85 134c-68 0 -85 -59 -85 -134c0 -74 16 -136 84 -136zM233 378c-97 0 -150 75 -153 165c0 8 -1 20 -1 36c0 15 1 29 1 38c2 89 63 163 154 163s150 -74 153 -163c1 -7 1 -21 1 -37
c0 -20 0 -27 -1 -38c-3 -94 -64 -164 -154 -164zM164 0l505 773h85l-505 -773h-85zM1059 59c69 0 86 59 86 136c0 69 -16 134 -85 134c-68 0 -85 -59 -85 -134c0 -74 16 -136 84 -136zM1059 -7c-97 0 -150 75 -153 165c0 8 -1 20 -1 36c0 15 1 29 1 38c2 89 63 163 154 163
s150 -74 153 -163c1 -7 1 -21 1 -37c0 -20 0 -27 -1 -38c-3 -94 -64 -164 -154 -164z" />
    <glyph glyph-name="questiondown" unicode="&#xbf;" horiz-adv-x="517" 
d="M251 -188c-124 0 -206 87 -206 196c0 73 37 133 101 179l51 37c33 25 45 56 45 121v33h85v-33c-1 -91 -24 -138 -79 -179l-49 -35c-42 -30 -65 -69 -65 -120c0 -68 47 -119 118 -119c79 0 121 63 125 143h85c-5 -131 -86 -223 -211 -223zM283 451c-31 0 -56 25 -56 56
c0 33 25 58 56 58c32 0 58 -25 58 -58c0 -31 -26 -56 -58 -56z" />
    <glyph glyph-name="zero.tlf" horiz-adv-x="559" 
d="M280 -11c-136 0 -234 99 -234 244v309c0 144 99 243 234 243s233 -99 233 -241v-313c0 -143 -100 -242 -233 -242zM280 76c81 0 143 63 143 155v312c0 91 -62 155 -143 155c-84 0 -144 -65 -144 -156v-310c0 -92 62 -156 144 -156z" />
    <glyph glyph-name="one.tlf" horiz-adv-x="559" 
d="M146 0v82h112v577l-157 -85v91l204 114h42v-697h109v-82h-310z" />
    <glyph glyph-name="two.tlf" horiz-adv-x="559" 
d="M44 0v54l318 419c29 38 41 70 41 104c0 72 -55 127 -134 127c-75 0 -131 -58 -133 -142h-88c0 126 95 225 221 225c131 0 224 -91 224 -210c0 -55 -26 -108 -70 -164l-255 -330h342v-83h-466z" />
    <glyph glyph-name="three.tlf" horiz-adv-x="559" 
d="M270 -12c-123 0 -227 100 -230 219h84c2 -76 72 -135 145 -135c84 0 149 62 149 143c0 84 -64 147 -149 147h-36l1 84h35c83 0 141 60 141 129c0 77 -58 132 -139 132c-78 0 -137 -60 -137 -134h-84c-1 119 97 214 222 214c130 0 226 -92 226 -212
c0 -80 -48 -145 -119 -172c77 -26 127 -96 127 -189c0 -125 -105 -226 -236 -226z" />
    <glyph glyph-name="four.tlf" horiz-adv-x="559" 
d="M27 184v49l285 540h95l-265 -507h190v129h84v-129h108v-82h-108v-184h-84v184h-305z" />
    <glyph glyph-name="five.tlf" horiz-adv-x="559" 
d="M274 -12c-119 0 -213 70 -247 172l83 32c21 -68 84 -117 164 -117c102 0 172 76 172 169c0 97 -77 168 -170 168c-59 0 -100 -28 -124 -52h-87v413h429v-85h-341v-231c32 21 75 37 123 37c155 0 260 -108 260 -250c0 -141 -113 -256 -262 -256z" />
    <glyph glyph-name="six.tlf" horiz-adv-x="559" 
d="M287 -12c-128 0 -226 104 -226 228v335c0 141 101 235 227 235c118 0 217 -82 217 -212h-85c0 77 -57 130 -133 130c-80 0 -141 -60 -141 -149v-183c36 44 86 70 142 70c130 0 229 -101 229 -227c0 -125 -102 -227 -230 -227zM287 70c79 0 144 66 144 145
c0 78 -65 144 -144 144c-64 0 -140 -50 -140 -143c0 -80 62 -146 140 -146z" />
    <glyph glyph-name="seven.tlf" horiz-adv-x="559" 
d="M122 6l270 681h-335v86h448v-41l-295 -738z" />
    <glyph glyph-name="eight.tlf" horiz-adv-x="559" 
d="M278 -12c-131 0 -237 103 -237 234c0 84 48 156 116 195c-53 36 -89 96 -89 166c0 114 95 204 210 204c113 0 211 -90 211 -204c0 -70 -37 -129 -91 -166c70 -39 118 -110 118 -195c0 -131 -106 -234 -238 -234zM278 72c83 0 148 68 148 150c0 83 -65 147 -148 147
c-82 0 -147 -64 -147 -147c0 -82 65 -150 147 -150zM278 705c-71 0 -124 -56 -124 -125c0 -70 53 -126 124 -126c69 0 125 56 125 126c0 69 -56 125 -125 125z" />
    <glyph glyph-name="nine.tlf" horiz-adv-x="559" 
d="M265 335c-116 0 -222 96 -222 225c0 135 116 227 231 227c120 0 227 -97 227 -223c0 -47 -8 -76 -27 -114c-78 -151 -159 -299 -237 -450h-96c59 115 121 228 181 342c-18 -5 -37 -7 -57 -7zM271 416c86 0 144 64 144 148c0 82 -65 141 -141 141
c-71 0 -145 -55 -145 -145c0 -81 68 -144 142 -144z" />
    <glyph glyph-name="Lslash" unicode="&#x141;" horiz-adv-x="546" 
d="M108 0v304l-82 -44v97l82 44v372h96v-320l217 118v-97l-217 -118v-266h329v-90h-425z" />
    <glyph glyph-name="lslash" unicode="&#x142;" horiz-adv-x="300" 
d="M105 0v322l-92 -47v83l92 47v375h91v-328l90 46v-84l-90 -46v-368h-91z" />
    <glyph glyph-name="Eth" unicode="&#xd0;" horiz-adv-x="759" 
d="M41 348v87h83v338h205c209 0 389 -168 389 -385c0 -224 -175 -388 -391 -388h-203v348h-83zM331 684h-113v-249h142v-87h-142v-259h116c163 0 287 133 287 299c0 168 -134 296 -290 296z" />
    <glyph glyph-name="divide" unicode="&#xf7;" horiz-adv-x="550" 
d="M274 74c-32 0 -56 26 -56 57c0 32 24 57 56 57c31 0 57 -25 57 -57c0 -31 -26 -57 -57 -57zM274 518c-32 0 -56 26 -56 57c0 32 24 57 56 57c31 0 57 -25 57 -57c0 -31 -26 -57 -57 -57zM53 313v80h444v-80h-444z" />
    <glyph glyph-name="Udotbelow" unicode="&#x1ee4;" horiz-adv-x="711" 
d="M355 -13c-169 0 -284 123 -284 284v502h96v-495c0 -112 69 -200 188 -200s189 86 189 200v495h96v-502c0 -161 -114 -284 -285 -284zM355 -188c-31 0 -57 25 -57 54c0 30 26 53 57 53s57 -23 57 -53c0 -29 -26 -54 -57 -54z" />
    <glyph glyph-name="Wdieresis" unicode="&#x1e84;" horiz-adv-x="1105" 
d="M262 0l-254 773h100l198 -611l197 611h101l192 -617l207 617h94l-262 -773h-83l-199 632l-209 -632h-82zM662 842c-29 0 -52 22 -52 52c0 29 23 52 52 52s53 -23 53 -52c0 -30 -24 -52 -53 -52zM440 842c-29 0 -52 22 -52 52c0 29 23 52 52 52s52 -23 52 -52
c0 -30 -23 -52 -52 -52z" />
    <glyph glyph-name="Wacute" unicode="&#x1e82;" horiz-adv-x="1105" 
d="M262 0l-254 773h100l198 -611l197 611h101l192 -617l207 617h94l-262 -773h-83l-199 632l-209 -632h-82zM509 825v17l93 112h99v-12l-132 -117h-60z" />
    <glyph glyph-name="Wgrave" unicode="&#x1e80;" horiz-adv-x="1105" 
d="M262 0l-254 773h100l198 -611l197 611h101l192 -617l207 617h94l-262 -773h-83l-199 632l-209 -632h-82zM531 825l-127 116l-1 13h95l104 -117v-12h-71z" />
    <glyph glyph-name="Wcircumflex" unicode="&#x174;" horiz-adv-x="1105" 
d="M262 0l-254 773h100l198 -611l197 611h101l192 -617l207 617h94l-262 -773h-83l-199 632l-209 -632h-82zM406 830l115 124h61l115 -124h-80l-66 64l-64 -64h-81z" />
    <glyph glyph-name="Ygrave" unicode="&#x1ef2;" horiz-adv-x="609" 
d="M507 773h104l-257 -464v-309h-96v306l-260 467h108l202 -368zM286 825l-127 116l-1 13h95l104 -117v-12h-71z" />
    <glyph glyph-name="Ycircumflex" unicode="&#x176;" horiz-adv-x="609" 
d="M507 773h104l-257 -464v-309h-96v306l-260 467h108l202 -368zM161 830l115 124h61l115 -124h-80l-66 64l-64 -64h-81z" />
    <glyph glyph-name="Ymacron" horiz-adv-x="609" 
d="M507 773h104l-257 -464v-309h-96v306l-260 467h108l202 -368zM158 858v71h297v-71h-297z" />
    <glyph glyph-name="Abreve" unicode="&#x102;" horiz-adv-x="712" 
d="M3 0l316 773h78l312 -773h-102l-52 128h-400l-52 -128h-100zM357 620l-167 -407h331zM357 836c-76 0 -138 42 -140 116h68c1 -31 30 -58 72 -58s70 26 72 58h68c-3 -75 -64 -116 -140 -116z" />
    <glyph glyph-name="Amacron" unicode="&#x100;" horiz-adv-x="712" 
d="M3 0l316 773h78l312 -773h-102l-52 128h-400l-52 -128h-100zM357 620l-167 -407h331zM210 858v71h297v-71h-297z" />
    <glyph glyph-name="Aringacute" unicode="&#x1fa;" horiz-adv-x="712" 
d="M3 0l316 773h78l312 -773h-102l-52 128h-400l-52 -128h-100zM357 620l-167 -407h331zM358 796c-56 0 -101 45 -101 101s45 101 101 101s101 -45 101 -101s-45 -101 -101 -101zM329 1022v17l93 112h99v-12l-132 -117h-60zM358 853c25 0 44 20 44 44s-19 45 -44 45
c-24 0 -44 -21 -44 -45s20 -44 44 -44z" />
    <glyph glyph-name="Adotaccent" unicode="&#x226;" horiz-adv-x="712" 
d="M3 0l316 773h78l312 -773h-102l-52 128h-400l-52 -128h-100zM357 620l-167 -407h331zM358 881c-32 0 -56 26 -56 57c0 32 24 57 56 57c31 0 57 -25 57 -57c0 -31 -26 -57 -57 -57z" />
    <glyph glyph-name="Adotbelow" unicode="&#x1ea0;" horiz-adv-x="712" 
d="M3 0l316 773h78l312 -773h-102l-52 128h-400l-52 -128h-100zM357 620l-167 -407h331zM357 -188c-31 0 -57 25 -57 54c0 30 26 53 57 53s57 -23 57 -53c0 -29 -26 -54 -57 -54z" />
    <glyph glyph-name="AEacute" unicode="&#x1fc;" horiz-adv-x="889" 
d="M415 0v244h-201l-110 -244h-106l358 773h483v-87h-328v-251h313v-87h-313v-262h331v-86h-427zM413 686l-161 -357h163v357h-2zM552 825v17l93 112h99v-12l-132 -117h-60z" />
    <glyph glyph-name="Cacute" unicode="&#x106;" horiz-adv-x="741" 
d="M442 -14c-222 0 -401 179 -401 401s179 401 401 401c107 0 204 -43 276 -111l-67 -67c-55 52 -128 85 -209 85c-170 0 -304 -137 -304 -308s134 -308 304 -308c83 0 159 35 214 88l68 -65c-73 -71 -172 -116 -282 -116zM400 826v17l93 112h99v-12l-132 -117h-60z" />
    <glyph glyph-name="Ccircumflex" unicode="&#x108;" horiz-adv-x="741" 
d="M442 -14c-222 0 -401 179 -401 401s179 401 401 401c107 0 204 -43 276 -111l-67 -67c-55 52 -128 85 -209 85c-170 0 -304 -137 -304 -308s134 -308 304 -308c83 0 159 35 214 88l68 -65c-73 -71 -172 -116 -282 -116zM297 831l115 124h61l115 -124h-80l-66 64l-64 -64
h-81z" />
    <glyph glyph-name="Cdotaccent" unicode="&#x10a;" horiz-adv-x="741" 
d="M442 -14c-222 0 -401 179 -401 401s179 401 401 401c107 0 204 -43 276 -111l-67 -67c-55 52 -128 85 -209 85c-170 0 -304 -137 -304 -308s134 -308 304 -308c83 0 159 35 214 88l68 -65c-73 -71 -172 -116 -282 -116zM443 839c-32 0 -56 26 -56 57c0 32 24 57 56 57
c31 0 57 -25 57 -57c0 -31 -26 -57 -57 -57z" />
    <glyph glyph-name="Dcroat" unicode="&#x110;" horiz-adv-x="759" 
d="M41 348v87h83v338h205c209 0 389 -168 389 -385c0 -224 -175 -388 -391 -388h-203v348h-83zM331 684h-113v-249h142v-87h-142v-259h116c163 0 287 133 287 299c0 168 -134 296 -290 296z" />
    <glyph glyph-name="Dcaron" unicode="&#x10e;" horiz-adv-x="724" 
d="M89 0v773h205c209 0 389 -168 389 -385c0 -224 -175 -388 -391 -388h-203zM296 684h-113v-595h116c163 0 287 133 287 299c0 168 -134 296 -290 296zM299 830l-115 124h81l65 -67l65 67h80l-115 -124h-61z" />
    <glyph glyph-name="Ebreve" unicode="&#x114;" horiz-adv-x="577" 
d="M512 348h-327v-262h346v-86h-442v773h437v-87h-341v-251h327v-87zM312 836c-76 0 -138 42 -140 116h68c1 -31 30 -58 72 -58s70 26 72 58h68c-3 -75 -64 -116 -140 -116z" />
    <glyph glyph-name="Edotaccent" unicode="&#x116;" horiz-adv-x="577" 
d="M512 348h-327v-262h346v-86h-442v773h437v-87h-341v-251h327v-87zM313 838c-32 0 -56 26 -56 57c0 32 24 57 56 57c31 0 57 -25 57 -57c0 -31 -26 -57 -57 -57z" />
    <glyph glyph-name="Emacron" unicode="&#x112;" horiz-adv-x="577" 
d="M512 348h-327v-262h346v-86h-442v773h437v-87h-341v-251h327v-87zM164 858v71h297v-71h-297z" />
    <glyph glyph-name="Gdotaccent" unicode="&#x120;" horiz-adv-x="880" 
d="M601 343v87h244v-46c-5 -233 -187 -397 -400 -397c-228 0 -404 182 -404 400c0 220 176 401 404 401c118 0 224 -50 299 -132l-68 -65c-59 65 -140 105 -231 105c-177 0 -307 -139 -307 -309c0 -169 131 -308 307 -308c152 0 278 103 303 264h-147zM445 838
c-32 0 -56 26 -56 57c0 32 24 57 56 57c31 0 57 -25 57 -57c0 -31 -26 -57 -57 -57z" />
    <glyph glyph-name="Gbreve" unicode="&#x11e;" horiz-adv-x="880" 
d="M601 343v87h244v-46c-5 -233 -187 -397 -400 -397c-228 0 -404 182 -404 400c0 220 176 401 404 401c118 0 224 -50 299 -132l-68 -65c-59 65 -140 105 -231 105c-177 0 -307 -139 -307 -309c0 -169 131 -308 307 -308c152 0 278 103 303 264h-147zM444 836
c-76 0 -138 42 -140 116h68c1 -31 30 -58 72 -58s70 26 72 58h68c-3 -75 -64 -116 -140 -116z" />
    <glyph glyph-name="Gcircumflex" unicode="&#x11c;" horiz-adv-x="880" 
d="M601 343v87h244v-46c-5 -233 -187 -397 -400 -397c-228 0 -404 182 -404 400c0 220 176 401 404 401c118 0 224 -50 299 -132l-68 -65c-59 65 -140 105 -231 105c-177 0 -307 -139 -307 -309c0 -169 131 -308 307 -308c152 0 278 103 303 264h-147zM300 830l115 124h61
l115 -124h-80l-66 64l-64 -64h-81z" />
    <glyph glyph-name="Gcommaaccent" unicode="&#x122;" horiz-adv-x="880" 
d="M601 343v87h244v-46c-5 -233 -187 -397 -400 -397c-228 0 -404 182 -404 400c0 220 176 401 404 401c118 0 224 -50 299 -132l-68 -65c-59 65 -140 105 -231 105c-177 0 -307 -139 -307 -309c0 -169 131 -308 307 -308c152 0 278 103 303 264h-147zM403 -196l-57 19
l56 147l76 -22z" />
    <glyph glyph-name="Hbar" unicode="&#x126;" horiz-adv-x="800" 
d="M19 564v78h83v131h96v-131h404v131h96v-131h83v-78h-83v-564h-96v344h-404v-344h-96v564h-83zM198 564v-129h404v129h-404z" />
    <glyph glyph-name="Hcircumflex" unicode="&#x124;" horiz-adv-x="774" 
d="M589 0v344h-404v-344h-96v773h96v-338h404v338h96v-773h-96zM242 830l115 124h61l115 -124h-80l-66 64l-64 -64h-81z" />
    <glyph glyph-name="Ibreve" unicode="&#x12c;" horiz-adv-x="275" 
d="M89 0v773h96v-773h-96zM137 836c-76 0 -138 42 -140 116h68c1 -31 30 -58 72 -58s70 26 72 58h68c-3 -75 -64 -116 -140 -116z" />
    <glyph glyph-name="Itilde" unicode="&#x128;" horiz-adv-x="275" 
d="M89 0v773h96v-773h-96zM211 846c-62 0 -103 52 -147 52c-26 0 -41 -18 -43 -43l-52 9c0 57 38 101 97 101c61 0 104 -54 147 -54c29 0 40 20 42 45l55 -10c0 -55 -37 -100 -99 -100z" />
    <glyph glyph-name="Idotaccent" unicode="&#x130;" horiz-adv-x="275" 
d="M89 0v773h96v-773h-96zM138 838c-32 0 -56 26 -56 57c0 32 24 57 56 57c31 0 57 -25 57 -57c0 -31 -26 -57 -57 -57z" />
    <glyph glyph-name="Imacron" unicode="&#x12a;" horiz-adv-x="275" 
d="M89 0v773h96v-773h-96zM8 858v71h258v-71h-258z" />
    <glyph glyph-name="Jcircumflex" unicode="&#x134;" horiz-adv-x="521" 
d="M269 830l99 124h67l100 -124h-81l-53 63l-51 -63h-81zM199 -11c-113 0 -206 65 -240 176l85 39c23 -79 81 -124 155 -124c94 0 155 62 155 173v520h96v-521c0 -177 -116 -263 -251 -263z" />
    <glyph glyph-name="Kcommaaccent" unicode="&#x136;" horiz-adv-x="669" 
d="M89 0v773h94v-380l337 380h123l-273 -306l280 -467h-111l-235 393l-121 -135v-258h-94zM299 -196l-57 19l56 147l76 -22z" />
    <glyph glyph-name="Ldot" unicode="&#x13f;" horiz-adv-x="529" 
d="M89 0v773h96v-683h329v-90h-425zM380 325c-31 0 -56 25 -56 56c0 33 25 58 56 58c32 0 58 -25 58 -58c0 -31 -26 -56 -58 -56z" />
    <glyph glyph-name="Lacute" unicode="&#x139;" horiz-adv-x="527" 
d="M89 0v773h96v-683h329v-90h-425zM104 825v17l93 112h99v-12l-132 -117h-60z" />
    <glyph glyph-name="Lcommaaccent" unicode="&#x13b;" horiz-adv-x="527" 
d="M89 0v773h96v-683h329v-90h-425zM282 -196l-57 19l56 147l76 -22z" />
    <glyph glyph-name="Nacute" unicode="&#x143;" horiz-adv-x="787" 
d="M89 0v773h61l452 -574v574h96v-773h-58l-455 576v-576h-96zM353 825v17l93 112h99v-12l-132 -117h-60z" />
    <glyph glyph-name="Ncommaaccent" unicode="&#x145;" horiz-adv-x="787" 
d="M89 0v773h61l452 -574v574h96v-773h-58l-455 576v-576h-96zM366 -196l-57 19l56 147l76 -22z" />
    <glyph glyph-name="Ncaron" unicode="&#x147;" horiz-adv-x="787" 
d="M89 0v773h61l452 -574v574h96v-773h-58l-455 576v-576h-96zM365 830l-115 124h81l65 -67l65 67h80l-115 -124h-61z" />
    <glyph glyph-name="Ncircumflex" horiz-adv-x="787" 
d="M89 0v773h61l452 -574v574h96v-773h-58l-455 576v-576h-96zM250 830l115 124h61l115 -124h-80l-66 64l-64 -64h-81z" />
    <glyph glyph-name="Mcircumflex" horiz-adv-x="881" 
d="M89 0v773h93l256 -433l259 433h95v-773h-94v600h-3l-257 -425l-254 420h-1v-595h-94zM292 830l115 124h61l115 -124h-80l-66 64l-64 -64h-81z" />
    <glyph glyph-name="Omacron" unicode="&#x14c;" horiz-adv-x="885" 
d="M442 79c170 0 305 137 305 308s-136 308 -305 308c-170 0 -304 -137 -304 -308s134 -308 304 -308zM442 -14c-221 0 -401 179 -401 401s180 401 401 401c222 0 402 -179 402 -401s-180 -401 -402 -401zM294 858v71h297v-71h-297z" />
    <glyph glyph-name="Obreve" unicode="&#x14e;" horiz-adv-x="885" 
d="M442 79c170 0 305 137 305 308s-136 308 -305 308c-170 0 -304 -137 -304 -308s134 -308 304 -308zM442 -14c-221 0 -401 179 -401 401s180 401 401 401c222 0 402 -179 402 -401s-180 -401 -402 -401zM442 836c-76 0 -138 42 -140 116h68c1 -31 30 -58 72 -58
s70 26 72 58h68c-3 -75 -64 -116 -140 -116z" />
    <glyph glyph-name="Odotbelow" unicode="&#x1ecc;" horiz-adv-x="885" 
d="M442 79c170 0 305 137 305 308s-136 308 -305 308c-170 0 -304 -137 -304 -308s134 -308 304 -308zM442 -14c-221 0 -401 179 -401 401s180 401 401 401c222 0 402 -179 402 -401s-180 -401 -402 -401zM442 -188c-31 0 -57 25 -57 54c0 30 26 53 57 53s57 -23 57 -53
c0 -29 -26 -54 -57 -54z" />
    <glyph glyph-name="Rcommaaccent" unicode="&#x156;" horiz-adv-x="658" 
d="M89 0v773h290c137 0 245 -94 245 -233c0 -133 -100 -223 -230 -231l239 -309h-112l-238 310h-98v-310h-96zM368 688h-183v-298h182c92 0 160 59 160 150c0 84 -67 148 -159 148zM318 -196l-57 19l56 147l76 -22z" />
    <glyph glyph-name="Rcaron" unicode="&#x158;" horiz-adv-x="658" 
d="M89 0v773h290c137 0 245 -94 245 -233c0 -133 -100 -223 -230 -231l239 -309h-112l-238 310h-98v-310h-96zM368 688h-183v-298h182c92 0 160 59 160 150c0 84 -67 148 -159 148zM296 830l-115 124h81l65 -67l65 67h80l-115 -124h-61z" />
    <glyph glyph-name="Racute" unicode="&#x154;" horiz-adv-x="658" 
d="M89 0v773h290c137 0 245 -94 245 -233c0 -133 -100 -223 -230 -231l239 -309h-112l-238 310h-98v-310h-96zM368 688h-183v-298h182c92 0 160 59 160 150c0 84 -67 148 -159 148zM284 825v17l93 112h99v-12l-132 -117h-60z" />
    <glyph glyph-name="Scedilla" unicode="&#x15e;" horiz-adv-x="585" 
d="M227 -200v57c10 -2 18 -3 25 -3c31 0 54 9 54 38c0 27 -23 39 -50 39c-2 0 -4 0 -8 -1v64c-88 10 -170 54 -225 114l65 71c47 -55 126 -100 205 -100c94 0 155 55 155 128c0 54 -29 105 -111 138l-93 37c-108 43 -166 102 -166 201c0 113 94 201 219 201
c97 0 165 -31 222 -85l-58 -73c-44 44 -96 69 -164 69c-73 0 -127 -42 -127 -109c0 -48 27 -83 109 -116l96 -39c118 -48 167 -124 167 -218c0 -124 -89 -213 -229 -221v-28c35 -7 61 -37 61 -75c0 -59 -44 -92 -118 -92c-9 0 -19 1 -29 3z" />
    <glyph glyph-name="Scircumflex" unicode="&#x15c;" horiz-adv-x="585" 
d="M290 -9c-103 0 -203 48 -267 117l65 71c47 -55 126 -100 205 -100c94 0 155 55 155 128c0 54 -29 105 -111 138l-93 37c-108 43 -166 102 -166 201c0 113 94 201 219 201c97 0 165 -31 222 -85l-58 -73c-44 44 -96 69 -164 69c-73 0 -127 -42 -127 -109
c0 -48 27 -83 109 -116l96 -39c118 -48 167 -124 167 -218c0 -130 -98 -222 -252 -222zM152 831l115 124h61l115 -124h-80l-66 64l-64 -64h-81z" />
    <glyph glyph-name="Scommaaccent" unicode="&#x218;" horiz-adv-x="585" 
d="M290 -9c-103 0 -203 48 -267 117l65 71c47 -55 126 -100 205 -100c94 0 155 55 155 128c0 54 -29 105 -111 138l-93 37c-108 43 -166 102 -166 201c0 113 94 201 219 201c97 0 165 -31 222 -85l-58 -73c-44 44 -96 69 -164 69c-73 0 -127 -42 -127 -109
c0 -48 27 -83 109 -116l96 -39c118 -48 167 -124 167 -218c0 -130 -98 -222 -252 -222zM250 -196l-57 19l56 147l76 -22z" />
    <glyph glyph-name="Tcaron" unicode="&#x164;" horiz-adv-x="630" 
d="M11 683v90h608v-90h-256v-683h-96v683h-256zM284 830l-115 124h81l65 -67l65 67h80l-115 -124h-61z" />
    <glyph glyph-name="Tbar" unicode="&#x166;" horiz-adv-x="630" 
d="M11 683v90h608v-90h-256v-269h190v-76h-190v-338h-96v338h-189v76h189v269h-256z" />
    <glyph glyph-name="Uring" unicode="&#x16e;" horiz-adv-x="711" 
d="M355 -13c-169 0 -284 123 -284 284v502h96v-495c0 -112 69 -200 188 -200s189 86 189 200v495h96v-502c0 -161 -114 -284 -285 -284zM355 853c25 0 44 20 44 44s-19 45 -44 45c-24 0 -44 -21 -44 -45s20 -44 44 -44zM355 796c-56 0 -101 45 -101 101s45 101 101 101
s101 -45 101 -101s-45 -101 -101 -101z" />
    <glyph glyph-name="Umacron" unicode="&#x16a;" horiz-adv-x="711" 
d="M355 -13c-169 0 -284 123 -284 284v502h96v-495c0 -112 69 -200 188 -200s189 86 189 200v495h96v-502c0 -161 -114 -284 -285 -284zM207 858v71h297v-71h-297z" />
    <glyph glyph-name="Ubreve" unicode="&#x16c;" horiz-adv-x="711" 
d="M355 -13c-169 0 -284 123 -284 284v502h96v-495c0 -112 69 -200 188 -200s189 86 189 200v495h96v-502c0 -161 -114 -284 -285 -284zM355 836c-76 0 -138 42 -140 116h68c1 -31 30 -58 72 -58s70 26 72 58h68c-3 -75 -64 -116 -140 -116z" />
    <glyph glyph-name="Utilde" unicode="&#x168;" horiz-adv-x="711" 
d="M355 -13c-169 0 -284 123 -284 284v502h96v-495c0 -112 69 -200 188 -200s189 86 189 200v495h96v-502c0 -161 -114 -284 -285 -284zM429 846c-62 0 -103 52 -147 52c-26 0 -41 -18 -43 -43l-52 9c0 57 38 101 97 101c61 0 104 -54 147 -54c29 0 40 20 42 45l55 -10
c0 -55 -37 -100 -99 -100z" />
    <glyph glyph-name="Aacute" unicode="&#xc1;" horiz-adv-x="712" 
d="M3 0l316 773h78l312 -773h-102l-52 128h-400l-52 -128h-100zM357 620l-167 -407h331zM316 825v17l93 112h99v-12l-132 -117h-60z" />
    <glyph glyph-name="aacute" unicode="&#xe1;" horiz-adv-x="560" 
d="M251 -12c-130 0 -223 67 -223 164c0 98 93 172 229 172c58 0 123 -23 157 -46v38c0 74 -90 105 -153 105c-56 0 -112 -12 -159 -52l-44 69c64 47 133 67 204 67c112 0 240 -57 240 -189v-316h-88v42c-31 -26 -91 -54 -163 -54zM256 63c68 0 122 27 158 59v73
c-34 27 -94 55 -153 55c-100 0 -150 -43 -150 -96c0 -52 58 -91 145 -91zM231 576v17l113 142h101v-12l-154 -147h-60z" />
    <glyph glyph-name="Acircumflex" unicode="&#xc2;" horiz-adv-x="712" 
d="M3 0l316 773h78l312 -773h-102l-52 128h-400l-52 -128h-100zM357 620l-167 -407h331zM213 830l115 124h61l115 -124h-80l-66 64l-64 -64h-81z" />
    <glyph glyph-name="acircumflex" unicode="&#xe2;" horiz-adv-x="560" 
d="M251 -12c-130 0 -223 67 -223 164c0 98 93 172 229 172c58 0 123 -23 157 -46v38c0 74 -90 105 -153 105c-56 0 -112 -12 -159 -52l-44 69c64 47 133 67 204 67c112 0 240 -57 240 -189v-316h-88v42c-31 -26 -91 -54 -163 -54zM256 63c68 0 122 27 158 59v73
c-34 27 -94 55 -153 55c-100 0 -150 -43 -150 -96c0 -52 58 -91 145 -91zM108 581l135 154h61l135 -154h-80l-86 94l-84 -94h-81z" />
    <glyph glyph-name="Agrave" unicode="&#xc0;" horiz-adv-x="712" 
d="M3 0l316 773h78l312 -773h-102l-52 128h-400l-52 -128h-100zM357 620l-167 -407h331zM338 825l-127 116l-1 13h95l104 -117v-12h-71z" />
    <glyph glyph-name="agrave" unicode="&#xe0;" horiz-adv-x="560" 
d="M251 -12c-130 0 -223 67 -223 164c0 98 93 172 229 172c58 0 123 -23 157 -46v38c0 74 -90 105 -153 105c-56 0 -112 -12 -159 -52l-44 69c64 47 133 67 204 67c112 0 240 -57 240 -189v-316h-88v42c-31 -26 -91 -54 -163 -54zM256 63c68 0 122 27 158 59v73
c-34 27 -94 55 -153 55c-100 0 -150 -43 -150 -96c0 -52 58 -91 145 -91zM253 576l-149 146l-1 13h97l124 -147v-12h-71z" />
    <glyph glyph-name="Atilde" unicode="&#xc3;" horiz-adv-x="712" 
d="M3 0l316 773h78l312 -773h-102l-52 128h-400l-52 -128h-100zM357 620l-167 -407h331zM431 846c-62 0 -103 52 -147 52c-26 0 -41 -18 -43 -43l-52 9c0 57 38 101 97 101c61 0 104 -54 147 -54c29 0 40 20 42 45l55 -10c0 -55 -37 -100 -99 -100z" />
    <glyph glyph-name="atilde" unicode="&#xe3;" horiz-adv-x="560" 
d="M251 -12c-130 0 -223 67 -223 164c0 98 93 172 229 172c58 0 123 -23 157 -46v38c0 74 -90 105 -153 105c-56 0 -112 -12 -159 -52l-44 69c64 47 133 67 204 67c112 0 240 -57 240 -189v-316h-88v42c-31 -26 -91 -54 -163 -54zM256 63c68 0 122 27 158 59v73
c-34 27 -94 55 -153 55c-100 0 -150 -43 -150 -96c0 -52 58 -91 145 -91zM347 597c-62 0 -103 52 -147 52c-26 0 -41 -18 -43 -43l-52 9c0 57 38 101 97 101c61 0 104 -54 147 -54c29 0 40 20 42 45l55 -10c0 -55 -37 -100 -99 -100z" />
    <glyph glyph-name="Aring" unicode="&#xc5;" horiz-adv-x="712" 
d="M3 0l316 773h78l312 -773h-102l-52 128h-400l-52 -128h-100zM357 620l-167 -407h331zM358 796c-56 0 -101 45 -101 101s45 101 101 101s101 -45 101 -101s-45 -101 -101 -101zM358 853c25 0 44 20 44 44s-19 45 -44 45c-24 0 -44 -21 -44 -45s20 -44 44 -44z" />
    <glyph glyph-name="aring" unicode="&#xe5;" horiz-adv-x="560" 
d="M251 -12c-130 0 -223 67 -223 164c0 98 93 172 229 172c58 0 123 -23 157 -46v38c0 74 -90 105 -153 105c-56 0 -112 -12 -159 -52l-44 69c64 47 133 67 204 67c112 0 240 -57 240 -189v-316h-88v42c-31 -26 -91 -54 -163 -54zM256 63c68 0 122 27 158 59v73
c-34 27 -94 55 -153 55c-100 0 -150 -43 -150 -96c0 -52 58 -91 145 -91zM273 567c-56 0 -101 45 -101 101s45 101 101 101s101 -45 101 -101s-45 -101 -101 -101zM273 624c25 0 44 20 44 44s-19 45 -44 45c-24 0 -44 -21 -44 -45s20 -44 44 -44z" />
    <glyph glyph-name="Adieresis" unicode="&#xc4;" horiz-adv-x="712" 
d="M3 0l316 773h78l312 -773h-102l-52 128h-400l-52 -128h-100zM357 620l-167 -407h331zM469 842c-29 0 -52 22 -52 52c0 29 23 52 52 52s53 -23 53 -52c0 -30 -24 -52 -53 -52zM247 842c-29 0 -52 22 -52 52c0 29 23 52 52 52s52 -23 52 -52c0 -30 -23 -52 -52 -52z" />
    <glyph glyph-name="adieresis" unicode="&#xe4;" horiz-adv-x="560" 
d="M251 -12c-130 0 -223 67 -223 164c0 98 93 172 229 172c58 0 123 -23 157 -46v38c0 74 -90 105 -153 105c-56 0 -112 -12 -159 -52l-44 69c64 47 133 67 204 67c112 0 240 -57 240 -189v-316h-88v42c-31 -26 -91 -54 -163 -54zM256 63c68 0 122 27 158 59v73
c-34 27 -94 55 -153 55c-100 0 -150 -43 -150 -96c0 -52 58 -91 145 -91zM384 611c-29 0 -52 22 -52 52c0 29 23 52 52 52s53 -23 53 -52c0 -30 -24 -52 -53 -52zM162 611c-29 0 -52 22 -52 52c0 29 23 52 52 52s52 -23 52 -52c0 -30 -23 -52 -52 -52z" />
    <glyph glyph-name="Ccaron" unicode="&#x10c;" horiz-adv-x="741" 
d="M442 -14c-222 0 -401 179 -401 401s179 401 401 401c107 0 204 -43 276 -111l-67 -67c-55 52 -128 85 -209 85c-170 0 -304 -137 -304 -308s134 -308 304 -308c83 0 159 35 214 88l68 -65c-73 -71 -172 -116 -282 -116zM412 831l-115 124h81l65 -67l65 67h80l-115 -124
h-61z" />
    <glyph glyph-name="ccaron" unicode="&#x10d;" horiz-adv-x="466" 
d="M286 -9c-142 0 -257 115 -257 258c0 141 115 256 257 256c63 0 122 -22 167 -59l-51 -71c-32 27 -68 42 -113 42c-95 0 -169 -76 -169 -169c0 -95 75 -169 169 -169c45 0 83 17 112 41l48 -71c-41 -34 -95 -58 -163 -58zM250 581l-135 154h81l85 -95l85 95h80l-135 -154
h-61z" />
    <glyph glyph-name="Ecircumflex" unicode="&#xca;" horiz-adv-x="577" 
d="M512 348h-327v-262h346v-86h-442v773h437v-87h-341v-251h327v-87zM167 830l115 124h61l115 -124h-80l-66 64l-64 -64h-81z" />
    <glyph glyph-name="ecircumflex" unicode="&#xea;" horiz-adv-x="563" 
d="M295 -9c-166 0 -266 122 -266 262c0 138 98 252 253 252c146 0 250 -102 257 -237c1 -10 1 -22 1 -33h-424c2 -92 75 -163 178 -163c66 0 106 16 156 58l52 -56c-61 -58 -117 -83 -207 -83zM281 427c-95 0 -141 -55 -158 -120h321c-16 67 -74 120 -163 120zM116 581
l135 154h61l135 -154h-80l-86 94l-84 -94h-81z" />
    <glyph glyph-name="Eacute" unicode="&#xc9;" horiz-adv-x="577" 
d="M512 348h-327v-262h346v-86h-442v773h437v-87h-341v-251h327v-87zM270 825v17l93 112h99v-12l-132 -117h-60z" />
    <glyph glyph-name="eacute" unicode="&#xe9;" horiz-adv-x="563" 
d="M295 -9c-166 0 -266 122 -266 262c0 138 98 252 253 252c146 0 250 -102 257 -237c1 -10 1 -22 1 -33h-424c2 -92 75 -163 178 -163c66 0 106 16 156 58l52 -56c-61 -58 -117 -83 -207 -83zM281 427c-95 0 -141 -55 -158 -120h321c-16 67 -74 120 -163 120zM239 576v17
l113 142h101v-12l-154 -147h-60z" />
    <glyph glyph-name="Edieresis" unicode="&#xcb;" horiz-adv-x="577" 
d="M512 348h-327v-262h346v-86h-442v773h437v-87h-341v-251h327v-87zM423 842c-29 0 -52 22 -52 52c0 29 23 52 52 52s53 -23 53 -52c0 -30 -24 -52 -53 -52zM201 842c-29 0 -52 22 -52 52c0 29 23 52 52 52s52 -23 52 -52c0 -30 -23 -52 -52 -52z" />
    <glyph glyph-name="edieresis" unicode="&#xeb;" horiz-adv-x="563" 
d="M295 -9c-166 0 -266 122 -266 262c0 138 98 252 253 252c146 0 250 -102 257 -237c1 -10 1 -22 1 -33h-424c2 -92 75 -163 178 -163c66 0 106 16 156 58l52 -56c-61 -58 -117 -83 -207 -83zM281 427c-95 0 -141 -55 -158 -120h321c-16 67 -74 120 -163 120zM392 611
c-29 0 -52 22 -52 52c0 29 23 52 52 52s53 -23 53 -52c0 -30 -24 -52 -53 -52zM170 611c-29 0 -52 22 -52 52c0 29 23 52 52 52s52 -23 52 -52c0 -30 -23 -52 -52 -52z" />
    <glyph glyph-name="Egrave" unicode="&#xc8;" horiz-adv-x="577" 
d="M512 348h-327v-262h346v-86h-442v773h437v-87h-341v-251h327v-87zM292 825l-127 116l-1 13h95l104 -117v-12h-71z" />
    <glyph glyph-name="egrave" unicode="&#xe8;" horiz-adv-x="563" 
d="M295 -9c-166 0 -266 122 -266 262c0 138 98 252 253 252c146 0 250 -102 257 -237c1 -10 1 -22 1 -33h-424c2 -92 75 -163 178 -163c66 0 106 16 156 58l52 -56c-61 -58 -117 -83 -207 -83zM281 427c-95 0 -141 -55 -158 -120h321c-16 67 -74 120 -163 120zM261 576
l-149 146l-1 13h97l124 -147v-12h-71z" />
    <glyph glyph-name="Iacute" unicode="&#xcd;" horiz-adv-x="275" 
d="M89 0v773h96v-773h-96zM95 825v17l93 112h99v-12l-132 -117h-60z" />
    <glyph glyph-name="Idieresis" unicode="&#xcf;" horiz-adv-x="275" 
d="M89 0v773h96v-773h-96zM218 843c-29 0 -51 22 -51 51s22 53 51 53s53 -24 53 -53s-24 -51 -53 -51zM58 843c-29 0 -52 22 -52 51s23 53 52 53s53 -24 53 -53s-24 -51 -53 -51z" />
    <glyph glyph-name="Icircumflex" unicode="&#xce;" horiz-adv-x="275" 
d="M89 0v773h96v-773h-96zM-8 830l115 124h61l115 -124h-80l-66 64l-64 -64h-81z" />
    <glyph glyph-name="Igrave" unicode="&#xcc;" horiz-adv-x="275" 
d="M89 0v773h96v-773h-96zM117 825l-127 116l-1 13h95l104 -117v-12h-71z" />
    <glyph glyph-name="Ccedilla" unicode="&#xc7;" horiz-adv-x="741" 
d="M379 -200v57c10 -2 18 -3 25 -3c31 0 54 9 54 38c0 27 -23 39 -50 39c-2 0 -4 0 -8 -1v59c-202 20 -359 190 -359 398c0 222 179 401 401 401c107 0 204 -43 276 -111l-67 -67c-55 52 -128 85 -209 85c-170 0 -304 -137 -304 -308s134 -308 304 -308c83 0 159 35 214 88
l68 -65c-68 -66 -158 -109 -259 -115v-23c35 -7 61 -37 61 -75c0 -59 -44 -92 -118 -92c-9 0 -19 1 -29 3z" />
    <glyph glyph-name="ccedilla" unicode="&#xe7;" horiz-adv-x="466" 
d="M229 -200v57c10 -2 18 -3 25 -3c31 0 54 9 54 38c0 27 -23 39 -50 39c-2 0 -4 0 -8 -1v64c-125 17 -221 124 -221 255c0 141 115 256 257 256c63 0 122 -22 167 -59l-51 -71c-32 27 -68 42 -113 42c-95 0 -169 -76 -169 -169c0 -95 75 -169 169 -169c45 0 83 17 112 41
l48 -71c-35 -29 -80 -51 -134 -56v-29c35 -7 61 -37 61 -75c0 -59 -44 -92 -118 -92c-9 0 -19 1 -29 3z" />
    <glyph glyph-name="ntilde" unicode="&#xf1;" 
d="M431 0v280c0 87 -67 137 -139 137c-54 0 -103 -28 -132 -74v-343h-91v498h91v-51c31 33 76 58 143 58c115 0 219 -77 219 -212v-293h-91zM369 597c-62 0 -103 52 -147 52c-26 0 -41 -18 -43 -43l-52 9c0 57 38 101 97 101c61 0 104 -54 147 -54c29 0 40 20 42 45l55 -10
c0 -55 -37 -100 -99 -100z" />
    <glyph glyph-name="Oacute" unicode="&#xd3;" horiz-adv-x="885" 
d="M442 79c170 0 305 137 305 308s-136 308 -305 308c-170 0 -304 -137 -304 -308s134 -308 304 -308zM442 -14c-221 0 -401 179 -401 401s180 401 401 401c222 0 402 -179 402 -401s-180 -401 -402 -401zM400 825v17l93 112h99v-12l-132 -117h-60z" />
    <glyph glyph-name="oacute" unicode="&#xf3;" horiz-adv-x="585" 
d="M292 78c102 0 173 79 173 172c0 97 -74 170 -173 170c-98 0 -172 -73 -172 -170c0 -94 73 -172 172 -172zM292 -9c-156 0 -263 119 -263 259c0 141 111 258 263 258s264 -117 264 -258c0 -140 -108 -259 -264 -259zM250 576v17l113 142h101v-12l-154 -147h-60z" />
    <glyph glyph-name="Ocircumflex" unicode="&#xd4;" horiz-adv-x="885" 
d="M442 79c170 0 305 137 305 308s-136 308 -305 308c-170 0 -304 -137 -304 -308s134 -308 304 -308zM442 -14c-221 0 -401 179 -401 401s180 401 401 401c222 0 402 -179 402 -401s-180 -401 -402 -401zM297 830l115 124h61l115 -124h-80l-66 64l-64 -64h-81z" />
    <glyph glyph-name="ocircumflex" unicode="&#xf4;" horiz-adv-x="585" 
d="M292 78c102 0 173 79 173 172c0 97 -74 170 -173 170c-98 0 -172 -73 -172 -170c0 -94 73 -172 172 -172zM292 -9c-156 0 -263 119 -263 259c0 141 111 258 263 258s264 -117 264 -258c0 -140 -108 -259 -264 -259zM127 581l135 154h61l135 -154h-80l-86 94l-84 -94h-81z
" />
    <glyph glyph-name="Odieresis" unicode="&#xd6;" horiz-adv-x="885" 
d="M442 79c170 0 305 137 305 308s-136 308 -305 308c-170 0 -304 -137 -304 -308s134 -308 304 -308zM442 -14c-221 0 -401 179 -401 401s180 401 401 401c222 0 402 -179 402 -401s-180 -401 -402 -401zM553 842c-29 0 -52 22 -52 52c0 29 23 52 52 52s53 -23 53 -52
c0 -30 -24 -52 -53 -52zM331 842c-29 0 -52 22 -52 52c0 29 23 52 52 52s52 -23 52 -52c0 -30 -23 -52 -52 -52z" />
    <glyph glyph-name="odieresis" unicode="&#xf6;" horiz-adv-x="585" 
d="M292 78c102 0 173 79 173 172c0 97 -74 170 -173 170c-98 0 -172 -73 -172 -170c0 -94 73 -172 172 -172zM292 -9c-156 0 -263 119 -263 259c0 141 111 258 263 258s264 -117 264 -258c0 -140 -108 -259 -264 -259zM403 611c-29 0 -52 22 -52 52c0 29 23 52 52 52
s53 -23 53 -52c0 -30 -24 -52 -53 -52zM181 611c-29 0 -52 22 -52 52c0 29 23 52 52 52s52 -23 52 -52c0 -30 -23 -52 -52 -52z" />
    <glyph glyph-name="Ohungarumlaut" unicode="&#x150;" horiz-adv-x="885" 
d="M442 79c170 0 305 137 305 308s-136 308 -305 308c-170 0 -304 -137 -304 -308s134 -308 304 -308zM442 -14c-221 0 -401 179 -401 401s180 401 401 401c222 0 402 -179 402 -401s-180 -401 -402 -401zM322 825v11l66 116h79v-11l-97 -116h-48zM491 825v12l77 115h80v-11
l-108 -116h-49z" />
    <glyph glyph-name="ohungarumlaut" unicode="&#x151;" horiz-adv-x="585" 
d="M292 78c102 0 173 79 173 172c0 97 -74 170 -173 170c-98 0 -172 -73 -172 -170c0 -94 73 -172 172 -172zM292 -9c-156 0 -263 119 -263 259c0 141 111 258 263 258s264 -117 264 -258c0 -140 -108 -259 -264 -259zM165 576l90 156h93l-118 -156h-65zM333 576l102 156h94
l-130 -156h-66z" />
    <glyph glyph-name="Ograve" unicode="&#xd2;" horiz-adv-x="885" 
d="M442 79c170 0 305 137 305 308s-136 308 -305 308c-170 0 -304 -137 -304 -308s134 -308 304 -308zM442 -14c-221 0 -401 179 -401 401s180 401 401 401c222 0 402 -179 402 -401s-180 -401 -402 -401zM422 825l-127 116l-1 13h95l104 -117v-12h-71z" />
    <glyph glyph-name="ograve" unicode="&#xf2;" horiz-adv-x="585" 
d="M292 78c102 0 173 79 173 172c0 97 -74 170 -173 170c-98 0 -172 -73 -172 -170c0 -94 73 -172 172 -172zM292 -9c-156 0 -263 119 -263 259c0 141 111 258 263 258s264 -117 264 -258c0 -140 -108 -259 -264 -259zM272 576l-149 146l-1 13h97l124 -147v-12h-71z" />
    <glyph glyph-name="Otilde" unicode="&#xd5;" horiz-adv-x="885" 
d="M442 79c170 0 305 137 305 308s-136 308 -305 308c-170 0 -304 -137 -304 -308s134 -308 304 -308zM442 -14c-221 0 -401 179 -401 401s180 401 401 401c222 0 402 -179 402 -401s-180 -401 -402 -401zM516 846c-62 0 -103 52 -147 52c-26 0 -41 -18 -43 -43l-52 9
c0 57 38 101 97 101c61 0 104 -54 147 -54c29 0 40 20 42 45l55 -10c0 -55 -37 -100 -99 -100z" />
    <glyph glyph-name="otilde" unicode="&#xf5;" horiz-adv-x="585" 
d="M292 78c102 0 173 79 173 172c0 97 -74 170 -173 170c-98 0 -172 -73 -172 -170c0 -94 73 -172 172 -172zM292 -9c-156 0 -263 119 -263 259c0 141 111 258 263 258s264 -117 264 -258c0 -140 -108 -259 -264 -259zM366 597c-62 0 -103 52 -147 52c-26 0 -41 -18 -43 -43
l-52 9c0 57 38 101 97 101c61 0 104 -54 147 -54c29 0 40 20 42 45l55 -10c0 -55 -37 -100 -99 -100z" />
    <glyph glyph-name="Scaron" unicode="&#x160;" horiz-adv-x="585" 
d="M290 -9c-103 0 -203 48 -267 117l65 71c47 -55 126 -100 205 -100c94 0 155 55 155 128c0 54 -29 105 -111 138l-93 37c-108 43 -166 102 -166 201c0 113 94 201 219 201c97 0 165 -31 222 -85l-58 -73c-44 44 -96 69 -164 69c-73 0 -127 -42 -127 -109
c0 -48 27 -83 109 -116l96 -39c118 -48 167 -124 167 -218c0 -130 -98 -222 -252 -222zM266 831l-115 124h81l65 -67l65 67h80l-115 -124h-61z" />
    <glyph glyph-name="scaron" unicode="&#x161;" horiz-adv-x="511" 
d="M264 -12c-94 0 -171 22 -249 67l46 73c61 -39 130 -61 205 -61c85 0 136 30 136 74c0 30 -20 52 -77 63l-142 27c-92 18 -137 61 -137 135c0 80 68 143 210 143c82 0 154 -22 206 -56l-43 -71c-48 28 -104 48 -164 48c-69 0 -122 -19 -122 -62c0 -28 16 -44 65 -53
l132 -23c109 -21 159 -70 159 -146c0 -99 -99 -158 -225 -158zM225 581l-135 154h81l85 -95l85 95h80l-135 -154h-61z" />
    <glyph glyph-name="Uacute" unicode="&#xda;" horiz-adv-x="711" 
d="M355 -13c-169 0 -284 123 -284 284v502h96v-495c0 -112 69 -200 188 -200s189 86 189 200v495h96v-502c0 -161 -114 -284 -285 -284zM313 825v17l93 112h99v-12l-132 -117h-60z" />
    <glyph glyph-name="Ucircumflex" unicode="&#xdb;" horiz-adv-x="711" 
d="M355 -13c-169 0 -284 123 -284 284v502h96v-495c0 -112 69 -200 188 -200s189 86 189 200v495h96v-502c0 -161 -114 -284 -285 -284zM210 830l115 124h61l115 -124h-80l-66 64l-64 -64h-81z" />
    <glyph glyph-name="Udieresis" unicode="&#xdc;" horiz-adv-x="711" 
d="M355 -13c-169 0 -284 123 -284 284v502h96v-495c0 -112 69 -200 188 -200s189 86 189 200v495h96v-502c0 -161 -114 -284 -285 -284zM466 842c-29 0 -52 22 -52 52c0 29 23 52 52 52s53 -23 53 -52c0 -30 -24 -52 -53 -52zM244 842c-29 0 -52 22 -52 52c0 29 23 52 52 52
s52 -23 52 -52c0 -30 -23 -52 -52 -52z" />
    <glyph glyph-name="Ugrave" unicode="&#xd9;" horiz-adv-x="711" 
d="M355 -13c-169 0 -284 123 -284 284v502h96v-495c0 -112 69 -200 188 -200s189 86 189 200v495h96v-502c0 -161 -114 -284 -285 -284zM335 825l-127 116l-1 13h95l104 -117v-12h-71z" />
    <glyph glyph-name="Uhungarumlaut" unicode="&#x170;" horiz-adv-x="711" 
d="M355 -13c-169 0 -284 123 -284 284v502h96v-495c0 -112 69 -200 188 -200s189 86 189 200v495h96v-502c0 -161 -114 -284 -285 -284zM236 825v11l66 116h79v-11l-97 -116h-48zM405 825v12l77 115h80v-11l-108 -116h-49z" />
    <glyph glyph-name="Yacute" unicode="&#xdd;" horiz-adv-x="609" 
d="M507 773h104l-257 -464v-309h-96v306l-260 467h108l202 -368zM264 825v17l93 112h99v-12l-132 -117h-60z" />
    <glyph glyph-name="yacute" unicode="&#xfd;" horiz-adv-x="505" 
d="M-2 498h102l153 -379l159 379h96l-289 -676h-90l77 183zM211 576v17l113 142h101v-12l-154 -147h-60z" />
    <glyph glyph-name="Ydieresis" unicode="&#x178;" horiz-adv-x="609" 
d="M507 773h104l-257 -464v-309h-96v306l-260 467h108l202 -368zM417 842c-29 0 -52 22 -52 52c0 29 23 52 52 52s53 -23 53 -52c0 -30 -24 -52 -53 -52zM195 842c-29 0 -52 22 -52 52c0 29 23 52 52 52s52 -23 52 -52c0 -30 -23 -52 -52 -52z" />
    <glyph glyph-name="ydieresis" unicode="&#xff;" horiz-adv-x="505" 
d="M-2 498h102l153 -379l159 379h96l-289 -676h-90l77 183zM364 611c-29 0 -52 22 -52 52c0 29 23 52 52 52s53 -23 53 -52c0 -30 -24 -52 -53 -52zM142 611c-29 0 -52 22 -52 52c0 29 23 52 52 52s52 -23 52 -52c0 -30 -23 -52 -52 -52z" />
    <glyph glyph-name="Zcaron" unicode="&#x17d;" horiz-adv-x="618" 
d="M27 0v57l438 630h-416v86h542v-63l-435 -624h427v-86h-556zM286 830l-115 124h81l65 -67l65 67h80l-115 -124h-61z" />
    <glyph glyph-name="zcaron" unicode="&#x17e;" horiz-adv-x="477" 
d="M11 0l285 415h-265v83h430l-288 -415h289v-83h-451zM202 581l-135 154h81l85 -95l85 95h80l-135 -154h-61z" />
    <glyph glyph-name="Tcommaaccent" unicode="&#x162;" horiz-adv-x="630" 
d="M11 683v90h608v-90h-256v-683h-96v683h-256zM280 -196l-57 19l56 147l76 -22z" />
    <glyph glyph-name="Tcommaaccent" unicode="&#x21a;" horiz-adv-x="630" 
d="M11 683v90h608v-90h-256v-683h-96v683h-256zM280 -196l-57 19l56 147l76 -22z" />
    <glyph glyph-name="amacron" unicode="&#x101;" horiz-adv-x="560" 
d="M251 -12c-130 0 -223 67 -223 164c0 98 93 172 229 172c58 0 123 -23 157 -46v38c0 74 -90 105 -153 105c-56 0 -112 -12 -159 -52l-44 69c64 47 133 67 204 67c112 0 240 -57 240 -189v-316h-88v42c-31 -26 -91 -54 -163 -54zM256 63c68 0 122 27 158 59v73
c-34 27 -94 55 -153 55c-100 0 -150 -43 -150 -96c0 -52 58 -91 145 -91zM125 613v71h297v-71h-297z" />
    <glyph glyph-name="abreve" unicode="&#x103;" horiz-adv-x="560" 
d="M251 -12c-130 0 -223 67 -223 164c0 98 93 172 229 172c58 0 123 -23 157 -46v38c0 74 -90 105 -153 105c-56 0 -112 -12 -159 -52l-44 69c64 47 133 67 204 67c112 0 240 -57 240 -189v-316h-88v42c-31 -26 -91 -54 -163 -54zM256 63c68 0 122 27 158 59v73
c-34 27 -94 55 -153 55c-100 0 -150 -43 -150 -96c0 -52 58 -91 145 -91zM273 587c-87 0 -151 54 -154 146h69c1 -47 34 -84 85 -84s84 37 86 84h67c-3 -95 -66 -146 -153 -146z" />
    <glyph glyph-name="adotaccent" unicode="&#x227;" horiz-adv-x="560" 
d="M251 -12c-130 0 -223 67 -223 164c0 98 93 172 229 172c58 0 123 -23 157 -46v38c0 74 -90 105 -153 105c-56 0 -112 -12 -159 -52l-44 69c64 47 133 67 204 67c112 0 240 -57 240 -189v-316h-88v42c-31 -26 -91 -54 -163 -54zM256 63c68 0 122 27 158 59v73
c-34 27 -94 55 -153 55c-100 0 -150 -43 -150 -96c0 -52 58 -91 145 -91zM274 632c-32 0 -56 26 -56 57c0 32 24 57 56 57c31 0 57 -25 57 -57c0 -31 -26 -57 -57 -57z" />
    <glyph glyph-name="aeacute" unicode="&#x1fd;" horiz-adv-x="948" 
d="M251 -12c-127 0 -223 63 -223 166c0 97 93 170 229 170c52 0 118 -20 157 -48v40c0 74 -90 105 -153 105c-56 0 -112 -12 -159 -52l-44 69c64 47 133 67 204 67c77 0 163 -28 208 -88c44 53 112 88 197 88c146 0 249 -102 257 -238c0 -10 1 -21 1 -32h-424
c2 -92 75 -163 178 -163c66 0 105 16 156 58l52 -56c-61 -58 -118 -83 -208 -83c-91 0 -163 36 -208 92c-59 -62 -132 -95 -220 -95zM256 63c75 0 134 31 178 79c-6 16 -12 32 -15 49c-31 27 -94 59 -158 59c-100 0 -150 -44 -150 -96c0 -51 56 -91 145 -91zM666 427
c-95 0 -141 -55 -158 -120h321c-17 67 -75 120 -163 120zM426 576v17l113 142h101v-12l-154 -147h-60z" />
    <glyph glyph-name="ccircumflex" unicode="&#x109;" horiz-adv-x="466" 
d="M286 -9c-142 0 -257 115 -257 258c0 141 115 256 257 256c63 0 122 -22 167 -59l-51 -71c-32 27 -68 42 -113 42c-95 0 -169 -76 -169 -169c0 -95 75 -169 169 -169c45 0 83 17 112 41l48 -71c-41 -34 -95 -58 -163 -58zM116 581l135 154h61l135 -154h-80l-86 94l-84 -94
h-81z" />
    <glyph glyph-name="cdotaccent" unicode="&#x10b;" horiz-adv-x="466" 
d="M286 -9c-142 0 -257 115 -257 258c0 141 115 256 257 256c63 0 122 -22 167 -59l-51 -71c-32 27 -68 42 -113 42c-95 0 -169 -76 -169 -169c0 -95 75 -169 169 -169c45 0 83 17 112 41l48 -71c-41 -34 -95 -58 -163 -58zM281 632c-32 0 -56 26 -56 57c0 32 24 57 56 57
c31 0 57 -25 57 -57c0 -31 -26 -57 -57 -57z" />
    <glyph glyph-name="ecaron" unicode="&#x11b;" horiz-adv-x="563" 
d="M295 -9c-166 0 -266 122 -266 262c0 138 98 252 253 252c146 0 250 -102 257 -237c1 -10 1 -22 1 -33h-424c2 -92 75 -163 178 -163c66 0 106 16 156 58l52 -56c-61 -58 -117 -83 -207 -83zM281 427c-95 0 -141 -55 -158 -120h321c-16 67 -74 120 -163 120zM251 581
l-135 154h81l85 -95l85 95h80l-135 -154h-61z" />
    <glyph glyph-name="ebreve" unicode="&#x115;" horiz-adv-x="563" 
d="M295 -9c-166 0 -266 122 -266 262c0 138 98 252 253 252c146 0 250 -102 257 -237c1 -10 1 -22 1 -33h-424c2 -92 75 -163 178 -163c66 0 106 16 156 58l52 -56c-61 -58 -117 -83 -207 -83zM281 427c-95 0 -141 -55 -158 -120h321c-16 67 -74 120 -163 120zM281 587
c-87 0 -151 54 -154 146h69c1 -47 34 -84 85 -84s84 37 86 84h67c-3 -95 -66 -146 -153 -146z" />
    <glyph glyph-name="emacron" unicode="&#x113;" horiz-adv-x="563" 
d="M295 -9c-166 0 -266 122 -266 262c0 138 98 252 253 252c146 0 250 -102 257 -237c1 -10 1 -22 1 -33h-424c2 -92 75 -163 178 -163c66 0 106 16 156 58l52 -56c-61 -58 -117 -83 -207 -83zM281 427c-95 0 -141 -55 -158 -120h321c-16 67 -74 120 -163 120zM133 613v71
h297v-71h-297z" />
    <glyph glyph-name="cacute" unicode="&#x107;" horiz-adv-x="466" 
d="M286 -9c-142 0 -257 115 -257 258c0 141 115 256 257 256c63 0 122 -22 167 -59l-51 -71c-32 27 -68 42 -113 42c-95 0 -169 -76 -169 -169c0 -95 75 -169 169 -169c45 0 83 17 112 41l48 -71c-41 -34 -95 -58 -163 -58zM239 576v17l113 142h101v-12l-154 -147h-60z" />
    <glyph glyph-name="edotaccent" unicode="&#x117;" horiz-adv-x="563" 
d="M295 -9c-166 0 -266 122 -266 262c0 138 98 252 253 252c146 0 250 -102 257 -237c1 -10 1 -22 1 -33h-424c2 -92 75 -163 178 -163c66 0 106 16 156 58l52 -56c-61 -58 -117 -83 -207 -83zM281 427c-95 0 -141 -55 -158 -120h321c-16 67 -74 120 -163 120zM282 632
c-32 0 -56 26 -56 57c0 32 24 57 56 57c31 0 57 -25 57 -57c0 -31 -26 -57 -57 -57z" />
    <glyph glyph-name="gdotaccent" unicode="&#x121;" horiz-adv-x="607" 
d="M287 -8c-150 0 -258 113 -258 256c0 138 110 255 258 255c62 0 118 -20 161 -54v49h90v-459c0 -127 -100 -211 -249 -211c-98 0 -190 30 -252 84l44 65c52 -42 126 -68 208 -68c113 0 159 58 159 141v2c-44 -38 -100 -60 -161 -60zM291 79c73 0 129 39 157 97v146
c-28 58 -87 97 -156 97c-98 0 -173 -78 -173 -171c0 -97 73 -169 172 -169zM294 632c-32 0 -56 26 -56 57c0 32 24 57 56 57c31 0 57 -25 57 -57c0 -31 -26 -57 -57 -57z" />
    <glyph glyph-name="gcommaaccent" unicode="&#x123;" horiz-adv-x="607" 
d="M287 -8c-150 0 -258 113 -258 256c0 138 110 255 258 255c62 0 118 -20 161 -54v49h90v-459c0 -127 -100 -211 -249 -211c-98 0 -190 30 -252 84l44 65c52 -42 126 -68 208 -68c113 0 159 58 159 141v2c-44 -38 -100 -60 -161 -60zM291 79c73 0 129 39 157 97v146
c-28 58 -87 97 -156 97c-98 0 -173 -78 -173 -171c0 -97 73 -169 172 -169zM252 606l74 145l58 -20l-56 -146z" />
    <glyph glyph-name="gbreve" unicode="&#x11f;" horiz-adv-x="607" 
d="M287 -8c-150 0 -258 113 -258 256c0 138 110 255 258 255c62 0 118 -20 161 -54v49h90v-459c0 -127 -100 -211 -249 -211c-98 0 -190 30 -252 84l44 65c52 -42 126 -68 208 -68c113 0 159 58 159 141v2c-44 -38 -100 -60 -161 -60zM291 79c73 0 129 39 157 97v146
c-28 58 -87 97 -156 97c-98 0 -173 -78 -173 -171c0 -97 73 -169 172 -169zM293 587c-87 0 -151 54 -154 146h69c1 -47 34 -84 85 -84s84 37 86 84h67c-3 -95 -66 -146 -153 -146z" />
    <glyph glyph-name="gcircumflex" unicode="&#x11d;" horiz-adv-x="607" 
d="M287 -8c-150 0 -258 113 -258 256c0 138 110 255 258 255c62 0 118 -20 161 -54v49h90v-459c0 -127 -100 -211 -249 -211c-98 0 -190 30 -252 84l44 65c52 -42 126 -68 208 -68c113 0 159 58 159 141v2c-44 -38 -100 -60 -161 -60zM291 79c73 0 129 39 157 97v146
c-28 58 -87 97 -156 97c-98 0 -173 -78 -173 -171c0 -97 73 -169 172 -169zM128 581l135 154h61l135 -154h-80l-86 94l-84 -94h-81z" />
    <glyph glyph-name="ibreve" unicode="&#x12d;" horiz-adv-x="230" 
d="M69 0v498h91v-498h-91zM114 587c-87 0 -151 54 -154 146h69c1 -47 34 -84 85 -84s84 37 86 84h67c-3 -95 -66 -146 -153 -146z" />
    <glyph glyph-name="itilde" unicode="&#x129;" horiz-adv-x="230" 
d="M69 0v498h91v-498h-91zM178 597c-54 0 -90 52 -128 52c-23 0 -36 -18 -38 -43l-45 9c0 57 33 101 84 101c53 0 91 -54 128 -54c26 0 35 20 37 45l48 -10c0 -55 -33 -100 -86 -100z" />
    <glyph glyph-name="dotlessj" unicode="&#x237;" horiz-adv-x="230" 
d="M-12 -184l-1 76c55 2 82 38 82 103v503h91v-498c0 -124 -66 -181 -172 -184z" />
    <glyph glyph-name="jcircumflex" unicode="&#x135;" horiz-adv-x="230" 
d="M-12 -184l-1 76c55 2 82 38 82 103v503h91v-498c0 -124 -66 -181 -172 -184zM-15 581l95 154h67l97 -154h-75l-55 91l-53 -91h-76z" />
    <glyph glyph-name="hcircumflex" unicode="&#x125;" horiz-adv-x="579" 
d="M432 0v280c0 87 -67 137 -139 137c-54 0 -103 -28 -132 -74v-343h-91v780h91v-333c31 33 76 58 143 58c115 0 219 -77 219 -212v-293h-91zM161 840l115 124h61l115 -124h-80l-66 64l-64 -64h-81z" />
    <glyph glyph-name="lacute" unicode="&#x13a;" horiz-adv-x="230" 
d="M69 0v780h91v-780h-91zM91 831v17l93 112h99v-12l-132 -117h-60z" />
    <glyph glyph-name="nacute" unicode="&#x144;" 
d="M431 0v280c0 87 -67 137 -139 137c-54 0 -103 -28 -132 -74v-343h-91v498h91v-51c31 33 76 58 143 58c115 0 219 -77 219 -212v-293h-91zM253 576v17l113 142h101v-12l-154 -147h-60z" />
    <glyph glyph-name="ncaron" unicode="&#x148;" 
d="M431 0v280c0 87 -67 137 -139 137c-54 0 -103 -28 -132 -74v-343h-91v498h91v-51c31 33 76 58 143 58c115 0 219 -77 219 -212v-293h-91zM264 581l-135 154h81l85 -95l85 95h80l-135 -154h-61z" />
    <glyph glyph-name="eng" unicode="&#x14b;" 
d="M69 0v498h91v-51c31 33 76 58 143 58c115 0 219 -77 219 -212v-293c0 -124 -68 -181 -174 -184v76c55 2 83 38 83 103v285c0 87 -67 137 -139 137c-54 0 -102 -29 -132 -75v-342h-91z" />
    <glyph glyph-name="omacron" unicode="&#x14d;" horiz-adv-x="585" 
d="M292 78c102 0 173 79 173 172c0 97 -74 170 -173 170c-98 0 -172 -73 -172 -170c0 -94 73 -172 172 -172zM292 -9c-156 0 -263 119 -263 259c0 141 111 258 263 258s264 -117 264 -258c0 -140 -108 -259 -264 -259zM144 613v71h297v-71h-297z" />
    <glyph glyph-name="obreve" unicode="&#x14f;" horiz-adv-x="585" 
d="M292 78c102 0 173 79 173 172c0 97 -74 170 -173 170c-98 0 -172 -73 -172 -170c0 -94 73 -172 172 -172zM292 -9c-156 0 -263 119 -263 259c0 141 111 258 263 258s264 -117 264 -258c0 -140 -108 -259 -264 -259zM292 587c-87 0 -151 54 -154 146h69
c1 -47 34 -84 85 -84s84 37 86 84h67c-3 -95 -66 -146 -153 -146z" />
    <glyph glyph-name="sacute" unicode="&#x15b;" horiz-adv-x="511" 
d="M264 -12c-94 0 -171 22 -249 67l46 73c61 -39 130 -61 205 -61c85 0 136 30 136 74c0 30 -20 52 -77 63l-142 27c-92 18 -137 61 -137 135c0 80 68 143 210 143c82 0 154 -22 206 -56l-43 -71c-48 28 -104 48 -164 48c-69 0 -122 -19 -122 -62c0 -28 16 -44 65 -53
l132 -23c109 -21 159 -70 159 -146c0 -99 -99 -158 -225 -158zM214 576v17l113 142h101v-12l-154 -147h-60z" />
    <glyph glyph-name="scedilla" unicode="&#x15f;" horiz-adv-x="511" 
d="M202 -200v57c10 -2 18 -3 25 -3c31 0 54 9 54 38c0 27 -23 39 -50 39c-2 0 -4 0 -8 -1v60c-76 5 -142 26 -208 65l46 73c61 -39 130 -61 205 -61c85 0 136 30 136 74c0 30 -20 52 -77 63l-142 27c-92 18 -137 61 -137 135c0 80 68 143 210 143c82 0 154 -22 206 -56
l-43 -71c-48 28 -104 48 -164 48c-69 0 -122 -19 -122 -62c0 -28 16 -44 65 -53l132 -23c109 -21 159 -70 159 -146c0 -93 -87 -150 -201 -157v-25c35 -7 61 -37 61 -75c0 -59 -44 -92 -118 -92c-9 0 -19 1 -29 3z" />
    <glyph glyph-name="scircumflex" unicode="&#x15d;" horiz-adv-x="511" 
d="M264 -12c-94 0 -171 22 -249 67l46 73c61 -39 130 -61 205 -61c85 0 136 30 136 74c0 30 -20 52 -77 63l-142 27c-92 18 -137 61 -137 135c0 80 68 143 210 143c82 0 154 -22 206 -56l-43 -71c-48 28 -104 48 -164 48c-69 0 -122 -19 -122 -62c0 -28 16 -44 65 -53
l132 -23c109 -21 159 -70 159 -146c0 -99 -99 -158 -225 -158zM91 581l135 154h61l135 -154h-80l-86 94l-84 -94h-81z" />
    <glyph glyph-name="tbar" unicode="&#x167;" horiz-adv-x="302" 
d="M24 416v82h82v186l90 54v-240h83v-82h-83v-105h83v-81h-83v-230h-90v230h-83v81h83v105h-82z" />
    <glyph glyph-name="wdieresis" unicode="&#x1e85;" horiz-adv-x="820" 
d="M183 0l-182 498h95l136 -378l132 378h89l133 -385l142 385h91l-188 -498h-93l-131 374l-135 -374h-89zM521 611c-29 0 -52 22 -52 52c0 29 23 52 52 52s53 -23 53 -52c0 -30 -24 -52 -53 -52zM299 611c-29 0 -52 22 -52 52c0 29 23 52 52 52s52 -23 52 -52
c0 -30 -23 -52 -52 -52z" />
    <glyph glyph-name="wacute" unicode="&#x1e83;" horiz-adv-x="820" 
d="M183 0l-182 498h95l136 -378l132 378h89l133 -385l142 385h91l-188 -498h-93l-131 374l-135 -374h-89zM368 576v17l113 142h101v-12l-154 -147h-60z" />
    <glyph glyph-name="wgrave" unicode="&#x1e81;" horiz-adv-x="820" 
d="M183 0l-182 498h95l136 -378l132 378h89l133 -385l142 385h91l-188 -498h-93l-131 374l-135 -374h-89zM390 576l-149 146l-1 13h97l124 -147v-12h-71z" />
    <glyph glyph-name="wcircumflex" unicode="&#x175;" horiz-adv-x="820" 
d="M183 0l-182 498h95l136 -378l132 378h89l133 -385l142 385h91l-188 -498h-93l-131 374l-135 -374h-89zM245 581l135 154h61l135 -154h-80l-86 94l-84 -94h-81z" />
    <glyph glyph-name="ycircumflex" unicode="&#x177;" horiz-adv-x="505" 
d="M-2 498h102l153 -379l159 379h96l-289 -676h-90l77 183zM87 581l135 154h61l135 -154h-80l-86 94l-84 -94h-81z" />
    <glyph glyph-name="ygrave" unicode="&#x1ef3;" horiz-adv-x="505" 
d="M-2 498h102l153 -379l159 379h96l-289 -676h-90l77 183zM233 576l-149 146l-1 13h97l124 -147v-12h-71z" />
    <glyph glyph-name="zdotaccent" unicode="&#x17c;" horiz-adv-x="477" 
d="M11 0l285 415h-265v83h430l-288 -415h289v-83h-451zM233 632c-32 0 -56 26 -56 57c0 32 24 57 56 57c31 0 57 -25 57 -57c0 -31 -26 -57 -57 -57z" />
    <glyph glyph-name="zacute" unicode="&#x17a;" horiz-adv-x="477" 
d="M11 0l285 415h-265v83h430l-288 -415h289v-83h-451zM191 576v17l113 142h101v-12l-154 -147h-60z" />
    <glyph glyph-name="ubreve" unicode="&#x16d;" 
d="M272 -8c-109 0 -216 77 -216 211l1 295h91v-286c0 -87 66 -137 137 -137c61 0 108 34 132 83v340h91v-498h-91v52c-35 -35 -82 -60 -145 -60zM286 587c-87 0 -151 54 -154 146h69c1 -47 34 -84 85 -84s84 37 86 84h67c-3 -95 -66 -146 -153 -146z" />
    <glyph glyph-name="utilde" unicode="&#x169;" 
d="M272 -8c-109 0 -216 77 -216 211l1 295h91v-286c0 -87 66 -137 137 -137c61 0 108 34 132 83v340h91v-498h-91v52c-35 -35 -82 -60 -145 -60zM360 597c-62 0 -103 52 -147 52c-26 0 -41 -18 -43 -43l-52 9c0 57 38 101 97 101c61 0 104 -54 147 -54c29 0 40 20 42 45
l55 -10c0 -55 -37 -100 -99 -100z" />
    <glyph glyph-name="umacron" unicode="&#x16b;" 
d="M272 -8c-109 0 -216 77 -216 211l1 295h91v-286c0 -87 66 -137 137 -137c61 0 108 34 132 83v340h91v-498h-91v52c-35 -35 -82 -60 -145 -60zM138 613v71h297v-71h-297z" />
    <glyph glyph-name="uring" unicode="&#x16f;" 
d="M272 -8c-109 0 -216 77 -216 211l1 295h91v-286c0 -87 66 -137 137 -137c61 0 108 34 132 83v340h91v-498h-91v52c-35 -35 -82 -60 -145 -60zM286 567c-56 0 -101 45 -101 101s45 101 101 101s101 -45 101 -101s-45 -101 -101 -101zM286 624c25 0 44 20 44 44
s-19 45 -44 45c-24 0 -44 -21 -44 -45s20 -44 44 -44z" />
    <glyph glyph-name="kgreenlandic" unicode="&#x138;" horiz-adv-x="517" 
d="M387 498h112l-196 -198l211 -300h-107l-166 238l-81 -82v-156h-91v498h91v-230z" />
    <glyph glyph-name="hbar" unicode="&#x127;" horiz-adv-x="579" 
d="M-4 619v68h74v93h91v-93h165v-68h-165v-172c31 33 76 58 143 58c115 0 219 -77 219 -212v-293h-91v280c0 87 -67 137 -139 137c-54 0 -103 -28 -132 -74v-343h-91v619h-74z" />
    <glyph glyph-name="dcroat" unicode="&#x111;" horiz-adv-x="607" 
d="M272 619v68h175v93h91v-93h74v-68h-74v-619h-91v48c-44 -37 -100 -58 -160 -58c-150 0 -259 115 -259 257c0 139 111 256 259 256c62 0 117 -20 160 -53v169h-175zM291 76c72 0 128 39 156 96v150c-28 58 -87 97 -155 97c-98 0 -173 -79 -173 -172
c0 -97 72 -171 172 -171z" />
    <glyph glyph-name="adotbelow" unicode="&#x1ea1;" horiz-adv-x="560" 
d="M251 -12c-130 0 -223 67 -223 164c0 98 93 172 229 172c58 0 123 -23 157 -46v38c0 74 -90 105 -153 105c-56 0 -112 -12 -159 -52l-44 69c64 47 133 67 204 67c112 0 240 -57 240 -189v-316h-88v42c-31 -26 -91 -54 -163 -54zM256 63c68 0 122 27 158 59v73
c-34 27 -94 55 -153 55c-100 0 -150 -43 -150 -96c0 -52 58 -91 145 -91zM266 -188c-31 0 -57 25 -57 54c0 30 26 53 57 53s57 -23 57 -53c0 -29 -26 -54 -57 -54z" />
    <glyph glyph-name="lcommaaccent" unicode="&#x13c;" horiz-adv-x="230" 
d="M84 -196l-57 19l56 147l76 -22zM69 0v780h91v-780h-91z" />
    <glyph glyph-name="ldot" unicode="&#x140;" horiz-adv-x="314" 
d="M69 0v780h91v-780h-91zM268 258c-31 0 -56 25 -56 56c0 33 25 58 56 58c32 0 58 -25 58 -58c0 -31 -26 -56 -58 -56z" />
    <glyph glyph-name="ncommaaccent" unicode="&#x146;" horiz-adv-x="573" 
d="M431 0v280c0 87 -67 137 -139 137c-54 0 -103 -28 -132 -74v-343h-91v498h91v-51c31 33 76 58 143 58c115 0 219 -77 219 -212v-293h-91zM264 -196l-57 19l56 147l76 -22z" />
    <glyph glyph-name="ncircumflex" 
d="M431 0v280c0 87 -67 137 -139 137c-54 0 -103 -28 -132 -74v-343h-91v498h91v-51c31 33 76 58 143 58c115 0 219 -77 219 -212v-293h-91zM130 581l135 154h61l135 -154h-80l-86 94l-84 -94h-81z" />
    <glyph glyph-name="mcircumflex" horiz-adv-x="928" 
d="M425 0v288c0 83 -54 129 -131 129c-54 0 -104 -28 -134 -74v-343h-91v498h91v-52c32 33 78 59 145 59c75 0 140 -29 180 -83c40 49 101 83 174 83c113 0 213 -79 213 -212v-293h-91v281c0 84 -61 136 -133 136c-57 0 -103 -31 -132 -79v-338h-91zM307 581l135 154h61
l135 -154h-80l-86 94l-84 -94h-81z" />
    <glyph glyph-name="odotbelow" unicode="&#x1ecd;" horiz-adv-x="585" 
d="M292 78c102 0 173 79 173 172c0 97 -74 170 -173 170c-98 0 -172 -73 -172 -170c0 -94 73 -172 172 -172zM292 -9c-156 0 -263 119 -263 259c0 141 111 258 263 258s264 -117 264 -258c0 -140 -108 -259 -264 -259zM293 -188c-31 0 -57 25 -57 54c0 30 26 53 57 53
s57 -23 57 -53c0 -29 -26 -54 -57 -54z" />
    <glyph glyph-name="rcommaaccent" unicode="&#x157;" horiz-adv-x="427" 
d="M69 0v498h91v-39c26 27 60 43 102 43c92 0 158 -69 158 -159v-16h-83c0 53 -36 91 -89 91c-42 0 -79 -31 -88 -71v-347h-91zM85 -190l-57 19l56 147l76 -22z" />
    <glyph glyph-name="scommaaccent" unicode="&#x219;" horiz-adv-x="509" 
d="M265 -12c-94 0 -171 22 -249 67l46 73c61 -39 130 -61 205 -61c85 0 136 30 136 74c0 30 -20 52 -77 63l-142 27c-92 18 -137 61 -137 135c0 80 68 143 210 143c82 0 154 -22 206 -56l-43 -71c-48 28 -104 48 -164 48c-69 0 -122 -19 -122 -62c0 -28 16 -44 65 -53
l132 -23c109 -21 159 -70 159 -146c0 -99 -99 -158 -225 -158zM236 -196l-57 19l56 147l76 -22z" />
    <glyph glyph-name="tcommaaccent" unicode="&#x163;" horiz-adv-x="285" 
d="M15 416v82h82v186l90 54v-240h83v-82h-83v-416h-90v416h-82zM106 -196l-57 19l56 147l76 -22z" />
    <glyph glyph-name="udotbelow" unicode="&#x1ee5;" 
d="M272 -8c-109 0 -216 77 -216 211l1 295h91v-286c0 -87 66 -137 137 -137c61 0 108 34 132 83v340h91v-498h-91v52c-35 -35 -82 -60 -145 -60zM288 -188c-31 0 -57 25 -57 54c0 30 26 53 57 53s57 -23 57 -53c0 -29 -26 -54 -57 -54z" />
    <glyph glyph-name="ymacron" horiz-adv-x="505" 
d="M-2 498h102l153 -379l159 379h96l-289 -676h-90l77 183zM104 613v71h297v-71h-297z" />
    <glyph glyph-name="rcaron" unicode="&#x159;" horiz-adv-x="427" 
d="M69 0v498h91v-39c26 27 60 43 102 43c92 0 158 -69 158 -159v-16h-83c0 53 -36 91 -89 91c-42 0 -79 -31 -88 -71v-347h-91zM199 581l-135 154h81l85 -95l85 95h80l-135 -154h-61z" />
    <glyph glyph-name="racute" unicode="&#x155;" horiz-adv-x="427" 
d="M69 0v498h91v-39c26 27 60 43 102 43c92 0 158 -69 158 -159v-16h-83c0 53 -36 91 -89 91c-42 0 -79 -31 -88 -71v-347h-91zM187 576v17l113 142h101v-12l-154 -147h-60z" />
    <glyph glyph-name="thorn" unicode="&#xfe;" horiz-adv-x="602" 
d="M315 -10c-62 0 -115 19 -155 51v-219h-91v958h91v-330c40 32 95 53 154 53c150 0 259 -116 259 -257c0 -138 -110 -256 -258 -256zM311 417c-66 0 -121 -34 -151 -86v-168c30 -52 85 -88 150 -88c98 0 173 78 173 171c0 97 -73 171 -172 171z" />
    <glyph glyph-name="Thorn" unicode="&#xde;" horiz-adv-x="601" 
d="M345 159h-160v-159h-96v773h96v-130h161c134 0 238 -100 238 -245c0 -141 -106 -239 -239 -239zM336 554h-151v-305h153c86 0 146 59 146 151c0 91 -61 154 -148 154z" />
    <glyph glyph-name="i.TRK" horiz-adv-x="230" 
d="M69 0v498h91v-498h-91zM115 632c-32 0 -56 26 -56 57c0 32 24 57 56 57c31 0 57 -25 57 -57c0 -31 -26 -57 -57 -57z" />
    <glyph glyph-name="imacron" unicode="&#x12b;" horiz-adv-x="230" 
d="M69 0v498h91v-498h-91zM15 613v71h198v-71h-198z" />
    <glyph glyph-name="icaron" unicode="&#x1d0;" horiz-adv-x="230" 
d="M69 0v498h91v-498h-91zM87 581l-117 154h70l74 -95l74 95h70l-117 -154h-54z" />
    <glyph glyph-name="iacute" unicode="&#xed;" horiz-adv-x="230" 
d="M69 0v498h91v-498h-91zM72 576v17l113 142h101v-12l-154 -147h-60z" />
    <glyph glyph-name="idieresis" unicode="&#xef;" horiz-adv-x="230" 
d="M69 0v498h91v-498h-91zM194 638c-29 0 -51 22 -51 51s22 53 51 53s53 -24 53 -53s-24 -51 -53 -51zM34 638c-29 0 -52 22 -52 51s23 53 52 53s53 -24 53 -53s-24 -51 -53 -51z" />
    <glyph glyph-name="icircumflex" unicode="&#xee;" horiz-adv-x="230" 
d="M69 0v498h91v-498h-91zM-13 581l95 154h67l97 -154h-75l-55 91l-53 -91h-76z" />
    <glyph glyph-name="igrave" unicode="&#xec;" horiz-adv-x="230" 
d="M69 0v498h91v-498h-91zM94 576l-149 146l-1 13h97l124 -147v-12h-71z" />
    <glyph glyph-name="yen" unicode="&#xa5;" horiz-adv-x="640" 
d="M91 287v75h160l-238 411h108l204 -354l197 354h105l-235 -411h159v-75h-182v-89h182v-75h-182v-123h-96v123h-182v75h182v89h-182z" />
    <glyph glyph-name="Lcaron" unicode="&#x13d;" horiz-adv-x="536" 
d="M89 0v773h96v-683h329v-90h-425zM352 497l-57 21l90 239l83 -30z" />
    <glyph glyph-name="napostrophe" unicode="&#x149;" 
d="M431 0v280c0 87 -67 137 -139 137c-54 0 -103 -28 -132 -74v-343h-91v498h91v-51c31 33 76 58 143 58c115 0 219 -77 219 -212v-293h-91zM130 725l74 -29l-74 -144l-57 21z" />
    <glyph glyph-name="lcaron" unicode="&#x13e;" horiz-adv-x="287" 
d="M222 551l-11 229h87l-14 -229h-62zM69 0v780h91v-780h-91z" />
    <glyph glyph-name="tcaron" unicode="&#x165;" horiz-adv-x="285" 
d="M15 416v82h82v186l90 54v-240h83v-82h-83v-416h-90v416h-82zM261 573l16 228l86 3l-42 -237z" />
    <glyph glyph-name="dcaron" unicode="&#x10f;" horiz-adv-x="632" 
d="M447 0v48c-44 -37 -100 -58 -160 -58c-150 0 -259 115 -259 257c0 139 111 256 259 256c62 0 117 -20 160 -53v330h91v-780h-91zM291 76c72 0 128 39 156 96v150c-28 58 -87 97 -155 97c-98 0 -173 -79 -173 -172c0 -97 72 -171 172 -171zM594 549l16 228l86 3l-42 -237z
" />
    <glyph glyph-name="lozenge" unicode="&#x25ca;" horiz-adv-x="576" 
d="M259 0l-216 392l218 381h55l217 -382l-222 -391h-52zM144 390l141 -264l147 263l-147 259z" />
    <glyph glyph-name="Delta" unicode="&#x394;" horiz-adv-x="731" 
d="M11 0l318 773h77l313 -773h-708zM142 87h445l-221 539z" />
    <glyph glyph-name="Delta" unicode="&#x2206;" horiz-adv-x="731" 
d="M11 0l318 773h77l313 -773h-708zM142 87h445l-221 539z" />
    <glyph glyph-name="pi" unicode="&#x3c0;" horiz-adv-x="666" 
d="M539 -8c-96 0 -137 41 -137 159v261h-171v-412h-88v412h-117v86h591v-86h-126v-258c0 -66 24 -85 64 -85c19 0 34 3 49 10l18 -72c-20 -8 -48 -15 -83 -15z" />
    <glyph glyph-name="product" unicode="&#x220f;" horiz-adv-x="642" 
d="M86 -178v951h470v-951h-92v864h-286v-864h-92z" />
    <glyph glyph-name="Omega" unicode="&#x3a9;" horiz-adv-x="895" 
d="M558 0v88c54 25 194 119 194 301c0 171 -136 307 -306 307c-169 0 -304 -136 -304 -308c0 -182 140 -276 195 -301v-87h-292v83h156c-72 49 -156 144 -156 306c0 222 180 399 401 399c222 0 402 -177 402 -399c0 -158 -86 -255 -158 -306h160v-83h-292z" />
    <glyph glyph-name="Omega" unicode="&#x2126;" horiz-adv-x="895" 
d="M558 0v88c54 25 194 119 194 301c0 171 -136 307 -306 307c-169 0 -304 -136 -304 -308c0 -182 140 -276 195 -301v-87h-292v83h156c-72 49 -156 144 -156 306c0 222 180 399 401 399c222 0 402 -177 402 -399c0 -158 -86 -255 -158 -306h160v-83h-292z" />
    <glyph glyph-name="summation" unicode="&#x2211;" horiz-adv-x="579" 
d="M544 -178h-504v78l299 400l-292 396v74h487v-82h-373l284 -384l-297 -399h396v-83z" />
    <glyph glyph-name="radical" unicode="&#x221a;" horiz-adv-x="685" 
d="M287 0l-162 388h-99v93h161l99 -242c21 -51 46 -122 46 -122h2s24 70 44 121l216 542h105l-324 -780h-88z" />
    <glyph glyph-name="logicalnot" unicode="&#xac;" horiz-adv-x="557" 
d="M46 229v84h454v-228h-95v144h-359z" />
    <glyph glyph-name="currency" unicode="&#xa4;" horiz-adv-x="582" 
d="M466 61l-59 69c-34 -20 -74 -31 -116 -31s-82 11 -116 31l-58 -69l-61 51l59 70c-34 40 -54 92 -54 149c0 56 20 108 54 148l-59 69l61 51l58 -69c34 20 74 32 116 32s82 -12 116 -32l57 69l61 -52l-57 -68c33 -40 53 -92 53 -148c0 -57 -20 -108 -53 -149l59 -69z
M291 182c85 0 147 64 147 149c0 81 -64 148 -147 148c-82 0 -147 -66 -147 -148c0 -85 64 -149 147 -149z" />
    <glyph glyph-name="IJ" unicode="&#x132;" horiz-adv-x="696" 
d="M346 -13c-87 0 -157 27 -205 79c-43 46 -69 112 -70 199h96c1 -122 67 -187 179 -187c116 0 183 83 183 192v503h96v-509c0 -158 -111 -277 -279 -277zM71 324v449h96v-449h-96z" />
    <glyph glyph-name="mu" unicode="&#xb5;" horiz-adv-x="588" 
d="M430 0v53c-35 -36 -81 -61 -145 -61c-46 0 -91 15 -125 42v-212h-91v676h91v-286c0 -87 67 -137 137 -137c60 0 109 33 133 83v340h91v-498h-91z" />
    <glyph glyph-name="mu" unicode="&#x3bc;" horiz-adv-x="588" 
d="M430 0v53c-35 -36 -81 -61 -145 -61c-46 0 -91 15 -125 42v-212h-91v676h91v-286c0 -87 67 -137 137 -137c60 0 109 33 133 83v340h91v-498h-91z" />
    <glyph glyph-name="Aogonek" unicode="&#x104;" horiz-adv-x="712" 
d="M3 0l316 773h78l312 -773c-78 -21 -114 -46 -114 -82c0 -25 20 -39 55 -39c22 0 39 5 50 10l17 -50c-12 -7 -50 -17 -84 -17c-65 0 -110 34 -110 86c0 51 35 86 78 105l-46 115h-400l-52 -128h-100zM357 620l-167 -407h331z" />
    <glyph glyph-name="Eogonek" unicode="&#x118;" horiz-adv-x="577" 
d="M512 348h-327v-262h346v-86c-76 -19 -113 -44 -113 -81c0 -25 20 -40 54 -40c22 0 39 5 50 10l17 -50c-13 -7 -50 -17 -81 -17c-66 0 -111 32 -111 83c0 44 25 75 59 95h-317v773h437v-87h-341v-251h327v-87z" />
    <glyph glyph-name="Iogonek" unicode="&#x12e;" horiz-adv-x="275" 
d="M112 -178c-68 0 -113 33 -113 85c0 55 41 89 90 107v759h96v-773c-75 -19 -112 -45 -112 -80c0 -26 20 -41 53 -41c22 0 39 5 50 10l17 -50c-12 -7 -50 -17 -81 -17z" />
    <glyph glyph-name="aogonek" unicode="&#x105;" horiz-adv-x="560" 
d="M251 -12c-130 0 -223 67 -223 164c0 98 93 172 229 172c58 0 123 -23 157 -46v38c0 74 -90 105 -153 105c-56 0 -112 -12 -159 -52l-44 69c64 47 133 67 204 67c112 0 240 -57 240 -189v-316c-75 -19 -110 -45 -110 -81c0 -25 19 -40 52 -40c23 0 39 5 50 10l17 -50
c-13 -7 -49 -17 -80 -17c-66 0 -110 31 -110 83c0 54 43 89 93 106v31c-31 -26 -91 -54 -163 -54zM256 63c68 0 122 27 158 59v73c-34 27 -94 55 -153 55c-100 0 -150 -43 -150 -96c0 -52 58 -91 145 -91z" />
    <glyph glyph-name="eogonek" unicode="&#x119;" horiz-adv-x="563" 
d="M295 -9c-166 0 -266 122 -266 262c0 138 98 252 253 252c146 0 250 -102 257 -237c1 -10 1 -22 1 -33h-424c2 -92 75 -163 178 -163c66 0 106 16 156 58l52 -56c-25 -24 -49 -42 -75 -55c-55 -31 -100 -57 -100 -99c0 -26 20 -41 54 -41c22 0 39 5 50 10l17 -50
c-13 -7 -50 -17 -81 -17c-67 0 -111 31 -111 81c0 36 17 64 43 88h-4zM281 427c-95 0 -141 -55 -158 -120h321c-16 67 -74 120 -163 120z" />
    <glyph glyph-name="iogonek" unicode="&#x12f;" horiz-adv-x="230" 
d="M90 -178c-66 0 -111 31 -111 83c0 54 41 88 90 106v487h91v-498c-74 -19 -111 -45 -111 -81c0 -25 20 -40 54 -40c22 0 39 5 50 10l16 -50c-12 -7 -48 -17 -79 -17zM115 632c-32 0 -56 26 -56 57c0 32 24 57 56 57c31 0 57 -25 57 -57c0 -31 -26 -57 -57 -57z" />
    <glyph glyph-name="apostrophe" unicode="&#x2bc;" horiz-adv-x="180" 
d="M26 556l16 228l86 3l-42 -237z" />
    <glyph glyph-name="periodcentered" unicode="&#xb7;" horiz-adv-x="199" 
d="M98 268c-31 0 -56 25 -56 56c0 33 25 58 56 58c32 0 58 -25 58 -58c0 -31 -26 -56 -58 -56z" />
    <glyph glyph-name="periodcentered" unicode="&#x2219;" horiz-adv-x="199" 
d="M98 268c-31 0 -56 25 -56 56c0 33 25 58 56 58c32 0 58 -25 58 -58c0 -31 -26 -56 -58 -56z" />
    <glyph glyph-name="hyphen.case" horiz-adv-x="393" 
d="M46 343v82h301v-82h-301z" />
    <glyph glyph-name="partialdiff" unicode="&#x2202;" horiz-adv-x="593" 
d="M297 -11c-149 0 -264 119 -264 259c0 146 111 265 259 265c22 0 44 -2 64 -7c-59 100 -100 160 -170 274h107c91 -145 146 -230 226 -378c31 -57 41 -97 41 -155c0 -136 -118 -258 -263 -258zM296 75c101 0 172 81 172 177c0 99 -73 174 -172 174s-172 -75 -172 -174
c0 -96 73 -177 172 -177z" />
    <glyph glyph-name="Oslashacute" unicode="&#x1fe;" horiz-adv-x="885" 
d="M97 -16l76 105c-81 74 -132 180 -132 298c0 222 180 401 401 401c72 0 140 -19 198 -52l66 91l64 -43l-67 -93c86 -73 141 -182 141 -304c0 -222 -180 -401 -402 -401c-76 0 -146 21 -207 57l-74 -103zM442 79c170 0 305 137 305 308c0 90 -38 172 -99 228l-358 -496
c45 -25 96 -40 152 -40zM138 387c0 -87 34 -165 90 -221l357 493c-43 23 -92 36 -143 36c-170 0 -304 -137 -304 -308zM392 851v17l93 112h99v-12l-132 -117h-60z" />
    <glyph glyph-name="aringacute" unicode="&#x1fb;" horiz-adv-x="561" 
d="M251 -12c-130 0 -223 67 -223 164c0 98 93 172 229 172c58 0 123 -23 157 -46v38c0 74 -90 105 -153 105c-56 0 -112 -12 -159 -52l-44 69c64 47 133 67 204 67c112 0 240 -57 240 -189v-316h-88v42c-31 -26 -91 -54 -163 -54zM256 63c68 0 122 27 158 59v73
c-34 27 -94 55 -153 55c-100 0 -150 -43 -150 -96c0 -52 58 -91 145 -91zM283 535c-56 0 -101 45 -101 101s45 101 101 101s101 -45 101 -101s-45 -101 -101 -101zM256 764v17l93 112h99v-12l-132 -117h-60zM283 592c25 0 44 20 44 44s-19 45 -44 45c-24 0 -44 -21 -44 -45
s20 -44 44 -44z" />
    <glyph glyph-name="ij" unicode="&#x133;" horiz-adv-x="433" 
d="M318 636c-32 0 -57 25 -57 54s25 53 57 53c30 0 56 -24 56 -53s-25 -54 -56 -54zM69 0v498h91v-498h-91zM191 -184l-1 76c55 2 82 38 82 103v503h91v-498c0 -124 -66 -181 -172 -184zM115 636c-32 0 -57 25 -57 54s25 53 57 53c30 0 56 -24 56 -53s-25 -54 -56 -54z" />
    <glyph glyph-name="oslashacute" unicode="&#x1ff;" horiz-adv-x="585" 
d="M57 -73l73 116c-63 48 -101 123 -101 207c0 141 111 258 263 258c43 0 82 -9 117 -26l82 129l55 -34l-83 -129c58 -48 93 -119 93 -198c0 -140 -108 -259 -264 -259c-39 0 -75 8 -107 21l-74 -117zM120 250c0 -52 22 -100 59 -131l182 288c-21 8 -44 13 -69 13
c-98 0 -172 -73 -172 -170zM292 78c102 0 173 79 173 172c0 49 -19 91 -50 122l-181 -285c18 -6 37 -9 58 -9zM250 576v17l113 142h101v-12l-154 -147h-60z" />
    <glyph glyph-name="uogonek" unicode="&#x173;" 
d="M272 -8c-109 0 -216 77 -216 211l1 295h91v-286c0 -87 66 -137 137 -137c61 0 108 34 132 83v340h91v-498c-74 -19 -111 -45 -111 -81c0 -25 20 -40 54 -40c22 0 38 5 49 10l17 -50c-12 -7 -48 -17 -79 -17c-67 0 -111 31 -111 83c0 54 41 88 90 106v41
c-35 -35 -82 -60 -145 -60z" />
    <glyph glyph-name="Uogonek" unicode="&#x172;" horiz-adv-x="711" 
d="M374 -178c-68 0 -113 33 -113 85c0 37 19 64 45 84c-142 20 -235 135 -235 280v502h96v-495c0 -112 69 -200 188 -200s189 86 189 200v495h96v-502c0 -130 -75 -236 -193 -271c-75 -19 -112 -45 -112 -80c0 -26 20 -41 53 -41c22 0 39 5 50 10l17 -50
c-12 -7 -50 -17 -81 -17z" />
    <glyph glyph-name="eth" unicode="&#xf0;" horiz-adv-x="588" 
d="M432 756l25 -66l-90 -38c53 -79 95 -144 141 -231c39 -73 47 -121 47 -178c0 -136 -117 -254 -262 -254c-149 0 -264 116 -264 263c0 143 111 260 258 260c26 0 52 -3 75 -10c-26 44 -51 80 -75 116l-115 -48l-26 66l100 42c-21 30 -43 63 -68 102h105l44 -68zM292 75
c102 0 173 81 173 177c0 101 -74 176 -173 176s-173 -76 -173 -176c0 -96 73 -177 173 -177z" />
    <glyph glyph-name="approxequal" unicode="&#x2248;" horiz-adv-x="522" 
d="M359 314c-97 0 -129 85 -200 85c-32 0 -59 -24 -64 -73l-62 11c6 68 46 136 127 136c91 0 128 -85 200 -85c35 0 59 23 66 74l63 -12c-5 -70 -47 -136 -130 -136zM359 128c-97 0 -129 85 -200 85c-32 0 -59 -24 -64 -73l-62 11c6 68 46 136 127 136c91 0 128 -85 200 -85
c35 0 59 23 66 74l63 -12c-5 -70 -47 -136 -130 -136z" />
    <glyph glyph-name="commaaccent" unicode="&#xf6c3;" horiz-adv-x="198" 
d="M33 606l74 145l58 -20l-56 -146z" />
    <glyph glyph-name="a.sup" horiz-adv-x="393" 
d="M176 432c-89 0 -156 45 -156 114c0 71 70 119 161 119c36 0 76 -13 100 -27v20c0 17 -4 31 -17 44c-15 15 -45 27 -82 27c-38 0 -75 -9 -108 -34l-35 57c48 34 98 46 146 46c80 0 172 -40 172 -135v-223h-73v27c-21 -17 -60 -35 -108 -35zM181 494c42 0 76 15 100 34v43
c-23 17 -60 33 -96 33c-64 0 -95 -26 -95 -57c0 -29 34 -53 91 -53z" />
    <glyph glyph-name="b.sup" horiz-adv-x="422" 
d="M43 440v532h79v-207c28 20 60 32 97 32c106 0 184 -82 184 -182c0 -98 -78 -181 -182 -181c-38 0 -71 12 -99 32v-26h-79zM216 724c-40 0 -74 -20 -94 -51v-115c19 -32 54 -53 94 -53c61 0 109 50 109 110c0 63 -47 109 -109 109z" />
    <glyph glyph-name="c.sup" horiz-adv-x="333" 
d="M202 434c-101 0 -183 82 -183 183c0 100 82 183 183 183c46 0 89 -17 122 -44l-44 -59c-21 18 -45 28 -75 28c-61 0 -106 -48 -106 -108s46 -109 106 -109c31 0 57 12 75 29l41 -61c-30 -24 -68 -42 -119 -42z" />
    <glyph glyph-name="d.sup" horiz-adv-x="425" 
d="M304 440v29c-29 -22 -64 -35 -103 -35c-105 0 -182 82 -182 182c0 98 78 181 183 181c39 0 74 -12 102 -33v208h78v-532h-78zM206 507c45 0 80 23 98 58v103c-19 35 -56 58 -98 58c-61 0 -108 -50 -108 -110c0 -63 46 -109 108 -109z" />
    <glyph glyph-name="e.sup" horiz-adv-x="398" 
d="M208 433c-119 0 -189 88 -189 186c0 99 70 180 181 180c103 0 179 -73 182 -170c1 -7 1 -15 1 -23h-292c2 -62 52 -107 116 -107c45 0 72 12 104 39l43 -45c-41 -41 -82 -60 -146 -60zM198 734c-59 0 -89 -31 -101 -72h204c-10 40 -46 72 -103 72z" />
    <glyph glyph-name="f.sup" horiz-adv-x="212" 
d="M7 726v68h53v61c0 76 55 117 118 117c40 0 73 -11 94 -30l-35 -53c-13 12 -31 16 -50 16c-31 0 -51 -21 -51 -56v-55h60v-68h-60v-286h-76v286h-53z" />
    <glyph glyph-name="g.sup" horiz-adv-x="426" 
d="M202 439c-109 0 -182 78 -182 178c0 98 77 180 182 180c41 0 76 -13 104 -36v33h77v-330c0 -91 -75 -144 -177 -144c-67 0 -131 20 -174 53l35 55c36 -24 83 -41 138 -41c39 0 62 9 78 23c16 13 23 31 23 56v12c-28 -25 -63 -39 -104 -39zM207 511c45 0 80 24 99 60v94
c-17 37 -55 61 -98 61c-62 0 -110 -49 -110 -108c0 -62 46 -107 109 -107z" />
    <glyph glyph-name="h.sup" horiz-adv-x="401" 
d="M288 440v198c0 53 -43 87 -89 87c-31 0 -57 -17 -77 -43v-242h-79v532h79v-207c21 19 50 33 92 33c77 0 152 -54 152 -151v-207h-78z" />
    <glyph glyph-name="i.sup" horiz-adv-x="164" 
d="M82 865c-25 0 -47 20 -47 45c0 26 22 44 47 44c26 0 47 -18 47 -44c0 -25 -21 -45 -47 -45zM43 440v354h78v-354h-78z" />
    <glyph glyph-name="j.sup" horiz-adv-x="166" 
d="M84 865c-26 0 -47 20 -47 45c0 26 21 44 47 44c25 0 47 -18 47 -44c0 -25 -22 -45 -47 -45zM-10 315v61c36 1 55 25 55 67v351h78v-345c0 -92 -50 -133 -133 -134z" />
    <glyph glyph-name="k.sup" horiz-adv-x="379" 
d="M269 794h95l-138 -140l148 -214h-92l-109 161l-51 -52v-109h-79v532h79v-329z" />
    <glyph glyph-name="l.sup" horiz-adv-x="167" 
d="M43 440v532h79v-532h-79z" />
    <glyph glyph-name="m.sup" horiz-adv-x="648" 
d="M288 440v201c0 51 -43 84 -88 84c-31 0 -58 -17 -78 -43v-242h-79v354h79v-31c21 20 50 35 92 35c48 0 96 -21 125 -59c26 35 68 58 120 58c78 0 154 -52 154 -145v-212h-78v201c0 51 -44 83 -89 83c-32 0 -61 -17 -81 -47c1 -8 2 -16 2 -25v-212h-79z" />
    <glyph glyph-name="n.sup" horiz-adv-x="402" 
d="M288 440v201c0 51 -43 84 -88 84c-31 0 -58 -17 -78 -43v-242h-79v354h79v-31c21 20 50 35 92 35c77 0 153 -53 153 -146v-212h-79z" />
    <glyph glyph-name="o.sup" horiz-adv-x="414" 
d="M207 507c63 0 109 50 109 111c0 63 -47 109 -109 109s-110 -46 -110 -109c0 -61 47 -111 110 -111zM207 433c-113 0 -188 85 -188 185c0 99 79 183 188 183c108 0 188 -84 188 -183s-77 -185 -188 -185z" />
    <glyph glyph-name="p.sup" horiz-adv-x="425" 
d="M224 434c-40 0 -75 11 -103 31v-148h-78v477h78v-33c28 23 61 36 102 36c105 0 183 -82 183 -182c0 -98 -77 -181 -182 -181zM219 724c-44 0 -79 -24 -98 -59v-99c17 -36 54 -61 98 -61c61 0 109 50 109 110c0 63 -46 109 -109 109z" />
    <glyph glyph-name="q.sup" horiz-adv-x="416" 
d="M295 317v144c-28 -17 -60 -27 -94 -27c-105 0 -182 82 -182 182c0 98 78 181 183 181c35 0 67 -10 93 -28v25h78v-477h-78zM206 507c38 0 69 17 89 43v132c-20 27 -53 44 -89 44c-61 0 -108 -50 -108 -110c0 -63 46 -109 108 -109z" />
    <glyph glyph-name="r.sup" horiz-adv-x="307" 
d="M43 440v354h79v-24c18 16 41 26 68 26c67 0 114 -49 114 -113v-13h-71c0 32 -22 56 -56 56c-27 0 -48 -19 -55 -41v-245h-79z" />
    <glyph glyph-name="s.sup" horiz-adv-x="370" 
d="M193 432c-67 0 -123 14 -179 45l38 62c42 -27 91 -42 142 -42c53 0 82 17 82 43c0 17 -11 30 -49 38l-94 18c-77 16 -100 55 -100 100c0 53 44 106 149 106c63 0 115 -17 149 -38l-36 -59c-30 18 -70 33 -115 33c-27 0 -72 -8 -72 -37c0 -18 9 -28 39 -33l87 -16
c63 -12 117 -40 117 -105c0 -74 -73 -115 -158 -115z" />
    <glyph glyph-name="t.sup" horiz-adv-x="210" 
d="M10 726v68h55v105l78 48v-153h56v-68h-56v-286h-78v286h-55z" />
    <glyph glyph-name="u.sup" horiz-adv-x="402" 
d="M183 435c-74 0 -148 52 -148 150v209h79v-204c0 -54 41 -85 86 -85c38 0 67 21 81 52v237h78v-354h-78v32c-24 -22 -56 -37 -98 -37z" />
    <glyph glyph-name="v.sup" horiz-adv-x="361" 
d="M140 440l-143 354h85l99 -252l100 252h83l-145 -354h-79z" />
    <glyph glyph-name="w.sup" horiz-adv-x="583" 
d="M375 440l-86 249l-89 -249h-76l-126 354h81l88 -244l86 244h75l87 -251l93 251h77l-132 -354h-78z" />
    <glyph glyph-name="x.sup" horiz-adv-x="364" 
d="M269 440l-89 120l-87 -120h-92l130 178l-125 176h92l84 -117l86 117h90l-125 -176l130 -178h-94z" />
    <glyph glyph-name="y.sup" horiz-adv-x="371" 
d="M-2 794h88l100 -254l105 254h82l-204 -476h-75l52 125z" />
    <glyph glyph-name="z.sup" horiz-adv-x="346" 
d="M337 509v-69h-331l190 284h-173v70h314l-193 -285h193z" />
    <glyph glyph-name="ordfeminine" unicode="&#xaa;" horiz-adv-x="418" 
d="M185 427c-85 0 -152 43 -152 115c0 69 67 115 157 115c40 0 80 -14 104 -27v21c0 17 -4 32 -17 45c-15 15 -47 27 -84 27c-38 0 -74 -8 -107 -33l-35 56c48 33 98 45 149 45c78 0 168 -39 168 -135v-222h-71v28c-21 -17 -62 -35 -112 -35zM192 487c43 0 78 15 102 34v44
c-24 18 -62 33 -99 33c-62 0 -94 -25 -94 -57c0 -31 38 -54 91 -54z" />
    <glyph glyph-name="ordmasculine" unicode="&#xba;" horiz-adv-x="415" 
d="M208 502c63 0 109 51 109 111c0 63 -47 110 -109 110s-109 -47 -109 -110c0 -60 46 -111 109 -111zM208 428c-111 0 -187 86 -187 185c0 100 78 184 187 184c108 0 186 -84 186 -184c0 -99 -76 -185 -186 -185z" />
    <glyph glyph-name="percent.alt1" horiz-adv-x="960" 
d="M711 65c61 0 105 46 105 105s-47 106 -105 106s-103 -47 -103 -106c0 -57 45 -105 103 -105zM711 -6c-102 0 -178 79 -178 176s77 177 178 177s179 -82 179 -177c0 -98 -77 -176 -179 -176zM247 497c61 0 105 46 105 105s-47 106 -105 106s-103 -47 -103 -106
c0 -57 45 -105 103 -105zM247 426c-102 0 -178 79 -178 176s77 177 178 177s179 -82 179 -177c0 -98 -77 -176 -179 -176zM180 0l505 773h85l-505 -773h-85z" />
    <glyph glyph-name="Ohorn" unicode="&#x1a0;" horiz-adv-x="885" 
d="M442 -14c-221 0 -401 179 -401 401s180 401 401 401c123 0 233 -56 307 -143c31 14 49 40 49 84v51h66v-34c0 -56 -14 -96 -41 -122c-12 -11 -24 -20 -39 -26c38 -61 60 -134 60 -211c0 -222 -180 -401 -402 -401zM442 79c170 0 305 137 305 308s-136 308 -305 308
c-170 0 -304 -137 -304 -308s134 -308 304 -308z" />
    <glyph glyph-name="ohorn" unicode="&#x1a1;" horiz-adv-x="632" 
d="M292 -9c-156 0 -263 119 -263 259c0 141 111 258 263 258c99 0 181 -50 226 -123c31 13 48 39 48 83v51h66v-34c0 -56 -14 -96 -41 -122c-14 -14 -30 -23 -49 -30c9 -26 14 -54 14 -83c0 -140 -108 -259 -264 -259zM292 78c102 0 173 79 173 172c0 97 -74 170 -173 170
c-98 0 -172 -73 -172 -170c0 -94 73 -172 172 -172z" />
    <glyph glyph-name="Uhorn" unicode="&#x1af;" horiz-adv-x="758" 
d="M355 -13c-169 0 -284 123 -284 284v502h96v-495c0 -112 69 -200 188 -200s189 86 189 200v495h96v-139c34 13 53 39 53 85v51h66v-34c0 -56 -14 -96 -41 -122c-21 -20 -46 -33 -78 -39v-304c0 -161 -114 -284 -285 -284z" />
    <glyph glyph-name="uhorn" unicode="&#x1b0;" horiz-adv-x="643" 
d="M506 311l-14 53c55 8 86 34 86 93v51h66v-34c0 -56 -14 -96 -41 -122c-25 -24 -56 -36 -97 -41z" />
    <glyph glyph-name="uacute" unicode="&#xfa;" 
d="M272 -8c-109 0 -216 77 -216 211l1 295h91v-286c0 -87 66 -137 137 -137c61 0 108 34 132 83v340h91v-498h-91v52c-35 -35 -82 -60 -145 -60zM244 576v17l113 142h101v-12l-154 -147h-60z" />
    <glyph glyph-name="ucircumflex" unicode="&#xfb;" 
d="M272 -8c-109 0 -216 77 -216 211l1 295h91v-286c0 -87 66 -137 137 -137c61 0 108 34 132 83v340h91v-498h-91v52c-35 -35 -82 -60 -145 -60zM121 581l135 154h61l135 -154h-80l-86 94l-84 -94h-81z" />
    <glyph glyph-name="udieresis" unicode="&#xfc;" 
d="M272 -8c-109 0 -216 77 -216 211l1 295h91v-286c0 -87 66 -137 137 -137c61 0 108 34 132 83v340h91v-498h-91v52c-35 -35 -82 -60 -145 -60zM397 611c-29 0 -52 22 -52 52c0 29 23 52 52 52s53 -23 53 -52c0 -30 -24 -52 -53 -52zM175 611c-29 0 -52 22 -52 52
c0 29 23 52 52 52s52 -23 52 -52c0 -30 -23 -52 -52 -52z" />
    <glyph glyph-name="ugrave" unicode="&#xf9;" 
d="M272 -8c-109 0 -216 77 -216 211l1 295h91v-286c0 -87 66 -137 137 -137c61 0 108 34 132 83v340h91v-498h-91v52c-35 -35 -82 -60 -145 -60zM266 576l-149 146l-1 13h97l124 -147v-12h-71z" />
    <glyph glyph-name="uhungarumlaut" unicode="&#x171;" 
d="M272 -8c-109 0 -216 77 -216 211l1 295h91v-286c0 -87 66 -137 137 -137c61 0 108 34 132 83v340h91v-498h-91v52c-35 -35 -82 -60 -145 -60zM327 576l102 156h94l-130 -156h-66zM159 576l90 156h93l-118 -156h-65z" />
    <glyph glyph-name="Zdotaccent" unicode="&#x17b;" horiz-adv-x="618" 
d="M27 0v57l438 630h-416v86h542v-63l-435 -624h427v-86h-556zM317 838c-32 0 -56 26 -56 57c0 32 24 57 56 57c31 0 57 -25 57 -57c0 -31 -26 -57 -57 -57z" />
    <glyph glyph-name="Zacute" unicode="&#x179;" horiz-adv-x="618" 
d="M27 0v57l438 630h-416v86h542v-63l-435 -624h427v-86h-556zM275 825v17l93 112h99v-12l-132 -117h-60z" />
    <glyph glyph-name="kcommaaccent" unicode="&#x137;" horiz-adv-x="517" 
d="M387 498h112l-196 -198l211 -300h-107l-166 238l-81 -82v-156h-91v780h91v-512zM234 -196l-57 19l56 147l76 -22z" />
    <glyph glyph-name="estimated" unicode="&#x212e;" horiz-adv-x="816" 
d="M405 -15c-200 0 -355 125 -355 324c0 213 169 326 353 326c218 0 351 -134 358 -335h-566c-8 0 -14 -1 -14 -16v-165c0 -36 89 -108 224 -108c94 0 178 43 226 102h65c-85 -91 -177 -128 -291 -128zM403 609c-112 0 -222 -51 -222 -101v-166c0 -12 4 -16 15 -16h416
c15 0 17 5 17 16v166c0 52 -124 101 -226 101z" />
    <glyph glyph-name="at.case" horiz-adv-x="1028" 
d="M504 169c-126 0 -217 96 -217 212c0 115 94 211 213 211c50 0 92 -19 125 -48l2 53h78v-283c0 -48 28 -71 66 -71c78 0 113 84 113 173c0 186 -159 342 -371 342c-204 0 -369 -166 -369 -369c0 -212 165 -377 369 -377c78 0 152 18 215 57l39 -67
c-75 -45 -162 -66 -254 -66c-246 0 -447 198 -447 453c0 246 201 446 447 446c250 0 449 -188 449 -419c0 -120 -63 -248 -195 -248c-59 0 -99 28 -122 69c-29 -36 -79 -68 -141 -68zM504 250c53 0 97 31 120 78v103c-22 48 -68 82 -120 82c-75 0 -133 -60 -133 -132
c0 -75 56 -131 133 -131z" />
    <glyph glyph-name="perthousand.alt1" horiz-adv-x="1360" 
d="M711 65c61 0 105 46 105 105s-47 106 -105 106s-103 -47 -103 -106c0 -57 45 -105 103 -105zM711 -6c-102 0 -178 79 -178 176s77 177 178 177s179 -82 179 -177c0 -98 -77 -176 -179 -176zM247 497c61 0 105 46 105 105s-47 106 -105 106s-103 -47 -103 -106
c0 -57 45 -105 103 -105zM247 426c-102 0 -178 79 -178 176s77 177 178 177s179 -82 179 -177c0 -98 -77 -176 -179 -176zM180 0l505 773h85l-505 -773h-85zM1121 65c61 0 105 46 105 105s-47 106 -105 106s-103 -47 -103 -106c0 -57 45 -105 103 -105zM1121 -6
c-102 0 -178 79 -178 176s77 177 178 177s179 -82 179 -177c0 -98 -77 -176 -179 -176z" />
    <glyph glyph-name="longs" unicode="&#x17f;" horiz-adv-x="247" 
d="M69 0v612c0 108 74 167 164 167c54 0 99 -16 127 -44l-45 -63c-20 19 -46 25 -75 25c-49 0 -82 -32 -82 -91v-606h-89z" />
    <glyph glyph-name="zero.num" horiz-adv-x="412" 
d="M206 426c75 0 85 65 85 139c0 67 -5 138 -85 138c-77 0 -85 -65 -85 -138c0 -68 8 -139 85 -139zM206 354c-83 0 -142 49 -156 124c-6 28 -7 46 -7 87c0 42 3 62 7 85c13 74 73 125 156 125c84 0 142 -50 156 -125c6 -28 7 -48 7 -85c0 -44 -1 -62 -7 -87
c-15 -75 -73 -124 -156 -124z" />
    <glyph glyph-name="one.num" horiz-adv-x="242" 
d="M111 360v321l-89 -44v74l125 65h39v-416h-75z" />
    <glyph glyph-name="two.num" horiz-adv-x="376" 
d="M38 360v53l185 165c23 20 35 39 35 60c0 36 -25 69 -75 69c-43 0 -74 -33 -74 -79h-73c0 87 63 150 147 150c97 0 152 -63 152 -137c0 -49 -25 -81 -65 -114l-114 -99h180v-68h-298z" />
    <glyph glyph-name="three.num" horiz-adv-x="369" 
d="M181 354c-79 0 -151 50 -149 138h72c0 -42 32 -70 77 -70s72 28 72 61c0 36 -28 59 -76 59h-30v57h23c48 0 76 19 76 55c0 31 -24 56 -66 56c-40 0 -69 -22 -69 -61h-72c0 78 62 129 141 129c81 0 141 -53 141 -118c0 -42 -21 -70 -52 -86c34 -16 60 -49 60 -95
c0 -67 -62 -125 -148 -125z" />
    <glyph glyph-name="four.num" horiz-adv-x="369" 
d="M19 446v56l165 271h81l-161 -262h121v80h70v-80h46v-65h-46v-86h-70v86h-206z" />
    <glyph glyph-name="five.num" horiz-adv-x="391" 
d="M196 354c-80 0 -137 42 -156 106l71 22c11 -37 39 -63 84 -63c49 0 81 35 81 73c0 41 -32 73 -81 73c-32 0 -55 -14 -67 -29h-72v237h277v-67h-204v-96c18 12 43 19 70 19c91 0 152 -56 152 -136c0 -82 -68 -139 -155 -139z" />
    <glyph glyph-name="six.num" horiz-adv-x="375" 
d="M187 354c-90 0 -156 65 -156 141c0 32 10 59 32 96l109 182h89l-85 -139c4 1 7 1 11 1c90 0 156 -61 156 -139c0 -77 -67 -142 -156 -142zM187 422c48 0 80 35 80 74s-33 73 -80 73c-39 0 -80 -27 -80 -73c0 -35 27 -74 80 -74z" />
    <glyph glyph-name="seven.num" horiz-adv-x="320" 
d="M63 360l156 342h-198v71h289v-48l-165 -365h-82z" />
    <glyph glyph-name="eight.num" horiz-adv-x="366" 
d="M183 355c-86 0 -143 58 -143 127c0 38 20 71 52 93c-28 21 -45 51 -45 84c0 66 57 121 136 121c80 0 136 -55 136 -120c0 -34 -17 -65 -45 -86c33 -21 52 -55 52 -92c0 -69 -57 -127 -143 -127zM183 420c46 0 71 29 71 63c0 32 -24 62 -71 62c-46 0 -71 -29 -71 -62
c0 -32 27 -63 71 -63zM183 716c-40 0 -64 -28 -64 -59c0 -28 21 -55 58 -57h6c41 0 65 28 65 58s-23 58 -65 58z" />
    <glyph glyph-name="nine.num" horiz-adv-x="375" 
d="M188 779c90 0 155 -65 155 -142c0 -31 -9 -59 -31 -95l-109 -182h-89l84 138h-10c-90 0 -157 61 -157 139c0 77 67 142 157 142zM188 711c-48 0 -81 -35 -81 -74s34 -73 81 -73c39 0 79 27 79 73c0 35 -26 74 -79 74z" />
    <glyph glyph-name="zero.den" horiz-adv-x="412" 
d="M206 66c75 0 85 65 85 139c0 67 -5 138 -85 138c-77 0 -85 -65 -85 -138c0 -68 8 -139 85 -139zM206 -6c-83 0 -142 49 -156 124c-6 28 -7 46 -7 87c0 42 3 62 7 85c13 74 73 125 156 125c84 0 142 -50 156 -125c6 -28 7 -48 7 -85c0 -44 -1 -62 -7 -87
c-15 -75 -73 -124 -156 -124z" />
    <glyph glyph-name="one.den" horiz-adv-x="242" 
d="M111 0v321l-89 -44v74l125 65h39v-416h-75z" />
    <glyph glyph-name="two.den" horiz-adv-x="376" 
d="M38 0v53l185 165c23 20 35 39 35 60c0 36 -25 69 -75 69c-43 0 -74 -33 -74 -79h-73c0 87 63 150 147 150c97 0 152 -63 152 -137c0 -49 -25 -81 -65 -114l-114 -99h180v-68h-298z" />
    <glyph glyph-name="three.den" horiz-adv-x="369" 
d="M181 -6c-79 0 -151 50 -149 138h72c0 -42 32 -70 77 -70s72 28 72 61c0 36 -28 59 -76 59h-30v57h23c48 0 76 19 76 55c0 31 -24 56 -66 56c-40 0 -69 -22 -69 -61h-72c0 78 62 129 141 129c81 0 141 -53 141 -118c0 -42 -21 -70 -52 -86c34 -16 60 -49 60 -95
c0 -67 -62 -125 -148 -125z" />
    <glyph glyph-name="four.den" horiz-adv-x="369" 
d="M19 86v56l165 271h81l-161 -262h121v80h70v-80h46v-65h-46v-86h-70v86h-206z" />
    <glyph glyph-name="five.den" horiz-adv-x="391" 
d="M196 -6c-80 0 -137 42 -156 106l71 22c11 -37 39 -63 84 -63c49 0 81 35 81 73c0 41 -32 73 -81 73c-32 0 -55 -14 -67 -29h-72v237h277v-67h-204v-96c18 12 43 19 70 19c91 0 152 -56 152 -136c0 -82 -68 -139 -155 -139z" />
    <glyph glyph-name="six.den" horiz-adv-x="375" 
d="M187 -6c-90 0 -156 65 -156 141c0 32 10 59 32 96l109 182h89l-85 -139c4 1 7 1 11 1c90 0 156 -61 156 -139c0 -77 -67 -142 -156 -142zM187 62c48 0 80 35 80 74s-33 73 -80 73c-39 0 -80 -27 -80 -73c0 -35 27 -74 80 -74z" />
    <glyph glyph-name="seven.den" horiz-adv-x="320" 
d="M63 0l156 342h-198v71h289v-48l-165 -365h-82z" />
    <glyph glyph-name="eight.den" horiz-adv-x="366" 
d="M183 -5c-86 0 -143 58 -143 127c0 38 20 71 52 93c-28 21 -45 51 -45 84c0 66 57 121 136 121c80 0 136 -55 136 -120c0 -34 -17 -65 -45 -86c33 -21 52 -55 52 -92c0 -69 -57 -127 -143 -127zM183 60c46 0 71 29 71 63c0 32 -24 62 -71 62c-46 0 -71 -29 -71 -62
c0 -32 27 -63 71 -63zM183 356c-40 0 -64 -28 -64 -59c0 -28 21 -55 58 -57h6c41 0 65 28 65 58s-23 58 -65 58z" />
    <glyph glyph-name="nine.den" horiz-adv-x="375" 
d="M188 419c90 0 155 -65 155 -142c0 -31 -9 -59 -31 -95l-109 -182h-89l84 138h-10c-90 0 -157 61 -157 139c0 77 67 142 157 142zM188 351c-48 0 -81 -35 -81 -74s34 -73 81 -73c39 0 79 27 79 73c0 35 -26 74 -79 74z" />
    <glyph glyph-name="zero.sub" horiz-adv-x="412" 
d="M206 -14c75 0 85 65 85 139c0 67 -5 138 -85 138c-77 0 -85 -65 -85 -138c0 -68 8 -139 85 -139zM206 -86c-83 0 -142 49 -156 124c-6 28 -7 46 -7 87c0 42 3 62 7 85c13 74 73 125 156 125c84 0 142 -50 156 -125c6 -28 7 -48 7 -85c0 -44 -1 -62 -7 -87
c-15 -75 -73 -124 -156 -124z" />
    <glyph glyph-name="one.sub" horiz-adv-x="242" 
d="M111 -80v321l-89 -44v74l125 65h39v-416h-75z" />
    <glyph glyph-name="two.sub" horiz-adv-x="376" 
d="M38 -80v53l185 165c23 20 35 39 35 60c0 36 -25 69 -75 69c-43 0 -74 -33 -74 -79h-73c0 87 63 150 147 150c97 0 152 -63 152 -137c0 -49 -25 -81 -65 -114l-114 -99h180v-68h-298z" />
    <glyph glyph-name="three.sub" horiz-adv-x="369" 
d="M181 -86c-79 0 -151 50 -149 138h72c0 -42 32 -70 77 -70s72 28 72 61c0 36 -28 59 -76 59h-30v57h23c48 0 76 19 76 55c0 31 -24 56 -66 56c-40 0 -69 -22 -69 -61h-72c0 78 62 129 141 129c81 0 141 -53 141 -118c0 -42 -21 -70 -52 -86c34 -16 60 -49 60 -95
c0 -67 -62 -125 -148 -125z" />
    <glyph glyph-name="four.sub" horiz-adv-x="369" 
d="M19 6v56l165 271h81l-161 -262h121v80h70v-80h46v-65h-46v-86h-70v86h-206z" />
    <glyph glyph-name="five.sub" horiz-adv-x="391" 
d="M196 -86c-80 0 -137 42 -156 106l71 22c11 -37 39 -63 84 -63c49 0 81 35 81 73c0 41 -32 73 -81 73c-32 0 -55 -14 -67 -29h-72v237h277v-67h-204v-96c18 12 43 19 70 19c91 0 152 -56 152 -136c0 -82 -68 -139 -155 -139z" />
    <glyph glyph-name="six.sub" horiz-adv-x="375" 
d="M187 -86c-90 0 -156 65 -156 141c0 32 10 59 32 96l109 182h89l-85 -139c4 1 7 1 11 1c90 0 156 -61 156 -139c0 -77 -67 -142 -156 -142zM187 -18c48 0 80 35 80 74s-33 73 -80 73c-39 0 -80 -27 -80 -73c0 -35 27 -74 80 -74z" />
    <glyph glyph-name="seven.sub" horiz-adv-x="320" 
d="M63 -80l156 342h-198v71h289v-48l-165 -365h-82z" />
    <glyph glyph-name="eight.sub" horiz-adv-x="366" 
d="M183 -85c-86 0 -143 58 -143 127c0 38 20 71 52 93c-28 21 -45 51 -45 84c0 66 57 121 136 121c80 0 136 -55 136 -120c0 -34 -17 -65 -45 -86c33 -21 52 -55 52 -92c0 -69 -57 -127 -143 -127zM183 -20c46 0 71 29 71 63c0 32 -24 62 -71 62c-46 0 -71 -29 -71 -62
c0 -32 27 -63 71 -63zM183 276c-40 0 -64 -28 -64 -59c0 -28 21 -55 58 -57h6c41 0 65 28 65 58s-23 58 -65 58z" />
    <glyph glyph-name="nine.sub" horiz-adv-x="375" 
d="M188 339c90 0 155 -65 155 -142c0 -31 -9 -59 -31 -95l-109 -182h-89l84 138h-10c-90 0 -157 61 -157 139c0 77 67 142 157 142zM188 271c-48 0 -81 -35 -81 -74s34 -73 81 -73c39 0 79 27 79 73c0 35 -26 74 -79 74z" />
    <glyph glyph-name="registered.alt" horiz-adv-x="922" 
d="M461 -12c-221 0 -398 178 -398 399c0 220 177 398 398 398c220 0 398 -178 398 -398c0 -221 -178 -399 -398 -399zM461 56c183 0 327 147 327 331c0 183 -144 331 -327 331s-327 -148 -327 -331c0 -184 144 -331 327 -331zM563 166l-133 168h-47v-168h-70v445h177
c82 0 147 -52 147 -137c0 -77 -53 -127 -121 -139l133 -169h-86zM471 549h-88v-155h87c51 0 93 28 93 79c0 48 -39 76 -92 76z" />
    <glyph glyph-name="Ecaron" unicode="&#x11a;" horiz-adv-x="577" 
d="M512 348h-327v-262h346v-86h-442v773h437v-87h-341v-251h327v-87zM282 830l-115 124h81l65 -67l65 67h80l-115 -124h-61z" />
    <glyph glyph-name="Icaron" unicode="&#x1cf;" horiz-adv-x="275" 
d="M89 0v773h96v-773h-96zM107 830l-115 124h81l65 -67l65 67h80l-115 -124h-61z" />
    <glyph glyph-name="f_l.dlig" horiz-adv-x="507" 
d="M15 416v82h77v108c0 119 72 173 174 173c101 0 172 -52 172 -174v-605h-91v598c0 73 -31 100 -83 100c-51 0 -83 -27 -83 -100v-100h88v-82h-88v-416h-89v416h-77z" />
    <glyph glyph-name="thinspace" unicode="&#x2009;" horiz-adv-x="130" 
 />
    <glyph glyph-name="f_f_l.dlig" horiz-adv-x="793" 
d="M15 416v82h82v114c0 108 73 167 163 167c56 0 95 -14 126 -41l-44 -67c-21 18 -44 27 -75 27c-49 0 -82 -33 -82 -92v-108h193v108c0 119 71 173 173 173c101 0 172 -52 172 -174v-605h-90v598c0 73 -32 100 -83 100c-52 0 -84 -27 -84 -100v-100h89v-82h-89v-416h-88
v416h-193v-416h-88v416h-82z" />
    <glyph glyph-name="colon.case" horiz-adv-x="242" 
d="M120 239c30 0 57 -23 57 -53c0 -28 -27 -53 -57 -53c-32 0 -57 25 -57 53c0 30 25 53 57 53zM121 620c31 0 58 -23 58 -53c0 -28 -27 -53 -58 -53s-57 25 -57 53c0 30 26 53 57 53z" />
    </font>
</defs>
</svg>
