<?xml version="1.0" standalone="no"?>
<!DOCTYPE svg PUBLIC "-//W3C//DTD SVG 1.1//EN" "http://www.w3.org/Graphics/SVG/1.1/DTD/svg11.dtd" >
<svg xmlns="http://www.w3.org/2000/svg" xmlns:xlink="http://www.w3.org/1999/xlink" version="1.1">
<metadata>
Created by FontForge 20190801 at Sun Jan 27 18:21:26 2013
 By Jimmy Wärting
Copyright (c) 2013 by Anton Koovit. All rights reserved.
</metadata>
<defs>
<font id="U8-Bold" horiz-adv-x="568" >
  <font-face 
    font-family="U8"
    font-weight="700"
    font-stretch="normal"
    units-per-em="1000"
    panose-1="2 11 10 3 3 2 0 2 2 4"
    ascent="820"
    descent="-180"
    x-height="511"
    cap-height="773"
    bbox="-179 -226 1315 1166"
    underline-thickness="50"
    underline-position="-100"
    stemh="116"
    stemv="96"
    unicode-range="U+000D-FB04"
  />
<missing-glyph horiz-adv-x="500" 
 />
    <glyph glyph-name="fi" unicode="fi" horiz-adv-x="559" 
d="M9 395v116h74v93c0 111 82 176 182 176c32 0 57 -5 77 -13l-20 -110c-12 4 -26 7 -43 7c-37 0 -67 -26 -67 -73v-80h83v-116h-83v-395h-129v395h-74zM366 0v511h135v-511h-135zM432 611c-43 0 -75 35 -75 77c0 44 32 77 75 77s78 -33 78 -77c0 -42 -35 -77 -78 -77z" />
    <glyph glyph-name="fl" unicode="fl" horiz-adv-x="553" 
d="M361 0v591c0 50 -33 73 -74 73c-42 0 -75 -26 -75 -73v-80h83v-116h-83v-395h-129v395h-74v116h74v93c0 114 84 176 182 176c43 0 73 -10 96 -25v25h134v-780h-134z" />
    <glyph glyph-name="f_f_i" unicode="ffi" horiz-adv-x="855" 
d="M9 395v116h76v93c0 114 86 176 182 176c63 0 105 -18 133 -43l-57 -95c-18 14 -35 22 -62 22c-37 0 -67 -26 -67 -73v-80h168v93c0 111 82 176 182 176c30 0 58 -5 78 -13l-21 -110c-12 4 -26 7 -43 7c-37 0 -66 -26 -66 -73v-80h83v-116h-83v-395h-130v395h-168v-395
h-129v395h-76zM665 0v511h135v-511h-135zM732 611c-43 0 -75 35 -75 77c0 44 32 77 75 77s78 -33 78 -77c0 -42 -35 -77 -78 -77z" />
    <glyph glyph-name="f_f" unicode="ff" horiz-adv-x="596" 
d="M9 395v116h76v93c0 114 86 176 182 176c63 0 105 -18 133 -43l-57 -95c-18 14 -35 22 -62 22c-37 0 -67 -26 -67 -73v-80h164v93c0 114 86 176 182 176c63 0 105 -18 133 -43l-57 -95c-18 14 -35 22 -62 22c-37 0 -67 -26 -67 -73v-80h83v-116h-83v-395h-129v395h-164
v-395h-129v395h-76z" />
    <glyph glyph-name="f_f_l" unicode="ffl" horiz-adv-x="850" 
d="M9 395v116h76v93c0 114 86 176 182 176c63 0 105 -18 133 -43l-57 -95c-18 14 -35 22 -62 22c-37 0 -67 -26 -67 -73v-80h166v93c0 114 84 176 182 176c43 0 73 -10 96 -25v25h134v-780h-134v591c0 50 -34 73 -75 73s-74 -26 -74 -73v-80h83v-116h-83v-395h-129v395h-166
v-395h-129v395h-76z" />
    <glyph glyph-name="f_j" unicode="fj" horiz-adv-x="559" 
d="M9 395v116h74v93c0 111 82 176 182 176c32 0 57 -5 77 -13l-20 -110c-12 4 -26 7 -43 7c-37 0 -67 -26 -67 -73v-80h83v-116h-83v-395h-129v395h-74zM294 -183v103c48 1 72 36 72 95v496h135v-485c0 -147 -76 -207 -207 -209zM432 611c-43 0 -75 35 -75 77
c0 44 32 77 75 77s78 -33 78 -77c0 -42 -35 -77 -78 -77z" />
    <glyph glyph-name="f_b" unicode="fb" horiz-adv-x="907" 
d="M361 0v598c-3 45 -35 66 -74 66c-42 0 -75 -26 -75 -73v-80h83v-116h-83v-395h-129v395h-74v116h74v93c0 114 84 176 182 176c43 0 73 -10 96 -25v25h134v-299c36 22 81 37 128 37c151 0 262 -120 262 -263c0 -142 -110 -263 -262 -263c-48 0 -92 15 -128 38v-30h-134z
M614 392c-50 0 -94 -25 -119 -65v-140c24 -42 68 -69 118 -69c78 0 139 60 139 137c0 78 -60 137 -138 137z" />
    <glyph glyph-name=".notdef" horiz-adv-x="500" 
 />
    <glyph glyph-name="b" unicode="b" horiz-adv-x="604" 
d="M58 0v780h134v-299c36 22 81 37 128 37c151 0 262 -120 262 -263c0 -142 -110 -263 -262 -263c-48 0 -92 15 -128 38v-30h-134zM311 392c-50 0 -94 -25 -119 -65v-140c24 -42 68 -69 118 -69c78 0 139 60 139 137c0 78 -60 137 -138 137z" />
    <glyph glyph-name="c" unicode="c" horiz-adv-x="475" 
d="M287 -10c-146 0 -265 119 -265 266c0 146 119 266 265 266c69 0 133 -28 182 -69l-73 -103c-29 27 -60 41 -102 41c-79 0 -136 -62 -136 -137s60 -133 136 -133c43 0 79 16 103 42l68 -107c-43 -36 -99 -66 -178 -66z" />
    <glyph glyph-name="d" unicode="d" horiz-adv-x="608" 
d="M415 0v32c-37 -24 -82 -40 -131 -40c-153 0 -262 120 -262 263s111 263 262 263c50 0 95 -17 131 -42v304h134v-780h-134zM294 118c52 0 97 29 121 73v127c-25 46 -70 74 -122 74c-78 0 -138 -59 -138 -137c0 -77 61 -137 139 -137z" />
    <glyph glyph-name="e" unicode="e" 
d="M295 -10c-173 0 -273 129 -273 269c0 144 103 263 264 263c149 0 262 -112 265 -259c1 -12 1 -25 0 -38h-403c4 -72 73 -119 147 -119c61 0 97 17 139 52l73 -77c-59 -62 -118 -91 -212 -91zM284 410c-81 0 -115 -41 -129 -90h258c-13 48 -59 90 -129 90z" />
    <glyph glyph-name="f" unicode="f" horiz-adv-x="303" 
d="M9 395v116h76v93c0 114 86 176 182 176c63 0 105 -18 133 -43l-57 -95c-18 14 -35 22 -62 22c-37 0 -67 -26 -67 -73v-80h83v-116h-83v-395h-129v395h-76z" />
    <glyph glyph-name="g" unicode="g" horiz-adv-x="609" 
d="M284 -4c-153 0 -262 114 -262 261c0 141 110 260 262 260c50 0 96 -13 135 -34v28h132v-482c0 -133 -115 -205 -259 -205c-94 0 -184 28 -243 74l55 95c49 -33 116 -54 188 -54c93 0 122 37 126 97c-40 -25 -86 -40 -134 -40zM293 123c57 0 102 29 126 77v114
c-23 48 -71 80 -125 80c-78 0 -139 -62 -139 -137c0 -79 60 -134 138 -134z" />
    <glyph glyph-name="h" unicode="h" horiz-adv-x="583" 
d="M399 0v282c0 66 -50 106 -108 106c-38 0 -71 -18 -97 -51v-337h-134v780h134v-304c28 25 63 41 119 41c115 0 220 -75 220 -217v-300h-134z" />
    <glyph glyph-name="i" unicode="i" horiz-adv-x="251" 
d="M58 0v511h135v-511h-135zM125 611c-43 0 -75 35 -75 77c0 44 32 77 75 77s78 -33 78 -77c0 -42 -35 -77 -78 -77z" />
    <glyph glyph-name="j" unicode="j" horiz-adv-x="251" 
d="M125 611c-43 0 -75 35 -75 77c0 44 32 77 75 77s78 -33 78 -77c0 -42 -35 -77 -78 -77zM-14 -183v103c48 1 72 36 72 95v496h135v-485c0 -147 -76 -207 -207 -209z" />
    <glyph glyph-name="k" unicode="k" horiz-adv-x="554" 
d="M387 511h159l-195 -207l207 -304h-154l-142 210l-70 -75v-135h-134v780h134v-480z" />
    <glyph glyph-name="l" unicode="l" horiz-adv-x="250" 
d="M58 0v780h134v-780h-134z" />
    <glyph glyph-name="m" unicode="m" horiz-adv-x="910" 
d="M392 0v285c0 65 -42 103 -103 103c-37 0 -70 -18 -96 -51v-337h-135v511h135v-34c28 24 63 40 119 40c66 0 128 -23 169 -69c40 42 96 69 164 69c114 0 215 -76 215 -217v-300h-134v282c0 65 -46 106 -104 106c-38 0 -70 -18 -96 -52v-336h-134z" />
    <glyph glyph-name="n" unicode="n" horiz-adv-x="581" 
d="M397 0v282c0 66 -50 106 -108 106c-38 0 -70 -18 -96 -50v-338h-135v511h135v-34c27 24 63 40 118 40c115 0 220 -75 220 -217v-300h-134z" />
    <glyph glyph-name="o" unicode="o" horiz-adv-x="590" 
d="M295 118c80 0 139 63 139 139c0 80 -61 138 -139 138s-139 -58 -139 -138c0 -76 60 -139 139 -139zM295 -10c-163 0 -273 123 -273 267s115 266 273 266s273 -122 273 -266c0 -143 -110 -267 -273 -267z" />
    <glyph glyph-name="p" unicode="p" horiz-adv-x="609" 
d="M325 -8c-51 0 -96 16 -133 41v-212h-133v690h133v-33c37 24 84 40 133 40c151 0 262 -120 262 -263c0 -142 -110 -263 -262 -263zM316 392c-54 0 -101 -29 -124 -74v-122c23 -47 69 -78 123 -78c78 0 139 60 139 137c0 78 -60 137 -138 137z" />
    <glyph glyph-name="q" unicode="q" horiz-adv-x="598" 
d="M407 -179v206c-35 -21 -77 -35 -123 -35c-153 0 -262 120 -262 263s111 263 262 263c46 0 88 -14 123 -36v29h133v-690h-133zM294 118c46 0 88 23 113 60v153c-26 38 -68 61 -114 61c-78 0 -138 -59 -138 -137c0 -77 61 -137 139 -137z" />
    <glyph glyph-name="r" unicode="r" horiz-adv-x="455" 
d="M58 0v511h135v-30c26 21 58 33 94 33c97 0 166 -72 166 -172v-23h-119c0 43 -29 74 -72 74c-34 0 -61 -21 -69 -53v-340h-135z" />
    <glyph glyph-name="s" unicode="s" horiz-adv-x="520" 
d="M270 -13c-97 0 -175 20 -259 68l65 106c58 -38 127 -61 198 -61c67 0 101 17 101 46c0 19 -16 33 -50 40l-140 30c-103 22 -150 71 -150 151c0 85 72 156 221 156c90 0 170 -26 225 -60l-61 -102c-45 24 -105 50 -168 50c-57 0 -90 -14 -90 -40c0 -17 12 -28 45 -34
l118 -22c128 -25 177 -82 177 -159c0 -111 -111 -169 -232 -169z" />
    <glyph glyph-name="t" unicode="t" horiz-adv-x="305" 
d="M9 395v116h76v141l133 86v-227h78v-116h-78v-395h-133v395h-76z" />
    <glyph glyph-name="u" unicode="u" horiz-adv-x="581" 
d="M266 -8c-110 0 -216 75 -216 218v301h134v-290c0 -66 51 -106 108 -106c43 0 78 23 96 60v336h135v-511h-135v36c-31 -27 -68 -44 -122 -44z" />
    <glyph glyph-name="v" unicode="v" horiz-adv-x="518" 
d="M191 0l-203 511h143l130 -345l129 345h140l-205 -511h-134z" />
    <glyph glyph-name="w" unicode="w" horiz-adv-x="848" 
d="M170 0l-178 511h138l112 -335l115 335h127l117 -350l124 350h131l-190 -511h-134l-114 333l-120 -333h-128z" />
    <glyph glyph-name="x" unicode="x" horiz-adv-x="517" 
d="M367 0l-109 156l-110 -156h-157l181 256l-178 255h155l109 -156l112 156h154l-180 -255l181 -256h-158z" />
    <glyph glyph-name="y" unicode="y" horiz-adv-x="535" 
d="M-12 511h148l134 -341l138 341h140l-294 -690h-125l74 184z" />
    <glyph glyph-name="z" unicode="z" horiz-adv-x="512" 
d="M2 0l261 392h-229v119h467l-266 -392h262v-119h-495z" />
    <glyph glyph-name="space" unicode=" " horiz-adv-x="278" 
 />
    <glyph glyph-name="A" unicode="A" horiz-adv-x="719" 
d="M-4 0l298 773h131l299 -773h-151l-43 111h-342l-42 -111h-150zM359 555l-123 -319h246z" />
    <glyph glyph-name="B" unicode="B" horiz-adv-x="633" 
d="M78 0v773h258c137 0 239 -90 239 -221c0 -73 -35 -126 -89 -161c66 -32 112 -94 112 -168c0 -136 -103 -223 -238 -223h-282zM342 334h-125v-211h122c74 0 119 44 119 109c0 57 -39 102 -116 102zM320 649h-103v-204h115c62 0 106 43 106 108c0 56 -46 96 -118 96z" />
    <glyph glyph-name="C" unicode="C" horiz-adv-x="740" 
d="M439 -13c-222 0 -401 179 -401 400c0 222 179 401 401 401c112 0 213 -46 286 -120l-102 -99c-46 49 -112 80 -184 80c-144 0 -257 -117 -257 -262c0 -144 113 -261 257 -261c73 0 140 32 186 81l102 -98c-73 -75 -175 -122 -288 -122z" />
    <glyph glyph-name="D" unicode="D" horiz-adv-x="728" 
d="M78 0v773h222c214 0 390 -169 390 -384c0 -235 -182 -389 -398 -389h-214zM305 641h-88v-509h89c136 0 239 112 239 257s-107 252 -240 252z" />
    <glyph glyph-name="E" unicode="E" horiz-adv-x="574" 
d="M509 327h-286v-200h314v-127h-459v773h450v-127h-305v-192h286v-127z" />
    <glyph glyph-name="F" unicode="F" horiz-adv-x="512" 
d="M78 0v773h421v-127h-276v-213h246v-128h-246v-305h-145z" />
    <glyph glyph-name="G" unicode="G" horiz-adv-x="870" 
d="M564 325v127h277l-1 -66c-2 -232 -187 -398 -400 -398c-225 0 -402 180 -402 401s177 401 402 401c114 0 217 -47 290 -124l-99 -98c-49 53 -115 84 -191 84c-149 0 -257 -117 -257 -263s109 -263 257 -263c126 0 227 79 255 199h-131z" />
    <glyph glyph-name="H" unicode="H" horiz-adv-x="777" 
d="M554 0v323h-331v-323h-145v773h145v-315h331v315h145v-773h-145z" />
    <glyph glyph-name="I" unicode="I" horiz-adv-x="301" 
d="M78 0v773h145v-773h-145z" />
    <glyph glyph-name="J" unicode="J" horiz-adv-x="570" 
d="M238 -12c-123 0 -218 72 -252 174l123 65c18 -61 66 -103 129 -103c83 0 126 62 126 145v504h144v-507c0 -184 -124 -278 -270 -278z" />
    <glyph glyph-name="K" unicode="K" horiz-adv-x="714" 
d="M78 0v773h139v-339l295 339h179l-273 -308l279 -465h-167l-211 353l-102 -116v-237h-139z" />
    <glyph glyph-name="L" unicode="L" horiz-adv-x="518" 
d="M78 0v773h145v-638h284v-135h-429z" />
    <glyph glyph-name="M" unicode="M" horiz-adv-x="920" 
d="M78 0v773h140l239 -381l242 381h143v-773h-140v529h-5l-240 -371l-236 368h-3v-526h-140z" />
    <glyph glyph-name="N" unicode="N" horiz-adv-x="783" 
d="M78 0v773h102l380 -485v485h144v-773h-96l-385 492v-492h-145z" />
    <glyph glyph-name="O" unicode="O" horiz-adv-x="879" 
d="M439 126c143 0 257 117 257 261c0 145 -114 262 -257 262s-256 -117 -256 -262c0 -144 113 -261 256 -261zM439 -13c-221 0 -401 179 -401 400c0 222 180 401 401 401c222 0 403 -179 403 -401c0 -221 -181 -400 -403 -400z" />
    <glyph glyph-name="P" unicode="P" horiz-adv-x="639" 
d="M78 0v773h279c153 0 270 -110 270 -268c0 -151 -121 -263 -273 -263h-131v-242h-145zM343 638h-120v-263h122c80 0 134 50 134 130c0 76 -55 133 -136 133z" />
    <glyph glyph-name="Q" unicode="Q" horiz-adv-x="879" 
d="M439 -13c-221 0 -401 179 -401 400c0 222 180 401 401 401c222 0 403 -179 403 -401c0 -90 -30 -172 -80 -239l97 -96l-87 -87l-98 97c-66 -47 -147 -75 -235 -75zM439 126c49 0 95 14 134 38l-108 108l87 86l107 -107c23 40 37 86 37 136c0 145 -114 262 -257 262
s-256 -117 -256 -262c0 -144 113 -261 256 -261z" />
    <glyph glyph-name="R" unicode="R" horiz-adv-x="669" 
d="M78 0v773h303c147 0 261 -99 261 -251c0 -126 -84 -217 -200 -241l208 -281h-163l-201 277h-63v-277h-145zM358 649h-135v-257h135c83 0 138 50 138 130c0 69 -55 127 -138 127z" />
    <glyph glyph-name="S" unicode="S" horiz-adv-x="580" 
d="M288 -10c-99 0 -201 43 -272 115l92 110c45 -53 118 -96 187 -96s115 40 115 93c0 43 -22 81 -86 107l-86 35c-112 46 -170 106 -170 211c0 113 95 217 231 217c101 0 175 -32 234 -89l-83 -108c-42 46 -90 67 -151 67c-57 0 -95 -32 -95 -79c0 -39 25 -64 85 -89l90 -36
c119 -48 172 -128 172 -224c0 -136 -100 -234 -263 -234z" />
    <glyph glyph-name="T" unicode="T" horiz-adv-x="653" 
d="M8 638v135h638v-135h-247v-638h-144v638h-247z" />
    <glyph glyph-name="U" unicode="U" horiz-adv-x="713" 
d="M356 -12c-172 0 -294 123 -294 286v499h144v-483c0 -93 53 -167 150 -167s151 72 151 165v485h144v-499c0 -163 -121 -286 -295 -286z" />
    <glyph glyph-name="V" unicode="V" horiz-adv-x="714" 
d="M292 0l-296 773h151l212 -555l210 555h149l-295 -773h-131z" />
    <glyph glyph-name="W" unicode="W" horiz-adv-x="1126" 
d="M248 0l-247 773h147l170 -536l169 536h152l166 -549l181 549h139l-258 -773h-129l-175 568l-185 -568h-130z" />
    <glyph glyph-name="X" unicode="X" horiz-adv-x="648" 
d="M5 773h162l158 -257l157 257h161l-234 -383l241 -390h-166l-161 265l-161 -265h-164l241 391z" />
    <glyph glyph-name="Y" unicode="Y" horiz-adv-x="630" 
d="M489 773h156l-256 -459v-314h-145v309l-259 464h161l173 -319z" />
    <glyph glyph-name="Z" unicode="Z" horiz-adv-x="613" 
d="M29 0v86l376 561h-363v126h542v-96l-369 -551h365v-126h-551z" />
    <glyph glyph-name="germandbls" unicode="&#xdf;" horiz-adv-x="581" 
d="M303 112c60 0 108 52 108 119c0 64 -47 115 -108 116h-31l-1 120h35c49 2 82 51 82 98c0 59 -34 103 -99 103c-59 0 -96 -51 -96 -112v-556h-129v579c0 98 81 204 225 204c140 0 224 -88 224 -202c0 -70 -32 -121 -72 -149c69 -40 111 -112 111 -197
c0 -157 -107 -242 -247 -242c-16 0 -28 3 -43 5l11 118c10 -3 19 -4 30 -4z" />
    <glyph glyph-name="dotlessi" unicode="&#x131;" horiz-adv-x="250" 
d="M58 0v511h134v-511h-134z" />
    <glyph glyph-name="quotedbl" unicode="&#x22;" horiz-adv-x="331" 
d="M51 537l-15 243h103l-2 -243h-86zM194 537l-2 243h104l-16 -243h-86z" />
    <glyph glyph-name="quotesingle" unicode="'" horiz-adv-x="189" 
d="M52 537l-16 243h117l-18 -243h-83z" />
    <glyph glyph-name="quotedblbase" unicode="&#x201e;" horiz-adv-x="497" 
d="M117 -174l-81 30l90 262l120 -43zM332 -174l-81 30l90 262l120 -43z" />
    <glyph glyph-name="quotesinglbase" unicode="&#x201a;" horiz-adv-x="282" 
d="M117 -174l-81 30l90 262l120 -43z" />
    <glyph glyph-name="comma" unicode="," horiz-adv-x="230" 
d="M-9 -141l89 261l121 -42l-129 -250z" />
    <glyph glyph-name="hyphen" unicode="-" horiz-adv-x="391" 
d="M43 225v118h306v-118h-306z" />
    <glyph glyph-name="hyphen" unicode="&#xad;" horiz-adv-x="391" 
d="M43 225v118h306v-118h-306z" />
    <glyph glyph-name="endash" unicode="&#x2013;" horiz-adv-x="636" 
d="M50 248v117h536v-117h-536z" />
    <glyph glyph-name="emdash" unicode="&#x2014;" horiz-adv-x="972" 
d="M36 248v117h900v-117h-900z" />
    <glyph glyph-name="zero" unicode="0" horiz-adv-x="637" 
d="M318 -9c-143 0 -260 110 -260 261v277c0 145 116 257 260 257c145 0 261 -113 261 -256v-280c0 -149 -118 -259 -261 -259zM318 120c74 0 128 54 128 130v277c0 76 -55 131 -128 131s-127 -56 -127 -131v-277c0 -77 55 -130 127 -130z" />
    <glyph glyph-name="one" unicode="1" horiz-adv-x="361" 
d="M157 0v601l-132 -67v130l209 112h54v-776h-131z" />
    <glyph glyph-name="two" unicode="2" horiz-adv-x="538" 
d="M32 0v88l296 393c24 31 36 59 36 89c0 56 -42 99 -102 99c-63 0 -102 -51 -103 -124h-127c0 131 90 241 230 241c136 0 232 -93 232 -216c0 -66 -34 -123 -82 -182l-212 -269h297v-119h-465z" />
    <glyph glyph-name="three" unicode="3" horiz-adv-x="536" 
d="M256 -10c-136 0 -235 102 -236 229h121c1 -61 54 -108 112 -108c65 0 115 51 115 114c0 67 -50 114 -114 114h-57l1 121h56c64 0 111 50 111 108c0 61 -47 107 -110 107s-108 -50 -108 -111h-122c0 123 99 223 231 223c137 0 237 -97 237 -219c0 -76 -46 -143 -104 -170
c61 -27 107 -92 107 -175c0 -128 -109 -233 -240 -233z" />
    <glyph glyph-name="four" unicode="4" horiz-adv-x="554" 
d="M21 168v96l269 509h135l-253 -488h150v131h121v-131h91v-117h-91v-168h-121v168h-301z" />
    <glyph glyph-name="five" unicode="5" horiz-adv-x="572" 
d="M283 -10c-120 0 -215 71 -248 173l120 48c15 -53 65 -95 128 -95c76 0 131 58 131 131c0 78 -63 130 -131 130c-46 0 -77 -22 -92 -38h-129v434h441v-125h-313v-177c26 13 58 24 93 24c162 0 261 -107 261 -248s-116 -257 -261 -257z" />
    <glyph glyph-name="six" unicode="6" horiz-adv-x="573" 
d="M297 -10c-135 0 -239 106 -239 235v315c0 148 107 246 239 246c126 0 232 -87 232 -228h-123c0 64 -45 110 -110 110c-66 0 -117 -49 -117 -121v-138c31 32 72 52 121 52c138 0 237 -104 237 -236c0 -129 -105 -235 -240 -235zM297 106c65 0 116 55 116 119
c0 65 -51 118 -116 118c-58 0 -115 -46 -115 -118c0 -64 51 -119 115 -119z" />
    <glyph glyph-name="seven" unicode="7" horiz-adv-x="481" 
d="M64 3l255 644h-302v126h456v-81l-277 -695z" />
    <glyph glyph-name="eight" unicode="8" horiz-adv-x="558" 
d="M279 -10c-136 0 -248 104 -248 241c0 79 43 147 105 188c-47 38 -78 94 -78 159c0 119 102 208 221 208c116 0 220 -90 220 -208c0 -65 -32 -121 -79 -158c63 -42 106 -110 106 -189c0 -137 -110 -241 -247 -241zM279 112c66 0 116 54 116 119c0 67 -51 117 -116 117
s-116 -50 -116 -117c0 -65 50 -119 116 -119zM279 671c-58 0 -98 -43 -98 -99s40 -100 98 -100c55 0 98 44 98 100s-43 99 -98 99z" />
    <glyph glyph-name="nine" unicode="9" horiz-adv-x="529" 
d="M260 321c-126 0 -234 99 -234 232c0 131 116 234 240 234c129 0 239 -105 239 -232c0 -42 -9 -76 -27 -111c-77 -151 -156 -294 -233 -444h-138c56 109 115 215 172 322c-7 -1 -13 -1 -19 -1zM265 436c68 0 117 53 117 119s-52 116 -116 116c-60 0 -117 -48 -117 -118
c0 -65 54 -117 116 -117z" />
    <glyph glyph-name="question" unicode="?" horiz-adv-x="552" 
d="M247 -13c-43 0 -76 35 -76 77c0 44 33 78 76 78s78 -34 78 -78c0 -42 -35 -77 -78 -77zM184 214v26c0 85 25 129 87 164l54 33c43 28 63 60 63 101c0 56 -37 107 -108 107c-74 0 -114 -55 -115 -125h-122c1 145 97 241 237 241c150 0 237 -100 237 -217
c0 -66 -28 -132 -109 -183l-58 -37c-32 -17 -43 -35 -43 -80v-30h-123z" />
    <glyph glyph-name="exclam" unicode="!" horiz-adv-x="305" 
d="M93 214l-13 538h146l-13 -538h-120zM151 -13c-43 0 -76 35 -76 77c0 44 33 78 76 78s78 -34 78 -78c0 -42 -35 -77 -78 -77z" />
    <glyph glyph-name="ae" unicode="&#xe6;" horiz-adv-x="925" 
d="M243 -12c-122 0 -222 63 -222 170c0 108 108 177 229 177c43 0 94 -15 129 -34v23c0 52 -71 76 -124 76c-50 0 -110 -13 -154 -52l-57 99c75 52 145 72 214 72c72 0 148 -23 197 -71c46 45 110 74 188 74c149 0 262 -112 265 -259c1 -12 1 -25 0 -38h-403
c4 -72 73 -119 147 -119c61 0 97 17 139 52l73 -77c-59 -62 -118 -91 -212 -91c-85 0 -153 30 -199 78c-65 -58 -132 -80 -210 -80zM253 95c57 0 109 22 145 58c-4 10 -7 21 -10 32c-29 22 -81 46 -129 46c-85 0 -122 -34 -122 -71c0 -34 39 -65 116 -65zM641 410
c-81 0 -115 -41 -129 -90h258c-13 48 -59 90 -129 90z" />
    <glyph glyph-name="colon" unicode=":" horiz-adv-x="266" 
d="M132 129c41 0 78 -31 78 -71c0 -38 -37 -71 -78 -71c-42 0 -76 33 -76 71c0 40 34 71 76 71zM132 510c41 0 78 -31 78 -71c0 -38 -37 -71 -78 -71c-42 0 -76 33 -76 71c0 40 34 71 76 71z" />
    <glyph glyph-name="acute" unicode="&#xb4;" horiz-adv-x="334" 
d="M47 578v17l106 142h134v-12l-150 -147h-90z" />
    <glyph glyph-name="circumflex" unicode="&#x2c6;" horiz-adv-x="446" 
d="M43 580l134 157h92l134 -157h-103l-77 85l-77 -85h-103z" />
    <glyph glyph-name="macron" unicode="&#xaf;" horiz-adv-x="410" 
d="M46 605v95h319v-95h-319z" />
    <glyph glyph-name="macron" unicode="&#x2c9;" horiz-adv-x="410" 
d="M46 605v95h319v-95h-319z" />
    <glyph glyph-name="breve" unicode="&#x2d8;" horiz-adv-x="471" 
d="M236 584c-103 0 -167 56 -172 153h93c2 -41 30 -70 79 -70c48 0 75 28 78 70h93c-8 -102 -68 -153 -171 -153z" />
    <glyph glyph-name="dotaccent" unicode="&#x2d9;" horiz-adv-x="205" 
d="M101 611c-43 0 -75 35 -75 77c0 44 32 77 75 77s78 -33 78 -77c0 -42 -35 -77 -78 -77z" />
    <glyph glyph-name="ring" unicode="&#x2da;" horiz-adv-x="339" 
d="M170 633c22 0 40 18 40 41c0 22 -18 41 -40 41c-23 0 -41 -19 -41 -41c0 -23 18 -41 41 -41zM170 563c-63 0 -112 49 -112 111s49 111 112 111c62 0 111 -49 111 -111s-49 -111 -111 -111z" />
    <glyph glyph-name="cedilla" unicode="&#xb8;" horiz-adv-x="349" 
d="M125 -211v72c9 -2 16 -3 23 -3c29 0 52 10 52 36c0 25 -21 39 -46 39c-2 0 -4 0 -9 -1v84h84v-47c37 -9 61 -42 61 -81c0 -62 -46 -101 -134 -101c-10 0 -19 1 -31 2z" />
    <glyph glyph-name="hungarumlaut" unicode="&#x2dd;" horiz-adv-x="470" 
d="M40 578l90 156h112l-122 -156h-80zM215 578l102 156h113l-134 -156h-81z" />
    <glyph glyph-name="ogonek" unicode="&#x2db;" horiz-adv-x="281" 
d="M158 -179c-71 0 -130 27 -130 92c0 85 90 116 169 121l43 -34c-81 -20 -112 -38 -112 -69c0 -21 19 -34 47 -34c24 0 41 5 53 10l21 -67c-14 -8 -54 -19 -91 -19z" />
    <glyph glyph-name="caron" unicode="&#x2c7;" horiz-adv-x="446" 
d="M177 580l-134 157h103l77 -85l77 85h103l-134 -157h-92z" />
    <glyph glyph-name="grave" unicode="`" horiz-adv-x="322" 
d="M188 578l-148 146v13h132l110 -145v-14h-94z" />
    <glyph glyph-name="dieresis" unicode="&#xa8;" horiz-adv-x="429" 
d="M327 592c-39 0 -70 30 -70 69s31 70 70 70s70 -31 70 -70s-31 -69 -70 -69zM102 592c-39 0 -70 30 -70 69s31 70 70 70c38 0 69 -31 69 -70s-31 -69 -69 -69z" />
    <glyph glyph-name="ampersand" unicode="&#x26;" horiz-adv-x="670" 
d="M277 -9c-130 0 -229 96 -229 224c0 92 48 150 124 200l-13 15c-40 42 -67 88 -67 157c0 107 89 195 203 195c110 0 201 -86 201 -194c0 -98 -67 -157 -141 -200l107 -110c13 36 22 74 27 109l118 -3c-6 -62 -24 -133 -55 -197l122 -125l-88 -85l-102 107
c-54 -60 -123 -93 -207 -93zM280 111c55 0 95 26 123 59l-150 160c-48 -32 -80 -67 -80 -113c0 -59 43 -106 107 -106zM207 588c0 -34 16 -64 43 -92l23 -24l8 4c65 32 97 58 97 112c0 46 -36 84 -83 84c-50 0 -88 -36 -88 -84z" />
    <glyph glyph-name="asterisk" unicode="*" horiz-adv-x="477" 
d="M451 589l-130 -42l81 -111l-83 -60l-81 112l-80 -112l-82 60l80 111l-130 42l31 96l131 -43v138h101v-137l131 43zM215 604l-14 -43l37 -26l37 26l-13 43h-47z" />
    <glyph glyph-name="plus" unicode="+" horiz-adv-x="594" 
d="M46 298v114h192v193h118v-193h192v-114h-192v-195h-118v195h-192z" />
    <glyph glyph-name="parenright" unicode=")" horiz-adv-x="351" 
d="M170 324c0 167 -64 343 -165 473l97 65c125 -150 196 -346 196 -538c0 -202 -75 -394 -198 -541l-97 69c100 127 167 299 167 472z" />
    <glyph glyph-name="parenleft" unicode="(" horiz-adv-x="351" 
d="M53 322c0 192 71 389 197 540l97 -70c-103 -128 -166 -305 -166 -470c0 -175 67 -346 166 -474l-97 -65c-122 147 -197 337 -197 539z" />
    <glyph glyph-name="semicolon" unicode=";" horiz-adv-x="272" 
d="M146 510c41 0 78 -31 78 -71c0 -38 -37 -71 -78 -71c-42 0 -76 33 -76 71c0 40 34 71 76 71zM7 -141l89 261l121 -42l-129 -250z" />
    <glyph glyph-name="at" unicode="@" horiz-adv-x="1021" 
d="M502 38c-133 0 -229 102 -229 223c0 119 98 222 221 222c44 0 80 -14 111 -37l3 35h107v-284c0 -37 20 -58 53 -58c70 0 95 77 95 155c0 181 -148 326 -353 326c-195 0 -351 -158 -351 -351c0 -198 156 -355 351 -355c70 0 138 15 200 52l54 -93
c-78 -47 -165 -65 -254 -65c-253 0 -459 204 -459 461c0 253 206 457 459 457c257 0 460 -190 460 -432c0 -124 -69 -257 -210 -257c-67 0 -101 26 -123 64c-33 -36 -84 -63 -135 -63zM502 154c43 0 79 26 99 67v77c-18 43 -56 72 -99 72c-61 0 -109 -49 -109 -109
c0 -62 47 -107 109 -107z" />
    <glyph glyph-name="bracketleft" unicode="[" horiz-adv-x="323" 
d="M64 -168v948h243v-93h-128v-762h128v-93h-243z" />
    <glyph glyph-name="backslash" unicode="\" horiz-adv-x="405" 
d="M292 -134l-306 914h104l308 -914h-106z" />
    <glyph glyph-name="bracketright" unicode="]" horiz-adv-x="323" 
d="M259 780v-948h-243v93h128v762h-128v93h243z" />
    <glyph glyph-name="slash" unicode="/" horiz-adv-x="405" 
d="M6 -134l309 914h104l-306 -914h-107z" />
    <glyph glyph-name="dollar" unicode="$" horiz-adv-x="550" 
d="M233 775h115v-102c58 -9 109 -32 153 -66l-77 -108c-43 39 -87 53 -134 53c-52 0 -79 -19 -79 -46c0 -25 22 -37 70 -54l79 -26c108 -35 155 -105 155 -183c0 -94 -63 -166 -167 -188v-117h-115v113c-77 9 -150 39 -205 88l92 114c41 -42 103 -76 165 -76
c55 0 89 24 89 54c0 25 -17 48 -70 65l-75 26c-104 36 -155 88 -155 176c0 76 60 151 159 173v104z" />
    <glyph glyph-name="copyright" unicode="&#xa9;" horiz-adv-x="904" 
d="M466 168c-126 0 -227 98 -227 223c0 126 101 221 227 221c63 0 116 -22 161 -61l-63 -88c-27 25 -56 38 -93 38c-66 0 -114 -47 -114 -111c0 -63 50 -112 114 -112c41 0 72 19 93 41l60 -89c-38 -36 -89 -62 -158 -62zM452 -12c-222 0 -399 179 -399 400s177 399 399 399
c221 0 399 -178 399 -399s-179 -400 -399 -400zM452 75c173 0 308 140 308 313s-135 312 -308 312s-308 -139 -308 -312s135 -313 308 -313z" />
    <glyph glyph-name="zero.plf" horiz-adv-x="613" 
d="M307 120c72 0 125 60 126 132c0 0 3 52 3 100c0 47 -3 99 -3 99c-1 69 -54 131 -126 131c-74 0 -126 -61 -127 -130c0 0 -3 -55 -3 -100c0 -49 3 -100 3 -100c1 -72 52 -132 127 -132zM307 -8c-140 0 -259 99 -260 259c0 0 -1 52 -1 101c0 47 1 95 1 95
c0 158 122 264 260 264c136 0 258 -105 259 -264c0 0 2 -50 2 -95c0 -52 -2 -101 -2 -101c-1 -160 -122 -259 -259 -259z" />
    <glyph glyph-name="one.plf" horiz-adv-x="349" 
d="M165 0v536l-134 -71v130l198 111h61v-706h-125z" />
    <glyph glyph-name="two.plf" horiz-adv-x="531" 
d="M37 0v97l277 273c36 36 51 67 51 103c0 56 -36 108 -105 108c-67 0 -105 -56 -105 -125h-129c0 150 103 254 235 254c142 0 234 -105 234 -236c0 -79 -35 -131 -100 -195l-160 -158h261v-121h-459z" />
    <glyph glyph-name="three.plf" horiz-adv-x="530" 
d="M263 -11c-135 0 -237 89 -237 236h127c0 -67 40 -117 110 -117c63 0 104 46 104 98c0 57 -44 96 -110 96h-45v112h39c68 0 105 34 105 90c0 45 -37 86 -93 86c-60 0 -98 -36 -98 -105h-126c0 139 98 225 224 225c123 0 219 -89 219 -200c0 -70 -32 -120 -74 -147
c46 -25 86 -80 86 -153c0 -119 -99 -221 -231 -221z" />
    <glyph glyph-name="four.plf" horiz-adv-x="541" 
d="M21 140v105l250 455h142l-235 -443h149v130h123v-130h71v-117h-71v-140h-123v140h-306z" />
    <glyph glyph-name="five.plf" horiz-adv-x="540" 
d="M56 299v401h422v-121h-297v-145c29 17 64 26 96 26c136 0 234 -96 234 -233c0 -135 -106 -237 -237 -237c-125 0 -216 74 -241 183l125 41c8 -57 53 -99 111 -99c66 0 112 53 112 112s-45 112 -111 112c-42 0 -74 -18 -92 -40h-122z" />
    <glyph glyph-name="six.plf" horiz-adv-x="540" 
d="M270 -10c-134 0 -242 111 -242 238c0 43 9 87 41 146l175 326h153l-131 -238h3c133 0 243 -99 243 -233c0 -132 -110 -239 -242 -239zM270 116c62 0 113 52 113 113s-51 111 -113 111c-55 0 -113 -44 -113 -112c0 -61 53 -112 113 -112z" />
    <glyph glyph-name="seven.plf" horiz-adv-x="460" 
d="M62 0l233 574h-282v126h440v-86l-250 -614h-141z" />
    <glyph glyph-name="eight.plf" horiz-adv-x="538" 
d="M269 -11c-132 0 -230 98 -230 220c0 64 33 119 84 154c-45 36 -73 87 -73 143c0 115 99 204 219 204c122 0 219 -92 219 -203c0 -57 -28 -109 -73 -144c51 -36 84 -91 84 -154c0 -120 -97 -220 -230 -220zM269 105c65 0 108 49 108 104c0 53 -43 102 -108 102
c-64 0 -108 -49 -108 -102c0 -55 43 -104 108 -104zM269 594c-56 0 -96 -44 -96 -92c0 -47 40 -93 96 -93c57 0 96 46 96 94c0 47 -38 91 -96 91z" />
    <glyph glyph-name="nine.plf" horiz-adv-x="540" 
d="M270 710c134 0 242 -111 242 -238c0 -43 -9 -87 -41 -146l-175 -326h-153l130 238h-2c-132 0 -243 99 -243 233c0 132 110 239 242 239zM270 584c-62 0 -113 -52 -113 -113s51 -111 113 -111c55 0 113 44 113 112c0 61 -53 112 -113 112z" />
    <glyph glyph-name="guillemotleft" unicode="&#xab;" horiz-adv-x="482" 
d="M153 76l-125 188v16l126 187h100l-116 -195l117 -196h-102zM347 76l-125 188v16l126 187h100l-116 -195l117 -196h-102z" />
    <glyph glyph-name="guillemotright" unicode="&#xbb;" horiz-adv-x="482" 
d="M34 76l116 194l-117 197h102l125 -187v-17l-126 -187h-100zM228 76l116 194l-117 197h102l125 -187v-17l-126 -187h-100z" />
    <glyph glyph-name="a" unicode="a" horiz-adv-x="558" 
d="M243 -12c-123 0 -222 65 -222 170c0 108 108 177 229 177c45 0 95 -16 129 -33v22c0 52 -71 76 -124 76c-50 0 -110 -13 -154 -52l-57 99c75 52 145 72 214 72c119 0 249 -61 249 -199v-320h-127v29c-32 -21 -80 -41 -137 -41zM253 95c50 0 94 17 126 40v57
c-30 20 -77 39 -120 39c-85 0 -122 -34 -122 -71c0 -35 40 -65 116 -65z" />
    <glyph glyph-name="CR" unicode="&#xd;" horiz-adv-x="200" 
 />
    <glyph glyph-name=".null" horiz-adv-x="500" 
 />
    <glyph glyph-name=".null" horiz-adv-x="500" 
 />
    <glyph glyph-name="less" unicode="&#x3c;" horiz-adv-x="449" 
d="M33 236v92l373 152v-109l-231 -88l231 -90v-113z" />
    <glyph glyph-name="greater" unicode="&#x3e;" horiz-adv-x="449" 
d="M416 324v-92l-373 -152v109l231 87l-231 91v113z" />
    <glyph glyph-name="bar" unicode="|" horiz-adv-x="288" 
d="M78 -179v959h132v-959h-132z" />
    <glyph glyph-name="braceleft" unicode="{" horiz-adv-x="376" 
d="M269 -226c-59 0 -104 20 -122 78c-7 24 -10 49 -10 84v188c0 60 0 108 -6 148c-12 47 -44 47 -90 54v66c55 11 79 13 90 51c6 38 6 88 6 154v189c0 22 1 37 4 55c11 79 59 106 128 106c48 0 77 -3 81 -3v-97h-10c-62 6 -66 -22 -66 -107v-261c0 -66 -31 -102 -80 -121
c48 -19 80 -50 80 -118v-266c0 -74 4 -98 36 -101c9 0 23 0 40 2v-98c-4 0 -33 -3 -81 -3z" />
    <glyph glyph-name="braceright" unicode="}" horiz-adv-x="376" 
d="M107 -226c-49 0 -77 3 -81 3v97h9c63 -5 66 22 66 108v260c0 65 30 101 80 120c-48 19 -80 51 -80 119v266c0 74 -4 98 -36 101c-9 1 -22 0 -39 -1v98c4 0 32 3 81 3c59 0 104 -21 121 -79c8 -23 10 -49 10 -84v-189c0 -60 0 -108 7 -148c11 -47 43 -47 89 -54v-66
c-55 -11 -79 -13 -89 -51c-7 -38 -7 -88 -7 -153v-188c0 -22 0 -37 -3 -55c-12 -79 -60 -107 -128 -107z" />
    <glyph glyph-name="fraction" unicode="&#x2044;" horiz-adv-x="252" 
d="M-179 0l499 773h111l-498 -773h-112z" />
    <glyph glyph-name="fraction" unicode="&#x2215;" horiz-adv-x="252" 
d="M-179 0l499 773h111l-498 -773h-112z" />
    <glyph glyph-name="bullet" unicode="&#x2022;" horiz-adv-x="288" 
d="M144 148c-64 0 -115 51 -115 115s51 115 115 115s115 -50 115 -115c0 -64 -51 -115 -115 -115z" />
    <glyph glyph-name="underscore" unicode="_" horiz-adv-x="475" 
d="M19 -94v64h437v-64h-437z" />
    <glyph glyph-name="asciicircum" unicode="^" horiz-adv-x="552" 
d="M13 393l214 380h98l214 -380h-140l-124 228l-124 -228h-138z" />
    <glyph glyph-name="asciitilde" unicode="~" horiz-adv-x="508" 
d="M345 219c-83 0 -136 76 -190 76c-29 0 -52 -18 -55 -63l-74 14c2 64 34 150 130 150c74 0 136 -77 192 -77c33 0 50 21 56 64l79 -16c-2 -63 -36 -148 -138 -148z" />
    <glyph glyph-name="equal" unicode="=" horiz-adv-x="572" 
d="M60 410v114h453v-114h-453zM60 199v115h453v-115h-453z" />
    <glyph glyph-name="numbersign" unicode="#" horiz-adv-x="678" 
d="M71 402l21 107h103l29 143h124l-29 -143h111l29 143h124l-29 -143h104l-21 -107h-104l-32 -162h103l-22 -107h-103l-26 -133h-124l26 133h-110l-26 -133h-124l26 133h-105l22 107h104l32 162h-103zM298 402l-32 -162h111l32 162h-111z" />
    <glyph glyph-name="guilsinglleft" unicode="&#x2039;" horiz-adv-x="288" 
d="M153 76l-125 188v16l126 187h100l-116 -195l117 -196h-102z" />
    <glyph glyph-name="guilsinglright" unicode="&#x203a;" horiz-adv-x="288" 
d="M34 76l116 194l-117 197h102l125 -187v-17l-126 -187h-100z" />
    <glyph glyph-name="degree" unicode="&#xb0;" horiz-adv-x="368" 
d="M184 500c-80 0 -141 63 -141 143c0 81 63 142 141 142s141 -60 141 -142c0 -80 -61 -143 -141 -143zM184 579c34 0 60 27 60 64c0 38 -26 63 -60 63c-33 0 -60 -26 -60 -63s27 -64 60 -64z" />
    <glyph glyph-name="multiply" unicode="&#xd7;" horiz-adv-x="610" 
d="M135 84l-85 76l177 191l-181 197l84 76l175 -190l175 189l85 -76l-183 -197l177 -190l-85 -76l-169 183z" />
    <glyph glyph-name="period" unicode="." horiz-adv-x="230" 
d="M114 -13c-43 0 -76 35 -76 77c0 44 33 78 76 78s78 -34 78 -78c0 -42 -35 -77 -78 -77z" />
    <glyph glyph-name="paragraph" unicode="&#xb6;" horiz-adv-x="644" 
d="M204 0v376c-86 24 -161 93 -161 200c0 132 111 197 252 197h302v-110h-76v-663h-115v663h-87v-663h-115z" />
    <glyph glyph-name="percent" unicode="%" horiz-adv-x="920" 
d="M691 81c58 0 68 53 68 121c0 58 -9 118 -67 118c-57 0 -67 -53 -67 -118s9 -121 66 -121zM691 -7c-98 0 -153 73 -157 159c-1 15 -2 30 -2 48c0 20 1 36 2 50c4 89 68 158 158 158s151 -70 158 -158c1 -12 2 -30 2 -48c0 -24 -1 -35 -2 -51c-5 -91 -70 -158 -159 -158z
M227 452c58 0 68 53 68 121c0 58 -9 118 -67 118c-57 0 -67 -53 -67 -118s9 -121 66 -121zM227 364c-98 0 -153 73 -157 159c-1 15 -2 30 -2 48c0 20 1 36 2 50c4 89 68 158 158 158s151 -70 158 -158c1 -12 2 -30 2 -48c0 -24 -1 -35 -2 -51c-5 -91 -70 -158 -159 -158z
M155 0l499 773h111l-498 -773h-112z" />
    <glyph glyph-name="AE" unicode="&#xc6;" horiz-adv-x="901" 
d="M434 0v190h-203l-83 -190h-157l354 773h510v-127h-276v-192h257v-127h-257v-200h285v-127h-430zM432 646l-146 -331h148v331h-2z" />
    <glyph glyph-name="OE" unicode="&#x152;" horiz-adv-x="1143" 
d="M630 0v46c-50 -38 -118 -59 -194 -59c-218 0 -398 179 -398 400c0 222 179 401 398 401c85 0 151 -25 194 -58v43h450v-127h-305v-192h286v-127h-286v-200h314v-127h-459zM439 126c79 0 146 36 191 87v348c-48 56 -115 88 -191 88c-143 0 -256 -117 -256 -262
c0 -144 113 -261 256 -261z" />
    <glyph glyph-name="sterling" unicode="&#xa3;" horiz-adv-x="590" 
d="M43 311v114h75c-18 41 -32 85 -32 133c0 137 103 225 236 225c143 0 235 -90 235 -235h-143c-2 49 -26 100 -94 100c-57 0 -89 -41 -89 -91c0 -51 17 -92 38 -132h168v-114h-118c5 -21 9 -43 9 -67c0 -43 -12 -85 -32 -117h245v-127h-481v127h91c26 20 42 57 42 96
c0 29 -9 58 -21 88h-129z" />
    <glyph glyph-name="registered" unicode="&#xae;" horiz-adv-x="616" 
d="M304 284c-139 0 -251 113 -251 252c0 138 112 251 251 251c143 0 259 -113 259 -251c0 -140 -116 -252 -259 -252zM304 348c103 0 190 84 190 188c0 101 -87 187 -190 187c-101 0 -183 -86 -183 -187s82 -188 183 -188zM340 416l-54 90h-13v-90h-60v241h103
c52 0 93 -25 93 -76c0 -40 -25 -64 -60 -73l59 -92h-68zM306 609h-33v-58h32c23 0 41 8 41 29c0 20 -17 29 -40 29z" />
    <glyph glyph-name="quoteleft" unicode="&#x2018;" horiz-adv-x="277" 
d="M156 518l-120 42l129 250l81 -31z" />
    <glyph glyph-name="quoteright" unicode="&#x2019;" horiz-adv-x="279" 
d="M114 518l-81 30l90 262l120 -43z" />
    <glyph glyph-name="quotedblleft" unicode="&#x201c;" horiz-adv-x="497" 
d="M156 518l-120 42l129 250l81 -31zM372 518l-120 42l129 250l81 -31z" />
    <glyph glyph-name="quotedblright" unicode="&#x201d;" horiz-adv-x="497" 
d="M117 518l-81 30l90 262l120 -43zM332 518l-81 30l90 262l120 -43z" />
    <glyph glyph-name="minus" unicode="&#x2212;" horiz-adv-x="539" 
d="M46 296v114h448v-114h-448z" />
    <glyph glyph-name="cent" unicode="&#xa2;" horiz-adv-x="482" 
d="M209 -125v128c-106 34 -183 135 -183 253c0 117 77 218 183 253v120h131v-112c50 -9 96 -33 133 -64l-73 -103c-29 27 -60 41 -102 41c-79 0 -136 -62 -136 -137s60 -133 136 -133c43 0 79 16 103 42l68 -107c-34 -28 -75 -52 -129 -61v-120h-131z" />
    <glyph glyph-name="ellipsis" unicode="&#x2026;" horiz-adv-x="696" 
d="M111 -13c-43 0 -76 35 -76 77c0 44 33 78 76 78s78 -34 78 -78c0 -42 -35 -77 -78 -77zM347 -13c-43 0 -76 35 -76 77c0 44 33 78 76 78s78 -34 78 -78c0 -42 -35 -77 -78 -77zM582 -13c-43 0 -76 35 -76 77c0 44 33 78 76 78s78 -34 78 -78c0 -42 -35 -77 -78 -77z" />
    <glyph glyph-name="plusminus" unicode="&#xb1;" horiz-adv-x="602" 
d="M50 393v114h192v185h118v-185h192v-114h-192v-184h-118v184h-192zM50 56v115h502v-115h-502z" />
    <glyph glyph-name="tilde" unicode="&#x2dc;" horiz-adv-x="449" 
d="M294 587c-60 0 -109 51 -147 51c-23 0 -40 -15 -41 -42l-63 12c0 67 38 119 106 119c57 0 110 -54 148 -54c28 0 39 19 42 47l67 -14c0 -64 -39 -119 -112 -119z" />
    <glyph glyph-name="Ntilde" unicode="&#xd1;" horiz-adv-x="783" 
d="M78 0v773h102l380 -485v485h144v-773h-96l-385 492v-492h-145zM460 838c-60 0 -109 51 -147 51c-23 0 -40 -15 -41 -42l-63 12c0 67 38 119 106 119c57 0 110 -54 148 -54c28 0 39 19 42 47l67 -14c0 -64 -39 -119 -112 -119z" />
    <glyph glyph-name="Sacute" unicode="&#x15a;" horiz-adv-x="580" 
d="M288 -10c-99 0 -201 43 -272 115l92 110c45 -53 118 -96 187 -96s115 40 115 93c0 43 -22 81 -86 107l-86 35c-112 46 -170 106 -170 211c0 113 95 217 231 217c101 0 175 -32 234 -89l-83 -108c-42 46 -90 67 -151 67c-57 0 -95 -32 -95 -79c0 -39 25 -64 85 -89l90 -36
c119 -48 172 -128 172 -224c0 -136 -100 -234 -263 -234zM243 830v17l86 112h133v-12l-129 -117h-90z" />
    <glyph glyph-name="Oslash" unicode="&#xd8;" horiz-adv-x="879" 
d="M73 -19l86 119c-75 73 -121 174 -121 287c0 222 180 401 401 401c66 0 129 -16 184 -45l78 108l91 -59l-80 -111c80 -73 130 -178 130 -294c0 -221 -181 -400 -403 -400c-70 0 -136 17 -193 49l-82 -114zM439 126c143 0 257 117 257 261c0 69 -26 131 -68 178l-299 -415
c33 -16 70 -24 110 -24zM183 387c0 -65 22 -124 60 -170l297 411c-31 13 -65 21 -101 21c-143 0 -256 -117 -256 -262z" />
    <glyph glyph-name="oslash" unicode="&#xf8;" horiz-adv-x="590" 
d="M44 -57l72 109c-59 50 -94 124 -94 205c0 144 115 266 273 266c41 0 80 -9 114 -24l79 121l68 -42l-80 -121c57 -49 92 -122 92 -200c0 -143 -110 -267 -273 -267c-41 0 -78 8 -111 21l-72 -110zM156 257c0 -35 12 -67 34 -92l146 224c-13 4 -27 6 -41 6
c-78 0 -139 -58 -139 -138zM295 118c80 0 139 63 139 139c0 34 -12 65 -31 88l-145 -222c11 -3 24 -5 37 -5z" />
    <glyph glyph-name="oe" unicode="&#x153;" horiz-adv-x="980" 
d="M707 -10c-90 0 -161 35 -207 88c-46 -51 -118 -88 -205 -88c-163 0 -273 123 -273 267s115 266 273 266c85 0 155 -36 202 -88c46 53 115 87 201 87c149 0 262 -112 265 -259c1 -12 1 -25 0 -38h-403c4 -72 73 -119 147 -119c61 0 97 17 139 52l73 -77
c-59 -62 -118 -91 -212 -91zM295 118c80 0 139 63 139 139c0 80 -61 138 -139 138s-139 -58 -139 -138c0 -76 60 -139 139 -139zM696 410c-81 0 -115 -41 -129 -90h258c-13 48 -59 90 -129 90z" />
    <glyph glyph-name="exclamdown" unicode="&#xa1;" horiz-adv-x="305" 
d="M213 329l13 -538h-146l13 538h120zM151 405c-43 0 -76 35 -76 77c0 44 33 78 76 78s78 -34 78 -78c0 -42 -35 -77 -78 -77z" />
    <glyph glyph-name="integral" unicode="&#x222b;" horiz-adv-x="326" 
d="M52 -181c-59 0 -106 14 -138 41l56 96c17 -14 39 -21 64 -21c41 0 65 22 65 77v593c0 113 82 175 177 175c57 0 107 -17 136 -41l-55 -96c-17 14 -38 21 -63 21c-38 0 -66 -26 -66 -73v-594c0 -121 -67 -178 -176 -178z" />
    <glyph glyph-name="brokenbar" unicode="&#xa6;" horiz-adv-x="288" 
d="M78 360v420h132v-420h-132zM78 -179v448h132v-448h-132z" />
    <glyph glyph-name="florin" unicode="&#x192;" horiz-adv-x="390" 
d="M50 395v116h75v94c0 113 82 175 177 175c57 0 107 -17 136 -41l-55 -96c-17 14 -38 21 -63 21c-38 0 -66 -26 -66 -73v-80h83v-116h-83v-398c0 -121 -67 -178 -176 -178c-59 0 -106 14 -138 41l56 96c17 -14 39 -21 64 -21c41 0 65 22 65 77v383h-75z" />
    <glyph glyph-name="Eng" unicode="&#x14a;" horiz-adv-x="783" 
d="M78 0v773h102l380 -482v482h144v-676c0 -184 -128 -278 -274 -278v140c71 0 116 43 127 107l-334 426v-492h-145z" />
    <glyph glyph-name="infinity" unicode="&#x221e;" horiz-adv-x="847" 
d="M247 175c-118 0 -209 94 -209 213c0 118 91 213 209 213c81 0 135 -43 178 -109c46 66 104 109 180 109c114 0 204 -98 204 -213s-90 -213 -204 -213c-82 0 -139 43 -183 111c-43 -66 -97 -111 -175 -111zM596 487c-57 0 -94 -39 -119 -96l2 -3c28 -65 64 -99 117 -99
c54 0 98 45 98 99c0 56 -44 99 -98 99zM249 289c55 0 89 36 117 99l2 5c-20 49 -68 94 -119 94c-55 0 -97 -43 -97 -99c0 -54 42 -99 97 -99z" />
    <glyph glyph-name="dagger" unicode="&#x2020;" horiz-adv-x="587" 
d="M26 408v117h202v255h132v-255h202v-117h-202v-587h-132v587h-202z" />
    <glyph glyph-name="daggerdbl" unicode="&#x2021;" horiz-adv-x="607" 
d="M36 444v117h202v219h132v-219h202v-117h-202v-303h202v-117h-202v-203h-132v203h-202v117h202v303h-202z" />
    <glyph glyph-name="section" unicode="&#xa7;" horiz-adv-x="538" 
d="M285 777c79 0 141 -24 195 -71l-73 -97c-36 36 -77 55 -125 55c-47 0 -76 -28 -76 -61c0 -28 14 -50 60 -69l77 -32c115 -48 166 -115 166 -201c0 -75 -40 -124 -95 -154c43 -34 61 -77 61 -137c0 -102 -85 -184 -216 -184c-83 0 -168 33 -230 94l82 101
c39 -45 95 -77 154 -77c53 0 84 25 84 59c0 28 -14 51 -62 71l-78 32c-100 39 -167 97 -167 201c0 63 38 122 98 156c-35 32 -57 74 -57 134c0 94 79 180 202 180zM167 314c0 -42 26 -66 83 -89l42 -17c57 6 97 37 97 80c0 44 -30 70 -83 93l-46 18c-53 -5 -93 -39 -93 -85z
" />
    <glyph glyph-name="threequarters" unicode="&#xbe;" horiz-adv-x="915" 
d="M157 0l499 773h111l-498 -773h-112zM192 354c-88 0 -166 53 -161 146h101c0 -33 27 -52 60 -52s55 19 55 44c0 26 -20 44 -61 44h-41v70h31c44 0 64 14 64 41c0 23 -19 42 -51 42c-30 0 -52 -16 -52 -44h-98c0 81 65 136 151 136c89 0 155 -55 155 -123
c0 -37 -16 -64 -44 -82c31 -17 52 -49 52 -92c0 -69 -68 -130 -161 -130zM541 82v81l159 250h114l-156 -243h91v65h97v-65h44v-88h-44v-82h-97v82h-208z" />
    <glyph glyph-name="zero.sup" horiz-adv-x="427" 
d="M213 536c59 0 67 54 67 111c0 47 -1 108 -67 108c-61 0 -66 -54 -66 -108c0 -48 2 -111 66 -111zM213 436c-81 0 -150 43 -168 115c-9 34 -9 52 -9 96s3 69 9 93c18 70 87 115 168 115c83 0 150 -46 168 -116c10 -33 9 -54 9 -92c0 -47 0 -69 -9 -97
c-20 -71 -86 -114 -168 -114z" />
    <glyph glyph-name="one.sup" horiz-adv-x="252" 
d="M95 440v286l-80 -38v102l136 69h48v-419h-104z" />
    <glyph glyph-name="two.sup" horiz-adv-x="395" 
d="M40 440v76l176 149c26 21 32 35 32 51c0 24 -18 47 -55 47c-35 0 -56 -25 -56 -59h-101c0 93 64 157 157 157c106 0 163 -63 163 -139c0 -54 -24 -85 -74 -123l-81 -66h151v-93h-312z" />
    <glyph glyph-name="three.sup" horiz-adv-x="393" 
d="M192 434c-88 0 -166 53 -161 146h101c0 -33 27 -52 60 -52s55 19 55 44c0 26 -20 44 -61 44h-41v70h31c44 0 64 14 64 41c0 23 -19 42 -51 42c-30 0 -52 -16 -52 -44h-98c0 81 65 136 151 136c89 0 155 -55 155 -123c0 -37 -16 -64 -44 -82c31 -17 52 -49 52 -92
c0 -69 -68 -130 -161 -130z" />
    <glyph glyph-name="four.sup" horiz-adv-x="391" 
d="M17 522v81l159 250h114l-156 -243h91v65h97v-65h44v-88h-44v-82h-97v82h-208z" />
    <glyph glyph-name="five.sup" horiz-adv-x="401" 
d="M203 434c-85 0 -146 41 -163 108l97 30c8 -28 29 -48 64 -48c34 0 56 22 56 49c0 28 -22 50 -56 50c-22 0 -39 -10 -46 -19h-99v249h287v-92h-187v-62c15 7 33 11 52 11c94 0 153 -56 153 -136c0 -83 -72 -140 -158 -140z" />
    <glyph glyph-name="six.sup" horiz-adv-x="389" 
d="M194 434c-97 0 -163 67 -163 145c0 31 8 59 29 94l107 180h128l-82 -133c86 -7 146 -63 146 -139c0 -81 -69 -147 -165 -147zM194 527c35 0 58 24 58 54c0 28 -24 52 -58 52c-30 0 -57 -21 -57 -52c0 -28 22 -54 57 -54z" />
    <glyph glyph-name="seven.sup" horiz-adv-x="332" 
d="M53 440l143 314h-178v99h304v-72l-155 -341h-114z" />
    <glyph glyph-name="eight.sup" horiz-adv-x="388" 
d="M194 435c-93 0 -154 60 -154 134c0 35 17 66 46 88c-24 21 -38 49 -38 79c0 68 61 126 146 126c86 0 146 -58 146 -126c0 -31 -14 -59 -38 -80c29 -21 46 -52 46 -87c0 -74 -62 -134 -154 -134zM194 521c34 0 54 24 54 50c0 25 -19 48 -54 48s-55 -23 -55 -48
s21 -50 55 -50zM194 777c-31 0 -48 -22 -48 -44s16 -42 43 -44h9c28 2 44 22 44 44s-17 44 -48 44z" />
    <glyph glyph-name="nine.sup" horiz-adv-x="389" 
d="M195 859c97 0 164 -67 164 -145c0 -31 -9 -59 -30 -94l-107 -180h-127l81 133c-86 7 -145 62 -145 139c0 81 68 147 164 147zM195 766c-35 0 -58 -24 -58 -54c0 -28 24 -52 58 -52c30 0 57 21 57 52c0 28 -21 54 -57 54z" />
    <glyph glyph-name="trademark" unicode="&#x2122;" horiz-adv-x="884" 
d="M409 392v381h99l108 -157l110 157h102v-381h-97v213h-4l-111 -150l-108 149h-2v-212h-97zM23 682v91h330v-91h-116v-290h-98v290h-116z" />
    <glyph glyph-name="Euro" unicode="&#x20ac;" horiz-adv-x="738" 
d="M440 -13c-236 0 -401 179 -401 400c0 222 166 401 401 401c112 0 213 -46 286 -120l-88 -88c-49 52 -119 85 -196 85c-118 0 -199 -56 -241 -137h344l-57 -110h-318c-1 -11 -1 -21 -1 -31c0 -11 0 -22 1 -33h375l-57 -111h-285c43 -80 125 -133 239 -133
c78 0 149 33 198 86l89 -87c-74 -75 -176 -122 -289 -122z" />
    <glyph glyph-name="onesuperior" unicode="&#xb9;" horiz-adv-x="252" 
d="M95 360v286l-80 -38v102l136 69h48v-419h-104z" />
    <glyph glyph-name="twosuperior" unicode="&#xb2;" horiz-adv-x="395" 
d="M40 360v76l176 149c26 21 32 35 32 51c0 24 -18 47 -55 47c-35 0 -56 -25 -56 -59h-101c0 93 64 157 157 157c106 0 163 -63 163 -139c0 -54 -24 -85 -74 -123l-81 -66h151v-93h-312z" />
    <glyph glyph-name="threesuperior" unicode="&#xb3;" horiz-adv-x="393" 
d="M192 354c-88 0 -166 53 -161 146h101c0 -33 27 -52 60 -52s55 19 55 44c0 26 -20 44 -61 44h-41v70h31c44 0 64 14 64 41c0 23 -19 42 -51 42c-30 0 -52 -16 -52 -44h-98c0 81 65 136 151 136c89 0 155 -55 155 -123c0 -37 -16 -64 -44 -82c31 -17 52 -49 52 -92
c0 -69 -68 -130 -161 -130z" />
    <glyph glyph-name="twoinferior" unicode="&#x2082;" horiz-adv-x="387" 
d="M40 0v76l176 149c26 21 32 35 32 51c0 24 -18 47 -55 47c-35 0 -56 -25 -56 -59h-101c0 93 64 157 157 157c106 0 163 -63 163 -139c0 -54 -24 -85 -74 -123l-81 -66h151v-93h-312z" />
    <glyph glyph-name="fourinferior" unicode="&#x2084;" horiz-adv-x="392" 
d="M18 82v81l159 250h114l-156 -243h91v65h97v-65h44v-88h-44v-82h-97v82h-208z" />
    <glyph glyph-name="onequarter" unicode="&#xbc;" horiz-adv-x="840" 
d="M83 0l499 773h111l-498 -773h-112zM466 82v81l159 250h114l-156 -243h91v65h97v-65h44v-88h-44v-82h-97v82h-208zM95 360v286l-80 -38v102l136 69h48v-419h-104z" />
    <glyph glyph-name="onehalf" unicode="&#xbd;" horiz-adv-x="996" 
d="M527 0v76l176 149c26 21 32 35 32 51c0 24 -18 47 -55 47c-35 0 -56 -25 -56 -59h-101c0 93 64 157 157 157c106 0 163 -63 163 -139c0 -54 -24 -85 -74 -123l-81 -66h151v-93h-312zM83 0l499 773h111l-498 -773h-112zM95 360v286l-80 -38v102l136 69h48v-419h-104z" />
    <glyph glyph-name="notequal" unicode="&#x2260;" horiz-adv-x="572" 
d="M60 410v114h226l50 137h113l-50 -137h114v-114h-155l-35 -96h190v-115h-232l-49 -135h-114l49 135h-107v115h149l35 96h-184z" />
    <glyph glyph-name="perthousand" unicode="&#x2030;" horiz-adv-x="1287" 
d="M691 81c58 0 68 53 68 121c0 58 -9 118 -67 118c-57 0 -67 -53 -67 -118s9 -121 66 -121zM691 -7c-98 0 -153 73 -157 159c-1 15 -2 30 -2 48c0 20 1 36 2 50c4 89 68 158 158 158s151 -70 158 -158c1 -12 2 -30 2 -48c0 -24 -1 -35 -2 -51c-5 -91 -70 -158 -159 -158z
M227 452c58 0 68 53 68 121c0 58 -9 118 -67 118c-57 0 -67 -53 -67 -118s9 -121 66 -121zM227 364c-98 0 -153 73 -157 159c-1 15 -2 30 -2 48c0 20 1 36 2 50c4 89 68 158 158 158s151 -70 158 -158c1 -12 2 -30 2 -48c0 -24 -1 -35 -2 -51c-5 -91 -70 -158 -159 -158z
M155 0l499 773h111l-498 -773h-112zM1068 81c58 0 68 53 68 121c0 58 -9 118 -67 118c-57 0 -67 -53 -67 -118s9 -121 66 -121zM1068 -7c-98 0 -153 73 -157 159c-1 15 -2 30 -2 48c0 20 1 36 2 50c4 89 68 158 158 158s151 -70 158 -158c1 -12 2 -30 2 -48
c0 -24 -1 -35 -2 -51c-5 -91 -70 -158 -159 -158z" />
    <glyph glyph-name="questiondown" unicode="&#xbf;" horiz-adv-x="519" 
d="M250 -189c-130 0 -211 90 -211 198c0 64 28 125 96 177l51 39c32 24 44 52 44 113v31h122v-27c0 -100 -27 -152 -86 -197l-48 -36c-35 -26 -50 -59 -50 -96c0 -51 34 -86 85 -86c60 0 90 48 92 100h122c-2 -130 -87 -216 -217 -216zM288 431c-43 0 -76 35 -76 77
c0 44 33 78 76 78s78 -34 78 -78c0 -42 -35 -77 -78 -77z" />
    <glyph glyph-name="zero.tlf" 
d="M284 -11c-142 0 -243 101 -243 254v292c0 148 101 251 243 251c143 0 243 -103 243 -249v-296c0 -151 -102 -252 -243 -252zM284 118c64 0 111 51 111 123v293c0 71 -49 123 -111 123c-63 0 -110 -52 -110 -123v-293c0 -72 48 -123 110 -123z" />
    <glyph glyph-name="one.tlf" 
d="M131 0v118h108v483l-132 -67v130l209 112h54v-658h108v-118h-347z" />
    <glyph glyph-name="two.tlf" 
d="M49 0v88l296 393c24 31 36 59 36 89c0 56 -42 99 -102 99c-63 0 -102 -51 -103 -124h-127c0 131 90 241 230 241c136 0 232 -93 232 -216c0 -66 -34 -123 -82 -182l-212 -269h297v-119h-465z" />
    <glyph glyph-name="three.tlf" 
d="M276 -10c-136 0 -235 102 -236 229h121c1 -61 54 -108 112 -108c65 0 115 51 115 114c0 67 -50 114 -114 114h-57l1 121h56c64 0 111 50 111 108c0 61 -47 107 -110 107s-108 -50 -108 -111h-122c0 123 99 223 231 223c137 0 237 -97 237 -219c0 -76 -46 -143 -104 -170
c61 -27 107 -92 107 -175c0 -128 -109 -233 -240 -233z" />
    <glyph glyph-name="four.tlf" 
d="M25 168v96l269 509h135l-253 -488h150v131h121v-131h91v-117h-91v-168h-121v168h-301z" />
    <glyph glyph-name="five.tlf" 
d="M285 -10c-120 0 -215 71 -248 173l120 48c15 -53 65 -95 128 -95c76 0 131 58 131 131c0 78 -63 130 -131 130c-46 0 -77 -22 -92 -38h-129v434h441v-125h-313v-177c26 13 58 24 93 24c162 0 261 -107 261 -248s-116 -257 -261 -257z" />
    <glyph glyph-name="six.tlf" 
d="M291 -10c-135 0 -239 106 -239 235v315c0 148 107 246 239 246c126 0 232 -87 232 -228h-123c0 64 -45 110 -110 110c-66 0 -117 -49 -117 -121v-138c31 32 72 52 121 52c138 0 237 -104 237 -236c0 -129 -105 -235 -240 -235zM291 106c65 0 116 55 116 119
c0 65 -51 118 -116 118c-58 0 -115 -46 -115 -118c0 -64 51 -119 115 -119z" />
    <glyph glyph-name="seven.tlf" 
d="M105 3l255 644h-302v126h456v-81l-277 -695z" />
    <glyph glyph-name="eight.tlf" 
d="M284 -10c-136 0 -248 104 -248 241c0 79 43 147 105 188c-47 38 -78 94 -78 159c0 119 102 208 221 208c116 0 220 -90 220 -208c0 -65 -32 -121 -79 -158c63 -42 106 -110 106 -189c0 -137 -110 -241 -247 -241zM284 112c66 0 116 54 116 119c0 67 -51 117 -116 117
s-116 -50 -116 -117c0 -65 50 -119 116 -119zM284 671c-58 0 -98 -43 -98 -99s40 -100 98 -100c55 0 98 44 98 100s-43 99 -98 99z" />
    <glyph glyph-name="nine.tlf" 
d="M275 321c-126 0 -234 99 -234 232c0 131 116 234 240 234c129 0 239 -105 239 -232c0 -42 -9 -76 -27 -111c-77 -151 -156 -294 -233 -444h-138c56 109 115 215 172 322c-7 -1 -13 -1 -19 -1zM280 436c68 0 117 53 117 119s-52 116 -116 116c-60 0 -117 -48 -117 -118
c0 -65 54 -117 116 -117z" />
    <glyph glyph-name="Lslash" unicode="&#x141;" horiz-adv-x="541" 
d="M101 0v277l-80 -44v147l80 44v349h145v-268l185 104v-147l-185 -104v-223h284v-135h-429z" />
    <glyph glyph-name="lslash" unicode="&#x142;" horiz-adv-x="336" 
d="M101 0v284l-90 -44v118l90 44v378h134v-313l90 44v-118l-90 -44v-349h-134z" />
    <glyph glyph-name="Eth" unicode="&#xd0;" horiz-adv-x="768" 
d="M32 327v127h86v319h222c214 0 390 -169 390 -384c0 -235 -182 -389 -398 -389h-214v327h-86zM345 641h-88v-187h120v-127h-120v-195h89c136 0 239 112 239 257s-107 252 -240 252z" />
    <glyph glyph-name="divide" unicode="&#xf7;" horiz-adv-x="539" 
d="M268 53c-43 0 -75 35 -75 77c0 44 32 77 75 77s78 -33 78 -77c0 -42 -35 -77 -78 -77zM268 499c-43 0 -75 35 -75 77c0 44 32 77 75 77s78 -33 78 -77c0 -42 -35 -77 -78 -77zM46 296v114h448v-114h-448z" />
    <glyph glyph-name="Udotbelow" unicode="&#x1ee4;" horiz-adv-x="713" 
d="M356 -12c-172 0 -294 123 -294 286v499h144v-483c0 -93 53 -167 150 -167s151 72 151 165v485h144v-499c0 -163 -121 -286 -295 -286zM356 -212c-42 0 -77 34 -77 72c0 40 35 71 77 71c41 0 77 -31 77 -71c0 -38 -36 -72 -77 -72z" />
    <glyph glyph-name="Wdieresis" unicode="&#x1e84;" horiz-adv-x="1126" 
d="M248 0l-247 773h147l170 -536l169 536h152l166 -549l181 549h139l-258 -773h-129l-175 568l-185 -568h-130zM675 832c-39 0 -70 31 -70 70c0 38 31 69 70 69s70 -31 70 -69c0 -39 -31 -70 -70 -70zM450 832c-39 0 -70 31 -70 70c0 38 31 69 70 69c38 0 69 -31 69 -69
c0 -39 -31 -70 -69 -70z" />
    <glyph glyph-name="Wacute" unicode="&#x1e82;" horiz-adv-x="1126" 
d="M248 0l-247 773h147l170 -536l169 536h152l166 -549l181 549h139l-258 -773h-129l-175 568l-185 -568h-130zM506 829v17l86 112h133v-12l-129 -117h-90z" />
    <glyph glyph-name="Wgrave" unicode="&#x1e80;" horiz-adv-x="1126" 
d="M248 0l-247 773h147l170 -536l169 536h152l166 -549l181 549h139l-258 -773h-129l-175 568l-185 -568h-130zM522 829l-127 116v13h131l90 -115v-14h-94z" />
    <glyph glyph-name="Wcircumflex" unicode="&#x174;" horiz-adv-x="1126" 
d="M248 0l-247 773h147l170 -536l169 536h152l166 -549l181 549h139l-258 -773h-129l-175 568l-185 -568h-130zM403 831l114 127h92l114 -127h-103l-57 55l-57 -55h-103z" />
    <glyph glyph-name="Ygrave" unicode="&#x1ef2;" horiz-adv-x="630" 
d="M489 773h156l-256 -459v-314h-145v309l-259 464h161l173 -319zM276 829l-127 116v13h131l90 -115v-14h-94z" />
    <glyph glyph-name="Ycircumflex" unicode="&#x176;" horiz-adv-x="630" 
d="M489 773h156l-256 -459v-314h-145v309l-259 464h161l173 -319zM156 831l114 127h92l114 -127h-103l-57 55l-57 -55h-103z" />
    <glyph glyph-name="Ymacron" horiz-adv-x="630" 
d="M489 773h156l-256 -459v-314h-145v309l-259 464h161l173 -319zM157 849v95h319v-95h-319z" />
    <glyph glyph-name="Abreve" unicode="&#x102;" horiz-adv-x="719" 
d="M-4 0l298 773h131l299 -773h-151l-43 111h-342l-42 -111h-150zM359 555l-123 -319h246zM360 835c-86 0 -150 44 -155 123h93c3 -26 26 -48 62 -48c35 0 57 20 61 48h93c-7 -82 -69 -123 -154 -123z" />
    <glyph glyph-name="Amacron" unicode="&#x100;" horiz-adv-x="719" 
d="M-4 0l298 773h131l299 -773h-151l-43 111h-342l-42 -111h-150zM359 555l-123 -319h246zM201 849v95h319v-95h-319z" />
    <glyph glyph-name="Aringacute" unicode="&#x1fa;" horiz-adv-x="719" 
d="M-4 0l298 773h131l299 -773h-151l-43 111h-342l-42 -111h-150zM359 555l-123 -319h246zM361 794c-63 0 -112 49 -112 111s49 111 112 111c62 0 111 -49 111 -111s-49 -111 -111 -111zM314 1037v17l86 112h133v-12l-129 -117h-90zM361 864c22 0 40 18 40 41
c0 22 -18 41 -40 41c-23 0 -41 -19 -41 -41c0 -23 18 -41 41 -41z" />
    <glyph glyph-name="Adotaccent" unicode="&#x226;" horiz-adv-x="719" 
d="M-4 0l298 773h131l299 -773h-151l-43 111h-342l-42 -111h-150zM359 555l-123 -319h246zM360 862c-43 0 -75 35 -75 77c0 44 32 77 75 77s78 -33 78 -77c0 -42 -35 -77 -78 -77z" />
    <glyph glyph-name="Adotbelow" unicode="&#x1ea0;" horiz-adv-x="719" 
d="M-4 0l298 773h131l299 -773h-151l-43 111h-342l-42 -111h-150zM359 555l-123 -319h246zM359 -212c-42 0 -77 34 -77 72c0 40 35 71 77 71c41 0 77 -31 77 -71c0 -38 -36 -72 -77 -72z" />
    <glyph glyph-name="AEacute" unicode="&#x1fc;" horiz-adv-x="901" 
d="M434 0v190h-203l-83 -190h-157l354 773h510v-127h-276v-192h257v-127h-257v-200h285v-127h-430zM432 646l-146 -331h148v331h-2zM529 829v17l86 112h133v-12l-129 -117h-90z" />
    <glyph glyph-name="Cacute" unicode="&#x106;" horiz-adv-x="740" 
d="M439 -13c-222 0 -401 179 -401 400c0 222 179 401 401 401c112 0 213 -46 286 -120l-102 -99c-46 49 -112 80 -184 80c-144 0 -257 -117 -257 -262c0 -144 113 -261 257 -261c73 0 140 32 186 81l102 -98c-73 -75 -175 -122 -288 -122zM383 830v17l86 112h133v-12
l-129 -117h-90z" />
    <glyph glyph-name="Ccircumflex" unicode="&#x108;" horiz-adv-x="740" 
d="M439 -13c-222 0 -401 179 -401 400c0 222 179 401 401 401c112 0 213 -46 286 -120l-102 -99c-46 49 -112 80 -184 80c-144 0 -257 -117 -257 -262c0 -144 113 -261 257 -261c73 0 140 32 186 81l102 -98c-73 -75 -175 -122 -288 -122zM279 832l114 127h92l114 -127h-103
l-57 55l-57 -55h-103z" />
    <glyph glyph-name="Cdotaccent" unicode="&#x10a;" horiz-adv-x="740" 
d="M439 -13c-222 0 -401 179 -401 400c0 222 179 401 401 401c112 0 213 -46 286 -120l-102 -99c-46 49 -112 80 -184 80c-144 0 -257 -117 -257 -262c0 -144 113 -261 257 -261c73 0 140 32 186 81l102 -98c-73 -75 -175 -122 -288 -122zM438 827c-43 0 -75 35 -75 77
c0 44 32 78 75 78s78 -34 78 -78c0 -42 -35 -77 -78 -77z" />
    <glyph glyph-name="Dcroat" unicode="&#x110;" horiz-adv-x="768" 
d="M32 327v127h86v319h222c214 0 390 -169 390 -384c0 -235 -182 -389 -398 -389h-214v327h-86zM345 641h-88v-187h120v-127h-120v-195h89c136 0 239 112 239 257s-107 252 -240 252z" />
    <glyph glyph-name="Dcaron" unicode="&#x10e;" horiz-adv-x="728" 
d="M78 0v773h222c214 0 390 -169 390 -384c0 -235 -182 -389 -398 -389h-214zM305 641h-88v-509h89c136 0 239 112 239 257s-107 252 -240 252zM286 831l-114 127h103l57 -61l57 61h103l-114 -127h-92z" />
    <glyph glyph-name="Ebreve" unicode="&#x114;" horiz-adv-x="574" 
d="M509 327h-286v-200h314v-127h-459v773h450v-127h-305v-192h286v-127zM307 835c-86 0 -150 44 -155 123h93c3 -26 26 -48 62 -48c35 0 57 20 61 48h93c-7 -82 -69 -123 -154 -123z" />
    <glyph glyph-name="Edotaccent" unicode="&#x116;" horiz-adv-x="574" 
d="M509 327h-286v-200h314v-127h-459v773h450v-127h-305v-192h286v-127zM307 826c-43 0 -75 35 -75 77c0 44 32 78 75 78s78 -34 78 -78c0 -42 -35 -77 -78 -77z" />
    <glyph glyph-name="Emacron" unicode="&#x112;" horiz-adv-x="574" 
d="M509 327h-286v-200h314v-127h-459v773h450v-127h-305v-192h286v-127zM148 849v95h319v-95h-319z" />
    <glyph glyph-name="Gdotaccent" unicode="&#x120;" horiz-adv-x="870" 
d="M564 325v127h277l-1 -66c-2 -232 -187 -398 -400 -398c-225 0 -402 180 -402 401s177 401 402 401c114 0 217 -47 290 -124l-99 -98c-49 53 -115 84 -191 84c-149 0 -257 -117 -257 -263s109 -263 257 -263c126 0 227 79 255 199h-131zM439 826c-43 0 -75 35 -75 77
c0 44 32 78 75 78s78 -34 78 -78c0 -42 -35 -77 -78 -77z" />
    <glyph glyph-name="Gbreve" unicode="&#x11e;" horiz-adv-x="870" 
d="M564 325v127h277l-1 -66c-2 -232 -187 -398 -400 -398c-225 0 -402 180 -402 401s177 401 402 401c114 0 217 -47 290 -124l-99 -98c-49 53 -115 84 -191 84c-149 0 -257 -117 -257 -263s109 -263 257 -263c126 0 227 79 255 199h-131zM440 835c-86 0 -150 44 -155 123
h93c3 -26 26 -48 62 -48c35 0 57 20 61 48h93c-7 -82 -69 -123 -154 -123z" />
    <glyph glyph-name="Gcircumflex" unicode="&#x11c;" horiz-adv-x="870" 
d="M564 325v127h277l-1 -66c-2 -232 -187 -398 -400 -398c-225 0 -402 180 -402 401s177 401 402 401c114 0 217 -47 290 -124l-99 -98c-49 53 -115 84 -191 84c-149 0 -257 -117 -257 -263s109 -263 257 -263c126 0 227 79 255 199h-131zM280 831l114 127h92l114 -127h-103
l-57 55l-57 -55h-103z" />
    <glyph glyph-name="Gcommaaccent" unicode="&#x122;" horiz-adv-x="870" 
d="M564 325v127h277l-1 -66c-2 -232 -187 -398 -400 -398c-225 0 -402 180 -402 401s177 401 402 401c114 0 217 -47 290 -124l-99 -98c-49 53 -115 84 -191 84c-149 0 -257 -117 -257 -263s109 -263 257 -263c126 0 227 79 255 199h-131zM411 -207l-82 27l52 155l114 -26z
" />
    <glyph glyph-name="Hbar" unicode="&#x126;" horiz-adv-x="799" 
d="M14 559v111h75v103h145v-103h331v103h145v-103h75v-111h-75v-559h-145v323h-331v-323h-145v559h-75zM234 559v-101h331v101h-331z" />
    <glyph glyph-name="Hcircumflex" unicode="&#x124;" horiz-adv-x="777" 
d="M554 0v323h-331v-323h-145v773h145v-315h331v315h145v-773h-145zM229 831l114 127h92l114 -127h-103l-57 55l-57 -55h-103z" />
    <glyph glyph-name="Ibreve" unicode="&#x12c;" horiz-adv-x="301" 
d="M78 0v773h145v-773h-145zM151 835c-86 0 -150 44 -155 123h93c3 -26 26 -48 62 -48c35 0 57 20 61 48h93c-7 -82 -69 -123 -154 -123z" />
    <glyph glyph-name="Itilde" unicode="&#x128;" horiz-adv-x="301" 
d="M78 0v773h145v-773h-145zM223 838c-60 0 -109 51 -147 51c-23 0 -40 -15 -41 -42l-63 12c0 67 38 119 106 119c57 0 110 -54 148 -54c28 0 39 19 42 47l67 -14c0 -64 -39 -119 -112 -119z" />
    <glyph glyph-name="Idotaccent" unicode="&#x130;" horiz-adv-x="301" 
d="M78 0v773h145v-773h-145zM150 826c-43 0 -75 35 -75 77c0 44 32 78 75 78s78 -34 78 -78c0 -42 -35 -77 -78 -77z" />
    <glyph glyph-name="Imacron" unicode="&#x12a;" horiz-adv-x="301" 
d="M78 0v773h145v-773h-145zM0 849v95h302v-95h-302z" />
    <glyph glyph-name="Jcircumflex" unicode="&#x134;" horiz-adv-x="542" 
d="M247 831l113 126h95l114 -126h-110l-51 55l-50 -55h-111zM211 -12c-123 0 -218 72 -252 174l123 65c18 -61 66 -103 129 -103c83 0 126 62 126 145v504h144v-507c0 -184 -124 -278 -270 -278z" />
    <glyph glyph-name="Kcommaaccent" unicode="&#x136;" horiz-adv-x="714" 
d="M78 0v773h139v-339l295 339h179l-273 -308l279 -465h-167l-211 353l-102 -116v-237h-139zM331 -207l-82 27l52 155l114 -26z" />
    <glyph glyph-name="Ldot" unicode="&#x13f;" horiz-adv-x="522" 
d="M78 0v773h145v-638h284v-135h-429zM394 320c-43 0 -76 35 -76 77c0 44 33 78 76 78s78 -34 78 -78c0 -42 -35 -77 -78 -77z" />
    <glyph glyph-name="Lacute" unicode="&#x139;" horiz-adv-x="518" 
d="M78 0v773h145v-638h284v-135h-429zM101 829v17l86 112h133v-12l-129 -117h-90z" />
    <glyph glyph-name="Lcommaaccent" unicode="&#x13b;" horiz-adv-x="518" 
d="M78 0v773h145v-638h284v-135h-429zM282 -207l-82 27l52 155l114 -26z" />
    <glyph glyph-name="Nacute" unicode="&#x143;" horiz-adv-x="783" 
d="M78 0v773h102l380 -485v485h144v-773h-96l-385 492v-492h-145zM332 829v17l86 112h133v-12l-129 -117h-90z" />
    <glyph glyph-name="Ncommaaccent" unicode="&#x145;" horiz-adv-x="783" 
d="M78 0v773h102l380 -485v485h144v-773h-96l-385 492v-492h-145zM379 -207l-82 27l52 155l114 -26z" />
    <glyph glyph-name="Ncaron" unicode="&#x147;" horiz-adv-x="783" 
d="M78 0v773h102l380 -485v485h144v-773h-96l-385 492v-492h-145zM341 831l-114 127h103l57 -61l57 61h103l-114 -127h-92z" />
    <glyph glyph-name="Ncircumflex" horiz-adv-x="783" 
d="M78 0v773h102l380 -485v485h144v-773h-96l-385 492v-492h-145zM228 831l114 127h92l114 -127h-103l-57 55l-57 -55h-103z" />
    <glyph glyph-name="Mcircumflex" horiz-adv-x="920" 
d="M78 0v773h140l239 -381l242 381h143v-773h-140v529h-5l-240 -371l-236 368h-3v-526h-140zM297 831l114 127h92l114 -127h-103l-57 55l-57 -55h-103z" />
    <glyph glyph-name="Omacron" unicode="&#x14c;" horiz-adv-x="879" 
d="M439 126c143 0 257 117 257 261c0 145 -114 262 -257 262s-256 -117 -256 -262c0 -144 113 -261 256 -261zM439 -13c-221 0 -401 179 -401 400c0 222 180 401 401 401c222 0 403 -179 403 -401c0 -221 -181 -400 -403 -400zM280 849v95h319v-95h-319z" />
    <glyph glyph-name="Obreve" unicode="&#x14e;" horiz-adv-x="879" 
d="M439 126c143 0 257 117 257 261c0 145 -114 262 -257 262s-256 -117 -256 -262c0 -144 113 -261 256 -261zM439 -13c-221 0 -401 179 -401 400c0 222 180 401 401 401c222 0 403 -179 403 -401c0 -221 -181 -400 -403 -400zM439 835c-86 0 -150 44 -155 123h93
c3 -26 26 -48 62 -48c35 0 57 20 61 48h93c-7 -82 -69 -123 -154 -123z" />
    <glyph glyph-name="Odotbelow" unicode="&#x1ecc;" horiz-adv-x="879" 
d="M439 126c143 0 257 117 257 261c0 145 -114 262 -257 262s-256 -117 -256 -262c0 -144 113 -261 256 -261zM439 -13c-221 0 -401 179 -401 400c0 222 180 401 401 401c222 0 403 -179 403 -401c0 -221 -181 -400 -403 -400zM439 -212c-42 0 -77 34 -77 72
c0 40 35 71 77 71c41 0 77 -31 77 -71c0 -38 -36 -72 -77 -72z" />
    <glyph glyph-name="Rcommaaccent" unicode="&#x156;" horiz-adv-x="669" 
d="M78 0v773h303c147 0 261 -99 261 -251c0 -126 -84 -217 -200 -241l208 -281h-163l-201 277h-63v-277h-145zM358 649h-135v-257h135c83 0 138 50 138 130c0 69 -55 127 -138 127zM330 -207l-82 27l52 155l114 -26z" />
    <glyph glyph-name="Rcaron" unicode="&#x158;" horiz-adv-x="669" 
d="M78 0v773h303c147 0 261 -99 261 -251c0 -126 -84 -217 -200 -241l208 -281h-163l-201 277h-63v-277h-145zM358 649h-135v-257h135c83 0 138 50 138 130c0 69 -55 127 -138 127zM283 831l-114 127h103l57 -61l57 61h103l-114 -127h-92z" />
    <glyph glyph-name="Racute" unicode="&#x154;" horiz-adv-x="669" 
d="M78 0v773h303c147 0 261 -99 261 -251c0 -126 -84 -217 -200 -241l208 -281h-163l-201 277h-63v-277h-145zM358 649h-135v-257h135c83 0 138 50 138 130c0 69 -55 127 -138 127zM273 829v17l86 112h133v-12l-129 -117h-90z" />
    <glyph glyph-name="Scedilla" unicode="&#x15e;" horiz-adv-x="580" 
d="M216 -211v72c9 -2 16 -3 23 -3c29 0 52 10 52 36c0 25 -21 39 -46 39c-2 0 -4 0 -9 -1v62c-82 12 -162 51 -220 111l92 110c45 -53 118 -96 187 -96s115 40 115 93c0 43 -22 81 -86 107l-86 35c-112 46 -170 106 -170 211c0 113 95 217 231 217c101 0 175 -32 234 -89
l-83 -108c-42 46 -90 67 -151 67c-57 0 -95 -32 -95 -79c0 -39 25 -64 85 -89l90 -36c119 -48 172 -128 172 -224c0 -127 -87 -221 -231 -233v-22c37 -9 61 -42 61 -81c0 -62 -46 -101 -134 -101c-10 0 -19 1 -31 2z" />
    <glyph glyph-name="Scircumflex" unicode="&#x15c;" horiz-adv-x="580" 
d="M288 -10c-99 0 -201 43 -272 115l92 110c45 -53 118 -96 187 -96s115 40 115 93c0 43 -22 81 -86 107l-86 35c-112 46 -170 106 -170 211c0 113 95 217 231 217c101 0 175 -32 234 -89l-83 -108c-42 46 -90 67 -151 67c-57 0 -95 -32 -95 -79c0 -39 25 -64 85 -89l90 -36
c119 -48 172 -128 172 -224c0 -136 -100 -234 -263 -234zM140 832l114 127h92l114 -127h-103l-57 55l-57 -55h-103z" />
    <glyph glyph-name="Scommaaccent" unicode="&#x218;" horiz-adv-x="580" 
d="M288 -10c-99 0 -201 43 -272 115l92 110c45 -53 118 -96 187 -96s115 40 115 93c0 43 -22 81 -86 107l-86 35c-112 46 -170 106 -170 211c0 113 95 217 231 217c101 0 175 -32 234 -89l-83 -108c-42 46 -90 67 -151 67c-57 0 -95 -32 -95 -79c0 -39 25 -64 85 -89l90 -36
c119 -48 172 -128 172 -224c0 -136 -100 -234 -263 -234zM272 -207l-82 27l52 155l114 -26z" />
    <glyph glyph-name="Tcaron" unicode="&#x164;" horiz-adv-x="653" 
d="M8 638v135h638v-135h-247v-638h-144v638h-247zM281 831l-114 127h103l57 -61l57 61h103l-114 -127h-92z" />
    <glyph glyph-name="Tbar" unicode="&#x166;" horiz-adv-x="653" 
d="M8 638v135h638v-135h-247v-220h184v-109h-184v-309h-144v309h-182v109h182v220h-247z" />
    <glyph glyph-name="Uring" unicode="&#x16e;" horiz-adv-x="713" 
d="M356 -12c-172 0 -294 123 -294 286v499h144v-483c0 -93 53 -167 150 -167s151 72 151 165v485h144v-499c0 -163 -121 -286 -295 -286zM357 864c22 0 40 18 40 41c0 22 -18 41 -40 41c-23 0 -41 -19 -41 -41c0 -23 18 -41 41 -41zM357 794c-63 0 -112 49 -112 111
s49 111 112 111c62 0 111 -49 111 -111s-49 -111 -111 -111z" />
    <glyph glyph-name="Umacron" unicode="&#x16a;" horiz-adv-x="713" 
d="M356 -12c-172 0 -294 123 -294 286v499h144v-483c0 -93 53 -167 150 -167s151 72 151 165v485h144v-499c0 -163 -121 -286 -295 -286zM197 849v95h319v-95h-319z" />
    <glyph glyph-name="Ubreve" unicode="&#x16c;" horiz-adv-x="713" 
d="M356 -12c-172 0 -294 123 -294 286v499h144v-483c0 -93 53 -167 150 -167s151 72 151 165v485h144v-499c0 -163 -121 -286 -295 -286zM356 835c-86 0 -150 44 -155 123h93c3 -26 26 -48 62 -48c35 0 57 20 61 48h93c-7 -82 -69 -123 -154 -123z" />
    <glyph glyph-name="Utilde" unicode="&#x168;" horiz-adv-x="713" 
d="M356 -12c-172 0 -294 123 -294 286v499h144v-483c0 -93 53 -167 150 -167s151 72 151 165v485h144v-499c0 -163 -121 -286 -295 -286zM429 838c-60 0 -109 51 -147 51c-23 0 -40 -15 -41 -42l-63 12c0 67 38 119 106 119c57 0 110 -54 148 -54c28 0 39 19 42 47l67 -14
c0 -64 -39 -119 -112 -119z" />
    <glyph glyph-name="Aacute" unicode="&#xc1;" horiz-adv-x="719" 
d="M-4 0l298 773h131l299 -773h-151l-43 111h-342l-42 -111h-150zM359 555l-123 -319h246zM304 829v17l86 112h133v-12l-129 -117h-90z" />
    <glyph glyph-name="aacute" unicode="&#xe1;" horiz-adv-x="558" 
d="M243 -12c-123 0 -222 65 -222 170c0 108 108 177 229 177c45 0 95 -16 129 -33v22c0 52 -71 76 -124 76c-50 0 -110 -13 -154 -52l-57 99c75 52 145 72 214 72c119 0 249 -61 249 -199v-320h-127v29c-32 -21 -80 -41 -137 -41zM253 95c50 0 94 17 126 40v57
c-30 20 -77 39 -120 39c-85 0 -122 -34 -122 -71c0 -35 40 -65 116 -65zM215 578v17l106 142h134v-12l-150 -147h-90z" />
    <glyph glyph-name="Acircumflex" unicode="&#xc2;" horiz-adv-x="719" 
d="M-4 0l298 773h131l299 -773h-151l-43 111h-342l-42 -111h-150zM359 555l-123 -319h246zM201 831l114 127h92l114 -127h-103l-57 55l-57 -55h-103z" />
    <glyph glyph-name="acircumflex" unicode="&#xe2;" horiz-adv-x="558" 
d="M243 -12c-123 0 -222 65 -222 170c0 108 108 177 229 177c45 0 95 -16 129 -33v22c0 52 -71 76 -124 76c-50 0 -110 -13 -154 -52l-57 99c75 52 145 72 214 72c119 0 249 -61 249 -199v-320h-127v29c-32 -21 -80 -41 -137 -41zM91 580l134 157h92l134 -157h-103l-77 85
l-77 -85h-103zM253 95c50 0 94 17 126 40v57c-30 20 -77 39 -120 39c-85 0 -122 -34 -122 -71c0 -35 40 -65 116 -65z" />
    <glyph glyph-name="Agrave" unicode="&#xc0;" horiz-adv-x="719" 
d="M-4 0l298 773h131l299 -773h-151l-43 111h-342l-42 -111h-150zM359 555l-123 -319h246zM320 829l-127 116v13h131l90 -115v-14h-94z" />
    <glyph glyph-name="agrave" unicode="&#xe0;" horiz-adv-x="558" 
d="M243 -12c-123 0 -222 65 -222 170c0 108 108 177 229 177c45 0 95 -16 129 -33v22c0 52 -71 76 -124 76c-50 0 -110 -13 -154 -52l-57 99c75 52 145 72 214 72c119 0 249 -61 249 -199v-320h-127v29c-32 -21 -80 -41 -137 -41zM253 95c50 0 94 17 126 40v57
c-30 20 -77 39 -120 39c-85 0 -122 -34 -122 -71c0 -35 40 -65 116 -65zM231 578l-148 146v13h132l110 -145v-14h-94z" />
    <glyph glyph-name="Atilde" unicode="&#xc3;" horiz-adv-x="719" 
d="M-4 0l298 773h131l299 -773h-151l-43 111h-342l-42 -111h-150zM359 555l-123 -319h246zM433 838c-60 0 -109 51 -147 51c-23 0 -40 -15 -41 -42l-63 12c0 67 38 119 106 119c57 0 110 -54 148 -54c28 0 39 19 42 47l67 -14c0 -64 -39 -119 -112 -119z" />
    <glyph glyph-name="atilde" unicode="&#xe3;" horiz-adv-x="558" 
d="M243 -12c-123 0 -222 65 -222 170c0 108 108 177 229 177c45 0 95 -16 129 -33v22c0 52 -71 76 -124 76c-50 0 -110 -13 -154 -52l-57 99c75 52 145 72 214 72c119 0 249 -61 249 -199v-320h-127v29c-32 -21 -80 -41 -137 -41zM343 587c-60 0 -109 51 -147 51
c-23 0 -40 -15 -41 -42l-63 12c0 67 38 119 106 119c57 0 110 -54 148 -54c28 0 39 19 42 47l67 -14c0 -64 -39 -119 -112 -119zM253 95c50 0 94 17 126 40v57c-30 20 -77 39 -120 39c-85 0 -122 -34 -122 -71c0 -35 40 -65 116 -65z" />
    <glyph glyph-name="Aring" unicode="&#xc5;" horiz-adv-x="719" 
d="M-4 0l298 773h131l299 -773h-151l-43 111h-342l-42 -111h-150zM359 555l-123 -319h246zM361 794c-63 0 -112 49 -112 111s49 111 112 111c62 0 111 -49 111 -111s-49 -111 -111 -111zM361 864c22 0 40 18 40 41c0 22 -18 41 -40 41c-23 0 -41 -19 -41 -41
c0 -23 18 -41 41 -41z" />
    <glyph glyph-name="aring" unicode="&#xe5;" horiz-adv-x="558" 
d="M243 -12c-123 0 -222 65 -222 170c0 108 108 177 229 177c45 0 95 -16 129 -33v22c0 52 -71 76 -124 76c-50 0 -110 -13 -154 -52l-57 99c75 52 145 72 214 72c119 0 249 -61 249 -199v-320h-127v29c-32 -21 -80 -41 -137 -41zM271 563c-63 0 -112 49 -112 111
s49 111 112 111c62 0 111 -49 111 -111s-49 -111 -111 -111zM253 95c50 0 94 17 126 40v57c-30 20 -77 39 -120 39c-85 0 -122 -34 -122 -71c0 -35 40 -65 116 -65zM271 633c22 0 40 18 40 41c0 22 -18 41 -40 41c-23 0 -41 -19 -41 -41c0 -23 18 -41 41 -41z" />
    <glyph glyph-name="Adieresis" unicode="&#xc4;" horiz-adv-x="719" 
d="M-4 0l298 773h131l299 -773h-151l-43 111h-342l-42 -111h-150zM359 555l-123 -319h246zM473 832c-39 0 -70 31 -70 70c0 38 31 69 70 69s70 -31 70 -69c0 -39 -31 -70 -70 -70zM248 832c-39 0 -70 31 -70 70c0 38 31 69 70 69c38 0 69 -31 69 -69c0 -39 -31 -70 -69 -70z
" />
    <glyph glyph-name="adieresis" unicode="&#xe4;" horiz-adv-x="558" 
d="M243 -12c-123 0 -222 65 -222 170c0 108 108 177 229 177c45 0 95 -16 129 -33v22c0 52 -71 76 -124 76c-50 0 -110 -13 -154 -52l-57 99c75 52 145 72 214 72c119 0 249 -61 249 -199v-320h-127v29c-32 -21 -80 -41 -137 -41zM253 95c50 0 94 17 126 40v57
c-30 20 -77 39 -120 39c-85 0 -122 -34 -122 -71c0 -35 40 -65 116 -65zM384 592c-39 0 -70 30 -70 69s31 70 70 70s70 -31 70 -70s-31 -69 -70 -69zM159 592c-39 0 -70 30 -70 69s31 70 70 70c38 0 69 -31 69 -70s-31 -69 -69 -69z" />
    <glyph glyph-name="Ccaron" unicode="&#x10c;" horiz-adv-x="740" 
d="M439 -13c-222 0 -401 179 -401 400c0 222 179 401 401 401c112 0 213 -46 286 -120l-102 -99c-46 49 -112 80 -184 80c-144 0 -257 -117 -257 -262c0 -144 113 -261 257 -261c73 0 140 32 186 81l102 -98c-73 -75 -175 -122 -288 -122zM392 832l-114 127h103l57 -61
l57 61h103l-114 -127h-92z" />
    <glyph glyph-name="ccaron" unicode="&#x10d;" horiz-adv-x="475" 
d="M287 -10c-146 0 -265 119 -265 266c0 146 119 266 265 266c69 0 133 -28 182 -69l-73 -103c-29 27 -60 41 -102 41c-79 0 -136 -62 -136 -137s60 -133 136 -133c43 0 79 16 103 42l68 -107c-43 -36 -99 -66 -178 -66zM237 580l-134 157h103l77 -85l77 85h103l-134 -157
h-92z" />
    <glyph glyph-name="Ecircumflex" unicode="&#xca;" horiz-adv-x="574" 
d="M509 327h-286v-200h314v-127h-459v773h450v-127h-305v-192h286v-127zM148 831l114 127h92l114 -127h-103l-57 55l-57 -55h-103z" />
    <glyph glyph-name="ecircumflex" unicode="&#xea;" 
d="M295 -10c-173 0 -273 129 -273 269c0 144 103 263 264 263c149 0 262 -112 265 -259c1 -12 1 -25 0 -38h-403c4 -72 73 -119 147 -119c61 0 97 17 139 52l73 -77c-59 -62 -118 -91 -212 -91zM106 580l134 157h92l134 -157h-103l-77 85l-77 -85h-103zM284 410
c-81 0 -115 -41 -129 -90h258c-13 48 -59 90 -129 90z" />
    <glyph glyph-name="Eacute" unicode="&#xc9;" horiz-adv-x="574" 
d="M509 327h-286v-200h314v-127h-459v773h450v-127h-305v-192h286v-127zM251 829v17l86 112h133v-12l-129 -117h-90z" />
    <glyph glyph-name="eacute" unicode="&#xe9;" 
d="M295 -10c-173 0 -273 129 -273 269c0 144 103 263 264 263c149 0 262 -112 265 -259c1 -12 1 -25 0 -38h-403c4 -72 73 -119 147 -119c61 0 97 17 139 52l73 -77c-59 -62 -118 -91 -212 -91zM230 578v17l106 142h134v-12l-150 -147h-90zM284 410c-81 0 -115 -41 -129 -90
h258c-13 48 -59 90 -129 90z" />
    <glyph glyph-name="Edieresis" unicode="&#xcb;" horiz-adv-x="574" 
d="M509 327h-286v-200h314v-127h-459v773h450v-127h-305v-192h286v-127zM420 832c-39 0 -70 31 -70 70c0 38 31 69 70 69s70 -31 70 -69c0 -39 -31 -70 -70 -70zM195 832c-39 0 -70 31 -70 70c0 38 31 69 70 69c38 0 69 -31 69 -69c0 -39 -31 -70 -69 -70z" />
    <glyph glyph-name="edieresis" unicode="&#xeb;" 
d="M295 -10c-173 0 -273 129 -273 269c0 144 103 263 264 263c149 0 262 -112 265 -259c1 -12 1 -25 0 -38h-403c4 -72 73 -119 147 -119c61 0 97 17 139 52l73 -77c-59 -62 -118 -91 -212 -91zM284 410c-81 0 -115 -41 -129 -90h258c-13 48 -59 90 -129 90zM398 592
c-39 0 -70 30 -70 69s31 70 70 70s70 -31 70 -70s-31 -69 -70 -69zM173 592c-39 0 -70 30 -70 69s31 70 70 70c38 0 69 -31 69 -70s-31 -69 -69 -69z" />
    <glyph glyph-name="Egrave" unicode="&#xc8;" horiz-adv-x="574" 
d="M509 327h-286v-200h314v-127h-459v773h450v-127h-305v-192h286v-127zM267 829l-127 116v13h131l90 -115v-14h-94z" />
    <glyph glyph-name="egrave" unicode="&#xe8;" 
d="M295 -10c-173 0 -273 129 -273 269c0 144 103 263 264 263c149 0 262 -112 265 -259c1 -12 1 -25 0 -38h-403c4 -72 73 -119 147 -119c61 0 97 17 139 52l73 -77c-59 -62 -118 -91 -212 -91zM246 578l-148 146v13h132l110 -145v-14h-94zM284 410c-81 0 -115 -41 -129 -90
h258c-13 48 -59 90 -129 90z" />
    <glyph glyph-name="Iacute" unicode="&#xcd;" horiz-adv-x="301" 
d="M78 0v773h145v-773h-145zM95 829v17l86 112h133v-12l-129 -117h-90z" />
    <glyph glyph-name="Idieresis" unicode="&#xcf;" horiz-adv-x="301" 
d="M78 0v773h145v-773h-145zM239 832c-39 0 -70 31 -70 70c0 38 31 70 70 70s70 -32 70 -70c0 -39 -31 -70 -70 -70zM63 832c-39 0 -70 31 -70 70c0 38 31 70 70 70s70 -32 70 -70c0 -39 -31 -70 -70 -70z" />
    <glyph glyph-name="Icircumflex" unicode="&#xce;" horiz-adv-x="301" 
d="M78 0v773h145v-773h-145zM-9 831l114 127h92l114 -127h-103l-57 55l-57 -55h-103z" />
    <glyph glyph-name="Igrave" unicode="&#xcc;" horiz-adv-x="301" 
d="M78 0v773h145v-773h-145zM111 829l-127 116v13h131l90 -115v-14h-94z" />
    <glyph glyph-name="Ccedilla" unicode="&#xc7;" horiz-adv-x="740" 
d="M367 -211v72c9 -2 16 -3 23 -3c29 0 52 10 52 36c0 25 -21 39 -46 39c-2 0 -4 0 -9 -1v59c-197 25 -349 192 -349 396c0 222 179 401 401 401c112 0 213 -46 286 -120l-102 -99c-46 49 -112 80 -184 80c-144 0 -257 -117 -257 -262c0 -144 113 -261 257 -261
c73 0 140 32 186 81l102 -98c-66 -68 -156 -112 -256 -120v-20c37 -9 61 -42 61 -81c0 -62 -46 -101 -134 -101c-10 0 -19 1 -31 2z" />
    <glyph glyph-name="ccedilla" unicode="&#xe7;" horiz-adv-x="475" 
d="M219 -211v72c9 -2 16 -3 23 -3c29 0 52 10 52 36c0 25 -21 39 -46 39c-2 0 -4 0 -9 -1v63c-124 22 -217 130 -217 261c0 146 119 266 265 266c69 0 133 -28 182 -69l-73 -103c-29 27 -60 41 -102 41c-79 0 -136 -62 -136 -137s60 -133 136 -133c43 0 79 16 103 42
l68 -107c-36 -31 -82 -56 -142 -64v-23c37 -9 61 -42 61 -81c0 -62 -46 -101 -134 -101c-10 0 -19 1 -31 2z" />
    <glyph glyph-name="ntilde" unicode="&#xf1;" horiz-adv-x="581" 
d="M397 0v282c0 66 -50 106 -108 106c-38 0 -70 -18 -96 -50v-338h-135v511h135v-34c27 24 63 40 118 40c115 0 220 -75 220 -217v-300h-134zM367 587c-60 0 -109 51 -147 51c-23 0 -40 -15 -41 -42l-63 12c0 67 38 119 106 119c57 0 110 -54 148 -54c28 0 39 19 42 47
l67 -14c0 -64 -39 -119 -112 -119z" />
    <glyph glyph-name="Oacute" unicode="&#xd3;" horiz-adv-x="879" 
d="M439 126c143 0 257 117 257 261c0 145 -114 262 -257 262s-256 -117 -256 -262c0 -144 113 -261 256 -261zM439 -13c-221 0 -401 179 -401 400c0 222 180 401 401 401c222 0 403 -179 403 -401c0 -221 -181 -400 -403 -400zM383 829v17l86 112h133v-12l-129 -117h-90z
" />
    <glyph glyph-name="oacute" unicode="&#xf3;" horiz-adv-x="590" 
d="M295 118c80 0 139 63 139 139c0 80 -61 138 -139 138s-139 -58 -139 -138c0 -76 60 -139 139 -139zM295 -10c-163 0 -273 123 -273 267s115 266 273 266s273 -122 273 -266c0 -143 -110 -267 -273 -267zM239 578v17l106 142h134v-12l-150 -147h-90z" />
    <glyph glyph-name="Ocircumflex" unicode="&#xd4;" horiz-adv-x="879" 
d="M439 126c143 0 257 117 257 261c0 145 -114 262 -257 262s-256 -117 -256 -262c0 -144 113 -261 256 -261zM439 -13c-221 0 -401 179 -401 400c0 222 180 401 401 401c222 0 403 -179 403 -401c0 -221 -181 -400 -403 -400zM280 831l114 127h92l114 -127h-103l-57 55
l-57 -55h-103z" />
    <glyph glyph-name="ocircumflex" unicode="&#xf4;" horiz-adv-x="590" 
d="M295 118c80 0 139 63 139 139c0 80 -61 138 -139 138s-139 -58 -139 -138c0 -76 60 -139 139 -139zM295 -10c-163 0 -273 123 -273 267s115 266 273 266s273 -122 273 -266c0 -143 -110 -267 -273 -267zM115 580l134 157h92l134 -157h-103l-77 85l-77 -85h-103z" />
    <glyph glyph-name="Odieresis" unicode="&#xd6;" horiz-adv-x="879" 
d="M439 126c143 0 257 117 257 261c0 145 -114 262 -257 262s-256 -117 -256 -262c0 -144 113 -261 256 -261zM439 -13c-221 0 -401 179 -401 400c0 222 180 401 401 401c222 0 403 -179 403 -401c0 -221 -181 -400 -403 -400zM552 832c-39 0 -70 31 -70 70
c0 38 31 69 70 69s70 -31 70 -69c0 -39 -31 -70 -70 -70zM327 832c-39 0 -70 31 -70 70c0 38 31 69 70 69c38 0 69 -31 69 -69c0 -39 -31 -70 -69 -70z" />
    <glyph glyph-name="odieresis" unicode="&#xf6;" horiz-adv-x="590" 
d="M295 118c80 0 139 63 139 139c0 80 -61 138 -139 138s-139 -58 -139 -138c0 -76 60 -139 139 -139zM295 -10c-163 0 -273 123 -273 267s115 266 273 266s273 -122 273 -266c0 -143 -110 -267 -273 -267zM408 592c-39 0 -70 30 -70 69s31 70 70 70s70 -31 70 -70
s-31 -69 -70 -69zM183 592c-39 0 -70 30 -70 69s31 70 70 70c38 0 69 -31 69 -70s-31 -69 -69 -69z" />
    <glyph glyph-name="Ohungarumlaut" unicode="&#x150;" horiz-adv-x="879" 
d="M439 126c143 0 257 117 257 261c0 145 -114 262 -257 262s-256 -117 -256 -262c0 -144 113 -261 256 -261zM439 -13c-221 0 -401 179 -401 400c0 222 180 401 401 401c222 0 403 -179 403 -401c0 -221 -181 -400 -403 -400zM312 829v9l68 119h97v-10l-99 -118h-66z
M490 829v10l78 118h98v-10l-109 -118h-67z" />
    <glyph glyph-name="ohungarumlaut" unicode="&#x151;" horiz-adv-x="590" 
d="M295 118c80 0 139 63 139 139c0 80 -61 138 -139 138s-139 -58 -139 -138c0 -76 60 -139 139 -139zM295 -10c-163 0 -273 123 -273 267s115 266 273 266s273 -122 273 -266c0 -143 -110 -267 -273 -267zM159 578l90 156h112l-122 -156h-80zM334 578l102 156h113
l-134 -156h-81z" />
    <glyph glyph-name="Ograve" unicode="&#xd2;" horiz-adv-x="879" 
d="M439 126c143 0 257 117 257 261c0 145 -114 262 -257 262s-256 -117 -256 -262c0 -144 113 -261 256 -261zM439 -13c-221 0 -401 179 -401 400c0 222 180 401 401 401c222 0 403 -179 403 -401c0 -221 -181 -400 -403 -400zM399 829l-127 116v13h131l90 -115v-14h-94z
" />
    <glyph glyph-name="ograve" unicode="&#xf2;" horiz-adv-x="590" 
d="M295 118c80 0 139 63 139 139c0 80 -61 138 -139 138s-139 -58 -139 -138c0 -76 60 -139 139 -139zM295 -10c-163 0 -273 123 -273 267s115 266 273 266s273 -122 273 -266c0 -143 -110 -267 -273 -267zM255 578l-148 146v13h132l110 -145v-14h-94z" />
    <glyph glyph-name="Otilde" unicode="&#xd5;" horiz-adv-x="879" 
d="M439 126c143 0 257 117 257 261c0 145 -114 262 -257 262s-256 -117 -256 -262c0 -144 113 -261 256 -261zM439 -13c-221 0 -401 179 -401 400c0 222 180 401 401 401c222 0 403 -179 403 -401c0 -221 -181 -400 -403 -400zM512 838c-60 0 -109 51 -147 51
c-23 0 -40 -15 -41 -42l-63 12c0 67 38 119 106 119c57 0 110 -54 148 -54c28 0 39 19 42 47l67 -14c0 -64 -39 -119 -112 -119z" />
    <glyph glyph-name="otilde" unicode="&#xf5;" horiz-adv-x="590" 
d="M295 118c80 0 139 63 139 139c0 80 -61 138 -139 138s-139 -58 -139 -138c0 -76 60 -139 139 -139zM295 -10c-163 0 -273 123 -273 267s115 266 273 266s273 -122 273 -266c0 -143 -110 -267 -273 -267zM367 587c-60 0 -109 51 -147 51c-23 0 -40 -15 -41 -42l-63 12
c0 67 38 119 106 119c57 0 110 -54 148 -54c28 0 39 19 42 47l67 -14c0 -64 -39 -119 -112 -119z" />
    <glyph glyph-name="Scaron" unicode="&#x160;" horiz-adv-x="580" 
d="M288 -10c-99 0 -201 43 -272 115l92 110c45 -53 118 -96 187 -96s115 40 115 93c0 43 -22 81 -86 107l-86 35c-112 46 -170 106 -170 211c0 113 95 217 231 217c101 0 175 -32 234 -89l-83 -108c-42 46 -90 67 -151 67c-57 0 -95 -32 -95 -79c0 -39 25 -64 85 -89l90 -36
c119 -48 172 -128 172 -224c0 -136 -100 -234 -263 -234zM253 832l-114 127h103l57 -61l57 61h103l-114 -127h-92z" />
    <glyph glyph-name="scaron" unicode="&#x161;" horiz-adv-x="520" 
d="M270 -13c-97 0 -175 20 -259 68l65 106c58 -38 127 -61 198 -61c67 0 101 17 101 46c0 19 -16 33 -50 40l-140 30c-103 22 -150 71 -150 151c0 85 72 156 221 156c90 0 170 -26 225 -60l-61 -102c-45 24 -105 50 -168 50c-57 0 -90 -14 -90 -40c0 -17 12 -28 45 -34
l118 -22c128 -25 177 -82 177 -159c0 -111 -111 -169 -232 -169zM209 580l-134 157h103l77 -85l77 85h103l-134 -157h-92z" />
    <glyph glyph-name="Uacute" unicode="&#xda;" horiz-adv-x="713" 
d="M356 -12c-172 0 -294 123 -294 286v499h144v-483c0 -93 53 -167 150 -167s151 72 151 165v485h144v-499c0 -163 -121 -286 -295 -286zM301 829v17l86 112h133v-12l-129 -117h-90z" />
    <glyph glyph-name="Ucircumflex" unicode="&#xdb;" horiz-adv-x="713" 
d="M356 -12c-172 0 -294 123 -294 286v499h144v-483c0 -93 53 -167 150 -167s151 72 151 165v485h144v-499c0 -163 -121 -286 -295 -286zM197 831l114 127h92l114 -127h-103l-57 55l-57 -55h-103z" />
    <glyph glyph-name="Udieresis" unicode="&#xdc;" horiz-adv-x="713" 
d="M356 -12c-172 0 -294 123 -294 286v499h144v-483c0 -93 53 -167 150 -167s151 72 151 165v485h144v-499c0 -163 -121 -286 -295 -286zM469 832c-39 0 -70 31 -70 70c0 38 31 69 70 69s70 -31 70 -69c0 -39 -31 -70 -70 -70zM244 832c-39 0 -70 31 -70 70
c0 38 31 69 70 69c38 0 69 -31 69 -69c0 -39 -31 -70 -69 -70z" />
    <glyph glyph-name="Ugrave" unicode="&#xd9;" horiz-adv-x="713" 
d="M356 -12c-172 0 -294 123 -294 286v499h144v-483c0 -93 53 -167 150 -167s151 72 151 165v485h144v-499c0 -163 -121 -286 -295 -286zM317 829l-127 116v13h131l90 -115v-14h-94z" />
    <glyph glyph-name="Uhungarumlaut" unicode="&#x170;" horiz-adv-x="713" 
d="M356 -12c-172 0 -294 123 -294 286v499h144v-483c0 -93 53 -167 150 -167s151 72 151 165v485h144v-499c0 -163 -121 -286 -295 -286zM230 829v9l68 119h97v-10l-99 -118h-66zM408 829v10l78 118h98v-10l-109 -118h-67z" />
    <glyph glyph-name="Yacute" unicode="&#xdd;" horiz-adv-x="630" 
d="M489 773h156l-256 -459v-314h-145v309l-259 464h161l173 -319zM260 829v17l86 112h133v-12l-129 -117h-90z" />
    <glyph glyph-name="yacute" unicode="&#xfd;" horiz-adv-x="535" 
d="M-12 511h148l134 -341l138 341h140l-294 -690h-125l74 184zM212 578v17l106 142h134v-12l-150 -147h-90z" />
    <glyph glyph-name="Ydieresis" unicode="&#x178;" horiz-adv-x="630" 
d="M489 773h156l-256 -459v-314h-145v309l-259 464h161l173 -319zM428 832c-39 0 -70 31 -70 70c0 38 31 69 70 69s70 -31 70 -69c0 -39 -31 -70 -70 -70zM203 832c-39 0 -70 31 -70 70c0 38 31 69 70 69c38 0 69 -31 69 -69c0 -39 -31 -70 -69 -70z" />
    <glyph glyph-name="ydieresis" unicode="&#xff;" horiz-adv-x="535" 
d="M-12 511h148l134 -341l138 341h140l-294 -690h-125l74 184zM380 592c-39 0 -70 30 -70 69s31 70 70 70s70 -31 70 -70s-31 -69 -70 -69zM155 592c-39 0 -70 30 -70 69s31 70 70 70c38 0 69 -31 69 -70s-31 -69 -69 -69z" />
    <glyph glyph-name="Zcaron" unicode="&#x17d;" horiz-adv-x="613" 
d="M29 0v86l376 561h-363v126h542v-96l-369 -551h365v-126h-551zM264 831l-114 127h103l57 -61l57 61h103l-114 -127h-92z" />
    <glyph glyph-name="zcaron" unicode="&#x17e;" horiz-adv-x="508" 
d="M2 0l261 392h-229v119h467l-266 -392h262v-119h-495zM214 580l-134 157h103l77 -85l77 85h103l-134 -157h-92z" />
    <glyph glyph-name="Tcommaaccent" unicode="&#x162;" horiz-adv-x="653" 
d="M8 638v135h638v-135h-247v-638h-144v638h-247zM304 -207l-82 27l52 155l114 -26z" />
    <glyph glyph-name="Tcommaaccent" unicode="&#x21a;" horiz-adv-x="653" 
d="M8 638v135h638v-135h-247v-638h-144v638h-247zM304 -207l-82 27l52 155l114 -26z" />
    <glyph glyph-name="amacron" unicode="&#x101;" horiz-adv-x="558" 
d="M243 -12c-123 0 -222 65 -222 170c0 108 108 177 229 177c45 0 95 -16 129 -33v22c0 52 -71 76 -124 76c-50 0 -110 -13 -154 -52l-57 99c75 52 145 72 214 72c119 0 249 -61 249 -199v-320h-127v29c-32 -21 -80 -41 -137 -41zM112 605v95h319v-95h-319zM253 95
c50 0 94 17 126 40v57c-30 20 -77 39 -120 39c-85 0 -122 -34 -122 -71c0 -35 40 -65 116 -65z" />
    <glyph glyph-name="abreve" unicode="&#x103;" horiz-adv-x="558" 
d="M243 -12c-123 0 -222 65 -222 170c0 108 108 177 229 177c45 0 95 -16 129 -33v22c0 52 -71 76 -124 76c-50 0 -110 -13 -154 -52l-57 99c75 52 145 72 214 72c119 0 249 -61 249 -199v-320h-127v29c-32 -21 -80 -41 -137 -41zM271 584c-103 0 -167 56 -172 153h93
c2 -41 30 -70 79 -70c48 0 75 28 78 70h93c-8 -102 -68 -153 -171 -153zM253 95c50 0 94 17 126 40v57c-30 20 -77 39 -120 39c-85 0 -122 -34 -122 -71c0 -35 40 -65 116 -65z" />
    <glyph glyph-name="adotaccent" unicode="&#x227;" horiz-adv-x="558" 
d="M243 -12c-123 0 -222 65 -222 170c0 108 108 177 229 177c45 0 95 -16 129 -33v22c0 52 -71 76 -124 76c-50 0 -110 -13 -154 -52l-57 99c75 52 145 72 214 72c119 0 249 -61 249 -199v-320h-127v29c-32 -21 -80 -41 -137 -41zM253 95c50 0 94 17 126 40v57
c-30 20 -77 39 -120 39c-85 0 -122 -34 -122 -71c0 -35 40 -65 116 -65zM270 611c-43 0 -75 35 -75 77c0 44 32 77 75 77s78 -33 78 -77c0 -42 -35 -77 -78 -77z" />
    <glyph glyph-name="aeacute" unicode="&#x1fd;" horiz-adv-x="925" 
d="M243 -12c-122 0 -222 63 -222 170c0 108 108 177 229 177c43 0 94 -15 129 -34v23c0 52 -71 76 -124 76c-50 0 -110 -13 -154 -52l-57 99c75 52 145 72 214 72c72 0 148 -23 197 -71c46 45 110 74 188 74c149 0 262 -112 265 -259c1 -12 1 -25 0 -38h-403
c4 -72 73 -119 147 -119c61 0 97 17 139 52l73 -77c-59 -62 -118 -91 -212 -91c-85 0 -153 30 -199 78c-65 -58 -132 -80 -210 -80zM253 95c57 0 109 22 145 58c-4 10 -7 21 -10 32c-29 22 -81 46 -129 46c-85 0 -122 -34 -122 -71c0 -34 39 -65 116 -65zM398 578v17
l106 142h134v-12l-150 -147h-90zM641 410c-81 0 -115 -41 -129 -90h258c-13 48 -59 90 -129 90z" />
    <glyph glyph-name="ccircumflex" unicode="&#x109;" horiz-adv-x="475" 
d="M287 -10c-146 0 -265 119 -265 266c0 146 119 266 265 266c69 0 133 -28 182 -69l-73 -103c-29 27 -60 41 -102 41c-79 0 -136 -62 -136 -137s60 -133 136 -133c43 0 79 16 103 42l68 -107c-43 -36 -99 -66 -178 -66zM104 580l134 157h92l134 -157h-103l-77 85l-77 -85
h-103z" />
    <glyph glyph-name="cdotaccent" unicode="&#x10b;" horiz-adv-x="475" 
d="M287 -10c-146 0 -265 119 -265 266c0 146 119 266 265 266c69 0 133 -28 182 -69l-73 -103c-29 27 -60 41 -102 41c-79 0 -136 -62 -136 -137s60 -133 136 -133c43 0 79 16 103 42l68 -107c-43 -36 -99 -66 -178 -66zM283 611c-43 0 -75 35 -75 77c0 44 32 77 75 77
s78 -33 78 -77c0 -42 -35 -77 -78 -77z" />
    <glyph glyph-name="ecaron" unicode="&#x11b;" 
d="M295 -10c-173 0 -273 129 -273 269c0 144 103 263 264 263c149 0 262 -112 265 -259c1 -12 1 -25 0 -38h-403c4 -72 73 -119 147 -119c61 0 97 17 139 52l73 -77c-59 -62 -118 -91 -212 -91zM240 580l-134 157h103l77 -85l77 85h103l-134 -157h-92zM284 410
c-81 0 -115 -41 -129 -90h258c-13 48 -59 90 -129 90z" />
    <glyph glyph-name="ebreve" unicode="&#x115;" 
d="M295 -10c-173 0 -273 129 -273 269c0 144 103 263 264 263c149 0 262 -112 265 -259c1 -12 1 -25 0 -38h-403c4 -72 73 -119 147 -119c61 0 97 17 139 52l73 -77c-59 -62 -118 -91 -212 -91zM286 584c-103 0 -167 56 -172 153h93c2 -41 30 -70 79 -70c48 0 75 28 78 70
h93c-8 -102 -68 -153 -171 -153zM284 410c-81 0 -115 -41 -129 -90h258c-13 48 -59 90 -129 90z" />
    <glyph glyph-name="emacron" unicode="&#x113;" 
d="M295 -10c-173 0 -273 129 -273 269c0 144 103 263 264 263c149 0 262 -112 265 -259c1 -12 1 -25 0 -38h-403c4 -72 73 -119 147 -119c61 0 97 17 139 52l73 -77c-59 -62 -118 -91 -212 -91zM127 605v95h319v-95h-319zM284 410c-81 0 -115 -41 -129 -90h258
c-13 48 -59 90 -129 90z" />
    <glyph glyph-name="cacute" unicode="&#x107;" horiz-adv-x="475" 
d="M287 -10c-146 0 -265 119 -265 266c0 146 119 266 265 266c69 0 133 -28 182 -69l-73 -103c-29 27 -60 41 -102 41c-79 0 -136 -62 -136 -137s60 -133 136 -133c43 0 79 16 103 42l68 -107c-43 -36 -99 -66 -178 -66zM227 578v17l106 142h134v-12l-150 -147h-90z" />
    <glyph glyph-name="edotaccent" unicode="&#x117;" 
d="M295 -10c-173 0 -273 129 -273 269c0 144 103 263 264 263c149 0 262 -112 265 -259c1 -12 1 -25 0 -38h-403c4 -72 73 -119 147 -119c61 0 97 17 139 52l73 -77c-59 -62 -118 -91 -212 -91zM285 611c-43 0 -75 35 -75 77c0 44 32 77 75 77s78 -33 78 -77
c0 -42 -35 -77 -78 -77zM284 410c-81 0 -115 -41 -129 -90h258c-13 48 -59 90 -129 90z" />
    <glyph glyph-name="gdotaccent" unicode="&#x121;" horiz-adv-x="609" 
d="M284 -4c-153 0 -262 114 -262 261c0 141 110 260 262 260c50 0 96 -13 135 -34v28h132v-482c0 -133 -115 -205 -259 -205c-94 0 -184 28 -243 74l55 95c49 -33 116 -54 188 -54c93 0 122 37 126 97c-40 -25 -86 -40 -134 -40zM293 123c57 0 102 29 126 77v114
c-23 48 -71 80 -125 80c-78 0 -139 -62 -139 -137c0 -79 60 -134 138 -134zM292 611c-43 0 -75 35 -75 77c0 44 32 77 75 77s78 -33 78 -77c0 -42 -35 -77 -78 -77z" />
    <glyph glyph-name="gcommaaccent" unicode="&#x123;" horiz-adv-x="609" 
d="M284 -4c-153 0 -262 114 -262 261c0 141 110 260 262 260c50 0 96 -13 135 -34v28h132v-482c0 -133 -115 -205 -259 -205c-94 0 -184 28 -243 74l55 95c49 -33 116 -54 188 -54c93 0 122 37 126 97c-40 -25 -86 -40 -134 -40zM293 123c57 0 102 29 126 77v114
c-23 48 -71 80 -125 80c-78 0 -139 -62 -139 -137c0 -79 60 -134 138 -134zM239 607l83 155l83 -27l-53 -155z" />
    <glyph glyph-name="gbreve" unicode="&#x11f;" horiz-adv-x="609" 
d="M284 -4c-153 0 -262 114 -262 261c0 141 110 260 262 260c50 0 96 -13 135 -34v28h132v-482c0 -133 -115 -205 -259 -205c-94 0 -184 28 -243 74l55 95c49 -33 116 -54 188 -54c93 0 122 37 126 97c-40 -25 -86 -40 -134 -40zM293 123c57 0 102 29 126 77v114
c-23 48 -71 80 -125 80c-78 0 -139 -62 -139 -137c0 -79 60 -134 138 -134zM293 584c-103 0 -167 56 -172 153h93c2 -41 30 -70 79 -70c48 0 75 28 78 70h93c-8 -102 -68 -153 -171 -153z" />
    <glyph glyph-name="gcircumflex" unicode="&#x11d;" horiz-adv-x="609" 
d="M284 -4c-153 0 -262 114 -262 261c0 141 110 260 262 260c50 0 96 -13 135 -34v28h132v-482c0 -133 -115 -205 -259 -205c-94 0 -184 28 -243 74l55 95c49 -33 116 -54 188 -54c93 0 122 37 126 97c-40 -25 -86 -40 -134 -40zM293 123c57 0 102 29 126 77v114
c-23 48 -71 80 -125 80c-78 0 -139 -62 -139 -137c0 -79 60 -134 138 -134zM113 580l134 157h92l134 -157h-103l-77 85l-77 -85h-103z" />
    <glyph glyph-name="ibreve" unicode="&#x12d;" horiz-adv-x="250" 
d="M58 0v511h134v-511h-134zM125 584c-103 0 -167 56 -172 153h93c2 -41 30 -70 79 -70c48 0 75 28 78 70h93c-8 -102 -68 -153 -171 -153z" />
    <glyph glyph-name="itilde" unicode="&#x129;" horiz-adv-x="250" 
d="M58 0v511h134v-511h-134zM193 587c-57 0 -103 51 -139 51c-22 0 -38 -15 -39 -42l-59 12c0 67 35 119 100 119c53 0 103 -54 139 -54c27 0 37 19 40 47l63 -14c0 -64 -37 -119 -105 -119z" />
    <glyph glyph-name="dotlessj" unicode="&#x237;" horiz-adv-x="251" 
d="M-14 -183v103c48 1 72 36 72 95v496h135v-485c0 -147 -76 -207 -207 -209z" />
    <glyph glyph-name="jcircumflex" unicode="&#x135;" horiz-adv-x="251" 
d="M-14 -183v103c48 1 72 36 72 95v496h135v-485c0 -147 -76 -207 -207 -209zM-28 580l105 157h95l107 -157h-101l-53 83l-52 -83h-101z" />
    <glyph glyph-name="hcircumflex" unicode="&#x125;" horiz-adv-x="583" 
d="M399 0v282c0 66 -50 106 -108 106c-38 0 -71 -18 -97 -51v-337h-134v780h134v-304c28 25 63 41 119 41c115 0 220 -75 220 -217v-300h-134zM158 829l114 127h92l114 -127h-103l-57 55l-57 -55h-103z" />
    <glyph glyph-name="lacute" unicode="&#x13a;" horiz-adv-x="250" 
d="M58 0v780h134v-780h-134zM83 820v17l86 112h133v-12l-129 -117h-90z" />
    <glyph glyph-name="nacute" unicode="&#x144;" horiz-adv-x="581" 
d="M397 0v282c0 66 -50 106 -108 106c-38 0 -70 -18 -96 -50v-338h-135v511h135v-34c27 24 63 40 118 40c115 0 220 -75 220 -217v-300h-134zM239 578v17l106 142h134v-12l-150 -147h-90z" />
    <glyph glyph-name="ncaron" unicode="&#x148;" horiz-adv-x="581" 
d="M397 0v282c0 66 -50 106 -108 106c-38 0 -70 -18 -96 -50v-338h-135v511h135v-34c27 24 63 40 118 40c115 0 220 -75 220 -217v-300h-134zM248 580l-134 157h103l77 -85l77 85h103l-134 -157h-92z" />
    <glyph glyph-name="eng" unicode="&#x14b;" horiz-adv-x="581" 
d="M58 0v511h135v-34c27 24 63 40 118 40c115 0 220 -75 220 -217v-274c0 -147 -76 -207 -207 -209v103c48 1 73 36 73 95v267c0 66 -51 106 -108 106c-37 0 -70 -19 -96 -52v-336h-135z" />
    <glyph glyph-name="omacron" unicode="&#x14d;" horiz-adv-x="590" 
d="M295 118c80 0 139 63 139 139c0 80 -61 138 -139 138s-139 -58 -139 -138c0 -76 60 -139 139 -139zM295 -10c-163 0 -273 123 -273 267s115 266 273 266s273 -122 273 -266c0 -143 -110 -267 -273 -267zM136 605v95h319v-95h-319z" />
    <glyph glyph-name="obreve" unicode="&#x14f;" horiz-adv-x="590" 
d="M295 118c80 0 139 63 139 139c0 80 -61 138 -139 138s-139 -58 -139 -138c0 -76 60 -139 139 -139zM295 -10c-163 0 -273 123 -273 267s115 266 273 266s273 -122 273 -266c0 -143 -110 -267 -273 -267zM295 584c-103 0 -167 56 -172 153h93c2 -41 30 -70 79 -70
c48 0 75 28 78 70h93c-8 -102 -68 -153 -171 -153z" />
    <glyph glyph-name="sacute" unicode="&#x15b;" horiz-adv-x="520" 
d="M270 -13c-97 0 -175 20 -259 68l65 106c58 -38 127 -61 198 -61c67 0 101 17 101 46c0 19 -16 33 -50 40l-140 30c-103 22 -150 71 -150 151c0 85 72 156 221 156c90 0 170 -26 225 -60l-61 -102c-45 24 -105 50 -168 50c-57 0 -90 -14 -90 -40c0 -17 12 -28 45 -34
l118 -22c128 -25 177 -82 177 -159c0 -111 -111 -169 -232 -169zM200 578v17l106 142h134v-12l-150 -147h-90z" />
    <glyph glyph-name="scedilla" unicode="&#x15f;" horiz-adv-x="520" 
d="M198 -211v72c9 -2 16 -3 23 -3c29 0 52 10 52 36c0 25 -21 39 -46 39c-2 0 -4 0 -9 -1v57c-74 6 -139 27 -207 66l65 106c58 -38 127 -61 198 -61c67 0 101 17 101 46c0 19 -16 33 -50 40l-140 30c-103 22 -150 71 -150 151c0 85 72 156 221 156c90 0 170 -26 225 -60
l-61 -102c-45 24 -105 50 -168 50c-57 0 -90 -14 -90 -40c0 -17 12 -28 45 -34l118 -22c128 -25 177 -82 177 -159c0 -101 -92 -158 -200 -167v-20c37 -9 61 -42 61 -81c0 -62 -46 -101 -134 -101c-10 0 -19 1 -31 2z" />
    <glyph glyph-name="scircumflex" unicode="&#x15d;" horiz-adv-x="520" 
d="M270 -13c-97 0 -175 20 -259 68l65 106c58 -38 127 -61 198 -61c67 0 101 17 101 46c0 19 -16 33 -50 40l-140 30c-103 22 -150 71 -150 151c0 85 72 156 221 156c90 0 170 -26 225 -60l-61 -102c-45 24 -105 50 -168 50c-57 0 -90 -14 -90 -40c0 -17 12 -28 45 -34
l118 -22c128 -25 177 -82 177 -159c0 -111 -111 -169 -232 -169zM76 580l134 157h92l134 -157h-103l-77 85l-77 -85h-103z" />
    <glyph glyph-name="tbar" unicode="&#x167;" horiz-adv-x="324" 
d="M18 395v116h76v141l133 86v-227h78v-116h-78v-84h78v-117h-78v-194h-133v194h-75v117h75v84h-76z" />
    <glyph glyph-name="wdieresis" unicode="&#x1e85;" horiz-adv-x="848" 
d="M170 0l-178 511h138l112 -335l115 335h127l117 -350l124 350h131l-190 -511h-134l-114 333l-120 -333h-128zM536 592c-39 0 -70 30 -70 69s31 70 70 70s70 -31 70 -70s-31 -69 -70 -69zM311 592c-39 0 -70 30 -70 69s31 70 70 70c38 0 69 -31 69 -70s-31 -69 -69 -69z
" />
    <glyph glyph-name="wacute" unicode="&#x1e83;" horiz-adv-x="848" 
d="M170 0l-178 511h138l112 -335l115 335h127l117 -350l124 350h131l-190 -511h-134l-114 333l-120 -333h-128zM368 578v17l106 142h134v-12l-150 -147h-90z" />
    <glyph glyph-name="wgrave" unicode="&#x1e81;" horiz-adv-x="848" 
d="M170 0l-178 511h138l112 -335l115 335h127l117 -350l124 350h131l-190 -511h-134l-114 333l-120 -333h-128zM384 578l-148 146v13h132l110 -145v-14h-94z" />
    <glyph glyph-name="wcircumflex" unicode="&#x175;" horiz-adv-x="848" 
d="M170 0l-178 511h138l112 -335l115 335h127l117 -350l124 350h131l-190 -511h-134l-114 333l-120 -333h-128zM244 580l134 157h92l134 -157h-103l-77 85l-77 -85h-103z" />
    <glyph glyph-name="ycircumflex" unicode="&#x177;" horiz-adv-x="535" 
d="M-12 511h148l134 -341l138 341h140l-294 -690h-125l74 184zM88 580l134 157h92l134 -157h-103l-77 85l-77 -85h-103z" />
    <glyph glyph-name="ygrave" unicode="&#x1ef3;" horiz-adv-x="535" 
d="M-12 511h148l134 -341l138 341h140l-294 -690h-125l74 184zM228 578l-148 146v13h132l110 -145v-14h-94z" />
    <glyph glyph-name="zdotaccent" unicode="&#x17c;" horiz-adv-x="508" 
d="M2 0l261 392h-229v119h467l-266 -392h262v-119h-495zM259 611c-43 0 -75 35 -75 77c0 44 32 77 75 77s78 -33 78 -77c0 -42 -35 -77 -78 -77z" />
    <glyph glyph-name="zacute" unicode="&#x17a;" horiz-adv-x="508" 
d="M2 0l261 392h-229v119h467l-266 -392h262v-119h-495zM204 578v17l106 142h134v-12l-150 -147h-90z" />
    <glyph glyph-name="ubreve" unicode="&#x16d;" horiz-adv-x="581" 
d="M266 -8c-110 0 -216 75 -216 218v301h134v-290c0 -66 51 -106 108 -106c43 0 78 23 96 60v336h135v-511h-135v36c-31 -27 -68 -44 -122 -44zM289 584c-103 0 -167 56 -172 153h93c2 -41 30 -70 79 -70c48 0 75 28 78 70h93c-8 -102 -68 -153 -171 -153z" />
    <glyph glyph-name="utilde" unicode="&#x169;" horiz-adv-x="581" 
d="M266 -8c-110 0 -216 75 -216 218v301h134v-290c0 -66 51 -106 108 -106c43 0 78 23 96 60v336h135v-511h-135v36c-31 -27 -68 -44 -122 -44zM362 587c-60 0 -109 51 -147 51c-23 0 -40 -15 -41 -42l-63 12c0 67 38 119 106 119c57 0 110 -54 148 -54c28 0 39 19 42 47
l67 -14c0 -64 -39 -119 -112 -119z" />
    <glyph glyph-name="umacron" unicode="&#x16b;" horiz-adv-x="581" 
d="M266 -8c-110 0 -216 75 -216 218v301h134v-290c0 -66 51 -106 108 -106c43 0 78 23 96 60v336h135v-511h-135v36c-31 -27 -68 -44 -122 -44zM131 605v95h319v-95h-319z" />
    <glyph glyph-name="uring" unicode="&#x16f;" horiz-adv-x="581" 
d="M266 -8c-110 0 -216 75 -216 218v301h134v-290c0 -66 51 -106 108 -106c43 0 78 23 96 60v336h135v-511h-135v36c-31 -27 -68 -44 -122 -44zM290 563c-63 0 -112 49 -112 111s49 111 112 111c62 0 111 -49 111 -111s-49 -111 -111 -111zM290 633c22 0 40 18 40 41
c0 22 -18 41 -40 41c-23 0 -41 -19 -41 -41c0 -23 18 -41 41 -41z" />
    <glyph glyph-name="kgreenlandic" unicode="&#x138;" horiz-adv-x="554" 
d="M387 511h159l-195 -207l207 -304h-154l-142 210l-70 -75v-135h-134v511h134v-211z" />
    <glyph glyph-name="hbar" unicode="&#x127;" horiz-adv-x="583" 
d="M-7 612v89h67v79h134v-79h144v-89h-144v-136c28 25 63 41 119 41c115 0 220 -75 220 -217v-300h-134v282c0 66 -50 106 -108 106c-38 0 -71 -18 -97 -51v-337h-134v612h-67z" />
    <glyph glyph-name="dcroat" unicode="&#x111;" horiz-adv-x="608" 
d="M262 612v89h153v79h134v-79h67v-89h-67v-612h-134v28c-39 -24 -84 -37 -132 -37c-150 0 -261 120 -261 265c0 140 110 261 262 261c49 0 93 -12 131 -32v127h-153zM293 119c54 0 97 26 122 70v133c-24 44 -70 72 -121 72c-78 0 -139 -63 -139 -138
c0 -80 60 -137 138 -137z" />
    <glyph glyph-name="adotbelow" unicode="&#x1ea1;" horiz-adv-x="558" 
d="M243 -12c-123 0 -222 65 -222 170c0 108 108 177 229 177c45 0 95 -16 129 -33v22c0 52 -71 76 -124 76c-50 0 -110 -13 -154 -52l-57 99c75 52 145 72 214 72c119 0 249 -61 249 -199v-320h-127v29c-32 -21 -80 -41 -137 -41zM253 95c50 0 94 17 126 40v57
c-30 20 -77 39 -120 39c-85 0 -122 -34 -122 -71c0 -35 40 -65 116 -65zM261 -212c-42 0 -77 34 -77 72c0 40 35 71 77 71c41 0 77 -31 77 -71c0 -38 -36 -72 -77 -72z" />
    <glyph glyph-name="lcommaaccent" unicode="&#x13c;" horiz-adv-x="250" 
d="M104 -207l-82 27l52 155l114 -26zM58 0v780h134v-780h-134z" />
    <glyph glyph-name="ldot" unicode="&#x140;" horiz-adv-x="381" 
d="M58 0v780h134v-780h-134zM311 245c-43 0 -76 35 -76 77c0 44 33 78 76 78s78 -34 78 -78c0 -42 -35 -77 -78 -77z" />
    <glyph glyph-name="ncommaaccent" unicode="&#x146;" horiz-adv-x="579" 
d="M397 0v282c0 66 -50 106 -108 106c-38 0 -70 -18 -96 -50v-338h-135v511h135v-34c27 24 63 40 118 40c115 0 220 -75 220 -217v-300h-134zM282 -207l-82 27l52 155l114 -26z" />
    <glyph glyph-name="ncircumflex" horiz-adv-x="581" 
d="M397 0v282c0 66 -50 106 -108 106c-38 0 -70 -18 -96 -50v-338h-135v511h135v-34c27 24 63 40 118 40c115 0 220 -75 220 -217v-300h-134zM115 580l134 157h92l134 -157h-103l-77 85l-77 -85h-103z" />
    <glyph glyph-name="mcircumflex" horiz-adv-x="910" 
d="M392 0v285c0 65 -42 103 -103 103c-37 0 -70 -18 -96 -51v-337h-135v511h135v-34c28 24 63 40 119 40c66 0 128 -23 169 -69c40 42 96 69 164 69c114 0 215 -76 215 -217v-300h-134v282c0 65 -46 106 -104 106c-38 0 -70 -18 -96 -52v-336h-134zM283 580l134 157h92
l134 -157h-103l-77 85l-77 -85h-103z" />
    <glyph glyph-name="odotbelow" unicode="&#x1ecd;" horiz-adv-x="590" 
d="M295 118c80 0 139 63 139 139c0 80 -61 138 -139 138s-139 -58 -139 -138c0 -76 60 -139 139 -139zM295 -10c-163 0 -273 123 -273 267s115 266 273 266s273 -122 273 -266c0 -143 -110 -267 -273 -267zM295 -212c-42 0 -77 34 -77 72c0 40 35 71 77 71
c41 0 77 -31 77 -71c0 -38 -36 -72 -77 -72z" />
    <glyph glyph-name="rcommaaccent" unicode="&#x157;" horiz-adv-x="455" 
d="M58 0v511h135v-30c26 21 58 33 94 33c97 0 166 -72 166 -172v-23h-119c0 43 -29 74 -72 74c-34 0 -61 -21 -69 -53v-340h-135zM106 -204l-82 27l52 155l114 -26z" />
    <glyph glyph-name="scommaaccent" unicode="&#x219;" horiz-adv-x="516" 
d="M272 -13c-97 0 -175 20 -259 68l65 106c58 -38 127 -61 198 -61c67 0 101 17 101 46c0 19 -16 33 -50 40l-140 30c-103 22 -150 71 -150 151c0 85 72 156 221 156c90 0 170 -26 225 -60l-61 -102c-45 24 -105 50 -168 50c-57 0 -90 -14 -90 -40c0 -17 12 -28 45 -34
l118 -22c128 -25 177 -82 177 -159c0 -111 -111 -169 -232 -169zM256 -207l-82 27l52 155l114 -26z" />
    <glyph glyph-name="tcommaaccent" unicode="&#x163;" horiz-adv-x="305" 
d="M9 395v116h76v141l133 86v-227h78v-116h-78v-395h-133v395h-76zM125 -207l-82 27l52 155l114 -26z" />
    <glyph glyph-name="udotbelow" unicode="&#x1ee5;" horiz-adv-x="581" 
d="M266 -8c-110 0 -216 75 -216 218v301h134v-290c0 -66 51 -106 108 -106c43 0 78 23 96 60v336h135v-511h-135v36c-31 -27 -68 -44 -122 -44zM290 -212c-42 0 -77 34 -77 72c0 40 35 71 77 71c41 0 77 -31 77 -71c0 -38 -36 -72 -77 -72z" />
    <glyph glyph-name="ymacron" horiz-adv-x="535" 
d="M-12 511h148l134 -341l138 341h140l-294 -690h-125l74 184zM109 605v95h319v-95h-319z" />
    <glyph glyph-name="rcaron" unicode="&#x159;" horiz-adv-x="455" 
d="M58 0v511h135v-30c26 21 58 33 94 33c97 0 166 -72 166 -172v-23h-119c0 43 -29 74 -72 74c-34 0 -61 -21 -69 -53v-340h-135zM195 580l-134 157h103l77 -85l77 85h103l-134 -157h-92z" />
    <glyph glyph-name="racute" unicode="&#x155;" horiz-adv-x="455" 
d="M58 0v511h135v-30c26 21 58 33 94 33c97 0 166 -72 166 -172v-23h-119c0 43 -29 74 -72 74c-34 0 -61 -21 -69 -53v-340h-135zM185 578v17l106 142h134v-12l-150 -147h-90z" />
    <glyph glyph-name="thorn" unicode="&#xfe;" horiz-adv-x="604" 
d="M320 -9c-49 0 -93 12 -128 32v-202h-134v959h134v-299c36 22 80 36 125 36c152 0 265 -121 265 -264c0 -141 -110 -262 -262 -262zM311 390c-50 0 -93 -26 -119 -67v-139c24 -42 69 -69 118 -69c78 0 139 63 139 138c0 79 -60 137 -138 137z" />
    <glyph glyph-name="Thorn" unicode="&#xde;" horiz-adv-x="631" 
d="M351 139h-128v-139h-145v773h145v-117h131c150 0 264 -108 264 -264c0 -149 -118 -253 -267 -253zM335 523h-112v-251h114c79 0 129 47 129 125c0 71 -51 126 -131 126z" />
    <glyph glyph-name="i.TRK" horiz-adv-x="251" 
d="M58 0v511h135v-511h-135zM125 611c-43 0 -75 35 -75 77c0 44 32 77 75 77s78 -33 78 -77c0 -42 -35 -77 -78 -77z" />
    <glyph glyph-name="imacron" unicode="&#x12b;" horiz-adv-x="250" 
d="M58 0v511h134v-511h-134zM6 605v95h238v-95h-238z" />
    <glyph glyph-name="icaron" unicode="&#x1d0;" horiz-adv-x="250" 
d="M58 0v511h134v-511h-134zM80 580l-126 157h97l73 -85l72 85h97l-126 -157h-87z" />
    <glyph glyph-name="iacute" unicode="&#xed;" horiz-adv-x="250" 
d="M58 0v511h134v-511h-134zM69 578v17l106 142h134v-12l-150 -147h-90z" />
    <glyph glyph-name="idieresis" unicode="&#xef;" horiz-adv-x="250" 
d="M58 0v511h134v-511h-134zM213 620c-39 0 -70 31 -70 70c0 38 31 70 70 70s70 -32 70 -70c0 -39 -31 -70 -70 -70zM37 620c-39 0 -70 31 -70 70c0 38 31 70 70 70s70 -32 70 -70c0 -39 -31 -70 -70 -70z" />
    <glyph glyph-name="icircumflex" unicode="&#xee;" horiz-adv-x="250" 
d="M58 0v511h134v-511h-134zM-27 580l105 157h95l107 -157h-101l-53 83l-52 -83h-101z" />
    <glyph glyph-name="igrave" unicode="&#xec;" horiz-adv-x="250" 
d="M58 0v511h134v-511h-134zM85 578l-148 146v13h132l110 -145v-14h-94z" />
    <glyph glyph-name="yen" unicode="&#xa5;" horiz-adv-x="671" 
d="M92 291v103h145l-231 379h161l177 -294l166 294h156l-223 -379h140v-103h-174v-83h174v-103h-174v-105h-144v105h-173v103h173v83h-173z" />
    <glyph glyph-name="Lcaron" unicode="&#x13d;" horiz-adv-x="537" 
d="M78 0v773h145v-638h284v-135h-429zM372 478l-81 30l90 262l120 -43z" />
    <glyph glyph-name="napostrophe" unicode="&#x149;" horiz-adv-x="581" 
d="M397 0v282c0 66 -50 106 -108 106c-38 0 -70 -18 -96 -50v-338h-135v511h135v-34c27 24 63 40 118 40c115 0 220 -75 220 -217v-300h-134zM126 755l109 -42l-84 -155l-81 30z" />
    <glyph glyph-name="lcaron" unicode="&#x13e;" horiz-adv-x="358" 
d="M264 537l-16 243h117l-18 -243h-83zM58 0v780h134v-780h-134z" />
    <glyph glyph-name="tcaron" unicode="&#x165;" horiz-adv-x="305" 
d="M9 395v116h76v141l133 86v-227h78v-116h-78v-395h-133v395h-76zM281 578l16 242l118 4l-53 -255z" />
    <glyph glyph-name="dcaron" unicode="&#x10f;" horiz-adv-x="618" 
d="M415 0v28c-39 -24 -84 -37 -132 -37c-150 0 -261 120 -261 265c0 140 110 261 262 261c49 0 93 -12 131 -32v295h134v-780h-134zM293 119c54 0 97 26 122 70v133c-24 44 -70 72 -121 72c-78 0 -139 -63 -139 -138c0 -80 60 -137 138 -137zM600 534l16 242l118 4l-53 -255
z" />
    <glyph glyph-name="lozenge" unicode="&#x25ca;" horiz-adv-x="609" 
d="M258 0l-222 393l222 381h90l225 -381l-229 -393h-86zM181 390l118 -218l127 217l-127 213z" />
    <glyph glyph-name="Delta" unicode="&#x394;" horiz-adv-x="747" 
d="M8 0l300 773h131l301 -773h-732zM199 128h349l-175 443z" />
    <glyph glyph-name="Delta" unicode="&#x2206;" horiz-adv-x="747" 
d="M8 0l300 773h131l301 -773h-732zM199 128h349l-175 443z" />
    <glyph glyph-name="pi" unicode="&#x3c0;" horiz-adv-x="691" 
d="M552 -9c-98 0 -152 36 -152 167v229h-135v-387h-129v387h-113v124h629v-124h-122v-221c0 -50 19 -66 52 -66c15 0 28 2 40 7l21 -102c-20 -7 -53 -14 -91 -14z" />
    <glyph glyph-name="product" unicode="&#x220f;" horiz-adv-x="658" 
d="M71 -179v952h516v-952h-136v825h-244v-825h-136z" />
    <glyph glyph-name="Omega" unicode="&#x3a9;" horiz-adv-x="886" 
d="M527 0v129c37 16 173 84 173 263c0 145 -115 258 -259 258c-143 0 -256 -113 -256 -259c0 -181 136 -250 168 -263v-128h-314v120h126c-60 46 -124 128 -124 272c0 222 179 398 400 398c224 0 403 -175 403 -398c0 -140 -65 -223 -126 -272h129v-120h-320z" />
    <glyph glyph-name="Omega" unicode="&#x2126;" horiz-adv-x="886" 
d="M527 0v129c37 16 173 84 173 263c0 145 -115 258 -259 258c-143 0 -256 -113 -256 -259c0 -181 136 -250 168 -263v-128h-314v120h126c-60 46 -124 128 -124 272c0 222 179 398 400 398c224 0 403 -175 403 -398c0 -140 -65 -223 -126 -272h129v-120h-320z" />
    <glyph glyph-name="summation" unicode="&#x2211;" horiz-adv-x="598" 
d="M563 -179h-523v108l276 369l-270 370v99h507v-119h-338l253 -342l-272 -366h367v-119z" />
    <glyph glyph-name="radical" unicode="&#x221a;" horiz-adv-x="707" 
d="M272 0l-140 348h-109v141h195l74 -186c18 -46 46 -126 46 -126h2s26 80 44 127l187 476h153l-326 -780h-126z" />
    <glyph glyph-name="logicalnot" unicode="&#xac;" horiz-adv-x="575" 
d="M43 213v123h479v-251h-142v128h-337z" />
    <glyph glyph-name="currency" unicode="&#xa4;" horiz-adv-x="589" 
d="M457 64l-58 68c-32 -16 -67 -24 -105 -24c-37 0 -72 8 -103 24l-58 -69l-86 72l59 70c-28 38 -44 86 -44 138c0 51 16 98 44 137l-59 71l86 71l58 -69c31 16 66 25 103 25c38 0 73 -9 105 -25l57 69l86 -72l-59 -70c28 -38 44 -86 44 -137c0 -52 -16 -99 -44 -138l59 -69
zM294 226c68 0 117 51 117 117c0 65 -51 117 -117 117c-64 0 -116 -52 -116 -117c0 -67 52 -117 116 -117z" />
    <glyph glyph-name="IJ" unicode="&#x132;" horiz-adv-x="681" 
d="M338 -13c-86 0 -155 26 -203 76c-43 44 -71 108 -73 198h144c3 -91 49 -137 132 -137c92 0 137 64 137 149v500h144v-514c0 -156 -114 -272 -281 -272zM62 315v458h144v-458h-144z" />
    <glyph glyph-name="mu" unicode="&#xb5;" horiz-adv-x="591" 
d="M396 0v36c-30 -27 -68 -44 -122 -44c-28 0 -56 7 -81 19v-190h-135v690h135v-290c0 -66 50 -106 107 -106c43 0 77 21 96 57v339h135v-511h-135z" />
    <glyph glyph-name="mu" unicode="&#x3bc;" horiz-adv-x="591" 
d="M396 0v36c-30 -27 -68 -44 -122 -44c-28 0 -56 7 -81 19v-190h-135v690h135v-290c0 -66 50 -106 107 -106c43 0 77 21 96 57v339h135v-511h-135z" />
    <glyph glyph-name="Aogonek" unicode="&#x104;" horiz-adv-x="719" 
d="M-4 0l298 773h131l299 -773c-87 -23 -116 -42 -116 -72c0 -21 19 -31 51 -31c23 0 40 5 53 10l21 -67c-14 -8 -54 -19 -98 -19c-64 0 -123 30 -123 94c0 43 23 75 57 95l-39 101h-342l-42 -111h-150zM359 555l-123 -319h246z" />
    <glyph glyph-name="Eogonek" unicode="&#x118;" horiz-adv-x="574" 
d="M509 327h-286v-200h314v-127c-82 -19 -112 -38 -112 -69c0 -22 19 -34 46 -34c24 0 41 5 53 10l21 -67c-13 -8 -54 -19 -90 -19c-68 0 -126 26 -126 89c0 41 21 70 52 90h-303v773h450v-127h-305v-192h286v-127z" />
    <glyph glyph-name="Iogonek" unicode="&#x12e;" horiz-adv-x="301" 
d="M141 -179c-71 0 -130 27 -130 92c0 48 28 79 67 97v763h145v-773c-81 -20 -112 -38 -112 -69c0 -21 19 -34 47 -34c24 0 41 5 53 10l21 -67c-14 -8 -54 -19 -91 -19z" />
    <glyph glyph-name="aogonek" unicode="&#x105;" horiz-adv-x="558" 
d="M243 -12c-123 0 -222 65 -222 170c0 108 108 177 229 177c45 0 95 -16 129 -33v22c0 52 -71 76 -124 76c-50 0 -110 -13 -154 -52l-57 99c75 52 145 72 214 72c119 0 249 -61 249 -199v-320c-80 -20 -108 -38 -108 -69c0 -22 17 -34 45 -34c23 0 39 5 51 10l21 -67
c-13 -8 -52 -19 -89 -19c-67 0 -122 25 -122 90c0 48 32 78 75 95v23c-32 -21 -80 -41 -137 -41zM253 95c50 0 94 17 126 40v57c-30 20 -77 39 -120 39c-85 0 -122 -34 -122 -71c0 -35 40 -65 116 -65z" />
    <glyph glyph-name="eogonek" unicode="&#x119;" 
d="M373 -179c-69 0 -126 25 -126 84c0 32 16 61 40 85c-168 4 -265 131 -265 269c0 144 103 263 264 263c149 0 262 -112 265 -259c1 -12 1 -25 0 -38h-403c4 -72 73 -119 147 -119c61 0 97 17 139 52l73 -77c-17 -18 -34 -33 -51 -45c-49 -34 -112 -59 -112 -105
c0 -21 19 -34 46 -34c24 0 41 5 53 10l21 -67c-13 -8 -54 -19 -91 -19zM284 410c-81 0 -115 -41 -129 -90h258c-13 48 -59 90 -129 90z" />
    <glyph glyph-name="iogonek" unicode="&#x12f;" horiz-adv-x="251" 
d="M113 -179c-68 0 -125 25 -125 90c0 47 29 77 70 95v505h135v-511c-81 -20 -110 -38 -110 -69c0 -22 19 -34 46 -34c24 0 40 5 52 10l21 -67c-14 -8 -53 -19 -89 -19zM125 611c-43 0 -75 35 -75 77c0 44 32 77 75 77s78 -33 78 -77c0 -42 -35 -77 -78 -77z" />
    <glyph glyph-name="apostrophe" unicode="&#x2bc;" horiz-adv-x="211" 
d="M23 543l16 242l118 4l-53 -255z" />
    <glyph glyph-name="periodcentered" unicode="&#xb7;" horiz-adv-x="225" 
d="M111 255c-43 0 -76 35 -76 77c0 44 33 78 76 78s78 -34 78 -78c0 -42 -35 -77 -78 -77z" />
    <glyph glyph-name="periodcentered" unicode="&#x2219;" horiz-adv-x="225" 
d="M111 255c-43 0 -76 35 -76 77c0 44 33 78 76 78s78 -34 78 -78c0 -42 -35 -77 -78 -77z" />
    <glyph glyph-name="hyphen.case" horiz-adv-x="391" 
d="M43 328v118h306v-118h-306z" />
    <glyph glyph-name="partialdiff" unicode="&#x2202;" horiz-adv-x="597" 
d="M301 -10c-150 0 -275 118 -275 269s114 275 270 275c6 0 12 0 19 -1c-54 88 -93 145 -157 247h154c90 -138 138 -212 207 -337c38 -68 53 -117 53 -186c0 -145 -121 -267 -271 -267zM298 115c80 0 139 66 139 147c0 84 -60 144 -139 144c-78 0 -139 -60 -139 -144
c0 -81 61 -147 139 -147z" />
    <glyph glyph-name="Oslashacute" unicode="&#x1fe;" horiz-adv-x="879" 
d="M73 -19l86 119c-75 73 -121 174 -121 287c0 222 180 401 401 401c66 0 129 -16 184 -45l78 108l91 -59l-80 -111c80 -73 130 -178 130 -294c0 -221 -181 -400 -403 -400c-70 0 -136 17 -193 49l-82 -114zM439 126c143 0 257 117 257 261c0 69 -26 131 -68 178l-299 -415
c33 -16 70 -24 110 -24zM183 387c0 -65 22 -124 60 -170l297 411c-31 13 -65 21 -101 21c-143 0 -256 -117 -256 -262zM380 840v17l86 112h133v-12l-129 -117h-90z" />
    <glyph glyph-name="aringacute" unicode="&#x1fb;" horiz-adv-x="559" 
d="M243 -12c-123 0 -222 65 -222 170c0 108 108 177 229 177c45 0 95 -16 129 -33v22c0 52 -71 76 -124 76c-50 0 -110 -13 -154 -52l-57 99c75 52 145 72 214 72c119 0 249 -61 249 -199v-320h-127v29c-32 -21 -80 -41 -137 -41zM283 542c-63 0 -112 49 -112 111
s49 111 112 111c62 0 111 -49 111 -111s-49 -111 -111 -111zM253 95c50 0 94 17 126 40v57c-30 20 -77 39 -120 39c-85 0 -122 -34 -122 -71c0 -35 40 -65 116 -65zM237 787v17l86 112h133v-12l-129 -117h-90zM283 612c22 0 40 18 40 41c0 22 -18 41 -40 41
c-23 0 -41 -19 -41 -41c0 -23 18 -41 41 -41z" />
    <glyph glyph-name="ij" unicode="&#x133;" horiz-adv-x="480" 
d="M355 617c-42 0 -77 33 -77 71c0 40 35 71 77 71c41 0 77 -31 77 -71c0 -38 -36 -71 -77 -71zM58 0v511h134v-511h-134zM215 -183v103c48 1 72 36 72 95v496h135v-485c0 -147 -76 -207 -207 -209zM125 617c-42 0 -77 33 -77 71c0 40 35 71 77 71c41 0 77 -31 77 -71
c0 -38 -36 -71 -77 -71z" />
    <glyph glyph-name="oslashacute" unicode="&#x1ff;" horiz-adv-x="590" 
d="M44 -57l72 109c-59 50 -94 124 -94 205c0 144 115 266 273 266c41 0 80 -9 114 -24l79 121l68 -42l-80 -121c57 -49 92 -122 92 -200c0 -143 -110 -267 -273 -267c-41 0 -78 8 -111 21l-72 -110zM156 257c0 -35 12 -67 34 -92l146 224c-13 4 -27 6 -41 6
c-78 0 -139 -58 -139 -138zM239 578v17l106 142h134v-12l-150 -147h-90zM295 118c80 0 139 63 139 139c0 34 -12 65 -31 88l-145 -222c11 -3 24 -5 37 -5z" />
    <glyph glyph-name="uogonek" unicode="&#x173;" horiz-adv-x="581" 
d="M266 -8c-110 0 -216 75 -216 218v301h134v-290c0 -66 51 -106 108 -106c43 0 78 23 96 60v336h135v-511h-1c-80 -20 -109 -38 -109 -69c0 -22 18 -34 46 -34c24 0 39 5 51 10l21 -67c-13 -8 -52 -19 -89 -19c-67 0 -124 25 -124 90c0 47 29 77 70 95v30
c-31 -27 -68 -44 -122 -44z" />
    <glyph glyph-name="Uogonek" unicode="&#x172;" horiz-adv-x="713" 
d="M366 -179c-71 0 -130 27 -130 92c0 38 17 65 44 84c-131 30 -218 139 -218 277v499h144v-483c0 -93 53 -167 150 -167s151 72 151 165v485h144v-499c0 -133 -80 -239 -204 -274h1c-81 -20 -112 -38 -112 -69c0 -21 19 -34 47 -34c24 0 41 5 53 10l21 -67
c-14 -8 -54 -19 -91 -19z" />
    <glyph glyph-name="eth" unicode="&#xf0;" horiz-adv-x="594" 
d="M435 771l30 -89l-77 -28c51 -73 88 -130 132 -215c40 -78 48 -132 48 -188c0 -142 -121 -261 -270 -261c-151 0 -276 115 -276 272c0 149 115 269 271 269c10 0 20 0 30 -1c-18 29 -36 56 -54 82l-111 -40l-31 89l85 30c-19 27 -39 56 -61 89h151c11 -16 20 -32 30 -46z
M295 115c81 0 139 66 139 148c0 87 -59 146 -139 146c-79 0 -139 -60 -139 -146c0 -82 60 -148 139 -148z" />
    <glyph glyph-name="approxequal" unicode="&#x2248;" horiz-adv-x="508" 
d="M345 320c-83 0 -136 76 -190 76c-29 0 -52 -18 -55 -63l-74 14c2 64 34 150 130 150c74 0 136 -77 192 -77c33 0 50 21 56 64l79 -16c-2 -63 -36 -148 -138 -148zM345 117c-83 0 -136 76 -190 76c-29 0 -52 -18 -55 -63l-74 14c2 64 34 150 130 150c74 0 136 -77 192 -77
c33 0 50 21 56 64l79 -16c-2 -63 -36 -148 -138 -148z" />
    <glyph glyph-name="commaaccent" unicode="&#xf6c3;" horiz-adv-x="217" 
d="M26 607l83 155l83 -27l-53 -155z" />
    <glyph glyph-name="a.sup" horiz-adv-x="390" 
d="M165 433c-83 0 -155 42 -155 115c0 77 81 120 161 120c25 0 54 -6 78 -15v6c0 17 -4 25 -11 33c-12 11 -35 19 -67 19c-34 0 -71 -9 -101 -32l-47 80c57 37 109 48 155 48c84 0 178 -43 178 -142v-224h-100v18c-21 -14 -50 -26 -91 -26zM175 518c27 0 54 9 74 20v27
c-20 11 -47 20 -70 20c-52 0 -73 -18 -73 -36c0 -15 20 -31 69 -31z" />
    <glyph glyph-name="b.sup" horiz-adv-x="424" 
d="M36 440v518h112v-173c23 13 48 21 75 21c107 0 187 -87 187 -187c0 -99 -77 -185 -185 -185c-28 0 -54 8 -77 21v-15h-112zM217 703c-27 0 -53 -13 -69 -36v-95c15 -23 40 -37 68 -37c46 0 83 38 83 85c0 49 -36 83 -82 83z" />
    <glyph glyph-name="c.sup" horiz-adv-x="337" 
d="M202 433c-104 0 -188 85 -188 189c0 103 84 189 188 189c51 0 99 -21 134 -50l-60 -84c-20 19 -39 28 -68 28c-47 0 -80 -38 -80 -84c0 -45 35 -82 80 -82c30 0 54 12 69 29l56 -87c-30 -24 -70 -48 -131 -48z" />
    <glyph glyph-name="d.sup" horiz-adv-x="427" 
d="M279 440v16c-24 -14 -51 -22 -80 -22c-106 0 -185 86 -185 188c0 98 77 184 186 184c30 0 56 -7 79 -21v173h112v-518h-112zM207 538c32 0 56 13 72 36v94c-15 24 -43 38 -71 38c-45 0 -82 -38 -82 -85c0 -49 36 -83 81 -83z" />
    <glyph glyph-name="e.sup" horiz-adv-x="403" 
d="M208 434c-124 0 -194 92 -194 190c0 102 74 186 189 186c105 0 189 -80 189 -183c1 -8 1 -16 0 -26h-277c3 -50 50 -77 93 -77c41 0 66 12 92 33l58 -59c-39 -43 -82 -64 -150 -64zM201 721c-47 0 -70 -20 -80 -48h156c-7 25 -34 48 -76 48z" />
    <glyph glyph-name="f.sup" horiz-adv-x="226" 
d="M0 708v94h50v35c0 78 63 121 129 121c47 0 82 -13 102 -30l-45 -74c-9 9 -23 13 -40 13c-23 0 -38 -16 -38 -41v-24h56v-94h-56v-268h-108v268h-50z" />
    <glyph glyph-name="g.sup" horiz-adv-x="428" 
d="M199 445c-113 0 -185 76 -185 178c0 99 77 183 185 183c33 0 60 -8 84 -26v22h110v-346c0 -94 -87 -138 -185 -138c-65 0 -127 19 -167 45l44 77c33 -17 73 -30 121 -30c36 0 54 7 65 16c9 8 12 17 12 34v11c-24 -18 -50 -26 -84 -26zM207 546c34 0 61 17 76 44v69
c-13 29 -42 47 -75 47c-46 0 -83 -36 -83 -81c0 -47 37 -79 82 -79z" />
    <glyph glyph-name="h.sup" horiz-adv-x="404" 
d="M263 440v200c0 37 -29 61 -63 61c-20 0 -37 -9 -52 -26v-235h-112v518h112v-176c20 14 44 23 78 23c75 0 149 -51 149 -154v-211h-112z" />
    <glyph glyph-name="i.sup" horiz-adv-x="183" 
d="M92 840c-34 0 -63 26 -63 56c0 33 29 56 63 56s62 -23 62 -56c0 -30 -29 -56 -62 -56zM36 440v362h111v-362h-111z" />
    <glyph glyph-name="j.sup" horiz-adv-x="187" 
d="M95 840c-34 0 -62 26 -62 56c0 33 28 56 62 56c33 0 63 -23 63 -56c0 -30 -30 -56 -63 -56zM-8 319l1 81c30 0 46 23 46 60v342h112v-332c0 -109 -56 -151 -159 -151z" />
    <glyph glyph-name="k.sup" horiz-adv-x="409" 
d="M271 802h131l-138 -144l146 -218h-129l-91 140l-42 -44v-96h-112v518h112v-289z" />
    <glyph glyph-name="l.sup" horiz-adv-x="185" 
d="M36 440v518h112v-518h-112z" />
    <glyph glyph-name="m.sup" horiz-adv-x="634" 
d="M263 440v204c0 34 -29 57 -63 57c-20 0 -37 -9 -52 -27v-234h-112v363h112v-21c19 14 43 23 78 23c43 0 86 -16 115 -48c25 29 62 48 114 48c75 0 149 -49 149 -146v-219h-112v204c0 34 -28 57 -63 57c-20 0 -38 -9 -54 -28c1 -5 1 -9 1 -14v-219h-113z" />
    <glyph glyph-name="n.sup" horiz-adv-x="405" 
d="M263 440v204c0 34 -29 57 -63 57c-20 0 -37 -9 -52 -27v-234h-112v363h112v-23c20 15 44 25 78 25c75 0 150 -49 150 -146v-219h-113z" />
    <glyph glyph-name="o.sup" horiz-adv-x="418" 
d="M209 538c46 0 82 38 82 85c0 50 -36 84 -82 84s-84 -34 -84 -84c0 -47 37 -85 84 -85zM209 433c-118 0 -195 88 -195 189c0 102 81 189 195 189c113 0 195 -87 195 -189c0 -100 -78 -189 -195 -189z" />
    <glyph glyph-name="p.sup" horiz-adv-x="428" 
d="M229 434c-31 0 -58 6 -82 17v-131h-111v482h111v-20c23 15 49 24 80 24c106 0 187 -87 187 -187c0 -99 -77 -185 -185 -185zM221 703c-32 0 -58 -16 -74 -43v-81c13 -27 42 -44 73 -44c46 0 83 38 83 85c0 49 -37 83 -82 83z" />
    <glyph glyph-name="q.sup" horiz-adv-x="423" 
d="M276 320v132c-24 -11 -50 -18 -77 -18c-106 0 -185 86 -185 188c0 98 77 184 186 184c29 0 54 -6 76 -20v16h112v-482h-112zM207 538c30 0 53 12 69 32v103c-16 21 -42 33 -68 33c-45 0 -82 -38 -82 -85c0 -49 36 -83 81 -83z" />
    <glyph glyph-name="r.sup" horiz-adv-x="332" 
d="M36 440v362h112v-19c18 12 40 20 64 20c70 0 119 -50 119 -121v-18h-98c0 25 -18 42 -44 42c-21 0 -35 -13 -41 -29v-237h-112z" />
    <glyph glyph-name="s.sup" horiz-adv-x="377" 
d="M197 432c-69 0 -124 13 -185 46l54 86c39 -26 87 -42 135 -42c38 0 56 8 56 22c0 9 -7 16 -34 22l-87 19c-78 18 -110 52 -110 110c0 61 52 116 158 116c68 0 128 -17 166 -39l-50 -82c-29 15 -73 32 -119 32c-22 0 -49 -4 -49 -19c0 -10 6 -16 25 -19l75 -14
c95 -19 131 -58 131 -114c0 -82 -83 -124 -166 -124z" />
    <glyph glyph-name="t.sup" horiz-adv-x="222" 
d="M4 708v94h51v63l111 72v-135h52v-94h-52v-268h-111v268h-51z" />
    <glyph glyph-name="u.sup" horiz-adv-x="405" 
d="M174 435c-72 0 -145 50 -145 155v212h113v-207c0 -37 28 -60 62 -60c25 0 43 10 53 30v237h112v-362h-112v21c-22 -16 -47 -26 -83 -26z" />
    <glyph glyph-name="v.sup" horiz-adv-x="390" 
d="M138 440l-146 362h120l85 -218l84 218h117l-148 -362h-112z" />
    <glyph glyph-name="w.sup" horiz-adv-x="606" 
d="M370 440l-73 213l-77 -213h-106l-123 362h114l69 -203l73 203h106l74 -217l79 217h109l-134 -362h-111z" />
    <glyph glyph-name="x.sup" horiz-adv-x="376" 
d="M253 440l-66 95l-65 -95h-130l123 179l-121 183h129l64 -98l67 98h127l-121 -182l124 -180h-131z" />
    <glyph glyph-name="y.sup" horiz-adv-x="395" 
d="M-9 802h123l85 -220l89 220h116l-207 -481l-103 1l50 124z" />
    <glyph glyph-name="z.sup" horiz-adv-x="372" 
d="M366 536v-96h-366l173 266h-145v96h343l-178 -266h173z" />
    <glyph glyph-name="ordfeminine" unicode="&#xaa;" horiz-adv-x="408" 
d="M174 429c-76 0 -148 38 -148 117c0 74 75 113 154 113c33 0 63 -8 85 -17v9c0 17 -4 29 -11 36c-12 11 -38 20 -71 20c-34 0 -69 -9 -100 -31l-44 77c56 36 107 47 158 47c80 0 172 -41 172 -141v-223h-97v20c-21 -14 -55 -27 -98 -27zM188 510c28 0 56 9 77 21v28
c-21 11 -49 21 -76 21c-48 0 -70 -17 -70 -36s26 -34 69 -34z" />
    <glyph glyph-name="ordmasculine" unicode="&#xba;" horiz-adv-x="419" 
d="M210 536c46 0 82 38 82 85c0 50 -36 84 -82 84s-83 -34 -83 -84c0 -47 36 -85 83 -85zM210 431c-115 0 -192 89 -192 190c0 102 78 188 192 188c113 0 191 -86 191 -188c0 -101 -76 -190 -191 -190z" />
    <glyph glyph-name="percent.alt1" horiz-adv-x="963" 
d="M722 88c49 0 84 38 84 84c0 48 -37 84 -84 84c-46 0 -83 -36 -83 -84c0 -45 36 -84 83 -84zM722 -6c-107 0 -182 81 -182 178s77 179 182 179s183 -83 183 -179c0 -97 -76 -178 -183 -178zM240 515c49 0 84 38 84 84c0 48 -37 84 -84 84c-46 0 -83 -36 -83 -84
c0 -45 36 -84 83 -84zM240 421c-107 0 -182 81 -182 178s77 179 182 179s183 -83 183 -179c0 -97 -76 -178 -183 -178zM174 0l499 773h111l-498 -773h-112z" />
    <glyph glyph-name="Ohorn" unicode="&#x1a0;" horiz-adv-x="879" 
d="M439 -13c-221 0 -401 179 -401 400c0 222 180 401 401 401c121 0 231 -54 305 -139c27 13 44 37 44 78v53h91v-39c0 -58 -16 -100 -43 -126c-13 -12 -29 -22 -47 -29c34 -59 53 -127 53 -199c0 -221 -181 -400 -403 -400zM439 126c143 0 257 117 257 261
c0 145 -114 262 -257 262s-256 -117 -256 -262c0 -144 113 -261 256 -261z" />
    <glyph glyph-name="ohorn" unicode="&#x1a1;" horiz-adv-x="652" 
d="M295 -10c-163 0 -273 123 -273 267s115 266 273 266c95 0 174 -44 222 -111c28 13 44 38 44 78v53h91v-39c0 -58 -16 -100 -43 -126c-15 -14 -34 -25 -56 -33c10 -28 15 -57 15 -88c0 -143 -110 -267 -273 -267zM295 118c80 0 139 63 139 139c0 80 -61 138 -139 138
s-139 -58 -139 -138c0 -76 60 -139 139 -139z" />
    <glyph glyph-name="Uhorn" unicode="&#x1af;" horiz-adv-x="776" 
d="M356 -12c-172 0 -294 123 -294 286v499h144v-483c0 -93 53 -167 150 -167s151 72 151 165v485h144v-128c21 14 34 37 34 72v53h91v-39c0 -58 -16 -100 -43 -126c-20 -19 -48 -33 -82 -41v-290c0 -163 -121 -286 -295 -286z" />
    <glyph glyph-name="uhorn" unicode="&#x1b0;" horiz-adv-x="681" 
d="M523 319l-19 70c52 5 86 30 86 88v53h91v-39c0 -58 -16 -100 -43 -126c-26 -24 -65 -40 -115 -46z" />
    <glyph glyph-name="uacute" unicode="&#xfa;" horiz-adv-x="581" 
d="M266 -8c-110 0 -216 75 -216 218v301h134v-290c0 -66 51 -106 108 -106c43 0 78 23 96 60v336h135v-511h-135v36c-31 -27 -68 -44 -122 -44zM234 578v17l106 142h134v-12l-150 -147h-90z" />
    <glyph glyph-name="ucircumflex" unicode="&#xfb;" horiz-adv-x="581" 
d="M266 -8c-110 0 -216 75 -216 218v301h134v-290c0 -66 51 -106 108 -106c43 0 78 23 96 60v336h135v-511h-135v36c-31 -27 -68 -44 -122 -44zM110 580l134 157h92l134 -157h-103l-77 85l-77 -85h-103z" />
    <glyph glyph-name="udieresis" unicode="&#xfc;" horiz-adv-x="581" 
d="M266 -8c-110 0 -216 75 -216 218v301h134v-290c0 -66 51 -106 108 -106c43 0 78 23 96 60v336h135v-511h-135v36c-31 -27 -68 -44 -122 -44zM402 592c-39 0 -70 30 -70 69s31 70 70 70s70 -31 70 -70s-31 -69 -70 -69zM177 592c-39 0 -70 30 -70 69s31 70 70 70
c38 0 69 -31 69 -70s-31 -69 -69 -69z" />
    <glyph glyph-name="ugrave" unicode="&#xf9;" horiz-adv-x="581" 
d="M266 -8c-110 0 -216 75 -216 218v301h134v-290c0 -66 51 -106 108 -106c43 0 78 23 96 60v336h135v-511h-135v36c-31 -27 -68 -44 -122 -44zM250 578l-148 146v13h132l110 -145v-14h-94z" />
    <glyph glyph-name="uhungarumlaut" unicode="&#x171;" horiz-adv-x="581" 
d="M266 -8c-110 0 -216 75 -216 218v301h134v-290c0 -66 51 -106 108 -106c43 0 78 23 96 60v336h135v-511h-135v36c-31 -27 -68 -44 -122 -44zM329 578l102 156h113l-134 -156h-81zM154 578l90 156h112l-122 -156h-80z" />
    <glyph glyph-name="Zdotaccent" unicode="&#x17b;" horiz-adv-x="613" 
d="M29 0v86l376 561h-363v126h542v-96l-369 -551h365v-126h-551zM310 826c-43 0 -75 35 -75 77c0 44 32 78 75 78s78 -34 78 -78c0 -42 -35 -77 -78 -77z" />
    <glyph glyph-name="Zacute" unicode="&#x179;" horiz-adv-x="613" 
d="M29 0v86l376 561h-363v126h542v-96l-369 -551h365v-126h-551zM255 829v17l86 112h133v-12l-129 -117h-90z" />
    <glyph glyph-name="kcommaaccent" unicode="&#x137;" horiz-adv-x="554" 
d="M387 511h159l-195 -207l207 -304h-154l-142 210l-70 -75v-135h-134v780h134v-480zM266 -207l-82 27l52 155l114 -26z" />
    <glyph glyph-name="estimated" unicode="&#x212e;" horiz-adv-x="816" 
d="M405 -15c-200 0 -355 125 -355 324c0 213 169 326 353 326c218 0 351 -134 358 -335h-566c-8 0 -14 -1 -14 -16v-165c0 -36 89 -108 224 -108c94 0 178 43 226 102h65c-85 -91 -177 -128 -291 -128zM403 609c-112 0 -222 -51 -222 -101v-166c0 -12 4 -16 15 -16h416
c15 0 17 5 17 16v166c0 52 -124 101 -226 101z" />
    <glyph glyph-name="at.case" horiz-adv-x="1021" 
d="M502 157c-133 0 -229 102 -229 223c0 119 98 222 221 222c44 0 80 -14 111 -37l3 35h107v-284c0 -37 20 -58 53 -58c70 0 95 77 95 155c0 181 -148 326 -353 326c-195 0 -351 -158 -351 -351c0 -198 156 -355 351 -355c70 0 138 15 200 52l54 -93
c-78 -47 -165 -65 -254 -65c-253 0 -459 204 -459 461c0 253 206 457 459 457c257 0 460 -190 460 -432c0 -124 -69 -257 -210 -257c-67 0 -101 26 -123 64c-33 -36 -84 -63 -135 -63zM502 273c43 0 79 26 99 67v77c-18 43 -56 72 -99 72c-61 0 -109 -49 -109 -109
c0 -62 47 -107 109 -107z" />
    <glyph glyph-name="perthousand.alt1" horiz-adv-x="1363" 
d="M722 88c49 0 84 38 84 84c0 48 -37 84 -84 84c-46 0 -83 -36 -83 -84c0 -45 36 -84 83 -84zM722 -6c-107 0 -182 81 -182 178s77 179 182 179s183 -83 183 -179c0 -97 -76 -178 -183 -178zM240 515c49 0 84 38 84 84c0 48 -37 84 -84 84c-46 0 -83 -36 -83 -84
c0 -45 36 -84 83 -84zM240 421c-107 0 -182 81 -182 178s77 179 182 179s183 -83 183 -179c0 -97 -76 -178 -183 -178zM174 0l499 773h111l-498 -773h-112zM1132 88c49 0 84 38 84 84c0 48 -37 84 -84 84c-46 0 -83 -36 -83 -84c0 -45 36 -84 83 -84zM1132 -6
c-107 0 -182 81 -182 178s77 179 182 179s183 -83 183 -179c0 -97 -76 -178 -183 -178z" />
    <glyph glyph-name="longs" unicode="&#x17f;" horiz-adv-x="273" 
d="M58 0v604c0 114 86 176 182 176c66 0 111 -23 132 -45l-56 -92c-17 14 -35 20 -61 20c-38 0 -67 -25 -67 -72v-591h-130z" />
    <glyph glyph-name="zero.num" horiz-adv-x="427" 
d="M213 456c59 0 67 54 67 111c0 47 -1 108 -67 108c-61 0 -66 -54 -66 -108c0 -48 2 -111 66 -111zM213 356c-81 0 -150 43 -168 115c-9 34 -9 52 -9 96s3 69 9 93c18 70 87 115 168 115c83 0 150 -46 168 -116c10 -33 9 -54 9 -92c0 -47 0 -69 -9 -97
c-20 -71 -86 -114 -168 -114z" />
    <glyph glyph-name="one.num" horiz-adv-x="252" 
d="M95 360v286l-80 -38v102l136 69h48v-419h-104z" />
    <glyph glyph-name="two.num" horiz-adv-x="395" 
d="M40 360v76l176 149c26 21 32 35 32 51c0 24 -18 47 -55 47c-35 0 -56 -25 -56 -59h-101c0 93 64 157 157 157c106 0 163 -63 163 -139c0 -54 -24 -85 -74 -123l-81 -66h151v-93h-312z" />
    <glyph glyph-name="three.num" horiz-adv-x="393" 
d="M192 354c-88 0 -166 53 -161 146h101c0 -33 27 -52 60 -52s55 19 55 44c0 26 -20 44 -61 44h-41v70h31c44 0 64 14 64 41c0 23 -19 42 -51 42c-30 0 -52 -16 -52 -44h-98c0 81 65 136 151 136c89 0 155 -55 155 -123c0 -37 -16 -64 -44 -82c31 -17 52 -49 52 -92
c0 -69 -68 -130 -161 -130z" />
    <glyph glyph-name="four.num" horiz-adv-x="391" 
d="M17 442v81l159 250h114l-156 -243h91v65h97v-65h44v-88h-44v-82h-97v82h-208z" />
    <glyph glyph-name="five.num" horiz-adv-x="401" 
d="M203 354c-85 0 -146 41 -163 108l97 30c8 -28 29 -48 64 -48c34 0 56 22 56 49c0 28 -22 50 -56 50c-22 0 -39 -10 -46 -19h-99v249h287v-92h-187v-62c15 7 33 11 52 11c94 0 153 -56 153 -136c0 -83 -72 -140 -158 -140z" />
    <glyph glyph-name="six.num" horiz-adv-x="389" 
d="M194 354c-97 0 -163 67 -163 145c0 31 8 59 29 94l107 180h128l-82 -133c86 -7 146 -63 146 -139c0 -81 -69 -147 -165 -147zM194 447c35 0 58 24 58 54c0 28 -24 52 -58 52c-30 0 -57 -21 -57 -52c0 -28 22 -54 57 -54z" />
    <glyph glyph-name="seven.num" horiz-adv-x="332" 
d="M53 360l143 314h-178v99h304v-72l-155 -341h-114z" />
    <glyph glyph-name="eight.num" horiz-adv-x="388" 
d="M194 355c-93 0 -154 60 -154 134c0 35 17 66 46 88c-24 21 -38 49 -38 79c0 68 61 126 146 126c86 0 146 -58 146 -126c0 -31 -14 -59 -38 -80c29 -21 46 -52 46 -87c0 -74 -62 -134 -154 -134zM194 441c34 0 54 24 54 50c0 25 -19 48 -54 48s-55 -23 -55 -48
s21 -50 55 -50zM194 697c-31 0 -48 -22 -48 -44s16 -42 43 -44h9c28 2 44 22 44 44s-17 44 -48 44z" />
    <glyph glyph-name="nine.num" horiz-adv-x="389" 
d="M195 779c97 0 164 -67 164 -145c0 -31 -9 -59 -30 -94l-107 -180h-127l81 133c-86 7 -145 62 -145 139c0 81 68 147 164 147zM195 686c-35 0 -58 -24 -58 -54c0 -28 24 -52 58 -52c30 0 57 21 57 52c0 28 -21 54 -57 54z" />
    <glyph glyph-name="zero.den" horiz-adv-x="427" 
d="M213 96c59 0 67 54 67 111c0 47 -1 108 -67 108c-61 0 -66 -54 -66 -108c0 -48 2 -111 66 -111zM213 -4c-81 0 -150 43 -168 115c-9 34 -9 52 -9 96s3 69 9 93c18 70 87 115 168 115c83 0 150 -46 168 -116c10 -33 9 -54 9 -92c0 -47 0 -69 -9 -97
c-20 -71 -86 -114 -168 -114z" />
    <glyph glyph-name="one.den" horiz-adv-x="252" 
d="M95 0v286l-80 -38v102l136 69h48v-419h-104z" />
    <glyph glyph-name="two.den" horiz-adv-x="395" 
d="M40 0v76l176 149c26 21 32 35 32 51c0 24 -18 47 -55 47c-35 0 -56 -25 -56 -59h-101c0 93 64 157 157 157c106 0 163 -63 163 -139c0 -54 -24 -85 -74 -123l-81 -66h151v-93h-312z" />
    <glyph glyph-name="three.den" horiz-adv-x="393" 
d="M192 -6c-88 0 -166 53 -161 146h101c0 -33 27 -52 60 -52s55 19 55 44c0 26 -20 44 -61 44h-41v70h31c44 0 64 14 64 41c0 23 -19 42 -51 42c-30 0 -52 -16 -52 -44h-98c0 81 65 136 151 136c89 0 155 -55 155 -123c0 -37 -16 -64 -44 -82c31 -17 52 -49 52 -92
c0 -69 -68 -130 -161 -130z" />
    <glyph glyph-name="four.den" horiz-adv-x="391" 
d="M17 82v81l159 250h114l-156 -243h91v65h97v-65h44v-88h-44v-82h-97v82h-208z" />
    <glyph glyph-name="five.den" horiz-adv-x="401" 
d="M203 -6c-85 0 -146 41 -163 108l97 30c8 -28 29 -48 64 -48c34 0 56 22 56 49c0 28 -22 50 -56 50c-22 0 -39 -10 -46 -19h-99v249h287v-92h-187v-62c15 7 33 11 52 11c94 0 153 -56 153 -136c0 -83 -72 -140 -158 -140z" />
    <glyph glyph-name="six.den" horiz-adv-x="389" 
d="M194 -6c-97 0 -163 67 -163 145c0 31 8 59 29 94l107 180h128l-82 -133c86 -7 146 -63 146 -139c0 -81 -69 -147 -165 -147zM194 87c35 0 58 24 58 54c0 28 -24 52 -58 52c-30 0 -57 -21 -57 -52c0 -28 22 -54 57 -54z" />
    <glyph glyph-name="seven.den" horiz-adv-x="332" 
d="M53 0l143 314h-178v99h304v-72l-155 -341h-114z" />
    <glyph glyph-name="eight.den" horiz-adv-x="388" 
d="M194 -5c-93 0 -154 60 -154 134c0 35 17 66 46 88c-24 21 -38 49 -38 79c0 68 61 126 146 126c86 0 146 -58 146 -126c0 -31 -14 -59 -38 -80c29 -21 46 -52 46 -87c0 -74 -62 -134 -154 -134zM194 81c34 0 54 24 54 50c0 25 -19 48 -54 48s-55 -23 -55 -48
s21 -50 55 -50zM194 337c-31 0 -48 -22 -48 -44s16 -42 43 -44h9c28 2 44 22 44 44s-17 44 -48 44z" />
    <glyph glyph-name="nine.den" horiz-adv-x="389" 
d="M195 419c97 0 164 -67 164 -145c0 -31 -9 -59 -30 -94l-107 -180h-127l81 133c-86 7 -145 62 -145 139c0 81 68 147 164 147zM195 326c-35 0 -58 -24 -58 -54c0 -28 24 -52 58 -52c30 0 57 21 57 52c0 28 -21 54 -57 54z" />
    <glyph glyph-name="zero.sub" horiz-adv-x="427" 
d="M213 16c59 0 67 54 67 111c0 47 -1 108 -67 108c-61 0 -66 -54 -66 -108c0 -48 2 -111 66 -111zM213 -84c-81 0 -150 43 -168 115c-9 34 -9 52 -9 96s3 69 9 93c18 70 87 115 168 115c83 0 150 -46 168 -116c10 -33 9 -54 9 -92c0 -47 0 -69 -9 -97
c-20 -71 -86 -114 -168 -114z" />
    <glyph glyph-name="one.sub" horiz-adv-x="252" 
d="M95 -80v286l-80 -38v102l136 69h48v-419h-104z" />
    <glyph glyph-name="two.sub" horiz-adv-x="395" 
d="M40 -80v76l176 149c26 21 32 35 32 51c0 24 -18 47 -55 47c-35 0 -56 -25 -56 -59h-101c0 93 64 157 157 157c106 0 163 -63 163 -139c0 -54 -24 -85 -74 -123l-81 -66h151v-93h-312z" />
    <glyph glyph-name="three.sub" horiz-adv-x="393" 
d="M192 -86c-88 0 -166 53 -161 146h101c0 -33 27 -52 60 -52s55 19 55 44c0 26 -20 44 -61 44h-41v70h31c44 0 64 14 64 41c0 23 -19 42 -51 42c-30 0 -52 -16 -52 -44h-98c0 81 65 136 151 136c89 0 155 -55 155 -123c0 -37 -16 -64 -44 -82c31 -17 52 -49 52 -92
c0 -69 -68 -130 -161 -130z" />
    <glyph glyph-name="four.sub" horiz-adv-x="391" 
d="M17 2v81l159 250h114l-156 -243h91v65h97v-65h44v-88h-44v-82h-97v82h-208z" />
    <glyph glyph-name="five.sub" horiz-adv-x="401" 
d="M203 -86c-85 0 -146 41 -163 108l97 30c8 -28 29 -48 64 -48c34 0 56 22 56 49c0 28 -22 50 -56 50c-22 0 -39 -10 -46 -19h-99v249h287v-92h-187v-62c15 7 33 11 52 11c94 0 153 -56 153 -136c0 -83 -72 -140 -158 -140z" />
    <glyph glyph-name="six.sub" horiz-adv-x="389" 
d="M194 -86c-97 0 -163 67 -163 145c0 31 8 59 29 94l107 180h128l-82 -133c86 -7 146 -63 146 -139c0 -81 -69 -147 -165 -147zM194 7c35 0 58 24 58 54c0 28 -24 52 -58 52c-30 0 -57 -21 -57 -52c0 -28 22 -54 57 -54z" />
    <glyph glyph-name="seven.sub" horiz-adv-x="332" 
d="M53 -80l143 314h-178v99h304v-72l-155 -341h-114z" />
    <glyph glyph-name="eight.sub" horiz-adv-x="388" 
d="M194 -85c-93 0 -154 60 -154 134c0 35 17 66 46 88c-24 21 -38 49 -38 79c0 68 61 126 146 126c86 0 146 -58 146 -126c0 -31 -14 -59 -38 -80c29 -21 46 -52 46 -87c0 -74 -62 -134 -154 -134zM194 1c34 0 54 24 54 50c0 25 -19 48 -54 48s-55 -23 -55 -48
s21 -50 55 -50zM194 257c-31 0 -48 -22 -48 -44s16 -42 43 -44h9c28 2 44 22 44 44s-17 44 -48 44z" />
    <glyph glyph-name="nine.sub" horiz-adv-x="389" 
d="M195 339c97 0 164 -67 164 -145c0 -31 -9 -59 -30 -94l-107 -180h-127l81 133c-86 7 -145 62 -145 139c0 81 68 147 164 147zM195 246c-35 0 -58 -24 -58 -54c0 -28 24 -52 58 -52c30 0 57 21 57 52c0 28 -21 54 -57 54z" />
    <glyph glyph-name="registered.alt" horiz-adv-x="910" 
d="M455 -12c-222 0 -399 179 -399 400s177 399 399 399c221 0 399 -178 399 -399s-179 -400 -399 -400zM455 75c173 0 308 140 308 313s-135 312 -308 312s-308 -139 -308 -312s135 -313 308 -313zM531 174l-107 147h-34v-147h-93v431h189c89 0 155 -50 155 -142
c0 -77 -48 -124 -111 -139l111 -150h-110zM465 521h-75v-123h76c44 0 75 22 75 63c0 39 -29 60 -76 60z" />
    <glyph glyph-name="Ecaron" unicode="&#x11a;" horiz-adv-x="574" 
d="M509 327h-286v-200h314v-127h-459v773h450v-127h-305v-192h286v-127zM261 831l-114 127h103l57 -61l57 61h103l-114 -127h-92z" />
    <glyph glyph-name="Icaron" unicode="&#x1cf;" horiz-adv-x="301" 
d="M78 0v773h145v-773h-145zM105 831l-114 127h103l57 -61l57 61h103l-114 -127h-92z" />
    <glyph glyph-name="f_l.dlig" horiz-adv-x="553" 
d="M9 395v116h74v79c0 131 88 190 207 190c117 0 205 -58 205 -191v-589h-134v573c0 67 -29 91 -74 91s-75 -24 -75 -91v-62h83v-116h-83v-395h-129v395h-74z" />
    <glyph glyph-name="thinspace" unicode="&#x2009;" horiz-adv-x="130" 
 />
    <glyph glyph-name="f_f_l.dlig" horiz-adv-x="853" 
d="M382 0v395h-168v-395h-129v395h-76v116h76v93c0 114 86 176 182 176c63 0 105 -18 133 -43l-57 -95c-18 14 -35 22 -62 22c-37 0 -67 -26 -67 -73v-80h168v79c0 131 88 190 207 190c118 0 205 -58 205 -191v-589h-133v573c0 67 -30 91 -75 91s-74 -24 -74 -91v-62h83
v-116h-83v-395h-130z" />
    <glyph glyph-name="colon.case" horiz-adv-x="266" 
d="M132 257c41 0 78 -31 78 -71c0 -38 -37 -72 -78 -72c-42 0 -76 34 -76 72c0 40 34 71 76 71zM132 638c41 0 78 -31 78 -71c0 -38 -37 -72 -78 -72c-42 0 -76 34 -76 72c0 40 34 71 76 71z" />
    </font>
</defs>
</svg>
