<?xml version="1.0" standalone="no"?>
<!DOCTYPE svg PUBLIC "-//W3C//DTD SVG 1.1//EN" "http://www.w3.org/Graphics/SVG/1.1/DTD/svg11.dtd" >
<svg xmlns="http://www.w3.org/2000/svg" xmlns:xlink="http://www.w3.org/1999/xlink" version="1.1">
<metadata>
Created by FontForge 20190801 at Sun Jan 27 18:21:34 2013
 By Jimmy Wärting
Copyright (c) 2013 by Anton Koovit. All rights reserved.
</metadata>
<defs>
<font id="U8-Light" horiz-adv-x="561" >
  <font-face 
    font-family="U8 Light"
    font-weight="350"
    font-stretch="normal"
    units-per-em="1000"
    panose-1="2 11 10 3 3 2 0 2 2 4"
    ascent="820"
    descent="-180"
    x-height="490"
    cap-height="773"
    bbox="-156 -197 1293 1143"
    underline-thickness="50"
    underline-position="-100"
    stemh="65"
    stemv="68"
    unicode-range="U+000D-FB04"
  />
<missing-glyph horiz-adv-x="500" 
 />
    <glyph glyph-name="fi" unicode="fi" horiz-adv-x="497" 
d="M18 428v62h79v127c0 103 65 162 154 162c32 0 47 -4 64 -10l-15 -60c-12 4 -25 7 -46 7c-55 0 -90 -36 -90 -102v-124h92v-62h-92v-428h-67v428h-79zM354 0v490h68v-490h-68zM388 644c-26 0 -45 20 -45 46c0 25 19 46 45 46s47 -21 47 -46c0 -26 -21 -46 -47 -46z" />
    <glyph glyph-name="fl" unicode="fl" horiz-adv-x="487" 
d="M343 0v633c-6 54 -38 83 -88 83c-56 0 -91 -36 -91 -102v-124h92v-62h-92v-428h-67v428h-79v62h79v127c0 104 67 162 154 162c37 0 66 -9 92 -28v29h68v-780h-68z" />
    <glyph glyph-name="f_f_i" unicode="ffi" horiz-adv-x="765" 
d="M18 428v62h85v127c0 104 67 162 154 162c51 0 90 -12 122 -40l-37 -52c-24 20 -49 29 -82 29c-56 0 -90 -36 -90 -102v-124h205v127c0 104 65 162 154 162c25 0 49 -4 66 -11l-17 -60c-13 5 -27 8 -47 8c-55 0 -89 -36 -89 -102v-124h91v-62h-91v-428h-67v428h-205v-428
h-67v428h-85zM632 0v490h68v-490h-68zM666 644c-26 0 -45 20 -45 46c0 25 19 46 45 46s47 -21 47 -46c0 -26 -21 -46 -47 -46z" />
    <glyph glyph-name="f_f" unicode="ff" horiz-adv-x="527" 
d="M170 428v-428h-67v428h-85v62h85v127c0 104 67 162 154 162c51 0 90 -12 122 -40l-37 -52c-24 20 -49 29 -82 29c-56 0 -90 -36 -90 -102v-124h192v127c0 104 67 162 154 162c51 0 90 -12 122 -40l-37 -52c-24 20 -49 29 -82 29c-56 0 -90 -36 -90 -102v-124h92v-62h-92
v-428h-67v428h-192z" />
    <glyph glyph-name="f_f_l" unicode="ffl" horiz-adv-x="756" 
d="M366 0v428h-196v-428h-67v428h-85v62h85v127c0 104 67 162 154 162c51 0 90 -12 122 -40l-37 -52c-24 20 -49 29 -82 29c-56 0 -90 -36 -90 -102v-124h196v127c0 104 67 162 154 162c37 0 68 -9 93 -29v30h68v-780h-68v623c-3 60 -36 93 -88 93c-56 0 -92 -36 -92 -102
v-124h92v-62h-92v-428h-67z" />
    <glyph glyph-name="f_j" unicode="fj" horiz-adv-x="497" 
d="M18 428v62h79v127c0 103 65 162 154 162c32 0 47 -4 64 -10l-15 -60c-12 4 -25 7 -46 7c-55 0 -90 -36 -90 -102v-124h92v-62h-92v-428h-67v428h-79zM268 -185l-1 62c58 2 87 39 87 107v506h68v-504c0 -112 -61 -166 -154 -171zM388 644c-26 0 -45 20 -45 46
c0 25 19 46 45 46s47 -21 47 -46c0 -26 -21 -46 -47 -46z" />
    <glyph glyph-name="f_b" unicode="fb" horiz-adv-x="870" 
d="M343 0v633c-6 54 -38 83 -88 83c-56 0 -91 -36 -91 -102v-124h92v-62h-92v-428h-67v428h-79v62h79v127c0 104 67 162 154 162c37 0 66 -9 92 -28v29h68v-350c42 41 100 68 170 68c149 0 256 -113 256 -252s-109 -254 -256 -254c-68 0 -126 25 -170 69v-61h-68zM579 434
c-76 0 -137 -41 -168 -98v-179c31 -60 94 -101 168 -101c109 0 191 86 191 190c0 105 -81 188 -191 188z" />
    <glyph glyph-name=".notdef" horiz-adv-x="500" 
 />
    <glyph glyph-name="b" unicode="b" horiz-adv-x="602" 
d="M75 0v780h68v-350c42 41 100 68 170 68c149 0 256 -113 256 -252s-109 -254 -256 -254c-68 0 -126 25 -170 69v-61h-68zM311 434c-76 0 -137 -41 -168 -98v-179c31 -60 94 -101 168 -101c109 0 191 86 191 190c0 105 -81 188 -191 188z" />
    <glyph glyph-name="c" unicode="c" horiz-adv-x="461" 
d="M285 -8c-139 0 -253 112 -253 253c0 139 114 252 253 252c61 0 116 -20 160 -55l-40 -53c-33 27 -72 42 -118 42c-104 0 -187 -83 -187 -186c0 -105 82 -188 187 -188c45 0 85 16 116 40l38 -52c-41 -33 -94 -53 -156 -53z" />
    <glyph glyph-name="d" unicode="d" horiz-adv-x="607" 
d="M464 0v67c-45 -47 -105 -75 -175 -75c-148 0 -257 115 -257 254c0 138 108 252 257 252c74 0 134 -31 175 -80v362h68v-780h-68zM291 56c78 0 143 45 173 110v148c-31 71 -95 120 -173 120c-111 0 -191 -83 -191 -188c0 -104 81 -190 191 -190z" />
    <glyph glyph-name="e" unicode="e" 
d="M294 -8c-162 0 -262 117 -262 257c0 135 95 248 248 248c145 0 243 -97 252 -226c1 -10 2 -20 2 -30h-436c2 -103 77 -187 196 -187c68 0 110 15 164 61l41 -45c-62 -56 -117 -78 -205 -78zM279 436c-100 0 -157 -62 -175 -137h356c-17 79 -82 137 -181 137z" />
    <glyph glyph-name="f" unicode="f" horiz-adv-x="268" 
d="M18 428v62h85v127c0 104 67 162 154 162c51 0 90 -12 122 -40l-37 -52c-24 20 -49 29 -82 29c-56 0 -90 -36 -90 -102v-124h92v-62h-92v-428h-67v428h-85z" />
    <glyph glyph-name="g" unicode="g" horiz-adv-x="606" 
d="M289 -9c-149 0 -257 111 -257 252c0 138 111 253 257 253c69 0 131 -26 174 -68v62h67v-445c0 -125 -91 -214 -243 -214c-100 0 -192 31 -257 88l39 50c53 -47 130 -76 218 -76c120 0 176 65 176 157v13c-45 -46 -106 -72 -174 -72zM291 55c80 0 142 44 172 107v166
c-31 61 -96 104 -172 104c-109 0 -191 -86 -191 -189c0 -107 79 -188 191 -188z" />
    <glyph glyph-name="h" unicode="h" horiz-adv-x="577" 
d="M449 0v279c0 99 -75 154 -155 154c-63 0 -121 -36 -150 -87v-346h-68v780h68v-349c31 35 83 67 155 67c115 0 218 -78 218 -209v-289h-68z" />
    <glyph glyph-name="i" unicode="i" horiz-adv-x="219" 
d="M75 0v490h68v-490h-68zM109 644c-26 0 -45 20 -45 46c0 25 19 46 45 46s47 -21 47 -46c0 -26 -21 -46 -47 -46z" />
    <glyph glyph-name="j" unicode="j" horiz-adv-x="219" 
d="M109 644c-26 0 -45 20 -45 46c0 25 19 46 45 46s47 -21 47 -46c0 -26 -21 -46 -47 -46zM-11 -185l-1 62c58 2 87 39 87 107v506h68v-504c0 -112 -61 -166 -154 -171z" />
    <glyph glyph-name="k" unicode="k" horiz-adv-x="497" 
d="M387 490h86l-197 -191l214 -299h-81l-180 252l-86 -83v-169h-68v780h68v-528z" />
    <glyph glyph-name="l" unicode="l" horiz-adv-x="219" 
d="M75 0v780h68v-780h-68z" />
    <glyph glyph-name="m" unicode="m" horiz-adv-x="938" 
d="M443 0v289c0 94 -60 144 -147 144c-63 0 -123 -36 -153 -87v-346h-68v490h68v-61c32 36 85 69 158 69c80 0 147 -33 186 -91c40 53 104 91 179 91c114 0 213 -81 213 -209v-289h-68v280c0 95 -70 153 -149 153c-68 0 -122 -39 -151 -95v-338h-68z" />
    <glyph glyph-name="n" unicode="n" horiz-adv-x="576" 
d="M449 0v279c0 99 -75 154 -155 154c-64 0 -122 -37 -151 -88v-345h-68v490h68v-61c31 36 83 69 156 69c115 0 218 -78 218 -209v-289h-68z" />
    <glyph glyph-name="o" unicode="o" horiz-adv-x="582" 
d="M291 57c113 0 191 87 191 190c0 105 -81 187 -191 187s-191 -82 -191 -187c0 -104 81 -190 191 -190zM291 -8c-152 0 -259 116 -259 255s110 252 259 252s259 -113 259 -252c0 -138 -107 -255 -259 -255z" />
    <glyph glyph-name="p" unicode="p" horiz-adv-x="606" 
d="M317 -8c-70 0 -130 27 -174 74v-243h-68v667h68v-64c42 43 102 72 174 72c149 0 256 -113 256 -252s-109 -254 -256 -254zM315 434c-79 0 -142 -44 -172 -106v-163c30 -64 94 -109 172 -109c109 0 191 86 191 190c0 105 -81 188 -191 188z" />
    <glyph glyph-name="q" unicode="q" horiz-adv-x="587" 
d="M444 -177v225c-42 -36 -95 -56 -155 -56c-148 0 -257 115 -257 254c0 138 108 252 257 252c63 0 115 -22 155 -59v51h68v-667h-68zM291 56c63 0 118 30 153 76v219c-35 50 -89 83 -153 83c-111 0 -191 -83 -191 -188c0 -104 81 -190 191 -190z" />
    <glyph glyph-name="r" unicode="r" horiz-adv-x="412" 
d="M75 0v490h68v-43c25 30 60 49 105 49c90 0 155 -68 155 -152v-12h-64c0 57 -39 99 -98 99c-46 0 -88 -34 -98 -78v-353h-68z" />
    <glyph glyph-name="s" unicode="s" horiz-adv-x="506" 
d="M261 -11c-92 0 -169 22 -243 66l34 56c64 -41 133 -61 210 -61c94 0 154 36 154 89c0 35 -22 62 -91 75l-142 26c-87 15 -131 55 -131 126c0 77 66 136 205 136c76 0 144 -21 196 -55l-34 -54c-51 31 -105 47 -163 47c-74 0 -138 -22 -138 -73c0 -34 18 -53 75 -63
l139 -25c99 -18 150 -63 150 -138c0 -93 -93 -152 -221 -152z" />
    <glyph glyph-name="t" unicode="t" horiz-adv-x="274" 
d="M18 428v62h85v212l68 37v-249h85v-62h-85v-428h-68v428h-85z" />
    <glyph glyph-name="u" unicode="u" horiz-adv-x="576" 
d="M275 -9c-109 0 -216 79 -216 208l1 291h68v-283c0 -98 75 -153 153 -153c71 0 126 41 152 97v339h68v-490h-68v64c-36 -41 -88 -73 -158 -73z" />
    <glyph glyph-name="v" unicode="v" horiz-adv-x="476" 
d="M202 0l-199 490h74l162 -402l162 402h72l-200 -490h-71z" />
    <glyph glyph-name="w" unicode="w" horiz-adv-x="805" 
d="M190 0l-184 490h73l148 -400l141 400h69l141 -403l151 403h70l-187 -490h-70l-141 396l-143 -396h-68z" />
    <glyph glyph-name="x" unicode="x" horiz-adv-x="486" 
d="M399 0l-158 202l-156 -202h-83l194 252l-184 238h84l147 -190l149 190h82l-185 -239l194 -251h-84z" />
    <glyph glyph-name="y" unicode="y" horiz-adv-x="489" 
d="M3 490h78l163 -399l170 399h72l-286 -667h-70l77 181z" />
    <glyph glyph-name="z" unicode="z" horiz-adv-x="462" 
d="M16 0l298 428h-285v62h411l-300 -427h303v-63h-427z" />
    <glyph glyph-name="space" unicode=" " horiz-adv-x="278" 
 />
    <glyph glyph-name="A" unicode="A" horiz-adv-x="708" 
d="M7 0l326 773h49l319 -773h-75l-56 136h-433l-57 -136h-73zM357 655l-192 -454h378z" />
    <glyph glyph-name="B" unicode="B" horiz-adv-x="617" 
d="M95 0v773h212c137 0 239 -77 239 -205c0 -77 -40 -139 -105 -173c77 -27 129 -92 129 -184c0 -131 -104 -211 -250 -211h-225zM329 359h-165v-295h152c113 0 185 57 185 149c0 81 -52 146 -172 146zM303 709h-139v-288h173c72 0 141 56 141 147c0 88 -73 141 -175 141z
" />
    <glyph glyph-name="C" unicode="C" horiz-adv-x="741" 
d="M444 -14c-222 0 -401 179 -401 400c0 222 179 401 401 401c104 0 199 -40 271 -105l-49 -50c-59 54 -137 87 -222 87c-184 0 -330 -147 -330 -333c0 -185 146 -332 330 -332c89 0 169 36 228 92l50 -47c-72 -70 -170 -113 -278 -113z" />
    <glyph glyph-name="D" unicode="D" horiz-adv-x="723" 
d="M95 0v773h196c206 0 388 -168 388 -386c0 -217 -170 -387 -386 -387h-198zM291 707h-127v-641h132c177 0 312 145 312 321c0 180 -148 320 -317 320z" />
    <glyph glyph-name="E" unicode="E" horiz-adv-x="579" 
d="M514 359h-349v-294h363v-65h-433v773h431v-65h-361v-284h349v-65z" />
    <glyph glyph-name="F" unicode="F" horiz-adv-x="539" 
d="M95 0v773h425v-65h-355v-289h309v-64h-309v-355h-70z" />
    <glyph glyph-name="G" unicode="G" horiz-adv-x="886" 
d="M620 353v65h228l-1 -34c-6 -235 -187 -398 -399 -398c-230 0 -405 183 -405 401c0 219 174 401 405 401c119 0 228 -52 303 -137l-51 -48c-64 72 -153 117 -252 117c-193 0 -334 -151 -334 -333c0 -183 143 -333 334 -333c166 0 306 117 327 299h-155z" />
    <glyph glyph-name="H" unicode="H" horiz-adv-x="773" 
d="M608 0v356h-443v-356h-70v773h70v-351h443v351h70v-773h-70z" />
    <glyph glyph-name="I" unicode="I" horiz-adv-x="261" 
d="M95 0v773h70v-773h-70z" />
    <glyph glyph-name="J" unicode="J" horiz-adv-x="527" 
d="M210 -11c-107 0 -199 62 -233 178l64 24c26 -87 90 -135 169 -135c100 0 171 63 171 189v528h70v-528c0 -174 -111 -256 -241 -256z" />
    <glyph glyph-name="K" unicode="K" horiz-adv-x="645" 
d="M95 0v773h69v-403l361 403h92l-273 -304l281 -469h-81l-249 416l-131 -146v-270h-69z" />
    <glyph glyph-name="L" unicode="L" horiz-adv-x="532" 
d="M95 0v773h70v-707h353v-66h-423z" />
    <glyph glyph-name="M" unicode="M" horiz-adv-x="860" 
d="M95 0v773h68l265 -461l269 461h68v-773h-69v639h-1l-267 -456l-263 449h-1v-632h-69z" />
    <glyph glyph-name="N" unicode="N" horiz-adv-x="790" 
d="M95 0v773h39l491 -620v620h70v-773h-38l-492 622v-622h-70z" />
    <glyph glyph-name="O" unicode="O" horiz-adv-x="889" 
d="M444 54c184 0 330 147 330 332c0 186 -147 333 -330 333c-184 0 -330 -147 -330 -333c0 -185 146 -332 330 -332zM444 -14c-221 0 -401 179 -401 400c0 222 180 401 401 401s401 -179 401 -401c0 -221 -180 -400 -401 -400z" />
    <glyph glyph-name="P" unicode="P" horiz-adv-x="618" 
d="M95 0v773h264c135 0 240 -105 240 -244c0 -137 -107 -240 -240 -240h-194v-289h-70zM356 707h-191v-353h192c96 0 171 72 171 175s-76 178 -172 178z" />
    <glyph glyph-name="Q" unicode="Q" horiz-adv-x="889" 
d="M444 -14c-221 0 -401 179 -401 400c0 222 180 401 401 401s401 -179 401 -401c0 -100 -37 -191 -97 -261l95 -94l-47 -46l-95 94c-69 -58 -159 -93 -257 -93zM444 54c79 0 152 27 209 74l-112 112l47 46l111 -112c47 57 75 131 75 212c0 186 -147 333 -330 333
c-184 0 -330 -147 -330 -333c0 -185 146 -332 330 -332z" />
    <glyph glyph-name="R" unicode="R" horiz-adv-x="652" 
d="M95 0v773h284c130 0 235 -91 235 -223c0 -134 -106 -223 -238 -223h-10l259 -327h-86l-257 327h-117v-327h-70zM374 709h-209v-319h207c97 0 171 63 171 160c0 91 -73 159 -169 159z" />
    <glyph glyph-name="S" unicode="S" horiz-adv-x="587" 
d="M291 -8c-104 0 -204 51 -264 118l50 49c48 -55 131 -101 216 -101c106 0 175 63 175 147c0 60 -33 117 -123 154l-98 38c-105 42 -164 99 -164 195c0 113 94 192 213 192c95 0 161 -30 216 -82l-45 -53c-45 42 -99 69 -171 69c-81 0 -144 -47 -144 -124
c0 -54 28 -95 122 -132l98 -39c119 -48 165 -123 165 -216c0 -127 -96 -215 -246 -215z" />
    <glyph glyph-name="T" unicode="T" horiz-adv-x="618" 
d="M13 707v66h591v-66h-260v-707h-70v707h-261z" />
    <glyph glyph-name="U" unicode="U" horiz-adv-x="711" 
d="M354 -13c-167 0 -278 122 -278 282v504h70v-500c0 -123 78 -219 208 -219c131 0 210 94 210 218v501h70v-504c0 -160 -110 -282 -280 -282z" />
    <glyph glyph-name="V" unicode="V" horiz-adv-x="691" 
d="M318 0l-311 773h75l263 -655l266 655h73l-315 -773h-51z" />
    <glyph glyph-name="W" unicode="W" horiz-adv-x="1094" 
d="M269 0l-257 773h74l215 -651l210 651h74l206 -654l220 654h71l-265 -773h-57l-212 666l-221 -666h-58z" />
    <glyph glyph-name="X" unicode="X" horiz-adv-x="596" 
d="M19 773h82l197 -323l198 323h79l-234 -381l240 -392h-83l-201 331l-201 -331h-81l239 389z" />
    <glyph glyph-name="Y" unicode="Y" horiz-adv-x="598" 
d="M517 773h77l-259 -468v-305h-70v304l-260 469h80l216 -393z" />
    <glyph glyph-name="Z" unicode="Z" horiz-adv-x="621" 
d="M26 0v42l473 666h-446v65h542v-45l-470 -663h460v-65h-559z" />
    <glyph glyph-name="germandbls" unicode="&#xdf;" horiz-adv-x="576" 
d="M305 58c90 0 163 74 163 166c0 91 -72 163 -163 165h-35v63h37c76 2 125 69 125 134c0 81 -52 142 -145 142c-92 0 -144 -76 -144 -157v-571h-66v576c0 106 76 216 210 216c128 0 212 -84 212 -202c0 -74 -38 -133 -92 -160c78 -36 132 -114 132 -205
c0 -133 -104 -231 -233 -231c-20 0 -39 3 -57 7l13 63c14 -4 28 -6 43 -6z" />
    <glyph glyph-name="dotlessi" unicode="&#x131;" horiz-adv-x="219" 
d="M75 0v490h68v-490h-68z" />
    <glyph glyph-name="quotedbl" unicode="&#x22;" horiz-adv-x="291" 
d="M60 558l-13 222h64v-222h-51zM180 558l-1 222h65l-13 -222h-51z" />
    <glyph glyph-name="quotesingle" unicode="'" horiz-adv-x="165" 
d="M55 558l-8 222h71l-11 -222h-52z" />
    <glyph glyph-name="quotedblbase" unicode="&#x201e;" horiz-adv-x="417" 
d="M90 -168l-44 16l90 227l63 -23zM261 -168l-44 16l90 227l63 -23z" />
    <glyph glyph-name="quotesinglbase" unicode="&#x201a;" horiz-adv-x="246" 
d="M90 -168l-44 16l90 227l63 -23z" />
    <glyph glyph-name="comma" unicode="," horiz-adv-x="202" 
d="M2 -143l89 227l63 -23l-109 -220z" />
    <glyph glyph-name="hyphen" unicode="-" horiz-adv-x="394" 
d="M48 250v63h298v-63h-298z" />
    <glyph glyph-name="hyphen" unicode="&#xad;" horiz-adv-x="394" 
d="M48 250v63h298v-63h-298z" />
    <glyph glyph-name="endash" unicode="&#x2013;" horiz-adv-x="608" 
d="M50 277v63h508v-63h-508z" />
    <glyph glyph-name="emdash" unicode="&#x2014;" horiz-adv-x="915" 
d="M8 277v63h900v-63h-900z" />
    <glyph glyph-name="zero" unicode="0" horiz-adv-x="632" 
d="M315 -13c-136 0 -240 101 -240 241v318c0 141 105 241 240 241c139 0 241 -101 241 -239v-322c0 -138 -105 -239 -241 -239zM315 52c98 0 174 71 174 174v322c0 102 -74 174 -174 174c-101 0 -172 -73 -172 -176v-318c0 -105 74 -176 172 -176z" />
    <glyph glyph-name="one" unicode="1" horiz-adv-x="357" 
d="M200 0v691l-150 -85l-30 56l211 119h36v-781h-67z" />
    <glyph glyph-name="two" unicode="2" horiz-adv-x="533" 
d="M30 0v36l330 433c32 41 44 76 44 112c0 80 -61 142 -151 142c-82 0 -147 -62 -149 -152h-67c0 124 97 216 216 216c128 0 219 -90 219 -206c0 -49 -21 -101 -63 -155l-279 -363h367v-63h-467z" />
    <glyph glyph-name="three" unicode="3" horiz-adv-x="529" 
d="M246 -13c-116 0 -223 98 -226 213h64c3 -84 83 -149 162 -149c96 0 168 68 168 159c0 93 -72 165 -168 165h-25l2 64h23c94 0 157 66 157 140c0 85 -64 146 -154 146c-85 0 -152 -66 -152 -147h-65c0 116 97 209 217 209c127 0 221 -90 221 -208
c0 -81 -48 -146 -123 -172c83 -28 134 -100 134 -197c0 -124 -103 -223 -235 -223z" />
    <glyph glyph-name="four" unicode="4" horiz-adv-x="533" 
d="M24 192v24l294 557h74l-272 -518h211v129h65v-129h117v-63h-117v-192h-65v192h-307z" />
    <glyph glyph-name="five" unicode="5" horiz-adv-x="577" 
d="M282 -13c-118 0 -212 70 -247 171l63 23c25 -74 94 -129 184 -129c116 0 194 86 194 190c0 108 -85 189 -192 189c-66 0 -112 -32 -140 -60h-65v402h422v-64h-355v-262c35 27 83 47 138 47c152 0 260 -109 260 -252c0 -141 -111 -255 -262 -255z" />
    <glyph glyph-name="six" unicode="6" horiz-adv-x="566" 
d="M294 -13c-124 0 -219 102 -219 224v346c0 137 97 230 220 230c114 0 210 -81 210 -205h-65c0 85 -64 141 -145 141c-89 0 -155 -66 -155 -164v-208c38 52 96 81 155 81c124 0 224 -100 224 -222c0 -123 -101 -223 -225 -223zM294 50c87 0 159 73 159 160
c0 85 -72 158 -159 158c-67 0 -153 -52 -153 -157c0 -88 68 -161 153 -161z" />
    <glyph glyph-name="seven" unicode="7" horiz-adv-x="460" 
d="M86 8l278 701h-352v64h442v-19l-304 -762z" />
    <glyph glyph-name="eight" unicode="8" horiz-adv-x="557" 
d="M278 -13c-128 0 -232 102 -232 230c0 88 51 162 124 199c-58 34 -97 96 -97 170c0 112 92 201 205 201c111 0 205 -89 205 -201c0 -73 -40 -135 -98 -170c74 -37 126 -110 126 -199c0 -128 -105 -230 -233 -230zM278 51c91 0 165 75 165 167c0 91 -74 163 -165 163
s-164 -72 -164 -163c0 -92 73 -167 164 -167zM278 724c-78 0 -139 -63 -139 -139c0 -79 60 -141 139 -141c76 0 139 62 139 141c0 76 -63 139 -139 139z" />
    <glyph glyph-name="nine" unicode="9" horiz-adv-x="508" 
d="M245 342c-112 0 -216 95 -216 222c0 137 116 223 226 223c116 0 221 -93 221 -219c0 -48 -8 -75 -28 -115c-78 -151 -159 -301 -239 -453h-73c62 119 126 237 188 356c-24 -10 -50 -14 -79 -14zM251 405c96 0 159 70 159 163c0 91 -73 156 -155 156
c-77 0 -160 -60 -160 -160c0 -89 76 -159 156 -159z" />
    <glyph glyph-name="question" unicode="?" horiz-adv-x="545" 
d="M247 -10c-26 0 -46 20 -46 46c0 25 20 46 46 46c25 0 46 -21 46 -46c0 -26 -21 -46 -46 -46zM215 182v33c0 82 20 116 75 150l51 34c54 35 90 81 90 147c0 82 -53 151 -155 151c-103 0 -158 -75 -163 -179h-64c5 142 90 241 227 241c136 0 222 -96 222 -212
c0 -83 -43 -142 -120 -193l-53 -35c-33 -22 -46 -46 -46 -106v-31h-64z" />
    <glyph glyph-name="exclam" unicode="!" horiz-adv-x="265" 
d="M103 182l-10 570h80l-10 -570h-60zM133 -10c-26 0 -46 20 -46 46c0 25 20 46 46 46c25 0 46 -21 46 -46c0 -26 -21 -46 -46 -46z" />
    <glyph glyph-name="ae" unicode="&#xe6;" horiz-adv-x="960" 
d="M255 -12c-129 0 -223 63 -223 163c0 92 85 167 229 167c57 0 130 -23 171 -54c1 8 1 20 1 47c0 87 -100 122 -169 122c-58 0 -113 -12 -162 -52l-37 52c59 45 127 64 199 64c80 0 172 -31 213 -100c42 60 112 100 202 100c145 0 243 -97 253 -227c1 -10 1 -19 1 -29h-435
c2 -103 77 -187 196 -187c68 0 109 15 164 61l41 -45c-62 -56 -117 -78 -205 -78c-95 0 -168 39 -213 100c-54 -65 -132 -104 -226 -104zM257 46c86 0 149 36 197 93c-7 17 -13 35 -17 53c-31 31 -102 68 -175 68c-109 0 -165 -50 -165 -109c0 -61 65 -105 160 -105z
M679 436c-101 0 -158 -62 -175 -137h356c-18 79 -83 137 -181 137z" />
    <glyph glyph-name="colon" unicode=":" horiz-adv-x="229" 
d="M113 76c25 0 47 -18 47 -42c0 -23 -22 -44 -47 -44s-46 21 -46 44c0 24 21 42 46 42zM115 457c25 0 47 -18 47 -42c0 -23 -22 -44 -47 -44c-26 0 -46 21 -46 44c0 24 20 42 46 42z" />
    <glyph glyph-name="acute" unicode="&#xb4;" horiz-adv-x="283" 
d="M42 575v17l116 142h83v-12l-155 -147h-44z" />
    <glyph glyph-name="circumflex" unicode="&#x2c6;" horiz-adv-x="411" 
d="M48 582l136 152h43l136 -152h-68l-89 99l-90 -99h-68z" />
    <glyph glyph-name="macron" unicode="&#xaf;" horiz-adv-x="399" 
d="M57 617v58h285v-58h-285z" />
    <glyph glyph-name="macron" unicode="&#x2c9;" horiz-adv-x="399" 
d="M57 617v58h285v-58h-285z" />
    <glyph glyph-name="breve" unicode="&#x2d8;" horiz-adv-x="473" 
d="M237 588c-79 0 -144 54 -145 144h56c0 -51 36 -93 89 -93c52 0 88 42 89 93h54c-2 -92 -65 -144 -143 -144z" />
    <glyph glyph-name="dotaccent" unicode="&#x2d9;" horiz-adv-x="165" 
d="M82 644c-26 0 -45 20 -45 46c0 25 19 46 45 46s47 -21 47 -46c0 -26 -21 -46 -47 -46z" />
    <glyph glyph-name="ring" unicode="&#x2da;" horiz-adv-x="341" 
d="M171 619c25 0 46 21 46 46c0 26 -21 47 -46 47c-26 0 -47 -21 -47 -47c0 -25 21 -46 47 -46zM171 570c-53 0 -96 43 -96 95c0 53 43 96 96 96c52 0 95 -43 95 -96c0 -52 -43 -95 -95 -95z" />
    <glyph glyph-name="cedilla" unicode="&#xb8;" horiz-adv-x="303" 
d="M90 -194v49c10 -3 19 -4 26 -4c31 0 55 9 55 40c0 27 -24 39 -52 39h-7v89h55v-57c33 -6 61 -34 61 -73c0 -56 -44 -86 -111 -86c-8 0 -18 1 -27 3z" />
    <glyph glyph-name="hungarumlaut" unicode="&#x2dd;" horiz-adv-x="431" 
d="M40 575l90 156h84l-117 -156h-57zM204 575l102 156h85l-129 -156h-58z" />
    <glyph glyph-name="ogonek" unicode="&#x2db;" horiz-adv-x="256" 
d="M141 -177c-66 0 -103 35 -103 80c0 70 66 108 126 121l45 -24c-71 -19 -112 -48 -112 -86c0 -28 20 -45 57 -45c21 0 38 6 49 10l14 -40c-12 -7 -47 -16 -76 -16z" />
    <glyph glyph-name="caron" unicode="&#x2c7;" horiz-adv-x="411" 
d="M184 582l-136 152h68l90 -99l89 99h68l-136 -152h-43z" />
    <glyph glyph-name="grave" unicode="`" horiz-adv-x="289" 
d="M191 575l-150 146l-1 13h78l131 -149v-10h-58z" />
    <glyph glyph-name="dieresis" unicode="&#xa8;" horiz-adv-x="398" 
d="M309 621c-24 0 -42 18 -42 42s18 44 42 44s43 -20 43 -44s-19 -42 -43 -42zM88 621c-23 0 -42 18 -42 42s19 44 42 44c24 0 44 -20 44 -44s-20 -42 -44 -42z" />
    <glyph glyph-name="ampersand" unicode="&#x26;" horiz-adv-x="645" 
d="M265 -14c-123 0 -212 90 -212 215c0 97 59 160 151 211l-20 23c-37 42 -74 98 -74 166c0 104 82 184 187 184c100 0 184 -78 184 -184c0 -100 -77 -164 -168 -203l-8 -3l160 -179c20 50 32 107 44 167l63 -8c-11 -59 -28 -142 -60 -211l126 -140l-49 -44l-111 124
c-56 -83 -129 -118 -213 -118zM266 50c73 0 124 31 168 102c0 0 1 0 1 1l-190 213c-86 -48 -126 -102 -126 -165c0 -86 62 -151 147 -151zM174 601c0 -49 31 -94 59 -126l29 -33l24 11c91 38 131 86 131 148c0 69 -49 123 -120 123c-69 0 -123 -54 -123 -123z" />
    <glyph glyph-name="asterisk" unicode="*" horiz-adv-x="487" 
d="M450 610l-157 -51l98 -134l-50 -36l-98 134l-97 -134l-49 36l95 133l-155 50l19 58l157 -51v165h61v-164l158 51zM220 605l-14 -44l37 -26l39 27l-15 43h-47z" />
    <glyph glyph-name="plus" unicode="+" horiz-adv-x="619" 
d="M57 322v62h220v222h65v-222h220v-62h-220v-223h-65v223h-220z" />
    <glyph glyph-name="parenright" unicode=")" horiz-adv-x="316" 
d="M191 334c0 167 -71 360 -179 484l51 41c120 -138 195 -346 195 -525c0 -210 -89 -401 -199 -530l-51 40c101 119 183 298 183 490z" />
    <glyph glyph-name="parenleft" unicode="(" horiz-adv-x="316" 
d="M58 333c0 179 75 388 196 526l50 -42c-107 -124 -179 -316 -179 -484c0 -191 82 -371 183 -490l-51 -39c-110 129 -199 320 -199 529z" />
    <glyph glyph-name="semicolon" unicode=";" horiz-adv-x="233" 
d="M120 457c25 0 47 -18 47 -42c0 -23 -22 -44 -47 -44s-46 21 -46 44c0 24 21 42 46 42zM9 -143l89 227l63 -23l-109 -220z" />
    <glyph glyph-name="at" unicode="@" horiz-adv-x="1032" 
d="M505 56c-122 0 -211 94 -211 206c0 113 93 206 210 206c53 0 99 -23 133 -55l1 63h62v-282c0 -54 32 -78 73 -78c82 0 123 88 123 183c0 189 -166 350 -381 350c-209 0 -379 -170 -379 -378c0 -220 170 -389 379 -389c82 0 158 20 223 60l31 -54
c-74 -44 -161 -67 -254 -67c-243 0 -441 196 -441 450c0 242 198 440 441 440c246 0 443 -188 443 -412c0 -119 -60 -244 -187 -244c-53 0 -99 27 -122 71c-28 -35 -77 -70 -144 -70zM505 119c59 0 107 34 131 84v116c-24 51 -73 87 -131 87c-83 0 -146 -65 -146 -144
c0 -81 61 -143 146 -143z" />
    <glyph glyph-name="bracketleft" unicode="[" horiz-adv-x="328" 
d="M92 -144v924h210v-57h-146v-809h146v-58h-210z" />
    <glyph glyph-name="backslash" unicode="\" horiz-adv-x="365" 
d="M293 -121l-296 901h63l296 -901h-63z" />
    <glyph glyph-name="bracketright" unicode="]" horiz-adv-x="328" 
d="M236 780v-924h-210v57h146v809h-146v58h210z" />
    <glyph glyph-name="slash" unicode="/" horiz-adv-x="365" 
d="M9 -121l296 901h64l-296 -901h-64z" />
    <glyph glyph-name="dollar" unicode="$" horiz-adv-x="563" 
d="M267 759h64v-93c59 -7 109 -29 155 -62l-40 -56c-34 27 -73 45 -115 52v-204l28 -9c108 -38 149 -104 149 -175c0 -86 -68 -158 -177 -173v-106h-64v103c-87 5 -169 43 -221 94l50 53c39 -39 103 -74 171 -80v240l-22 8c-96 34 -149 81 -149 160c0 83 67 147 171 156v92z
M438 208c0 44 -28 86 -107 114v-216c68 13 107 55 107 102zM165 513c0 -38 24 -67 102 -95v185c-64 -7 -102 -40 -102 -90z" />
    <glyph glyph-name="copyright" unicode="&#xa9;" horiz-adv-x="912" 
d="M471 163c-129 0 -230 100 -230 228s101 227 230 227c59 0 110 -18 153 -53l-37 -49c-33 26 -70 40 -115 40c-95 0 -166 -71 -166 -165c0 -93 73 -167 166 -167c45 0 82 16 113 39l36 -49c-41 -33 -91 -51 -150 -51zM456 -12c-220 0 -397 178 -397 398s177 398 397 398
s398 -178 398 -398s-178 -398 -398 -398zM456 45c189 0 338 152 338 341s-149 341 -338 341c-188 0 -338 -152 -338 -341s150 -341 338 -341z" />
    <glyph glyph-name="zero.plf" horiz-adv-x="587" 
d="M293 54c93 0 166 74 167 169c0 0 3 63 3 128c0 61 -3 129 -3 129c-1 90 -74 169 -167 169c-92 0 -165 -77 -166 -169c0 0 -3 -68 -3 -129c0 -65 3 -128 3 -128c1 -95 72 -169 166 -169zM293 -11c-130 0 -232 97 -233 233c0 0 -3 64 -3 129c0 62 3 129 3 129
c1 132 105 234 233 234c129 0 233 -103 234 -234c0 -1 3 -68 3 -129c0 -66 -3 -129 -3 -129c-1 -135 -104 -233 -234 -233z" />
    <glyph glyph-name="one.plf" horiz-adv-x="335" 
d="M193 0v625l-147 -84l-32 55l201 115h44v-711h-66z" />
    <glyph glyph-name="two.plf" horiz-adv-x="513" 
d="M28 0v43l304 306c43 43 65 91 65 138c0 86 -51 160 -152 160c-84 0 -152 -71 -152 -176h-66c0 139 96 242 218 242c139 0 220 -103 220 -226c0 -73 -35 -131 -86 -182l-239 -242h342v-63h-454z" />
    <glyph glyph-name="three.plf" horiz-adv-x="513" 
d="M253 -13c-127 0 -224 88 -224 223h67c0 -87 59 -159 157 -159c92 0 154 64 154 137c0 86 -63 140 -157 140h-24v62h23c85 0 145 51 145 132c0 66 -57 127 -141 127c-88 0 -145 -55 -145 -150h-66c0 135 90 214 211 214c116 0 208 -83 208 -189c0 -81 -46 -136 -100 -163
c59 -21 112 -80 112 -172c0 -112 -95 -202 -220 -202z" />
    <glyph glyph-name="four.plf" horiz-adv-x="517" 
d="M24 150v45l275 505h74l-264 -488h242v166h65v-166h81v-62h-81v-150h-65v150h-327z" />
    <glyph glyph-name="five.plf" horiz-adv-x="555" 
d="M66 335v365h415v-63h-350v-225c36 31 87 53 147 53c136 0 239 -104 239 -237c0 -132 -103 -238 -242 -238c-116 0 -203 72 -237 178l64 19c24 -77 88 -132 172 -132c105 0 176 81 176 173c0 96 -72 172 -174 172c-66 0 -119 -30 -146 -65h-64z" />
    <glyph glyph-name="six.plf" horiz-adv-x="532" 
d="M265 -10c-127 0 -232 108 -232 229c0 54 13 93 50 160l178 321h78l-150 -267c24 8 49 13 76 13c127 0 234 -99 234 -227c0 -124 -107 -229 -234 -229zM265 55c92 0 166 78 166 164c0 88 -74 163 -166 163c-70 0 -164 -57 -164 -163c0 -87 74 -164 164 -164z" />
    <glyph glyph-name="seven.plf" horiz-adv-x="470" 
d="M100 0l270 634h-352v66h438v-34l-282 -666h-74z" />
    <glyph glyph-name="eight.plf" horiz-adv-x="527" 
d="M264 -13c-122 0 -216 94 -216 207c0 73 43 135 107 169c-57 34 -95 93 -95 158c0 109 92 192 204 192c113 0 203 -81 203 -189c0 -67 -39 -127 -96 -161c64 -34 108 -96 108 -169c0 -112 -94 -207 -215 -207zM264 51c87 0 149 65 149 143c0 73 -62 138 -149 138
s-150 -65 -150 -138c0 -76 62 -143 150 -143zM264 650c-80 0 -138 -59 -138 -130c0 -62 59 -130 138 -130s137 67 137 133c0 69 -56 127 -137 127z" />
    <glyph glyph-name="nine.plf" horiz-adv-x="532" 
d="M267 710c128 0 232 -108 232 -229c0 -54 -13 -93 -50 -160l-177 -321h-79l149 267c-23 -9 -49 -13 -75 -13c-127 0 -234 99 -234 227c0 124 107 229 234 229zM267 645c-92 0 -166 -78 -166 -164c0 -88 74 -163 166 -163c70 0 164 57 164 163c0 87 -74 164 -164 164z" />
    <glyph glyph-name="guillemotleft" unicode="&#xab;" horiz-adv-x="425" 
d="M158 76l-125 181v18l126 181h62l-123 -189l123 -191h-63zM324 76l-125 181v18l126 181h62l-123 -189l123 -191h-63z" />
    <glyph glyph-name="guillemotright" unicode="&#xbb;" horiz-adv-x="425" 
d="M39 76l123 189l-124 191h63l125 -181v-18l-125 -181h-62zM205 76l123 189l-124 191h63l125 -181v-18l-125 -181h-62z" />
    <glyph glyph-name="a" unicode="a" 
d="M255 -12c-133 0 -223 68 -223 161s84 169 229 169c64 0 138 -27 172 -54v47c0 87 -100 122 -169 122c-58 0 -113 -12 -162 -52l-37 52c59 45 126 64 199 64c108 0 235 -55 235 -184v-313h-66v51c-30 -29 -97 -63 -178 -63zM257 46c80 0 138 32 176 69v81
c-34 32 -103 64 -171 64c-108 0 -165 -48 -165 -110c0 -60 67 -104 160 -104z" />
    <glyph glyph-name="CR" unicode="&#xd;" horiz-adv-x="200" 
 />
    <glyph glyph-name=".null" horiz-adv-x="500" 
 />
    <glyph glyph-name=".null" horiz-adv-x="500" 
 />
    <glyph glyph-name="less" unicode="&#x3c;" horiz-adv-x="450" 
d="M38 249v57l363 149v-65l-278 -112l278 -112v-67z" />
    <glyph glyph-name="greater" unicode="&#x3e;" horiz-adv-x="450" 
d="M412 305v-57l-363 -149v65l278 112l-278 112v67z" />
    <glyph glyph-name="bar" unicode="|" horiz-adv-x="258" 
d="M95 -177v957h68v-957h-68z" />
    <glyph glyph-name="braceleft" unicode="{" horiz-adv-x="310" 
d="M220 -168c-38 0 -82 16 -95 71c-6 23 -6 41 -6 74v156c0 60 0 116 -2 170c-2 30 -16 35 -53 37v51c49 3 51 17 53 34c2 54 2 112 2 173v159c0 30 0 44 5 67c11 60 57 77 96 77h53v-59h-30c-43 1 -56 -20 -56 -74v-331c0 -38 -10 -61 -29 -74c20 -17 29 -44 29 -73v-318
c0 -59 12 -81 48 -82c8 0 22 0 38 1v-59h-53z" />
    <glyph glyph-name="braceright" unicode="}" horiz-adv-x="310" 
d="M90 -168h-53v59h30c43 -1 55 20 55 74v331c0 37 9 61 29 74c-20 17 -29 44 -29 73v318c0 59 -11 81 -47 82c-8 0 -23 0 -38 -1v60c13 0 31 1 53 1c38 0 81 -18 95 -73c5 -24 6 -41 6 -74v-157c0 -59 0 -116 1 -170c3 -30 17 -34 54 -36v-52c-50 -2 -52 -16 -54 -33
c-1 -55 -1 -113 -1 -173v-159c0 -30 0 -44 -5 -67c-11 -60 -58 -77 -96 -77z" />
    <glyph glyph-name="fraction" unicode="&#x2044;" horiz-adv-x="268" 
d="M-156 0l509 773h71l-509 -773h-71z" />
    <glyph glyph-name="fraction" unicode="&#x2215;" horiz-adv-x="268" 
d="M-156 0l509 773h71l-509 -773h-71z" />
    <glyph glyph-name="bullet" unicode="&#x2022;" horiz-adv-x="273" 
d="M137 170c-55 0 -99 44 -99 99s44 99 99 99c54 0 98 -43 98 -99c0 -55 -44 -99 -98 -99z" />
    <glyph glyph-name="underscore" unicode="_" horiz-adv-x="476" 
d="M28 -81v51h420v-51h-420z" />
    <glyph glyph-name="asciicircum" unicode="^" horiz-adv-x="536" 
d="M18 402l220 371h59l221 -371h-80l-170 294l-171 -294h-79z" />
    <glyph glyph-name="asciitilde" unicode="~" horiz-adv-x="529" 
d="M366 219c-103 0 -125 89 -204 89c-35 0 -64 -26 -70 -77l-55 8c8 72 52 129 125 129c100 0 125 -89 205 -89c35 0 63 25 70 79l55 -9c-6 -74 -53 -130 -126 -130z" />
    <glyph glyph-name="equal" unicode="=" horiz-adv-x="589" 
d="M80 427v62h430v-62h-430zM80 242v62h430v-62h-430z" />
    <glyph glyph-name="numbersign" unicode="#" horiz-adv-x="654" 
d="M72 423l12 61h133l33 165h67l-33 -165h148l33 165h68l-33 -165h134l-13 -61h-134l-40 -200h134l-12 -60h-134l-32 -163h-68l32 163h-148l-32 -163h-67l32 163h-133l13 60h132l40 200h-132zM271 423l-40 -200h148l40 200h-148z" />
    <glyph glyph-name="guilsinglleft" unicode="&#x2039;" horiz-adv-x="260" 
d="M158 76l-125 181v18l126 181h62l-123 -189l123 -191h-63z" />
    <glyph glyph-name="guilsinglright" unicode="&#x203a;" horiz-adv-x="260" 
d="M39 76l123 189l-124 191h63l125 -181v-18l-125 -181h-62z" />
    <glyph glyph-name="degree" unicode="&#xb0;" horiz-adv-x="346" 
d="M173 531c-71 0 -125 57 -125 128c0 69 56 125 125 125s124 -53 124 -125c0 -70 -54 -128 -124 -128zM173 584c42 0 70 32 70 75s-30 73 -70 73c-39 0 -70 -31 -70 -73c0 -43 30 -75 70 -75z" />
    <glyph glyph-name="multiply" unicode="&#xd7;" horiz-adv-x="601" 
d="M106 104l-46 42l197 208l-200 215l46 43l197 -212l197 209l47 -43l-201 -212l195 -208l-47 -42l-191 204z" />
    <glyph glyph-name="period" unicode="." horiz-adv-x="202" 
d="M101 -10c-26 0 -46 20 -46 46c0 25 20 46 46 46c25 0 46 -21 46 -46c0 -26 -21 -46 -46 -46z" />
    <glyph glyph-name="paragraph" unicode="&#xb6;" horiz-adv-x="547" 
d="M187 0v453c-77 12 -139 76 -139 160c0 93 77 160 185 160h265v-61h-91v-712h-63v712h-94v-712h-63z" />
    <glyph glyph-name="percent" unicode="%" horiz-adv-x="921" 
d="M684 47c73 0 94 62 94 144c0 75 -19 143 -94 143c-73 0 -94 -62 -94 -143c0 -78 19 -144 94 -144zM684 -8c-97 0 -149 77 -151 169c0 5 -1 14 -1 29c0 13 1 26 1 32c1 90 60 166 151 166s149 -76 151 -166c0 -5 1 -15 1 -31c0 -18 -1 -23 -1 -30
c-2 -96 -61 -169 -151 -169zM237 439c73 0 94 62 94 144c0 75 -19 143 -94 143c-73 0 -94 -62 -94 -143c0 -78 19 -144 94 -144zM237 384c-97 0 -149 77 -151 169c0 5 -1 14 -1 29c0 13 1 26 1 32c1 90 60 166 151 166s149 -76 151 -166c0 -5 1 -15 1 -31
c0 -18 -1 -23 -1 -30c-2 -96 -61 -169 -151 -169zM169 0l509 773h71l-509 -773h-71z" />
    <glyph glyph-name="AE" unicode="&#xc6;" horiz-adv-x="883" 
d="M405 0v273h-200l-125 -273h-78l360 773h468v-65h-355v-284h342v-65h-342v-294h356v-65h-426zM405 708l-171 -371h171v371z" />
    <glyph glyph-name="OE" unicode="&#x152;" horiz-adv-x="1153" 
d="M657 0v52c-52 -41 -135 -66 -214 -66c-220 0 -400 179 -400 400c0 222 179 401 400 401c87 0 161 -27 214 -65v51h431v-65h-361v-284h349v-65h-349v-294h363v-65h-433zM444 54c82 0 156 30 213 78v508c-58 50 -132 79 -213 79c-184 0 -330 -147 -330 -333
c0 -185 146 -332 330 -332z" />
    <glyph glyph-name="sterling" unicode="&#xa3;" horiz-adv-x="557" 
d="M48 339v62h110c-30 55 -57 114 -57 181c0 122 89 201 207 201c128 0 210 -85 209 -210h-70c-1 58 -38 143 -139 143c-85 0 -137 -57 -137 -134c0 -66 31 -124 62 -181h189v-62h-156c19 -40 33 -80 33 -124c0 -62 -27 -117 -65 -150h275v-65h-451v65h84
c56 27 89 84 89 145c0 44 -18 86 -40 129h-143z" />
    <glyph glyph-name="registered" unicode="&#xae;" horiz-adv-x="627" 
d="M313 274c-141 0 -255 114 -255 256c0 140 114 254 255 254s255 -114 255 -254c0 -141 -114 -256 -255 -256zM313 324c111 0 204 93 204 206c0 111 -93 205 -204 205s-203 -94 -203 -205c0 -112 92 -206 203 -206zM369 391l-86 117h-20v-117h-46v279h100
c53 0 95 -27 95 -80c0 -47 -31 -74 -75 -81l89 -118h-57zM305 628h-42v-79h40c34 0 61 9 61 40c0 29 -26 39 -59 39z" />
    <glyph glyph-name="quoteleft" unicode="&#x2018;" horiz-adv-x="234" 
d="M110 553l-63 24l109 219l43 -15z" />
    <glyph glyph-name="quoteright" unicode="&#x2019;" horiz-adv-x="238" 
d="M82 553l-44 16l90 227l63 -23z" />
    <glyph glyph-name="quotedblleft" unicode="&#x201c;" horiz-adv-x="417" 
d="M110 553l-63 24l109 219l43 -15zM280 553l-63 24l109 219l43 -15z" />
    <glyph glyph-name="quotedblright" unicode="&#x201d;" horiz-adv-x="417" 
d="M90 553l-44 16l90 227l63 -23zM261 553l-44 16l90 227l63 -23z" />
    <glyph glyph-name="minus" unicode="&#x2212;" horiz-adv-x="556" 
d="M57 322v62h442v-62h-442z" />
    <glyph glyph-name="cent" unicode="&#xa2;" horiz-adv-x="483" 
d="M239 -124v123c-111 26 -194 125 -194 246c0 118 83 218 194 245v131h67v-124c58 -2 110 -22 152 -55l-40 -53c-32 26 -69 41 -112 42v-374c42 1 80 17 110 40l38 -52c-39 -32 -90 -51 -148 -53v-116h-67zM113 245c0 -84 52 -153 126 -178v354c-74 -25 -126 -94 -126 -176
z" />
    <glyph glyph-name="ellipsis" unicode="&#x2026;" horiz-adv-x="623" 
d="M93 -10c-26 0 -46 20 -46 46c0 25 20 46 46 46c25 0 46 -21 46 -46c0 -26 -21 -46 -46 -46zM311 -10c-26 0 -46 20 -46 46c0 25 20 46 46 46c25 0 46 -21 46 -46c0 -26 -21 -46 -46 -46zM530 -10c-26 0 -46 20 -46 46c0 25 20 46 46 46c25 0 46 -21 46 -46
c0 -26 -21 -46 -46 -46z" />
    <glyph glyph-name="plusminus" unicode="&#xb1;" horiz-adv-x="605" 
d="M50 401v62h220v218h65v-218h220v-62h-220v-221h-65v221h-220zM50 68v62h505v-62h-505z" />
    <glyph glyph-name="tilde" unicode="&#x2dc;" horiz-adv-x="425" 
d="M285 603c-64 0 -101 52 -147 52c-28 0 -42 -19 -44 -44l-46 8c0 52 38 91 92 91c63 0 101 -54 147 -54c29 0 40 21 42 44l47 -7c0 -51 -35 -90 -91 -90z" />
    <glyph glyph-name="Ntilde" unicode="&#xd1;" horiz-adv-x="790" 
d="M95 0v773h39l491 -620v620h70v-773h-38l-492 622v-622h-70zM475 852c-64 0 -101 52 -147 52c-28 0 -42 -19 -44 -44l-46 8c0 52 38 91 92 91c63 0 101 -54 147 -54c29 0 40 21 42 44l47 -7c0 -51 -35 -90 -91 -90z" />
    <glyph glyph-name="Sacute" unicode="&#x15a;" horiz-adv-x="587" 
d="M291 -8c-104 0 -204 51 -264 118l50 49c48 -55 131 -101 216 -101c106 0 175 63 175 147c0 60 -33 117 -123 154l-98 38c-105 42 -164 99 -164 195c0 113 94 192 213 192c95 0 161 -30 216 -82l-45 -53c-45 42 -99 69 -171 69c-81 0 -144 -47 -144 -124
c0 -54 28 -95 122 -132l98 -39c119 -48 165 -123 165 -216c0 -127 -96 -215 -246 -215zM262 824v17l96 112h81v-12l-133 -117h-44z" />
    <glyph glyph-name="Oslash" unicode="&#xd8;" horiz-adv-x="889" 
d="M109 -15l72 99c-85 74 -138 181 -138 302c0 222 180 401 401 401c74 0 144 -21 204 -56l60 83l50 -35l-60 -83c89 -74 147 -185 147 -310c0 -221 -180 -400 -401 -400c-79 0 -152 23 -214 62l-71 -98zM444 54c184 0 330 147 330 332c0 103 -45 194 -116 254l-388 -537
c50 -31 110 -49 174 -49zM114 386c0 -98 41 -186 107 -246l387 535c-49 28 -104 44 -164 44c-184 0 -330 -147 -330 -333z" />
    <glyph glyph-name="oslash" unicode="&#xf8;" horiz-adv-x="582" 
d="M63 -81l75 120c-66 46 -106 123 -106 208c0 139 110 252 259 252c43 0 83 -10 118 -27l84 134l47 -29l-84 -134c58 -46 94 -117 94 -196c0 -138 -107 -255 -259 -255c-38 0 -73 8 -104 20l-76 -121zM100 247c0 -61 28 -116 73 -151l201 320c-25 11 -53 18 -83 18
c-110 0 -191 -82 -191 -187zM291 57c113 0 191 87 191 190c0 56 -23 105 -61 139l-199 -317c21 -8 44 -12 69 -12z" />
    <glyph glyph-name="oe" unicode="&#x153;" horiz-adv-x="1011" 
d="M744 -8c-108 0 -188 51 -230 127c-36 -68 -118 -127 -223 -127c-152 0 -259 116 -259 255s110 252 259 252c105 0 181 -54 222 -124c40 72 116 122 217 122c145 0 243 -97 252 -226c1 -10 2 -20 2 -30h-436c2 -103 77 -187 196 -187c68 0 110 15 164 61l41 -45
c-62 -56 -117 -78 -205 -78zM291 57c113 0 191 87 191 190v2c-1 104 -82 185 -191 185c-110 0 -191 -82 -191 -187c0 -104 81 -190 191 -190zM729 436c-100 0 -157 -62 -175 -137h356c-17 79 -82 137 -181 137z" />
    <glyph glyph-name="exclamdown" unicode="&#xa1;" horiz-adv-x="265" 
d="M163 399l10 -570h-80l10 570h60zM133 456c-26 0 -46 20 -46 46c0 25 20 46 46 46c25 0 46 -21 46 -46c0 -26 -21 -46 -46 -46z" />
    <glyph glyph-name="integral" unicode="&#x222b;" horiz-adv-x="294" 
d="M28 -181c-46 0 -92 11 -125 43l36 50c23 -21 56 -31 86 -31c55 0 89 31 89 114v625c0 103 66 159 153 159c49 0 92 -13 124 -42l-37 -50c-23 21 -54 30 -84 30c-55 0 -89 -37 -89 -103v-626c0 -111 -55 -169 -153 -169z" />
    <glyph glyph-name="brokenbar" unicode="&#xa6;" horiz-adv-x="258" 
d="M95 360v420h68v-420h-68zM95 -177v453h68v-453h-68z" />
    <glyph glyph-name="florin" unicode="&#x192;" horiz-adv-x="386" 
d="M71 428v62h80v130c0 103 66 159 153 159c49 0 92 -13 124 -42l-37 -50c-23 21 -54 30 -84 30c-55 0 -89 -37 -89 -103v-124h91v-62h-91v-440c0 -111 -55 -169 -153 -169c-46 0 -92 11 -125 43l36 50c23 -21 56 -31 86 -31c55 0 89 31 89 114v433h-80z" />
    <glyph glyph-name="Eng" unicode="&#x14a;" horiz-adv-x="790" 
d="M95 0v773h39l491 -620v620h70v-697c0 -174 -112 -256 -241 -256v70c90 0 158 50 169 153l-458 579v-622h-70z" />
    <glyph glyph-name="infinity" unicode="&#x221e;" horiz-adv-x="883" 
d="M253 185c-112 0 -198 91 -198 202c0 113 86 203 198 203c86 0 149 -46 190 -124c42 73 106 124 188 124c112 0 197 -92 197 -203s-85 -202 -197 -202c-86 0 -149 50 -189 130c-41 -76 -103 -130 -189 -130zM254 248c79 0 131 64 155 139l2 8c-22 70 -83 132 -157 132
c-75 0 -135 -61 -135 -140c0 -75 60 -139 135 -139zM629 527c-78 0 -132 -61 -156 -135c1 -2 1 -4 2 -5c22 -77 77 -139 154 -139c75 0 135 64 135 139c0 79 -60 140 -135 140z" />
    <glyph glyph-name="dagger" unicode="&#x2020;" horiz-adv-x="582" 
d="M37 431v63h221v286h68v-286h219v-63h-219v-608h-68v608h-221z" />
    <glyph glyph-name="daggerdbl" unicode="&#x2021;" horiz-adv-x="602" 
d="M47 478v63h221v239h68v-239h219v-63h-219v-365h219v-63h-219v-227h-68v227h-221v63h221v365h-221z" />
    <glyph glyph-name="section" unicode="&#xa7;" horiz-adv-x="505" 
d="M266 774c74 0 126 -24 175 -69l-43 -51c-34 34 -77 57 -133 57c-66 0 -112 -40 -112 -93c0 -45 28 -81 82 -103l77 -32c104 -43 155 -105 155 -189c0 -76 -56 -137 -133 -164c73 -36 103 -82 103 -144c0 -93 -78 -158 -199 -158c-80 0 -154 33 -200 87l43 50
c38 -43 92 -73 159 -73c87 0 131 39 131 93c0 41 -25 71 -84 94l-87 36c-84 34 -155 93 -155 190c0 78 55 142 130 168c-54 31 -87 77 -87 144c0 95 87 157 178 157zM111 307c0 -59 36 -101 114 -132l26 -11c89 7 151 59 151 127c0 60 -37 97 -111 129l-41 18
c-74 -10 -139 -54 -139 -131z" />
    <glyph glyph-name="threequarters" unicode="&#xbe;" horiz-adv-x="842" 
d="M142 0l509 773h71l-509 -773h-71zM175 353c-74 0 -143 50 -143 135h57c0 -47 34 -79 86 -79s81 32 81 69c0 41 -32 68 -84 68h-24v49h19c50 0 82 23 82 63c0 35 -27 64 -74 64c-46 0 -78 -25 -78 -71h-57c0 77 59 126 135 126c77 0 133 -53 133 -116
c0 -43 -23 -73 -55 -89c34 -15 63 -47 63 -95c0 -66 -59 -124 -141 -124zM503 89v42l169 282h63l-163 -271h137v86h56v-86h47v-53h-47v-89h-56v89h-206z" />
    <glyph glyph-name="zero.sup" horiz-adv-x="404" 
d="M202 490c83 0 95 71 95 154c0 78 -7 154 -95 154c-86 0 -95 -72 -95 -154c0 -78 11 -154 95 -154zM202 434c-84 0 -138 51 -150 128c-4 25 -5 43 -5 82c0 40 2 59 5 81c10 75 66 129 150 129c85 0 138 -52 150 -129c4 -24 5 -45 5 -81c0 -42 -1 -59 -5 -82
c-12 -77 -66 -128 -150 -128z" />
    <glyph glyph-name="one.sup" horiz-adv-x="237" 
d="M120 440v340l-81 -42l-24 49l130 67h33v-414h-58z" />
    <glyph glyph-name="two.sup" horiz-adv-x="366" 
d="M37 440v41l190 173c22 19 36 42 36 65c0 43 -29 81 -85 81c-48 0 -84 -38 -84 -89h-58c0 83 62 145 142 145c92 0 145 -62 145 -136c0 -45 -25 -78 -60 -108l-132 -118h197v-54h-291z" />
    <glyph glyph-name="three.sup" horiz-adv-x="356" 
d="M175 433c-74 0 -143 50 -143 135h57c0 -47 34 -79 86 -79s81 32 81 69c0 41 -32 68 -84 68h-24v49h19c50 0 82 23 82 63c0 35 -27 64 -74 64c-46 0 -78 -25 -78 -71h-57c0 77 59 126 135 126c77 0 133 -53 133 -116c0 -43 -23 -73 -55 -89c34 -15 63 -47 63 -95
c0 -66 -59 -124 -141 -124z" />
    <glyph glyph-name="four.sup" horiz-adv-x="357" 
d="M19 529v42l169 282h63l-163 -271h137v86h56v-86h47v-53h-47v-89h-56v89h-206z" />
    <glyph glyph-name="five.sup" horiz-adv-x="385" 
d="M192 434c-77 0 -133 42 -152 105l57 17c12 -41 45 -70 94 -70c58 0 95 42 95 86c0 48 -38 84 -94 84c-37 0 -64 -16 -79 -34h-56v231h271v-54h-214v-114c21 14 49 24 81 24c88 0 150 -56 150 -137s-65 -138 -153 -138z" />
    <glyph glyph-name="six.sup" horiz-adv-x="367" 
d="M183 434c-87 0 -151 64 -151 140c0 31 9 59 32 96l110 183h69l-89 -145c9 3 18 4 29 4c86 0 152 -62 152 -138s-66 -140 -152 -140zM183 489c55 0 93 41 93 85s-39 83 -93 83c-44 0 -92 -30 -92 -83c0 -40 30 -85 92 -85z" />
    <glyph glyph-name="seven.sup" horiz-adv-x="315" 
d="M69 440l162 357h-208v56h282v-35l-172 -378h-64z" />
    <glyph glyph-name="eight.sup" horiz-adv-x="355" 
d="M177 435c-81 0 -137 57 -137 123c0 40 21 74 55 95c-30 21 -48 53 -48 88c0 65 55 118 130 118c78 0 131 -53 131 -117c0 -36 -18 -68 -49 -89c35 -22 56 -56 56 -95c0 -66 -55 -123 -138 -123zM177 488c52 0 81 32 81 71c0 36 -28 70 -81 70c-52 0 -80 -33 -80 -70
c0 -36 30 -71 80 -71zM177 806c-45 0 -73 -31 -73 -66c0 -31 25 -62 66 -65h13c43 2 68 34 68 66c0 34 -27 65 -74 65z" />
    <glyph glyph-name="nine.sup" horiz-adv-x="367" 
d="M184 859c87 0 151 -64 151 -140c0 -31 -9 -59 -32 -96l-110 -183h-69l88 144c-9 -2 -18 -3 -28 -3c-87 0 -152 62 -152 138s66 140 152 140zM184 804c-55 0 -93 -41 -93 -85s39 -83 93 -83c44 0 92 30 92 83c0 40 -30 85 -92 85z" />
    <glyph glyph-name="trademark" unicode="&#x2122;" horiz-adv-x="833" 
d="M404 404v369h55l124 -204l125 204h58v-369h-56v267h-2l-125 -201l-122 199h-1v-265h-56zM28 720v53h306v-53h-125v-316h-56v316h-125z" />
    <glyph glyph-name="Euro" unicode="&#x20ac;" horiz-adv-x="740" 
d="M444 -14c-224 0 -400 179 -400 400c0 222 176 401 400 401c104 0 200 -40 271 -105l-46 -48c-59 55 -138 89 -225 89c-153 0 -273 -96 -316 -229h421l-32 -61h-403c-2 -16 -3 -31 -3 -47c0 -14 1 -27 2 -40h436l-32 -61h-392c41 -137 165 -234 319 -234
c90 0 171 36 232 93l47 -45c-73 -70 -171 -113 -279 -113z" />
    <glyph glyph-name="onesuperior" unicode="&#xb9;" horiz-adv-x="237" 
d="M120 360v340l-81 -42l-24 49l130 67h33v-414h-58z" />
    <glyph glyph-name="twosuperior" unicode="&#xb2;" horiz-adv-x="366" 
d="M37 360v41l190 173c22 19 36 42 36 65c0 43 -29 81 -85 81c-48 0 -84 -38 -84 -89h-58c0 83 62 145 142 145c92 0 145 -62 145 -136c0 -45 -25 -78 -60 -108l-132 -118h197v-54h-291z" />
    <glyph glyph-name="threesuperior" unicode="&#xb3;" horiz-adv-x="356" 
d="M175 353c-74 0 -143 50 -143 135h57c0 -47 34 -79 86 -79s81 32 81 69c0 41 -32 68 -84 68h-24v49h19c50 0 82 23 82 63c0 35 -27 64 -74 64c-46 0 -78 -25 -78 -71h-57c0 77 59 126 135 126c77 0 133 -53 133 -116c0 -43 -23 -73 -55 -89c34 -15 63 -47 63 -95
c0 -66 -59 -124 -141 -124z" />
    <glyph glyph-name="twoinferior" unicode="&#x2082;" horiz-adv-x="367" 
d="M40 0v41l190 173c22 19 36 42 36 65c0 43 -29 81 -85 81c-48 0 -84 -38 -84 -89h-58c0 83 62 145 142 145c92 0 145 -62 145 -136c0 -45 -25 -78 -60 -108l-132 -118h197v-54h-291z" />
    <glyph glyph-name="fourinferior" unicode="&#x2084;" horiz-adv-x="373" 
d="M27 89v42l169 282h63l-163 -271h137v86h56v-86h47v-53h-47v-89h-56v89h-206z" />
    <glyph glyph-name="onequarter" unicode="&#xbc;" horiz-adv-x="779" 
d="M79 0l509 773h71l-509 -773h-71zM440 89v42l169 282h63l-163 -271h137v86h56v-86h47v-53h-47v-89h-56v89h-206zM120 360v340l-81 -42l-24 49l130 67h33v-414h-58z" />
    <glyph glyph-name="onehalf" unicode="&#xbd;" horiz-adv-x="864" 
d="M79 0l509 773h71l-509 -773h-71zM510 0v41l190 173c22 19 36 42 36 65c0 43 -29 81 -85 81c-48 0 -84 -38 -84 -89h-58c0 83 62 145 142 145c92 0 145 -62 145 -136c0 -45 -25 -78 -60 -108l-132 -118h197v-54h-291zM120 360v340l-81 -42l-24 49l130 67h33v-414h-58z" />
    <glyph glyph-name="notequal" unicode="&#x2260;" horiz-adv-x="589" 
d="M80 427v62h215l65 173h65l-65 -173h150v-62h-173l-46 -123h219v-62h-242l-63 -171h-65l63 171h-123v62h146l46 123h-192z" />
    <glyph glyph-name="perthousand" unicode="&#x2030;" horiz-adv-x="1282" 
d="M684 47c73 0 94 62 94 144c0 75 -19 143 -94 143c-73 0 -94 -62 -94 -143c0 -78 19 -144 94 -144zM684 -8c-97 0 -149 77 -151 169c0 5 -1 14 -1 29c0 13 1 26 1 32c1 90 60 166 151 166s149 -76 151 -166c0 -5 1 -15 1 -31c0 -18 -1 -23 -1 -30
c-2 -96 -61 -169 -151 -169zM237 439c73 0 94 62 94 144c0 75 -19 143 -94 143c-73 0 -94 -62 -94 -143c0 -78 19 -144 94 -144zM237 384c-97 0 -149 77 -151 169c0 5 -1 14 -1 29c0 13 1 26 1 32c1 90 60 166 151 166s149 -76 151 -166c0 -5 1 -15 1 -31
c0 -18 -1 -23 -1 -30c-2 -96 -61 -169 -151 -169zM169 0l509 773h71l-509 -773h-71zM1055 47c73 0 94 62 94 144c0 75 -19 143 -94 143c-73 0 -94 -62 -94 -143c0 -78 19 -144 94 -144zM1055 -8c-97 0 -149 77 -151 169c0 5 -1 14 -1 29c0 13 1 26 1 32c1 90 60 166 151 166
s149 -76 151 -166c0 -5 1 -15 1 -31c0 -18 -1 -23 -1 -30c-2 -96 -61 -169 -151 -169z" />
    <glyph glyph-name="questiondown" unicode="&#xbf;" horiz-adv-x="516" 
d="M251 -187c-120 0 -203 85 -203 195c0 78 43 136 104 180l51 36c33 24 46 57 46 125v33h64v-35c-1 -86 -21 -132 -75 -170l-50 -35c-45 -31 -73 -73 -73 -132c0 -77 55 -137 136 -137c89 0 138 71 144 167h64c-7 -133 -84 -227 -208 -227zM281 462c-26 0 -46 20 -46 46
c0 25 20 46 46 46c25 0 46 -21 46 -46c0 -26 -21 -46 -46 -46z" />
    <glyph glyph-name="zero.tlf" horiz-adv-x="554" 
d="M277 -12c-132 0 -229 99 -229 240v318c0 142 99 239 229 239c133 0 229 -98 229 -237v-322c0 -139 -99 -238 -229 -238zM277 53c91 0 161 70 161 173v321c0 102 -69 173 -161 173c-95 0 -161 -72 -161 -174v-318c0 -104 69 -175 161 -175z" />
    <glyph glyph-name="one.tlf" horiz-adv-x="554" 
d="M155 0v63h114v628l-150 -85l-30 56l211 119h36v-718h108v-63h-289z" />
    <glyph glyph-name="two.tlf" horiz-adv-x="554" 
d="M42 0v36l330 433c32 41 44 76 44 112c0 80 -61 142 -151 142c-82 0 -147 -62 -149 -152h-67c0 124 97 216 216 216c128 0 219 -90 219 -206c0 -49 -21 -101 -63 -155l-279 -363h367v-63h-467z" />
    <glyph glyph-name="three.tlf" horiz-adv-x="554" 
d="M266 -13c-116 0 -223 98 -226 213h64c3 -84 83 -149 162 -149c96 0 168 68 168 159c0 93 -72 165 -168 165h-25l2 64h23c94 0 157 66 157 140c0 85 -64 146 -154 146c-85 0 -152 -66 -152 -147h-65c0 116 97 209 217 209c127 0 221 -90 221 -208
c0 -81 -48 -146 -123 -172c83 -28 134 -100 134 -197c0 -124 -103 -223 -235 -223z" />
    <glyph glyph-name="four.tlf" horiz-adv-x="554" 
d="M29 192v24l294 557h74l-272 -518h211v129h65v-129h117v-63h-117v-192h-65v192h-307z" />
    <glyph glyph-name="five.tlf" horiz-adv-x="554" 
d="M269 -13c-118 0 -212 70 -247 171l63 23c25 -74 94 -129 184 -129c116 0 194 86 194 190c0 108 -85 189 -192 189c-66 0 -112 -32 -140 -60h-65v402h422v-64h-355v-262c35 27 83 47 138 47c152 0 260 -109 260 -252c0 -141 -111 -255 -262 -255z" />
    <glyph glyph-name="six.tlf" horiz-adv-x="554" 
d="M285 -13c-124 0 -219 102 -219 224v346c0 137 97 230 220 230c114 0 210 -81 210 -205h-65c0 85 -64 141 -145 141c-89 0 -155 -66 -155 -164v-208c38 52 96 81 155 81c124 0 224 -100 224 -222c0 -123 -101 -223 -225 -223zM285 50c87 0 159 73 159 160
c0 85 -72 158 -159 158c-67 0 -153 -52 -153 -157c0 -88 68 -161 153 -161z" />
    <glyph glyph-name="seven.tlf" horiz-adv-x="554" 
d="M131 8l278 701h-352v64h442v-19l-304 -762z" />
    <glyph glyph-name="eight.tlf" horiz-adv-x="554" 
d="M276 -13c-128 0 -232 102 -232 230c0 88 51 162 124 199c-58 34 -97 96 -97 170c0 112 92 201 205 201c111 0 205 -89 205 -201c0 -73 -40 -135 -98 -170c74 -37 126 -110 126 -199c0 -128 -105 -230 -233 -230zM276 51c91 0 165 75 165 167c0 91 -74 163 -165 163
s-164 -72 -164 -163c0 -92 73 -167 164 -167zM276 724c-78 0 -139 -63 -139 -139c0 -79 60 -141 139 -141c76 0 139 62 139 141c0 76 -63 139 -139 139z" />
    <glyph glyph-name="nine.tlf" horiz-adv-x="554" 
d="M260 342c-112 0 -216 95 -216 222c0 137 116 223 226 223c116 0 221 -93 221 -219c0 -48 -8 -75 -28 -115c-78 -151 -159 -301 -239 -453h-73c62 119 126 237 188 356c-24 -10 -50 -14 -79 -14zM266 405c96 0 159 70 159 163c0 91 -73 156 -155 156
c-77 0 -160 -60 -160 -160c0 -89 76 -159 156 -159z" />
    <glyph glyph-name="Lslash" unicode="&#x141;" horiz-adv-x="549" 
d="M112 0v318l-84 -44v71l84 44v384h70v-346l233 124v-71l-233 -124v-290h353v-66h-423z" />
    <glyph glyph-name="lslash" unicode="&#x142;" horiz-adv-x="280" 
d="M106 0v342l-92 -48v64l92 48v374h68v-339l92 49v-64l-92 -49v-377h-68z" />
    <glyph glyph-name="Eth" unicode="&#xd0;" horiz-adv-x="755" 
d="M46 359v65h81v349h196c206 0 388 -168 388 -386c0 -217 -170 -387 -386 -387h-198v359h-81zM323 707h-127v-283h155v-65h-155v-293h132c177 0 312 145 312 321c0 180 -148 320 -317 320z" />
    <glyph glyph-name="divide" unicode="&#xf7;" horiz-adv-x="556" 
d="M277 85c-26 0 -45 20 -45 46c0 25 19 46 45 46s47 -21 47 -46c0 -26 -21 -46 -47 -46zM277 529c-26 0 -45 20 -45 46c0 25 19 46 45 46s47 -21 47 -46c0 -26 -21 -46 -47 -46zM57 322v62h442v-62h-442z" />
    <glyph glyph-name="Udotbelow" unicode="&#x1ee4;" horiz-adv-x="711" 
d="M354 -13c-167 0 -278 122 -278 282v504h70v-500c0 -123 78 -219 208 -219c131 0 210 94 210 218v501h70v-504c0 -160 -110 -282 -280 -282zM354 -175c-25 0 -46 21 -46 44c0 25 21 44 46 44s46 -19 46 -44c0 -23 -20 -44 -46 -44z" />
    <glyph glyph-name="Wdieresis" unicode="&#x1e84;" horiz-adv-x="1094" 
d="M269 0l-257 773h74l215 -651l210 651h74l206 -654l220 654h71l-265 -773h-57l-212 666l-221 -666h-58zM656 848c-24 0 -42 18 -42 42s18 44 42 44s43 -20 43 -44s-19 -42 -43 -42zM435 848c-23 0 -42 18 -42 42s19 44 42 44c24 0 44 -20 44 -44s-20 -42 -44 -42z" />
    <glyph glyph-name="Wacute" unicode="&#x1e82;" horiz-adv-x="1094" 
d="M269 0l-257 773h74l215 -651l210 651h74l206 -654l220 654h71l-265 -773h-57l-212 666l-221 -666h-58zM512 824v17l96 112h81v-12l-133 -117h-44z" />
    <glyph glyph-name="Wgrave" unicode="&#x1e80;" horiz-adv-x="1094" 
d="M269 0l-257 773h74l215 -651l210 651h74l206 -654l220 654h71l-265 -773h-57l-212 666l-221 -666h-58zM536 824l-128 116v13h75l111 -119v-10h-58z" />
    <glyph glyph-name="Wcircumflex" unicode="&#x174;" horiz-adv-x="1094" 
d="M269 0l-257 773h74l215 -651l210 651h74l206 -654l220 654h71l-265 -773h-57l-212 666l-221 -666h-58zM409 831l116 122h43l116 -122h-68l-69 69l-70 -69h-68z" />
    <glyph glyph-name="Ygrave" unicode="&#x1ef2;" horiz-adv-x="598" 
d="M517 773h77l-259 -468v-305h-70v304l-260 469h80l216 -393zM291 824l-128 116v13h75l111 -119v-10h-58z" />
    <glyph glyph-name="Ycircumflex" unicode="&#x176;" horiz-adv-x="598" 
d="M517 773h77l-259 -468v-305h-70v304l-260 469h80l216 -393zM163 831l116 122h43l116 -122h-68l-69 69l-70 -69h-68z" />
    <glyph glyph-name="Ymacron" horiz-adv-x="598" 
d="M517 773h77l-259 -468v-305h-70v304l-260 469h80l216 -393zM158 864v58h285v-58h-285z" />
    <glyph glyph-name="Abreve" unicode="&#x102;" horiz-adv-x="708" 
d="M7 0l326 773h49l319 -773h-75l-56 136h-433l-57 -136h-73zM357 655l-192 -454h378zM357 837c-71 0 -132 42 -133 114h55c1 -35 32 -64 78 -64c45 0 77 28 77 64h55c-2 -73 -61 -114 -132 -114z" />
    <glyph glyph-name="Amacron" unicode="&#x100;" horiz-adv-x="708" 
d="M7 0l326 773h49l319 -773h-75l-56 136h-433l-57 -136h-73zM357 655l-192 -454h378zM214 864v58h285v-58h-285z" />
    <glyph glyph-name="Aringacute" unicode="&#x1fa;" horiz-adv-x="708" 
d="M7 0l326 773h49l319 -773h-75l-56 136h-433l-57 -136h-73zM357 655l-192 -454h378zM357 799c-53 0 -96 43 -96 95c0 53 43 96 96 96c52 0 95 -43 95 -96c0 -52 -43 -95 -95 -95zM338 1014v17l96 112h81v-12l-133 -117h-44zM357 848c25 0 46 21 46 46c0 26 -21 47 -46 47
c-26 0 -47 -21 -47 -47c0 -25 21 -46 47 -46z" />
    <glyph glyph-name="Adotaccent" unicode="&#x226;" horiz-adv-x="708" 
d="M7 0l326 773h49l319 -773h-75l-56 136h-433l-57 -136h-73zM357 655l-192 -454h378zM357 893c-26 0 -45 20 -45 46c0 25 19 46 45 46s47 -21 47 -46c0 -26 -21 -46 -47 -46z" />
    <glyph glyph-name="Adotbelow" unicode="&#x1ea0;" horiz-adv-x="708" 
d="M7 0l326 773h49l319 -773h-75l-56 136h-433l-57 -136h-73zM357 655l-192 -454h378zM356 -175c-25 0 -46 21 -46 44c0 25 21 44 46 44s46 -19 46 -44c0 -23 -20 -44 -46 -44z" />
    <glyph glyph-name="AEacute" unicode="&#x1fc;" horiz-adv-x="883" 
d="M405 0v273h-200l-125 -273h-78l360 773h468v-65h-355v-284h342v-65h-342v-294h356v-65h-426zM405 708l-171 -371h171v371zM565 824v17l96 112h81v-12l-133 -117h-44z" />
    <glyph glyph-name="Cacute" unicode="&#x106;" horiz-adv-x="741" 
d="M444 -14c-222 0 -401 179 -401 400c0 222 179 401 401 401c104 0 199 -40 271 -105l-49 -50c-59 54 -137 87 -222 87c-184 0 -330 -147 -330 -333c0 -185 146 -332 330 -332c89 0 169 36 228 92l50 -47c-72 -70 -170 -113 -278 -113zM410 824v17l96 112h81v-12l-133 -117
h-44z" />
    <glyph glyph-name="Ccircumflex" unicode="&#x108;" horiz-adv-x="741" 
d="M444 -14c-222 0 -401 179 -401 400c0 222 179 401 401 401c104 0 199 -40 271 -105l-49 -50c-59 54 -137 87 -222 87c-184 0 -330 -147 -330 -333c0 -185 146 -332 330 -332c89 0 169 36 228 92l50 -47c-72 -70 -170 -113 -278 -113zM307 831l116 122h43l116 -122h-68
l-69 69l-70 -69h-68z" />
    <glyph glyph-name="Cdotaccent" unicode="&#x10a;" horiz-adv-x="741" 
d="M444 -14c-222 0 -401 179 -401 400c0 222 179 401 401 401c104 0 199 -40 271 -105l-49 -50c-59 54 -137 87 -222 87c-184 0 -330 -147 -330 -333c0 -185 146 -332 330 -332c89 0 169 36 228 92l50 -47c-72 -70 -170 -113 -278 -113zM444 846c-26 0 -45 20 -45 46
c0 25 19 46 45 46s47 -21 47 -46c0 -26 -21 -46 -47 -46z" />
    <glyph glyph-name="Dcroat" unicode="&#x110;" horiz-adv-x="755" 
d="M46 359v65h81v349h196c206 0 388 -168 388 -386c0 -217 -170 -387 -386 -387h-198v359h-81zM323 707h-127v-283h155v-65h-155v-293h132c177 0 312 145 312 321c0 180 -148 320 -317 320z" />
    <glyph glyph-name="Dcaron" unicode="&#x10e;" horiz-adv-x="723" 
d="M95 0v773h196c206 0 388 -168 388 -386c0 -217 -170 -387 -386 -387h-198zM291 707h-127v-641h132c177 0 312 145 312 321c0 180 -148 320 -317 320zM306 831l-116 122h68l70 -71l69 71h68l-116 -122h-43z" />
    <glyph glyph-name="Ebreve" unicode="&#x114;" horiz-adv-x="579" 
d="M514 359h-349v-294h363v-65h-433v773h431v-65h-361v-284h349v-65zM316 837c-71 0 -132 42 -133 114h55c1 -35 32 -64 78 -64c45 0 77 28 77 64h55c-2 -73 -61 -114 -132 -114z" />
    <glyph glyph-name="Edotaccent" unicode="&#x116;" horiz-adv-x="579" 
d="M514 359h-349v-294h363v-65h-433v773h431v-65h-361v-284h349v-65zM316 846c-26 0 -45 20 -45 46c0 25 19 46 45 46s47 -21 47 -46c0 -26 -21 -46 -47 -46z" />
    <glyph glyph-name="Emacron" unicode="&#x112;" horiz-adv-x="579" 
d="M514 359h-349v-294h363v-65h-433v773h431v-65h-361v-284h349v-65zM173 864v58h285v-58h-285z" />
    <glyph glyph-name="Gdotaccent" unicode="&#x120;" horiz-adv-x="886" 
d="M620 353v65h228l-1 -34c-6 -235 -187 -398 -399 -398c-230 0 -405 183 -405 401c0 219 174 401 405 401c119 0 228 -52 303 -137l-51 -48c-64 72 -153 117 -252 117c-193 0 -334 -151 -334 -333c0 -183 143 -333 334 -333c166 0 306 117 327 299h-155zM448 846
c-26 0 -45 20 -45 46c0 25 19 46 45 46s47 -21 47 -46c0 -26 -21 -46 -47 -46z" />
    <glyph glyph-name="Gbreve" unicode="&#x11e;" horiz-adv-x="886" 
d="M620 353v65h228l-1 -34c-6 -235 -187 -398 -399 -398c-230 0 -405 183 -405 401c0 219 174 401 405 401c119 0 228 -52 303 -137l-51 -48c-64 72 -153 117 -252 117c-193 0 -334 -151 -334 -333c0 -183 143 -333 334 -333c166 0 306 117 327 299h-155zM448 837
c-71 0 -132 42 -133 114h55c1 -35 32 -64 78 -64c45 0 77 28 77 64h55c-2 -73 -61 -114 -132 -114z" />
    <glyph glyph-name="Gcircumflex" unicode="&#x11c;" horiz-adv-x="886" 
d="M620 353v65h228l-1 -34c-6 -235 -187 -398 -399 -398c-230 0 -405 183 -405 401c0 219 174 401 405 401c119 0 228 -52 303 -137l-51 -48c-64 72 -153 117 -252 117c-193 0 -334 -151 -334 -333c0 -183 143 -333 334 -333c166 0 306 117 327 299h-155zM310 831l116 122
h43l116 -122h-68l-69 69l-70 -69h-68z" />
    <glyph glyph-name="Gcommaaccent" unicode="&#x122;" horiz-adv-x="886" 
d="M620 353v65h228l-1 -34c-6 -235 -187 -398 -399 -398c-230 0 -405 183 -405 401c0 219 174 401 405 401c119 0 228 -52 303 -137l-51 -48c-64 72 -153 117 -252 117c-193 0 -334 -151 -334 -333c0 -183 143 -333 334 -333c166 0 306 117 327 299h-155zM398 -190l-43 15
l58 142l55 -19z" />
    <glyph glyph-name="Hbar" unicode="&#x126;" horiz-adv-x="800" 
d="M22 566v61h86v146h70v-146h443v146h70v-146h87v-61h-87v-566h-70v356h-443v-356h-70v566h-86zM178 566v-144h443v144h-443z" />
    <glyph glyph-name="Hcircumflex" unicode="&#x124;" horiz-adv-x="773" 
d="M608 0v356h-443v-356h-70v773h70v-351h443v351h70v-773h-70zM249 831l116 122h43l116 -122h-68l-69 69l-70 -69h-68z" />
    <glyph glyph-name="Ibreve" unicode="&#x12c;" horiz-adv-x="261" 
d="M95 0v773h70v-773h-70zM131 837c-71 0 -132 42 -133 114h55c1 -35 32 -64 78 -64c45 0 77 28 77 64h55c-2 -73 -61 -114 -132 -114z" />
    <glyph glyph-name="Itilde" unicode="&#x128;" horiz-adv-x="261" 
d="M95 0v773h70v-773h-70zM205 852c-64 0 -101 52 -147 52c-28 0 -42 -19 -44 -44l-46 8c0 52 38 91 92 91c63 0 101 -54 147 -54c29 0 40 21 42 44l47 -7c0 -51 -35 -90 -91 -90z" />
    <glyph glyph-name="Idotaccent" unicode="&#x130;" horiz-adv-x="261" 
d="M95 0v773h70v-773h-70zM130 846c-26 0 -45 20 -45 46c0 25 19 46 45 46s47 -21 47 -46c0 -26 -21 -46 -47 -46z" />
    <glyph glyph-name="Imacron" unicode="&#x12a;" horiz-adv-x="261" 
d="M95 0v773h70v-773h-70zM12 864v58h237v-58h-237z" />
    <glyph glyph-name="Jcircumflex" unicode="&#x134;" horiz-adv-x="509" 
d="M280 830l92 122h52l93 -122h-66l-53 67l-52 -67h-66zM193 -11c-107 0 -199 62 -233 178l64 24c26 -87 90 -135 169 -135c100 0 171 63 171 189v528h70v-528c0 -174 -111 -256 -241 -256z" />
    <glyph glyph-name="Kcommaaccent" unicode="&#x136;" horiz-adv-x="645" 
d="M95 0v773h69v-403l361 403h92l-273 -304l281 -469h-81l-249 416l-131 -146v-270h-69zM281 -190l-43 15l58 142l55 -19z" />
    <glyph glyph-name="Ldot" unicode="&#x13f;" horiz-adv-x="533" 
d="M95 0v773h70v-707h353v-66h-423zM373 328c-26 0 -46 20 -46 46c0 25 20 46 46 46c25 0 46 -21 46 -46c0 -26 -21 -46 -46 -46z" />
    <glyph glyph-name="Lacute" unicode="&#x139;" horiz-adv-x="532" 
d="M95 0v773h70v-707h353v-66h-423zM107 824v17l96 112h81v-12l-133 -117h-44z" />
    <glyph glyph-name="Lcommaaccent" unicode="&#x13b;" horiz-adv-x="532" 
d="M95 0v773h70v-707h353v-66h-423zM282 -190l-43 15l58 142l55 -19z" />
    <glyph glyph-name="Nacute" unicode="&#x143;" horiz-adv-x="790" 
d="M95 0v773h39l491 -620v620h70v-773h-38l-492 622v-622h-70zM366 824v17l96 112h81v-12l-133 -117h-44z" />
    <glyph glyph-name="Ncommaaccent" unicode="&#x145;" horiz-adv-x="790" 
d="M95 0v773h39l491 -620v620h70v-773h-38l-492 622v-622h-70zM358 -190l-43 15l58 142l55 -19z" />
    <glyph glyph-name="Ncaron" unicode="&#x147;" horiz-adv-x="790" 
d="M95 0v773h39l491 -620v620h70v-773h-38l-492 622v-622h-70zM379 831l-116 122h68l70 -71l69 71h68l-116 -122h-43z" />
    <glyph glyph-name="Ncircumflex" horiz-adv-x="790" 
d="M95 0v773h39l491 -620v620h70v-773h-38l-492 622v-622h-70zM263 831l116 122h43l116 -122h-68l-69 69l-70 -69h-68z" />
    <glyph glyph-name="Mcircumflex" horiz-adv-x="860" 
d="M95 0v773h68l265 -461l269 461h68v-773h-69v639h-1l-267 -456l-263 449h-1v-632h-69zM290 831l116 122h43l116 -122h-68l-69 69l-70 -69h-68z" />
    <glyph glyph-name="Omacron" unicode="&#x14c;" horiz-adv-x="889" 
d="M444 54c184 0 330 147 330 332c0 186 -147 333 -330 333c-184 0 -330 -147 -330 -333c0 -185 146 -332 330 -332zM444 -14c-221 0 -401 179 -401 400c0 222 180 401 401 401s401 -179 401 -401c0 -221 -180 -400 -401 -400zM301 864v58h285v-58h-285z" />
    <glyph glyph-name="Obreve" unicode="&#x14e;" horiz-adv-x="889" 
d="M444 54c184 0 330 147 330 332c0 186 -147 333 -330 333c-184 0 -330 -147 -330 -333c0 -185 146 -332 330 -332zM444 -14c-221 0 -401 179 -401 400c0 222 180 401 401 401s401 -179 401 -401c0 -221 -180 -400 -401 -400zM444 837c-71 0 -132 42 -133 114h55
c1 -35 32 -64 78 -64c45 0 77 28 77 64h55c-2 -73 -61 -114 -132 -114z" />
    <glyph glyph-name="Odotbelow" unicode="&#x1ecc;" horiz-adv-x="889" 
d="M444 54c184 0 330 147 330 332c0 186 -147 333 -330 333c-184 0 -330 -147 -330 -333c0 -185 146 -332 330 -332zM444 -14c-221 0 -401 179 -401 400c0 222 180 401 401 401s401 -179 401 -401c0 -221 -180 -400 -401 -400zM444 -175c-25 0 -46 21 -46 44
c0 25 21 44 46 44s46 -19 46 -44c0 -23 -20 -44 -46 -44z" />
    <glyph glyph-name="Rcommaaccent" unicode="&#x156;" horiz-adv-x="652" 
d="M95 0v773h284c130 0 235 -91 235 -223c0 -134 -106 -223 -238 -223h-10l259 -327h-86l-257 327h-117v-327h-70zM374 709h-209v-319h207c97 0 171 63 171 160c0 91 -73 159 -169 159zM311 -190l-43 15l58 142l55 -19z" />
    <glyph glyph-name="Rcaron" unicode="&#x158;" horiz-adv-x="652" 
d="M95 0v773h284c130 0 235 -91 235 -223c0 -134 -106 -223 -238 -223h-10l259 -327h-86l-257 327h-117v-327h-70zM374 709h-209v-319h207c97 0 171 63 171 160c0 91 -73 159 -169 159zM303 831l-116 122h68l70 -71l69 71h68l-116 -122h-43z" />
    <glyph glyph-name="Racute" unicode="&#x154;" horiz-adv-x="652" 
d="M95 0v773h284c130 0 235 -91 235 -223c0 -134 -106 -223 -238 -223h-10l259 -327h-86l-257 327h-117v-327h-70zM374 709h-209v-319h207c97 0 171 63 171 160c0 91 -73 159 -169 159zM291 824v17l96 112h81v-12l-133 -117h-44z" />
    <glyph glyph-name="Scedilla" unicode="&#x15e;" horiz-adv-x="587" 
d="M234 -194v49c10 -3 19 -4 26 -4c31 0 55 9 55 40c0 27 -24 39 -52 39h-7v64c-91 10 -176 56 -229 116l50 49c48 -55 131 -101 216 -101c106 0 175 63 175 147c0 60 -33 117 -123 154l-98 38c-105 42 -164 99 -164 195c0 113 94 192 213 192c95 0 161 -30 216 -82l-45 -53
c-45 42 -99 69 -171 69c-81 0 -144 -47 -144 -124c0 -54 28 -95 122 -132l98 -39c119 -48 165 -123 165 -216c0 -121 -88 -207 -226 -214v-31c33 -6 61 -34 61 -73c0 -56 -44 -86 -111 -86c-8 0 -18 1 -27 3z" />
    <glyph glyph-name="Scircumflex" unicode="&#x15c;" horiz-adv-x="587" 
d="M291 -8c-104 0 -204 51 -264 118l50 49c48 -55 131 -101 216 -101c106 0 175 63 175 147c0 60 -33 117 -123 154l-98 38c-105 42 -164 99 -164 195c0 113 94 192 213 192c95 0 161 -30 216 -82l-45 -53c-45 42 -99 69 -171 69c-81 0 -144 -47 -144 -124
c0 -54 28 -95 122 -132l98 -39c119 -48 165 -123 165 -216c0 -127 -96 -215 -246 -215zM158 831l116 122h43l116 -122h-68l-69 69l-70 -69h-68z" />
    <glyph glyph-name="Scommaaccent" unicode="&#x218;" horiz-adv-x="587" 
d="M291 -8c-104 0 -204 51 -264 118l50 49c48 -55 131 -101 216 -101c106 0 175 63 175 147c0 60 -33 117 -123 154l-98 38c-105 42 -164 99 -164 195c0 113 94 192 213 192c95 0 161 -30 216 -82l-45 -53c-45 42 -99 69 -171 69c-81 0 -144 -47 -144 -124
c0 -54 28 -95 122 -132l98 -39c119 -48 165 -123 165 -216c0 -127 -96 -215 -246 -215zM239 -190l-43 15l58 142l55 -19z" />
    <glyph glyph-name="Tcaron" unicode="&#x164;" horiz-adv-x="618" 
d="M13 707v66h591v-66h-260v-707h-70v707h-261zM287 831l-116 122h68l70 -71l69 71h68l-116 -122h-43z" />
    <glyph glyph-name="Tbar" unicode="&#x166;" horiz-adv-x="618" 
d="M13 707v66h591v-66h-260v-294h192v-60h-192v-353h-70v353h-194v60h194v294h-261z" />
    <glyph glyph-name="Uring" unicode="&#x16e;" horiz-adv-x="711" 
d="M354 -13c-167 0 -278 122 -278 282v504h70v-500c0 -123 78 -219 208 -219c131 0 210 94 210 218v501h70v-504c0 -160 -110 -282 -280 -282zM356 848c25 0 46 21 46 46c0 26 -21 47 -46 47c-26 0 -47 -21 -47 -47c0 -25 21 -46 47 -46zM356 799c-53 0 -96 43 -96 95
c0 53 43 96 96 96c52 0 95 -43 95 -96c0 -52 -43 -95 -95 -95z" />
    <glyph glyph-name="Umacron" unicode="&#x16a;" horiz-adv-x="711" 
d="M354 -13c-167 0 -278 122 -278 282v504h70v-500c0 -123 78 -219 208 -219c131 0 210 94 210 218v501h70v-504c0 -160 -110 -282 -280 -282zM213 864v58h285v-58h-285z" />
    <glyph glyph-name="Ubreve" unicode="&#x16c;" horiz-adv-x="711" 
d="M354 -13c-167 0 -278 122 -278 282v504h70v-500c0 -123 78 -219 208 -219c131 0 210 94 210 218v501h70v-504c0 -160 -110 -282 -280 -282zM355 837c-71 0 -132 42 -133 114h55c1 -35 32 -64 78 -64c45 0 77 28 77 64h55c-2 -73 -61 -114 -132 -114z" />
    <glyph glyph-name="Utilde" unicode="&#x168;" horiz-adv-x="711" 
d="M354 -13c-167 0 -278 122 -278 282v504h70v-500c0 -123 78 -219 208 -219c131 0 210 94 210 218v501h70v-504c0 -160 -110 -282 -280 -282zM429 852c-64 0 -101 52 -147 52c-28 0 -42 -19 -44 -44l-46 8c0 52 38 91 92 91c63 0 101 -54 147 -54c29 0 40 21 42 44l47 -7
c0 -51 -35 -90 -91 -90z" />
    <glyph glyph-name="Aacute" unicode="&#xc1;" horiz-adv-x="708" 
d="M7 0l326 773h49l319 -773h-75l-56 136h-433l-57 -136h-73zM357 655l-192 -454h378zM323 824v17l96 112h81v-12l-133 -117h-44z" />
    <glyph glyph-name="aacute" unicode="&#xe1;" 
d="M255 -12c-133 0 -223 68 -223 161s84 169 229 169c64 0 138 -27 172 -54v47c0 87 -100 122 -169 122c-58 0 -113 -12 -162 -52l-37 52c59 45 126 64 199 64c108 0 235 -55 235 -184v-313h-66v51c-30 -29 -97 -63 -178 -63zM257 46c80 0 138 32 176 69v81
c-34 32 -103 64 -171 64c-108 0 -165 -48 -165 -110c0 -60 67 -104 160 -104zM241 575v17l116 142h83v-12l-155 -147h-44z" />
    <glyph glyph-name="Acircumflex" unicode="&#xc2;" horiz-adv-x="708" 
d="M7 0l326 773h49l319 -773h-75l-56 136h-433l-57 -136h-73zM357 655l-192 -454h378zM219 831l116 122h43l116 -122h-68l-69 69l-70 -69h-68z" />
    <glyph glyph-name="acircumflex" unicode="&#xe2;" 
d="M255 -12c-133 0 -223 68 -223 161s84 169 229 169c64 0 138 -27 172 -54v47c0 87 -100 122 -169 122c-58 0 -113 -12 -162 -52l-37 52c59 45 126 64 199 64c108 0 235 -55 235 -184v-313h-66v51c-30 -29 -97 -63 -178 -63zM257 46c80 0 138 32 176 69v81
c-34 32 -103 64 -171 64c-108 0 -165 -48 -165 -110c0 -60 67 -104 160 -104zM117 582l136 152h43l136 -152h-68l-89 99l-90 -99h-68z" />
    <glyph glyph-name="Agrave" unicode="&#xc0;" horiz-adv-x="708" 
d="M7 0l326 773h49l319 -773h-75l-56 136h-433l-57 -136h-73zM357 655l-192 -454h378zM347 824l-128 116v13h75l111 -119v-10h-58z" />
    <glyph glyph-name="agrave" unicode="&#xe0;" 
d="M255 -12c-133 0 -223 68 -223 161s84 169 229 169c64 0 138 -27 172 -54v47c0 87 -100 122 -169 122c-58 0 -113 -12 -162 -52l-37 52c59 45 126 64 199 64c108 0 235 -55 235 -184v-313h-66v51c-30 -29 -97 -63 -178 -63zM257 46c80 0 138 32 176 69v81
c-34 32 -103 64 -171 64c-108 0 -165 -48 -165 -110c0 -60 67 -104 160 -104zM265 575l-150 146l-1 13h78l131 -149v-10h-58z" />
    <glyph glyph-name="Atilde" unicode="&#xc3;" horiz-adv-x="708" 
d="M7 0l326 773h49l319 -773h-75l-56 136h-433l-57 -136h-73zM357 655l-192 -454h378zM431 852c-64 0 -101 52 -147 52c-28 0 -42 -19 -44 -44l-46 8c0 52 38 91 92 91c63 0 101 -54 147 -54c29 0 40 21 42 44l47 -7c0 -51 -35 -90 -91 -90z" />
    <glyph glyph-name="atilde" unicode="&#xe3;" 
d="M255 -12c-133 0 -223 68 -223 161s84 169 229 169c64 0 138 -27 172 -54v47c0 87 -100 122 -169 122c-58 0 -113 -12 -162 -52l-37 52c59 45 126 64 199 64c108 0 235 -55 235 -184v-313h-66v51c-30 -29 -97 -63 -178 -63zM257 46c80 0 138 32 176 69v81
c-34 32 -103 64 -171 64c-108 0 -165 -48 -165 -110c0 -60 67 -104 160 -104zM349 603c-64 0 -101 52 -147 52c-28 0 -42 -19 -44 -44l-46 8c0 52 38 91 92 91c63 0 101 -54 147 -54c29 0 40 21 42 44l47 -7c0 -51 -35 -90 -91 -90z" />
    <glyph glyph-name="Aring" unicode="&#xc5;" horiz-adv-x="708" 
d="M7 0l326 773h49l319 -773h-75l-56 136h-433l-57 -136h-73zM357 655l-192 -454h378zM357 799c-53 0 -96 43 -96 95c0 53 43 96 96 96c52 0 95 -43 95 -96c0 -52 -43 -95 -95 -95zM357 848c25 0 46 21 46 46c0 26 -21 47 -46 47c-26 0 -47 -21 -47 -47c0 -25 21 -46 47 -46
z" />
    <glyph glyph-name="aring" unicode="&#xe5;" 
d="M255 -12c-133 0 -223 68 -223 161s84 169 229 169c64 0 138 -27 172 -54v47c0 87 -100 122 -169 122c-58 0 -113 -12 -162 -52l-37 52c59 45 126 64 199 64c108 0 235 -55 235 -184v-313h-66v51c-30 -29 -97 -63 -178 -63zM257 46c80 0 138 32 176 69v81
c-34 32 -103 64 -171 64c-108 0 -165 -48 -165 -110c0 -60 67 -104 160 -104zM275 570c-53 0 -96 43 -96 95c0 53 43 96 96 96c52 0 95 -43 95 -96c0 -52 -43 -95 -95 -95zM275 619c25 0 46 21 46 46c0 26 -21 47 -46 47c-26 0 -47 -21 -47 -47c0 -25 21 -46 47 -46z" />
    <glyph glyph-name="Adieresis" unicode="&#xc4;" horiz-adv-x="708" 
d="M7 0l326 773h49l319 -773h-75l-56 136h-433l-57 -136h-73zM357 655l-192 -454h378zM246 848c-23 0 -42 18 -42 42s19 44 42 44c24 0 44 -20 44 -44s-20 -42 -44 -42zM467 848c-24 0 -42 18 -42 42s18 44 42 44s43 -20 43 -44s-19 -42 -43 -42z" />
    <glyph glyph-name="adieresis" unicode="&#xe4;" 
d="M255 -12c-133 0 -223 68 -223 161s84 169 229 169c64 0 138 -27 172 -54v47c0 87 -100 122 -169 122c-58 0 -113 -12 -162 -52l-37 52c59 45 126 64 199 64c108 0 235 -55 235 -184v-313h-66v51c-30 -29 -97 -63 -178 -63zM257 46c80 0 138 32 176 69v81
c-34 32 -103 64 -171 64c-108 0 -165 -48 -165 -110c0 -60 67 -104 160 -104zM164 621c-23 0 -42 18 -42 42s19 44 42 44c24 0 44 -20 44 -44s-20 -42 -44 -42zM385 621c-24 0 -42 18 -42 42s18 44 42 44s43 -20 43 -44s-19 -42 -43 -42z" />
    <glyph glyph-name="Ccaron" unicode="&#x10c;" horiz-adv-x="741" 
d="M444 -14c-222 0 -401 179 -401 400c0 222 179 401 401 401c104 0 199 -40 271 -105l-49 -50c-59 54 -137 87 -222 87c-184 0 -330 -147 -330 -333c0 -185 146 -332 330 -332c89 0 169 36 228 92l50 -47c-72 -70 -170 -113 -278 -113zM423 831l-116 122h68l70 -71l69 71
h68l-116 -122h-43z" />
    <glyph glyph-name="ccaron" unicode="&#x10d;" horiz-adv-x="461" 
d="M285 -8c-139 0 -253 112 -253 253c0 139 114 252 253 252c61 0 116 -20 160 -55l-40 -53c-33 27 -72 42 -118 42c-104 0 -187 -83 -187 -186c0 -105 82 -188 187 -188c45 0 85 16 116 40l38 -52c-41 -33 -94 -53 -156 -53zM258 582l-136 152h68l90 -99l89 99h68
l-136 -152h-43z" />
    <glyph glyph-name="Ecircumflex" unicode="&#xca;" horiz-adv-x="579" 
d="M514 359h-349v-294h363v-65h-433v773h431v-65h-361v-284h349v-65zM178 831l116 122h43l116 -122h-68l-69 69l-70 -69h-68z" />
    <glyph glyph-name="ecircumflex" unicode="&#xea;" 
d="M294 -8c-162 0 -262 117 -262 257c0 135 95 248 248 248c145 0 243 -97 252 -226c1 -10 2 -20 2 -30h-436c2 -103 77 -187 196 -187c68 0 110 15 164 61l41 -45c-62 -56 -117 -78 -205 -78zM279 436c-100 0 -157 -62 -175 -137h356c-17 79 -82 137 -181 137zM122 582
l136 152h43l136 -152h-68l-89 99l-90 -99h-68z" />
    <glyph glyph-name="Eacute" unicode="&#xc9;" horiz-adv-x="579" 
d="M514 359h-349v-294h363v-65h-433v773h431v-65h-361v-284h349v-65zM282 824v17l96 112h81v-12l-133 -117h-44z" />
    <glyph glyph-name="eacute" unicode="&#xe9;" 
d="M294 -8c-162 0 -262 117 -262 257c0 135 95 248 248 248c145 0 243 -97 252 -226c1 -10 2 -20 2 -30h-436c2 -103 77 -187 196 -187c68 0 110 15 164 61l41 -45c-62 -56 -117 -78 -205 -78zM279 436c-100 0 -157 -62 -175 -137h356c-17 79 -82 137 -181 137zM246 575v17
l116 142h83v-12l-155 -147h-44z" />
    <glyph glyph-name="Edieresis" unicode="&#xcb;" horiz-adv-x="579" 
d="M514 359h-349v-294h363v-65h-433v773h431v-65h-361v-284h349v-65zM205 848c-23 0 -42 18 -42 42s19 44 42 44c24 0 44 -20 44 -44s-20 -42 -44 -42zM426 848c-24 0 -42 18 -42 42s18 44 42 44s43 -20 43 -44s-19 -42 -43 -42z" />
    <glyph glyph-name="edieresis" unicode="&#xeb;" 
d="M294 -8c-162 0 -262 117 -262 257c0 135 95 248 248 248c145 0 243 -97 252 -226c1 -10 2 -20 2 -30h-436c2 -103 77 -187 196 -187c68 0 110 15 164 61l41 -45c-62 -56 -117 -78 -205 -78zM279 436c-100 0 -157 -62 -175 -137h356c-17 79 -82 137 -181 137zM169 621
c-23 0 -42 18 -42 42s19 44 42 44c24 0 44 -20 44 -44s-20 -42 -44 -42zM390 621c-24 0 -42 18 -42 42s18 44 42 44s43 -20 43 -44s-19 -42 -43 -42z" />
    <glyph glyph-name="Egrave" unicode="&#xc8;" horiz-adv-x="579" 
d="M514 359h-349v-294h363v-65h-433v773h431v-65h-361v-284h349v-65zM306 824l-128 116v13h75l111 -119v-10h-58z" />
    <glyph glyph-name="egrave" unicode="&#xe8;" 
d="M294 -8c-162 0 -262 117 -262 257c0 135 95 248 248 248c145 0 243 -97 252 -226c1 -10 2 -20 2 -30h-436c2 -103 77 -187 196 -187c68 0 110 15 164 61l41 -45c-62 -56 -117 -78 -205 -78zM279 436c-100 0 -157 -62 -175 -137h356c-17 79 -82 137 -181 137zM270 575
l-150 146l-1 13h78l131 -149v-10h-58z" />
    <glyph glyph-name="Iacute" unicode="&#xcd;" horiz-adv-x="261" 
d="M95 0v773h70v-773h-70zM96 824v17l96 112h81v-12l-133 -117h-44z" />
    <glyph glyph-name="Idieresis" unicode="&#xcf;" horiz-adv-x="261" 
d="M95 0v773h70v-773h-70zM207 848c-24 0 -42 18 -42 42s18 43 42 43s43 -19 43 -43s-19 -42 -43 -42zM56 848c-24 0 -43 18 -43 42s19 43 43 43s43 -19 43 -43s-19 -42 -43 -42z" />
    <glyph glyph-name="Icircumflex" unicode="&#xce;" horiz-adv-x="261" 
d="M95 0v773h70v-773h-70zM-7 831l116 122h43l116 -122h-68l-69 69l-70 -69h-68z" />
    <glyph glyph-name="Igrave" unicode="&#xcc;" horiz-adv-x="261" 
d="M95 0v773h70v-773h-70zM120 824l-128 116v13h75l111 -119v-10h-58z" />
    <glyph glyph-name="Ccedilla" unicode="&#xc7;" horiz-adv-x="741" 
d="M386 -194v49c10 -3 19 -4 26 -4c31 0 55 9 55 40c0 27 -24 39 -52 39h-7v58c-205 18 -365 189 -365 398c0 222 179 401 401 401c104 0 199 -40 271 -105l-49 -50c-59 54 -137 87 -222 87c-184 0 -330 -147 -330 -333c0 -185 146 -332 330 -332c89 0 169 36 228 92l50 -47
c-68 -66 -159 -107 -259 -112v-25c33 -6 61 -34 61 -73c0 -56 -44 -86 -111 -86c-8 0 -18 1 -27 3z" />
    <glyph glyph-name="ccedilla" unicode="&#xe7;" horiz-adv-x="461" 
d="M234 -194v49c10 -3 19 -4 26 -4c31 0 55 9 55 40c0 27 -24 39 -52 39h-7v64c-126 14 -224 120 -224 251c0 139 114 252 253 252c61 0 116 -20 160 -55l-40 -53c-33 27 -72 42 -118 42c-104 0 -187 -83 -187 -186c0 -105 82 -188 187 -188c45 0 85 16 116 40l38 -52
c-35 -29 -79 -47 -130 -51v-32c33 -6 61 -34 61 -73c0 -56 -44 -86 -111 -86c-8 0 -18 1 -27 3z" />
    <glyph glyph-name="ntilde" unicode="&#xf1;" horiz-adv-x="576" 
d="M449 0v279c0 99 -75 154 -155 154c-64 0 -122 -37 -151 -88v-345h-68v490h68v-61c31 36 83 69 156 69c115 0 218 -78 218 -209v-289h-68zM370 603c-64 0 -101 52 -147 52c-28 0 -42 -19 -44 -44l-46 8c0 52 38 91 92 91c63 0 101 -54 147 -54c29 0 40 21 42 44l47 -7
c0 -51 -35 -90 -91 -90z" />
    <glyph glyph-name="Oacute" unicode="&#xd3;" horiz-adv-x="889" 
d="M444 54c184 0 330 147 330 332c0 186 -147 333 -330 333c-184 0 -330 -147 -330 -333c0 -185 146 -332 330 -332zM444 -14c-221 0 -401 179 -401 400c0 222 180 401 401 401s401 -179 401 -401c0 -221 -180 -400 -401 -400zM410 824v17l96 112h81v-12l-133 -117h-44z" />
    <glyph glyph-name="oacute" unicode="&#xf3;" horiz-adv-x="582" 
d="M291 57c113 0 191 87 191 190c0 105 -81 187 -191 187s-191 -82 -191 -187c0 -104 81 -190 191 -190zM291 -8c-152 0 -259 116 -259 255s110 252 259 252s259 -113 259 -252c0 -138 -107 -255 -259 -255zM257 575v17l116 142h83v-12l-155 -147h-44z" />
    <glyph glyph-name="Ocircumflex" unicode="&#xd4;" horiz-adv-x="889" 
d="M444 54c184 0 330 147 330 332c0 186 -147 333 -330 333c-184 0 -330 -147 -330 -333c0 -185 146 -332 330 -332zM444 -14c-221 0 -401 179 -401 400c0 222 180 401 401 401s401 -179 401 -401c0 -221 -180 -400 -401 -400zM306 831l116 122h43l116 -122h-68l-69 69
l-70 -69h-68z" />
    <glyph glyph-name="ocircumflex" unicode="&#xf4;" horiz-adv-x="582" 
d="M291 57c113 0 191 87 191 190c0 105 -81 187 -191 187s-191 -82 -191 -187c0 -104 81 -190 191 -190zM291 -8c-152 0 -259 116 -259 255s110 252 259 252s259 -113 259 -252c0 -138 -107 -255 -259 -255zM134 582l136 152h43l136 -152h-68l-89 99l-90 -99h-68z" />
    <glyph glyph-name="Odieresis" unicode="&#xd6;" horiz-adv-x="889" 
d="M444 54c184 0 330 147 330 332c0 186 -147 333 -330 333c-184 0 -330 -147 -330 -333c0 -185 146 -332 330 -332zM444 -14c-221 0 -401 179 -401 400c0 222 180 401 401 401s401 -179 401 -401c0 -221 -180 -400 -401 -400zM554 848c-24 0 -42 18 -42 42s18 44 42 44
s43 -20 43 -44s-19 -42 -43 -42zM333 848c-23 0 -42 18 -42 42s19 44 42 44c24 0 44 -20 44 -44s-20 -42 -44 -42z" />
    <glyph glyph-name="odieresis" unicode="&#xf6;" horiz-adv-x="582" 
d="M291 57c113 0 191 87 191 190c0 105 -81 187 -191 187s-191 -82 -191 -187c0 -104 81 -190 191 -190zM291 -8c-152 0 -259 116 -259 255s110 252 259 252s259 -113 259 -252c0 -138 -107 -255 -259 -255zM401 621c-24 0 -42 18 -42 42s18 44 42 44s43 -20 43 -44
s-19 -42 -43 -42zM180 621c-23 0 -42 18 -42 42s19 44 42 44c24 0 44 -20 44 -44s-20 -42 -44 -42z" />
    <glyph glyph-name="Ohungarumlaut" unicode="&#x150;" horiz-adv-x="889" 
d="M444 54c184 0 330 147 330 332c0 186 -147 333 -330 333c-184 0 -330 -147 -330 -333c0 -185 146 -332 330 -332zM444 -14c-221 0 -401 179 -401 400c0 222 180 401 401 401s401 -179 401 -401c0 -221 -180 -400 -401 -400zM327 824v13l65 113h70v-10l-96 -116h-39z
M492 824v13l76 113h70v-10l-107 -116h-39z" />
    <glyph glyph-name="ohungarumlaut" unicode="&#x151;" horiz-adv-x="582" 
d="M291 57c113 0 191 87 191 190c0 105 -81 187 -191 187s-191 -82 -191 -187c0 -104 81 -190 191 -190zM291 -8c-152 0 -259 116 -259 255s110 252 259 252s259 -113 259 -252c0 -138 -107 -255 -259 -255zM168 575l90 156h84l-117 -156h-57zM332 575l102 156h85l-129 -156
h-58z" />
    <glyph glyph-name="Ograve" unicode="&#xd2;" horiz-adv-x="889" 
d="M444 54c184 0 330 147 330 332c0 186 -147 333 -330 333c-184 0 -330 -147 -330 -333c0 -185 146 -332 330 -332zM444 -14c-221 0 -401 179 -401 400c0 222 180 401 401 401s401 -179 401 -401c0 -221 -180 -400 -401 -400zM434 824l-128 116v13h75l111 -119v-10h-58z
" />
    <glyph glyph-name="ograve" unicode="&#xf2;" horiz-adv-x="582" 
d="M291 57c113 0 191 87 191 190c0 105 -81 187 -191 187s-191 -82 -191 -187c0 -104 81 -190 191 -190zM291 -8c-152 0 -259 116 -259 255s110 252 259 252s259 -113 259 -252c0 -138 -107 -255 -259 -255zM281 575l-150 146l-1 13h78l131 -149v-10h-58z" />
    <glyph glyph-name="Otilde" unicode="&#xd5;" horiz-adv-x="889" 
d="M444 54c184 0 330 147 330 332c0 186 -147 333 -330 333c-184 0 -330 -147 -330 -333c0 -185 146 -332 330 -332zM444 -14c-221 0 -401 179 -401 400c0 222 180 401 401 401s401 -179 401 -401c0 -221 -180 -400 -401 -400zM518 852c-64 0 -101 52 -147 52
c-28 0 -42 -19 -44 -44l-46 8c0 52 38 91 92 91c63 0 101 -54 147 -54c29 0 40 21 42 44l47 -7c0 -51 -35 -90 -91 -90z" />
    <glyph glyph-name="otilde" unicode="&#xf5;" horiz-adv-x="582" 
d="M291 57c113 0 191 87 191 190c0 105 -81 187 -191 187s-191 -82 -191 -187c0 -104 81 -190 191 -190zM291 -8c-152 0 -259 116 -259 255s110 252 259 252s259 -113 259 -252c0 -138 -107 -255 -259 -255zM365 603c-64 0 -101 52 -147 52c-28 0 -42 -19 -44 -44l-46 8
c0 52 38 91 92 91c63 0 101 -54 147 -54c29 0 40 21 42 44l47 -7c0 -51 -35 -90 -91 -90z" />
    <glyph glyph-name="Scaron" unicode="&#x160;" horiz-adv-x="587" 
d="M291 -8c-104 0 -204 51 -264 118l50 49c48 -55 131 -101 216 -101c106 0 175 63 175 147c0 60 -33 117 -123 154l-98 38c-105 42 -164 99 -164 195c0 113 94 192 213 192c95 0 161 -30 216 -82l-45 -53c-45 42 -99 69 -171 69c-81 0 -144 -47 -144 -124
c0 -54 28 -95 122 -132l98 -39c119 -48 165 -123 165 -216c0 -127 -96 -215 -246 -215zM274 831l-116 122h68l70 -71l69 71h68l-116 -122h-43z" />
    <glyph glyph-name="scaron" unicode="&#x161;" horiz-adv-x="506" 
d="M261 -11c-92 0 -169 22 -243 66l34 56c64 -41 133 -61 210 -61c94 0 154 36 154 89c0 35 -22 62 -91 75l-142 26c-87 15 -131 55 -131 126c0 77 66 136 205 136c76 0 144 -21 196 -55l-34 -54c-51 31 -105 47 -163 47c-74 0 -138 -22 -138 -73c0 -34 18 -53 75 -63
l139 -25c99 -18 150 -63 150 -138c0 -93 -93 -152 -221 -152zM235 582l-136 152h68l90 -99l89 99h68l-136 -152h-43z" />
    <glyph glyph-name="Uacute" unicode="&#xda;" horiz-adv-x="711" 
d="M354 -13c-167 0 -278 122 -278 282v504h70v-500c0 -123 78 -219 208 -219c131 0 210 94 210 218v501h70v-504c0 -160 -110 -282 -280 -282zM321 824v17l96 112h81v-12l-133 -117h-44z" />
    <glyph glyph-name="Ucircumflex" unicode="&#xdb;" horiz-adv-x="711" 
d="M354 -13c-167 0 -278 122 -278 282v504h70v-500c0 -123 78 -219 208 -219c131 0 210 94 210 218v501h70v-504c0 -160 -110 -282 -280 -282zM218 831l116 122h43l116 -122h-68l-69 69l-70 -69h-68z" />
    <glyph glyph-name="Udieresis" unicode="&#xdc;" horiz-adv-x="711" 
d="M354 -13c-167 0 -278 122 -278 282v504h70v-500c0 -123 78 -219 208 -219c131 0 210 94 210 218v501h70v-504c0 -160 -110 -282 -280 -282zM465 848c-24 0 -42 18 -42 42s18 44 42 44s43 -20 43 -44s-19 -42 -43 -42zM244 848c-23 0 -42 18 -42 42s19 44 42 44
c24 0 44 -20 44 -44s-20 -42 -44 -42z" />
    <glyph glyph-name="Ugrave" unicode="&#xd9;" horiz-adv-x="711" 
d="M354 -13c-167 0 -278 122 -278 282v504h70v-500c0 -123 78 -219 208 -219c131 0 210 94 210 218v501h70v-504c0 -160 -110 -282 -280 -282zM345 824l-128 116v13h75l111 -119v-10h-58z" />
    <glyph glyph-name="Uhungarumlaut" unicode="&#x170;" horiz-adv-x="711" 
d="M354 -13c-167 0 -278 122 -278 282v504h70v-500c0 -123 78 -219 208 -219c131 0 210 94 210 218v501h70v-504c0 -160 -110 -282 -280 -282zM239 824v13l65 113h70v-10l-96 -116h-39zM404 824v13l76 113h70v-10l-107 -116h-39z" />
    <glyph glyph-name="Yacute" unicode="&#xdd;" horiz-adv-x="598" 
d="M517 773h77l-259 -468v-305h-70v304l-260 469h80l216 -393zM267 824v17l96 112h81v-12l-133 -117h-44z" />
    <glyph glyph-name="yacute" unicode="&#xfd;" horiz-adv-x="489" 
d="M3 490h78l163 -399l170 399h72l-286 -667h-70l77 181zM211 575v17l116 142h83v-12l-155 -147h-44z" />
    <glyph glyph-name="Ydieresis" unicode="&#x178;" horiz-adv-x="598" 
d="M517 773h77l-259 -468v-305h-70v304l-260 469h80l216 -393zM190 848c-23 0 -42 18 -42 42s19 44 42 44c24 0 44 -20 44 -44s-20 -42 -44 -42zM411 848c-24 0 -42 18 -42 42s18 44 42 44s43 -20 43 -44s-19 -42 -43 -42z" />
    <glyph glyph-name="ydieresis" unicode="&#xff;" horiz-adv-x="489" 
d="M3 490h78l163 -399l170 399h72l-286 -667h-70l77 181zM134 621c-23 0 -42 18 -42 42s19 44 42 44c24 0 44 -20 44 -44s-20 -42 -44 -42zM355 621c-24 0 -42 18 -42 42s18 44 42 44s43 -20 43 -44s-19 -42 -43 -42z" />
    <glyph glyph-name="Zcaron" unicode="&#x17d;" horiz-adv-x="621" 
d="M26 0v42l473 666h-446v65h542v-45l-470 -663h460v-65h-559zM299 831l-116 122h68l70 -71l69 71h68l-116 -122h-43z" />
    <glyph glyph-name="zcaron" unicode="&#x17e;" horiz-adv-x="461" 
d="M16 0l298 428h-285v62h411l-300 -427h303v-63h-427zM197 582l-136 152h68l90 -99l89 99h68l-136 -152h-43z" />
    <glyph glyph-name="Tcommaaccent" unicode="&#x162;" horiz-adv-x="618" 
d="M13 707v66h591v-66h-260v-707h-70v707h-261zM267 -190l-43 15l58 142l55 -19z" />
    <glyph glyph-name="Tcommaaccent" unicode="&#x21a;" horiz-adv-x="618" 
d="M13 707v66h591v-66h-260v-707h-70v707h-261zM267 -190l-43 15l58 142l55 -19z" />
    <glyph glyph-name="amacron" unicode="&#x101;" 
d="M255 -12c-133 0 -223 68 -223 161s84 169 229 169c64 0 138 -27 172 -54v47c0 87 -100 122 -169 122c-58 0 -113 -12 -162 -52l-37 52c59 45 126 64 199 64c108 0 235 -55 235 -184v-313h-66v51c-30 -29 -97 -63 -178 -63zM257 46c80 0 138 32 176 69v81
c-34 32 -103 64 -171 64c-108 0 -165 -48 -165 -110c0 -60 67 -104 160 -104zM132 617v58h285v-58h-285z" />
    <glyph glyph-name="abreve" unicode="&#x103;" 
d="M255 -12c-133 0 -223 68 -223 161s84 169 229 169c64 0 138 -27 172 -54v47c0 87 -100 122 -169 122c-58 0 -113 -12 -162 -52l-37 52c59 45 126 64 199 64c108 0 235 -55 235 -184v-313h-66v51c-30 -29 -97 -63 -178 -63zM257 46c80 0 138 32 176 69v81
c-34 32 -103 64 -171 64c-108 0 -165 -48 -165 -110c0 -60 67 -104 160 -104zM275 588c-79 0 -144 54 -145 144h56c0 -51 36 -93 89 -93c52 0 88 42 89 93h54c-2 -92 -65 -144 -143 -144z" />
    <glyph glyph-name="adotaccent" unicode="&#x227;" 
d="M255 -12c-133 0 -223 68 -223 161s84 169 229 169c64 0 138 -27 172 -54v47c0 87 -100 122 -169 122c-58 0 -113 -12 -162 -52l-37 52c59 45 126 64 199 64c108 0 235 -55 235 -184v-313h-66v51c-30 -29 -97 -63 -178 -63zM257 46c80 0 138 32 176 69v81
c-34 32 -103 64 -171 64c-108 0 -165 -48 -165 -110c0 -60 67 -104 160 -104zM275 644c-26 0 -45 20 -45 46c0 25 19 46 45 46s47 -21 47 -46c0 -26 -21 -46 -47 -46z" />
    <glyph glyph-name="aeacute" unicode="&#x1fd;" horiz-adv-x="960" 
d="M255 -12c-129 0 -223 63 -223 163c0 92 85 167 229 167c57 0 130 -23 171 -54c1 8 1 20 1 47c0 87 -100 122 -169 122c-58 0 -113 -12 -162 -52l-37 52c59 45 127 64 199 64c80 0 172 -31 213 -100c42 60 112 100 202 100c145 0 243 -97 253 -227c1 -10 1 -19 1 -29h-435
c2 -103 77 -187 196 -187c68 0 109 15 164 61l41 -45c-62 -56 -117 -78 -205 -78c-95 0 -168 39 -213 100c-54 -65 -132 -104 -226 -104zM257 46c86 0 149 36 197 93c-7 17 -13 35 -17 53c-31 31 -102 68 -175 68c-109 0 -165 -50 -165 -109c0 -61 65 -105 160 -105z
M679 436c-101 0 -158 -62 -175 -137h356c-18 79 -83 137 -181 137zM443 575v17l116 142h83v-12l-155 -147h-44z" />
    <glyph glyph-name="ccircumflex" unicode="&#x109;" horiz-adv-x="461" 
d="M285 -8c-139 0 -253 112 -253 253c0 139 114 252 253 252c61 0 116 -20 160 -55l-40 -53c-33 27 -72 42 -118 42c-104 0 -187 -83 -187 -186c0 -105 82 -188 187 -188c45 0 85 16 116 40l38 -52c-41 -33 -94 -53 -156 -53zM122 582l136 152h43l136 -152h-68l-89 99
l-90 -99h-68z" />
    <glyph glyph-name="cdotaccent" unicode="&#x10b;" horiz-adv-x="461" 
d="M285 -8c-139 0 -253 112 -253 253c0 139 114 252 253 252c61 0 116 -20 160 -55l-40 -53c-33 27 -72 42 -118 42c-104 0 -187 -83 -187 -186c0 -105 82 -188 187 -188c45 0 85 16 116 40l38 -52c-41 -33 -94 -53 -156 -53zM280 644c-26 0 -45 20 -45 46c0 25 19 46 45 46
s47 -21 47 -46c0 -26 -21 -46 -47 -46z" />
    <glyph glyph-name="ecaron" unicode="&#x11b;" 
d="M294 -8c-162 0 -262 117 -262 257c0 135 95 248 248 248c145 0 243 -97 252 -226c1 -10 2 -20 2 -30h-436c2 -103 77 -187 196 -187c68 0 110 15 164 61l41 -45c-62 -56 -117 -78 -205 -78zM279 436c-100 0 -157 -62 -175 -137h356c-17 79 -82 137 -181 137zM258 582
l-136 152h68l90 -99l89 99h68l-136 -152h-43z" />
    <glyph glyph-name="ebreve" unicode="&#x115;" 
d="M294 -8c-162 0 -262 117 -262 257c0 135 95 248 248 248c145 0 243 -97 252 -226c1 -10 2 -20 2 -30h-436c2 -103 77 -187 196 -187c68 0 110 15 164 61l41 -45c-62 -56 -117 -78 -205 -78zM279 436c-100 0 -157 -62 -175 -137h356c-17 79 -82 137 -181 137zM280 588
c-79 0 -144 54 -145 144h56c0 -51 36 -93 89 -93c52 0 88 42 89 93h54c-2 -92 -65 -144 -143 -144z" />
    <glyph glyph-name="emacron" unicode="&#x113;" 
d="M294 -8c-162 0 -262 117 -262 257c0 135 95 248 248 248c145 0 243 -97 252 -226c1 -10 2 -20 2 -30h-436c2 -103 77 -187 196 -187c68 0 110 15 164 61l41 -45c-62 -56 -117 -78 -205 -78zM279 436c-100 0 -157 -62 -175 -137h356c-17 79 -82 137 -181 137zM137 617v58
h285v-58h-285z" />
    <glyph glyph-name="cacute" unicode="&#x107;" horiz-adv-x="461" 
d="M285 -8c-139 0 -253 112 -253 253c0 139 114 252 253 252c61 0 116 -20 160 -55l-40 -53c-33 27 -72 42 -118 42c-104 0 -187 -83 -187 -186c0 -105 82 -188 187 -188c45 0 85 16 116 40l38 -52c-41 -33 -94 -53 -156 -53zM246 575v17l116 142h83v-12l-155 -147h-44z" />
    <glyph glyph-name="edotaccent" unicode="&#x117;" 
d="M294 -8c-162 0 -262 117 -262 257c0 135 95 248 248 248c145 0 243 -97 252 -226c1 -10 2 -20 2 -30h-436c2 -103 77 -187 196 -187c68 0 110 15 164 61l41 -45c-62 -56 -117 -78 -205 -78zM279 436c-100 0 -157 -62 -175 -137h356c-17 79 -82 137 -181 137zM280 644
c-26 0 -45 20 -45 46c0 25 19 46 45 46s47 -21 47 -46c0 -26 -21 -46 -47 -46z" />
    <glyph glyph-name="gdotaccent" unicode="&#x121;" horiz-adv-x="606" 
d="M289 -9c-149 0 -257 111 -257 252c0 138 111 253 257 253c69 0 131 -26 174 -68v62h67v-445c0 -125 -91 -214 -243 -214c-100 0 -192 31 -257 88l39 50c53 -47 130 -76 218 -76c120 0 176 65 176 157v13c-45 -46 -106 -72 -174 -72zM291 55c80 0 142 44 172 107v166
c-31 61 -96 104 -172 104c-109 0 -191 -86 -191 -189c0 -107 79 -188 191 -188zM294 644c-26 0 -45 20 -45 46c0 25 19 46 45 46s47 -21 47 -46c0 -26 -21 -46 -47 -46z" />
    <glyph glyph-name="gcommaaccent" unicode="&#x123;" horiz-adv-x="606" 
d="M289 -9c-149 0 -257 111 -257 252c0 138 111 253 257 253c69 0 131 -26 174 -68v62h67v-445c0 -125 -91 -214 -243 -214c-100 0 -192 31 -257 88l39 50c53 -47 130 -76 218 -76c120 0 176 65 176 157v13c-45 -46 -106 -72 -174 -72zM291 55c80 0 142 44 172 107v166
c-31 61 -96 104 -172 104c-109 0 -191 -86 -191 -189c0 -107 79 -188 191 -188zM259 606l70 139l43 -15l-58 -143z" />
    <glyph glyph-name="gbreve" unicode="&#x11f;" horiz-adv-x="606" 
d="M289 -9c-149 0 -257 111 -257 252c0 138 111 253 257 253c69 0 131 -26 174 -68v62h67v-445c0 -125 -91 -214 -243 -214c-100 0 -192 31 -257 88l39 50c53 -47 130 -76 218 -76c120 0 176 65 176 157v13c-45 -46 -106 -72 -174 -72zM291 55c80 0 142 44 172 107v166
c-31 61 -96 104 -172 104c-109 0 -191 -86 -191 -189c0 -107 79 -188 191 -188zM295 588c-79 0 -144 54 -145 144h56c0 -51 36 -93 89 -93c52 0 88 42 89 93h54c-2 -92 -65 -144 -143 -144z" />
    <glyph glyph-name="gcircumflex" unicode="&#x11d;" horiz-adv-x="606" 
d="M289 -9c-149 0 -257 111 -257 252c0 138 111 253 257 253c69 0 131 -26 174 -68v62h67v-445c0 -125 -91 -214 -243 -214c-100 0 -192 31 -257 88l39 50c53 -47 130 -76 218 -76c120 0 176 65 176 157v13c-45 -46 -106 -72 -174 -72zM291 55c80 0 142 44 172 107v166
c-31 61 -96 104 -172 104c-109 0 -191 -86 -191 -189c0 -107 79 -188 191 -188zM137 582l136 152h43l136 -152h-68l-89 99l-90 -99h-68z" />
    <glyph glyph-name="ibreve" unicode="&#x12d;" horiz-adv-x="219" 
d="M75 0v490h68v-490h-68zM109 588c-79 0 -144 54 -145 144h56c0 -51 36 -93 89 -93c52 0 88 42 89 93h54c-2 -92 -65 -144 -143 -144z" />
    <glyph glyph-name="itilde" unicode="&#x129;" horiz-adv-x="219" 
d="M75 0v490h68v-490h-68zM170 603c-53 0 -84 52 -122 52c-24 0 -35 -19 -37 -44l-38 8c0 52 31 91 76 91c53 0 84 -54 122 -54c24 0 34 21 35 44l39 -7c0 -51 -29 -90 -75 -90z" />
    <glyph glyph-name="dotlessj" unicode="&#x237;" horiz-adv-x="219" 
d="M-11 -185l-1 62c58 2 87 39 87 107v506h68v-504c0 -112 -61 -166 -154 -171z" />
    <glyph glyph-name="jcircumflex" unicode="&#x135;" horiz-adv-x="219" 
d="M-11 -185l-1 62c58 2 87 39 87 107v506h68v-504c0 -112 -61 -166 -154 -171zM-8 582l90 152h52l92 -152h-63l-55 94l-54 -94h-62z" />
    <glyph glyph-name="hcircumflex" unicode="&#x125;" horiz-adv-x="577" 
d="M449 0v279c0 99 -75 154 -155 154c-63 0 -121 -36 -150 -87v-346h-68v780h68v-349c31 35 83 67 155 67c115 0 218 -78 218 -209v-289h-68zM163 846l116 122h43l116 -122h-68l-69 69l-70 -69h-68z" />
    <glyph glyph-name="lacute" unicode="&#x13a;" horiz-adv-x="219" 
d="M75 0v780h68v-780h-68zM97 838v17l96 112h81v-12l-133 -117h-44z" />
    <glyph glyph-name="nacute" unicode="&#x144;" horiz-adv-x="576" 
d="M449 0v279c0 99 -75 154 -155 154c-64 0 -122 -37 -151 -88v-345h-68v490h68v-61c31 36 83 69 156 69c115 0 218 -78 218 -209v-289h-68zM262 575v17l116 142h83v-12l-155 -147h-44z" />
    <glyph glyph-name="ncaron" unicode="&#x148;" horiz-adv-x="576" 
d="M449 0v279c0 99 -75 154 -155 154c-64 0 -122 -37 -151 -88v-345h-68v490h68v-61c31 36 83 69 156 69c115 0 218 -78 218 -209v-289h-68zM274 582l-136 152h68l90 -99l89 99h68l-136 -152h-43z" />
    <glyph glyph-name="eng" unicode="&#x14b;" horiz-adv-x="576" 
d="M75 0v490h68v-61c31 36 83 69 155 69c115 0 219 -78 219 -209v-303c0 -112 -63 -166 -156 -171v62c58 2 88 39 88 107v295c0 99 -75 154 -155 154c-63 0 -121 -36 -151 -87v-346h-68z" />
    <glyph glyph-name="omacron" unicode="&#x14d;" horiz-adv-x="582" 
d="M291 57c113 0 191 87 191 190c0 105 -81 187 -191 187s-191 -82 -191 -187c0 -104 81 -190 191 -190zM291 -8c-152 0 -259 116 -259 255s110 252 259 252s259 -113 259 -252c0 -138 -107 -255 -259 -255zM149 617v58h285v-58h-285z" />
    <glyph glyph-name="obreve" unicode="&#x14f;" horiz-adv-x="582" 
d="M291 57c113 0 191 87 191 190c0 105 -81 187 -191 187s-191 -82 -191 -187c0 -104 81 -190 191 -190zM291 -8c-152 0 -259 116 -259 255s110 252 259 252s259 -113 259 -252c0 -138 -107 -255 -259 -255zM291 588c-79 0 -144 54 -145 144h56c0 -51 36 -93 89 -93
c52 0 88 42 89 93h54c-2 -92 -65 -144 -143 -144z" />
    <glyph glyph-name="sacute" unicode="&#x15b;" horiz-adv-x="506" 
d="M261 -11c-92 0 -169 22 -243 66l34 56c64 -41 133 -61 210 -61c94 0 154 36 154 89c0 35 -22 62 -91 75l-142 26c-87 15 -131 55 -131 126c0 77 66 136 205 136c76 0 144 -21 196 -55l-34 -54c-51 31 -105 47 -163 47c-74 0 -138 -22 -138 -73c0 -34 18 -53 75 -63
l139 -25c99 -18 150 -63 150 -138c0 -93 -93 -152 -221 -152zM223 575v17l116 142h83v-12l-155 -147h-44z" />
    <glyph glyph-name="scedilla" unicode="&#x15f;" horiz-adv-x="506" 
d="M204 -194v49c10 -3 19 -4 26 -4c31 0 55 9 55 40c0 27 -24 39 -52 39h-7v60c-77 5 -144 26 -208 65l34 56c64 -41 133 -61 210 -61c94 0 154 36 154 89c0 35 -22 62 -91 75l-142 26c-87 15 -131 55 -131 126c0 77 66 136 205 136c76 0 144 -21 196 -55l-34 -54
c-51 31 -105 47 -163 47c-74 0 -138 -22 -138 -73c0 -34 18 -53 75 -63l139 -25c99 -18 150 -63 150 -138c0 -88 -84 -145 -201 -151v-28c33 -6 61 -34 61 -73c0 -56 -44 -86 -111 -86c-8 0 -18 1 -27 3z" />
    <glyph glyph-name="scircumflex" unicode="&#x15d;" horiz-adv-x="506" 
d="M261 -11c-92 0 -169 22 -243 66l34 56c64 -41 133 -61 210 -61c94 0 154 36 154 89c0 35 -22 62 -91 75l-142 26c-87 15 -131 55 -131 126c0 77 66 136 205 136c76 0 144 -21 196 -55l-34 -54c-51 31 -105 47 -163 47c-74 0 -138 -22 -138 -73c0 -34 18 -53 75 -63
l139 -25c99 -18 150 -63 150 -138c0 -93 -93 -152 -221 -152zM99 582l136 152h43l136 -152h-68l-89 99l-90 -99h-68z" />
    <glyph glyph-name="tbar" unicode="&#x167;" horiz-adv-x="291" 
d="M26 428v62h85v212l68 37v-249h85v-62h-85v-116h86v-63h-86v-249h-68v249h-85v63h85v116h-85z" />
    <glyph glyph-name="wdieresis" unicode="&#x1e85;" horiz-adv-x="805" 
d="M190 0l-184 490h73l148 -400l141 400h69l141 -403l151 403h70l-187 -490h-70l-141 396l-143 -396h-68zM292 621c-23 0 -42 18 -42 42s19 44 42 44c24 0 44 -20 44 -44s-20 -42 -44 -42zM513 621c-24 0 -42 18 -42 42s18 44 42 44s43 -20 43 -44s-19 -42 -43 -42z" />
    <glyph glyph-name="wacute" unicode="&#x1e83;" horiz-adv-x="805" 
d="M190 0l-184 490h73l148 -400l141 400h69l141 -403l151 403h70l-187 -490h-70l-141 396l-143 -396h-68zM369 575v17l116 142h83v-12l-155 -147h-44z" />
    <glyph glyph-name="wgrave" unicode="&#x1e81;" horiz-adv-x="805" 
d="M190 0l-184 490h73l148 -400l141 400h69l141 -403l151 403h70l-187 -490h-70l-141 396l-143 -396h-68zM393 575l-150 146l-1 13h78l131 -149v-10h-58z" />
    <glyph glyph-name="wcircumflex" unicode="&#x175;" horiz-adv-x="805" 
d="M190 0l-184 490h73l148 -400l141 400h69l141 -403l151 403h70l-187 -490h-70l-141 396l-143 -396h-68zM246 582l136 152h43l136 -152h-68l-89 99l-90 -99h-68z" />
    <glyph glyph-name="ycircumflex" unicode="&#x177;" horiz-adv-x="489" 
d="M3 490h78l163 -399l170 399h72l-286 -667h-70l77 181zM88 582l136 152h43l136 -152h-68l-89 99l-90 -99h-68z" />
    <glyph glyph-name="ygrave" unicode="&#x1ef3;" horiz-adv-x="489" 
d="M3 490h78l163 -399l170 399h72l-286 -667h-70l77 181zM235 575l-150 146l-1 13h78l131 -149v-10h-58z" />
    <glyph glyph-name="zdotaccent" unicode="&#x17c;" horiz-adv-x="461" 
d="M16 0l298 428h-285v62h411l-300 -427h303v-63h-427zM219 644c-26 0 -45 20 -45 46c0 25 19 46 45 46s47 -21 47 -46c0 -26 -21 -46 -47 -46z" />
    <glyph glyph-name="zacute" unicode="&#x17a;" horiz-adv-x="461" 
d="M16 0l298 428h-285v62h411l-300 -427h303v-63h-427zM185 575v17l116 142h83v-12l-155 -147h-44z" />
    <glyph glyph-name="ubreve" unicode="&#x16d;" horiz-adv-x="576" 
d="M275 -9c-109 0 -216 79 -216 208l1 291h68v-283c0 -98 75 -153 153 -153c71 0 126 41 152 97v339h68v-490h-68v64c-36 -41 -88 -73 -158 -73zM285 588c-79 0 -144 54 -145 144h56c0 -51 36 -93 89 -93c52 0 88 42 89 93h54c-2 -92 -65 -144 -143 -144z" />
    <glyph glyph-name="utilde" unicode="&#x169;" horiz-adv-x="576" 
d="M275 -9c-109 0 -216 79 -216 208l1 291h68v-283c0 -98 75 -153 153 -153c71 0 126 41 152 97v339h68v-490h-68v64c-36 -41 -88 -73 -158 -73zM359 603c-64 0 -101 52 -147 52c-28 0 -42 -19 -44 -44l-46 8c0 52 38 91 92 91c63 0 101 -54 147 -54c29 0 40 21 42 44l47 -7
c0 -51 -35 -90 -91 -90z" />
    <glyph glyph-name="umacron" unicode="&#x16b;" horiz-adv-x="576" 
d="M275 -9c-109 0 -216 79 -216 208l1 291h68v-283c0 -98 75 -153 153 -153c71 0 126 41 152 97v339h68v-490h-68v64c-36 -41 -88 -73 -158 -73zM143 617v58h285v-58h-285z" />
    <glyph glyph-name="uring" unicode="&#x16f;" horiz-adv-x="576" 
d="M275 -9c-109 0 -216 79 -216 208l1 291h68v-283c0 -98 75 -153 153 -153c71 0 126 41 152 97v339h68v-490h-68v64c-36 -41 -88 -73 -158 -73zM286 570c-53 0 -96 43 -96 95c0 53 43 96 96 96c52 0 95 -43 95 -96c0 -52 -43 -95 -95 -95zM286 619c25 0 46 21 46 46
c0 26 -21 47 -46 47c-26 0 -47 -21 -47 -47c0 -25 21 -46 47 -46z" />
    <glyph glyph-name="kgreenlandic" unicode="&#x138;" horiz-adv-x="497" 
d="M387 490h86l-197 -191l214 -299h-81l-180 252l-86 -83v-169h-68v490h68v-238z" />
    <glyph glyph-name="hbar" unicode="&#x127;" horiz-adv-x="577" 
d="M-2 623v57h78v100h68v-100h177v-57h-177v-192c31 35 83 67 155 67c115 0 218 -78 218 -209v-289h-68v279c0 99 -75 154 -155 154c-63 0 -121 -36 -150 -87v-346h-68v623h-78z" />
    <glyph glyph-name="dcroat" unicode="&#x111;" horiz-adv-x="607" 
d="M277 623v57h187v100h68v-100h77v-57h-77v-623h-68v63c-45 -47 -107 -74 -175 -74c-149 0 -257 113 -257 253c0 138 111 254 257 254c69 0 132 -26 175 -69v196h-187zM291 53c80 0 142 46 173 109v164c-30 62 -96 106 -173 106c-109 0 -191 -87 -191 -190
c0 -106 80 -189 191 -189z" />
    <glyph glyph-name="adotbelow" unicode="&#x1ea1;" 
d="M255 -12c-133 0 -223 68 -223 161s84 169 229 169c64 0 138 -27 172 -54v47c0 87 -100 122 -169 122c-58 0 -113 -12 -162 -52l-37 52c59 45 126 64 199 64c108 0 235 -55 235 -184v-313h-66v51c-30 -29 -97 -63 -178 -63zM257 46c80 0 138 32 176 69v81
c-34 32 -103 64 -171 64c-108 0 -165 -48 -165 -110c0 -60 67 -104 160 -104zM268 -175c-25 0 -46 21 -46 44c0 25 21 44 46 44s46 -19 46 -44c0 -23 -20 -44 -46 -44z" />
    <glyph glyph-name="lcommaaccent" unicode="&#x13c;" horiz-adv-x="219" 
d="M73 -190l-43 15l58 142l55 -19zM75 0v780h68v-780h-68z" />
    <glyph glyph-name="ldot" unicode="&#x140;" horiz-adv-x="278" 
d="M75 0v780h68v-780h-68zM245 265c-26 0 -46 20 -46 46c0 25 20 46 46 46c25 0 46 -21 46 -46c0 -26 -21 -46 -46 -46z" />
    <glyph glyph-name="ncommaaccent" unicode="&#x146;" horiz-adv-x="570" 
d="M449 0v279c0 99 -75 154 -155 154c-64 0 -122 -37 -151 -88v-345h-68v490h68v-61c31 36 83 69 156 69c115 0 218 -78 218 -209v-289h-68zM254 -190l-43 15l58 142l55 -19z" />
    <glyph glyph-name="ncircumflex" horiz-adv-x="576" 
d="M449 0v279c0 99 -75 154 -155 154c-64 0 -122 -37 -151 -88v-345h-68v490h68v-61c31 36 83 69 156 69c115 0 218 -78 218 -209v-289h-68zM138 582l136 152h43l136 -152h-68l-89 99l-90 -99h-68z" />
    <glyph glyph-name="mcircumflex" horiz-adv-x="938" 
d="M443 0v289c0 94 -60 144 -147 144c-63 0 -123 -36 -153 -87v-346h-68v490h68v-61c32 36 85 69 158 69c80 0 147 -33 186 -91c40 53 104 91 179 91c114 0 213 -81 213 -209v-289h-68v280c0 95 -70 153 -149 153c-68 0 -122 -39 -151 -95v-338h-68zM320 582l136 152h43
l136 -152h-68l-89 99l-90 -99h-68z" />
    <glyph glyph-name="odotbelow" unicode="&#x1ecd;" horiz-adv-x="582" 
d="M291 57c113 0 191 87 191 190c0 105 -81 187 -191 187s-191 -82 -191 -187c0 -104 81 -190 191 -190zM291 -8c-152 0 -259 116 -259 255s110 252 259 252s259 -113 259 -252c0 -138 -107 -255 -259 -255zM291 -175c-25 0 -46 21 -46 44c0 25 21 44 46 44s46 -19 46 -44
c0 -23 -20 -44 -46 -44z" />
    <glyph glyph-name="rcommaaccent" unicode="&#x157;" horiz-adv-x="412" 
d="M75 0v490h68v-43c25 30 60 49 105 49c90 0 155 -68 155 -152v-12h-64c0 57 -39 99 -98 99c-46 0 -88 -34 -98 -78v-353h-68zM73 -182l-43 15l58 142l55 -19z" />
    <glyph glyph-name="scommaaccent" unicode="&#x219;" horiz-adv-x="505" 
d="M261 -11c-92 0 -169 22 -243 66l34 56c64 -41 133 -61 210 -61c94 0 154 36 154 89c0 35 -22 62 -91 75l-142 26c-87 15 -131 55 -131 126c0 77 66 136 205 136c76 0 144 -21 196 -55l-34 -54c-51 31 -105 47 -163 47c-74 0 -138 -22 -138 -73c0 -34 18 -53 75 -63
l139 -25c99 -18 150 -63 150 -138c0 -93 -93 -152 -221 -152zM225 -190l-43 15l58 142l55 -19z" />
    <glyph glyph-name="tcommaaccent" unicode="&#x163;" horiz-adv-x="274" 
d="M18 428v62h85v212l68 37v-249h85v-62h-85v-428h-68v428h-85zM96 -190l-43 15l58 142l55 -19z" />
    <glyph glyph-name="udotbelow" unicode="&#x1ee5;" horiz-adv-x="576" 
d="M275 -9c-109 0 -216 79 -216 208l1 291h68v-283c0 -98 75 -153 153 -153c71 0 126 41 152 97v339h68v-490h-68v64c-36 -41 -88 -73 -158 -73zM287 -175c-25 0 -46 21 -46 44c0 25 21 44 46 44s46 -19 46 -44c0 -23 -20 -44 -46 -44z" />
    <glyph glyph-name="ymacron" horiz-adv-x="489" 
d="M3 490h78l163 -399l170 399h72l-286 -667h-70l77 181zM103 617v58h285v-58h-285z" />
    <glyph glyph-name="rcaron" unicode="&#x159;" horiz-adv-x="412" 
d="M75 0v490h68v-43c25 30 60 49 105 49c90 0 155 -68 155 -152v-12h-64c0 57 -39 99 -98 99c-46 0 -88 -34 -98 -78v-353h-68zM202 582l-136 152h68l90 -99l89 99h68l-136 -152h-43z" />
    <glyph glyph-name="racute" unicode="&#x155;" horiz-adv-x="412" 
d="M75 0v490h68v-43c25 30 60 49 105 49c90 0 155 -68 155 -152v-12h-64c0 57 -39 99 -98 99c-46 0 -88 -34 -98 -78v-353h-68zM190 575v17l116 142h83v-12l-155 -147h-44z" />
    <glyph glyph-name="thorn" unicode="&#xfe;" horiz-adv-x="602" 
d="M313 -11c-70 0 -128 24 -170 66v-232h-68v957h68v-350c42 40 102 66 169 66c150 0 257 -113 257 -253c0 -138 -111 -254 -256 -254zM311 432c-75 0 -136 -40 -168 -98v-181c31 -58 93 -100 168 -100c108 0 191 87 191 190c0 106 -80 189 -191 189z" />
    <glyph glyph-name="Thorn" unicode="&#xde;" horiz-adv-x="584" 
d="M342 170h-177v-170h-70v773h70v-137h177c126 0 224 -96 224 -235c0 -136 -100 -231 -224 -231zM336 570h-171v-334h173c90 0 156 66 156 166c0 102 -67 168 -158 168z" />
    <glyph glyph-name="i.TRK" horiz-adv-x="219" 
d="M75 0v490h68v-490h-68zM109 644c-26 0 -45 20 -45 46c0 25 19 46 45 46s47 -21 47 -46c0 -26 -21 -46 -47 -46z" />
    <glyph glyph-name="imacron" unicode="&#x12b;" horiz-adv-x="219" 
d="M75 0v490h68v-490h-68zM19 617v58h180v-58h-180z" />
    <glyph glyph-name="icaron" unicode="&#x1d0;" horiz-adv-x="219" 
d="M75 0v490h68v-490h-68zM91 582l-113 152h56l75 -99l74 99h56l-112 -152h-36z" />
    <glyph glyph-name="iacute" unicode="&#xed;" horiz-adv-x="219" 
d="M75 0v490h68v-490h-68zM75 575v17l116 142h83v-12l-155 -147h-44z" />
    <glyph glyph-name="idieresis" unicode="&#xef;" horiz-adv-x="219" 
d="M75 0v490h68v-490h-68zM184 647c-24 0 -42 18 -42 42s18 43 42 43s43 -19 43 -43s-19 -42 -43 -42zM33 647c-24 0 -43 18 -43 42s19 43 43 43s43 -19 43 -43s-19 -42 -43 -42z" />
    <glyph glyph-name="icircumflex" unicode="&#xee;" horiz-adv-x="219" 
d="M75 0v490h68v-490h-68zM-6 582l90 152h52l92 -152h-63l-55 94l-54 -94h-62z" />
    <glyph glyph-name="igrave" unicode="&#xec;" horiz-adv-x="219" 
d="M75 0v490h68v-490h-68zM99 575l-150 146l-1 13h78l131 -149v-10h-58z" />
    <glyph glyph-name="yen" unicode="&#xa5;" horiz-adv-x="623" 
d="M91 285v59h169l-243 429h80l218 -386l214 386h77l-240 -429h168v-59h-186v-92h186v-60h-186v-133h-70v133h-187v60h187v92h-187z" />
    <glyph glyph-name="Lcaron" unicode="&#x13d;" horiz-adv-x="536" 
d="M95 0v773h70v-707h353v-66h-423zM341 508l-44 16l90 227l63 -23z" />
    <glyph glyph-name="napostrophe" unicode="&#x149;" horiz-adv-x="576" 
d="M449 0v279c0 99 -75 154 -155 154c-64 0 -122 -37 -151 -88v-345h-68v490h68v-61c31 36 83 69 156 69c115 0 218 -78 218 -209v-289h-68zM133 709l55 -22l-70 -139l-43 16z" />
    <glyph glyph-name="lcaron" unicode="&#x13e;" horiz-adv-x="249" 
d="M199 558l-8 222h71l-11 -222h-52zM75 0v780h68v-780h-68z" />
    <glyph glyph-name="tcaron" unicode="&#x165;" horiz-adv-x="274" 
d="M18 428v62h85v212l68 37v-249h85v-62h-85v-428h-68v428h-85zM251 570l16 221l69 2l-36 -228z" />
    <glyph glyph-name="dcaron" unicode="&#x10f;" horiz-adv-x="639" 
d="M464 0v63c-45 -47 -107 -74 -175 -74c-149 0 -257 113 -257 253c0 138 111 254 257 254c69 0 132 -26 175 -69v353h68v-780h-68zM291 53c80 0 142 46 173 109v164c-30 62 -96 106 -173 106c-109 0 -191 -87 -191 -190c0 -106 80 -189 191 -189zM591 557l16 221l69 2
l-36 -228z" />
    <glyph glyph-name="lozenge" unicode="&#x25ca;" horiz-adv-x="559" 
d="M260 0l-213 391l215 382h37l213 -383l-218 -390h-34zM124 391l153 -291l158 289l-157 286z" />
    <glyph glyph-name="Delta" unicode="&#x394;" horiz-adv-x="722" 
d="M13 0l327 773h49l319 -773h-695zM111 65h497l-246 590z" />
    <glyph glyph-name="Delta" unicode="&#x2206;" horiz-adv-x="722" 
d="M13 0l327 773h49l319 -773h-695zM111 65h497l-246 590z" />
    <glyph glyph-name="pi" unicode="&#x3c0;" horiz-adv-x="653" 
d="M531 -8c-94 0 -128 45 -128 155v279h-189v-426h-67v426h-119v64h570v-64h-128v-278c0 -75 26 -95 71 -95c21 0 36 3 54 11l16 -56c-20 -9 -45 -16 -80 -16z" />
    <glyph glyph-name="product" unicode="&#x220f;" horiz-adv-x="634" 
d="M94 -177v950h446v-950h-68v885h-310v-885h-68z" />
    <glyph glyph-name="Omega" unicode="&#x3a9;" horiz-adv-x="900" 
d="M574 0v67c63 29 206 137 206 320c0 185 -148 333 -331 333c-184 0 -330 -148 -330 -334c0 -183 142 -290 209 -320v-66h-280v63h174c-77 50 -174 152 -174 324c0 222 180 401 401 401s402 -178 402 -401c0 -169 -100 -274 -178 -324h179v-63h-278z" />
    <glyph glyph-name="Omega" unicode="&#x2126;" horiz-adv-x="900" 
d="M574 0v67c63 29 206 137 206 320c0 185 -148 333 -331 333c-184 0 -330 -148 -330 -334c0 -183 142 -290 209 -320v-66h-280v63h174c-77 50 -174 152 -174 324c0 222 180 401 401 401s402 -178 402 -401c0 -169 -100 -274 -178 -324h179v-63h-278z" />
    <glyph glyph-name="summation" unicode="&#x2211;" horiz-adv-x="570" 
d="M535 -177h-495v62l311 415l-303 411v61h477v-63h-392l300 -405l-311 -418h413v-63z" />
    <glyph glyph-name="radical" unicode="&#x221a;" horiz-adv-x="674" 
d="M296 0l-174 409h-94v68h143l111 -273c23 -53 47 -119 47 -119h1s23 65 45 118l232 577h78l-322 -780h-67z" />
    <glyph glyph-name="logicalnot" unicode="&#xac;" horiz-adv-x="547" 
d="M48 237v63h441v-216h-70v153h-371z" />
    <glyph glyph-name="currency" unicode="&#xa4;" horiz-adv-x="578" 
d="M470 60l-59 69c-35 -22 -77 -35 -122 -35s-87 13 -122 35l-58 -69l-48 40l58 69c-37 41 -59 95 -59 155c0 59 22 113 59 154l-58 68l48 41l58 -69c35 22 77 35 122 35s87 -13 123 -36l57 69l48 -40l-58 -70c36 -40 58 -94 58 -152c0 -59 -22 -113 -58 -154l59 -70z
M289 158c94 0 164 72 164 166c0 91 -72 165 -164 165c-91 0 -164 -73 -164 -165c0 -94 72 -166 164 -166z" />
    <glyph glyph-name="IJ" unicode="&#x132;" horiz-adv-x="704" 
d="M351 -14c-88 0 -159 29 -207 82c-43 47 -67 114 -68 200h70c1 -140 77 -215 205 -215c129 0 207 93 207 216v504h70v-507c0 -158 -110 -280 -277 -280zM76 328v445h70v-445h-70z" />
    <glyph glyph-name="mu" unicode="&#xb5;" horiz-adv-x="587" 
d="M448 0v62c-36 -40 -88 -71 -157 -71c-56 0 -110 21 -148 59v-227h-68v667h68v-283c0 -98 76 -153 153 -153c69 0 126 40 152 97v339h68v-490h-68z" />
    <glyph glyph-name="mu" unicode="&#x3bc;" horiz-adv-x="587" 
d="M448 0v62c-36 -40 -88 -71 -157 -71c-56 0 -110 21 -148 59v-227h-68v667h68v-283c0 -98 76 -153 153 -153c69 0 126 40 152 97v339h68v-490h-68z" />
    <glyph glyph-name="Aogonek" unicode="&#x104;" horiz-adv-x="708" 
d="M7 0l326 773h49l319 -773c-73 -21 -114 -48 -114 -87c0 -27 21 -44 58 -44c22 0 39 6 50 10l14 -40c-12 -7 -47 -16 -77 -16c-65 0 -103 36 -103 81c0 55 42 93 90 111l-49 121h-433l-57 -136h-73zM357 655l-192 -454h378z" />
    <glyph glyph-name="Eogonek" unicode="&#x118;" horiz-adv-x="579" 
d="M514 359h-349v-294h363v-65h-1c-71 -20 -112 -47 -112 -86c0 -28 20 -45 57 -45c21 0 38 6 49 10l15 -40c-13 -7 -48 -16 -76 -16c-66 0 -103 35 -103 80c0 44 28 76 63 97h-325v773h431v-65h-361v-284h349v-65z" />
    <glyph glyph-name="Iogonek" unicode="&#x12e;" horiz-adv-x="261" 
d="M97 -177c-66 0 -103 35 -103 80c0 61 49 97 101 114v756h70v-773c-71 -19 -112 -48 -112 -86c0 -28 20 -45 57 -45c21 0 38 6 49 10l14 -40c-12 -7 -47 -16 -76 -16z" />
    <glyph glyph-name="aogonek" unicode="&#x105;" 
d="M255 -12c-133 0 -223 68 -223 161s84 169 229 169c64 0 138 -27 172 -54v47c0 87 -100 122 -169 122c-58 0 -113 -12 -162 -52l-37 52c59 45 126 64 199 64c108 0 235 -55 235 -184v-313c-71 -19 -111 -49 -111 -87c0 -28 20 -44 57 -44c21 0 38 6 48 10l15 -40
c-12 -7 -46 -16 -75 -16c-65 0 -103 34 -103 79c0 59 50 96 103 113v36c-30 -29 -97 -63 -178 -63zM257 46c80 0 138 32 176 69v81c-34 32 -103 64 -171 64c-108 0 -165 -48 -165 -110c0 -60 67 -104 160 -104z" />
    <glyph glyph-name="eogonek" unicode="&#x119;" 
d="M294 -8c-162 0 -262 117 -262 257c0 135 95 248 248 248c145 0 243 -97 252 -226c1 -10 2 -20 2 -30h-436c2 -103 77 -187 196 -187c68 0 110 15 164 61l41 -45c-28 -25 -55 -44 -83 -56c-57 -32 -97 -58 -97 -100c0 -28 20 -45 57 -45c21 0 38 6 49 10l15 -40
c-13 -7 -48 -16 -76 -16c-66 0 -104 33 -104 79c0 38 19 67 47 90h-13zM279 436c-100 0 -157 -62 -175 -137h356c-17 79 -82 137 -181 137z" />
    <glyph glyph-name="iogonek" unicode="&#x12f;" horiz-adv-x="219" 
d="M77 -177c-65 0 -103 34 -103 79c0 58 49 96 101 113v475h68v-490c-71 -19 -111 -49 -111 -87c0 -28 20 -44 57 -44c21 0 38 6 49 10l14 -40c-12 -7 -46 -16 -75 -16zM109 644c-26 0 -45 20 -45 46c0 25 19 46 45 46s47 -21 47 -46c0 -26 -21 -46 -47 -46z" />
    <glyph glyph-name="apostrophe" unicode="&#x2bc;" horiz-adv-x="164" 
d="M28 563l16 221l69 2l-36 -228z" />
    <glyph glyph-name="periodcentered" unicode="&#xb7;" horiz-adv-x="185" 
d="M93 275c-26 0 -46 20 -46 46c0 25 20 46 46 46c25 0 46 -21 46 -46c0 -26 -21 -46 -46 -46z" />
    <glyph glyph-name="periodcentered" unicode="&#x2219;" horiz-adv-x="185" 
d="M93 275c-26 0 -46 20 -46 46c0 25 20 46 46 46c25 0 46 -21 46 -46c0 -26 -21 -46 -46 -46z" />
    <glyph glyph-name="hyphen.case" horiz-adv-x="394" 
d="M48 351v63h298v-63h-298z" />
    <glyph glyph-name="partialdiff" unicode="&#x2202;" horiz-adv-x="590" 
d="M296 -11c-150 0 -259 119 -259 253c0 144 109 260 252 260c33 0 64 -5 93 -16c-65 110 -106 172 -181 294h81c92 -149 151 -239 236 -399c28 -52 35 -87 35 -140c0 -130 -116 -252 -257 -252zM295 54c113 0 189 89 189 193c0 106 -79 190 -189 190s-190 -84 -190 -190
c0 -105 79 -193 190 -193z" />
    <glyph glyph-name="Oslashacute" unicode="&#x1fe;" horiz-adv-x="889" 
d="M109 -15l72 99c-85 74 -138 181 -138 302c0 222 180 401 401 401c74 0 144 -21 204 -56l60 83l50 -35l-60 -83c89 -74 147 -185 147 -310c0 -221 -180 -400 -401 -400c-79 0 -152 23 -214 62l-71 -98zM444 54c184 0 330 147 330 332c0 103 -45 194 -116 254l-388 -537
c50 -31 110 -49 174 -49zM114 386c0 -98 41 -186 107 -246l387 535c-49 28 -104 44 -164 44c-184 0 -330 -147 -330 -333zM399 858v17l96 112h81v-12l-133 -117h-44z" />
    <glyph glyph-name="aringacute" unicode="&#x1fb;" 
d="M255 -12c-133 0 -223 68 -223 161s84 169 229 169c64 0 138 -27 172 -54v47c0 87 -100 122 -169 122c-58 0 -113 -12 -162 -52l-37 52c59 45 126 64 199 64c108 0 235 -55 235 -184v-313h-66v51c-30 -29 -97 -63 -178 -63zM257 46c80 0 138 32 176 69v81
c-34 32 -103 64 -171 64c-108 0 -165 -48 -165 -110c0 -60 67 -104 160 -104zM285 532c-53 0 -96 43 -96 95c0 53 43 96 96 96c52 0 95 -43 95 -96c0 -52 -43 -95 -95 -95zM267 751v17l96 112h81v-12l-133 -117h-44zM285 581c25 0 46 21 46 46c0 26 -21 47 -46 47
c-26 0 -47 -21 -47 -47c0 -25 21 -46 47 -46z" />
    <glyph glyph-name="ij" unicode="&#x133;" horiz-adv-x="407" 
d="M298 646c-25 0 -46 21 -46 44c0 25 21 44 46 44s46 -19 46 -44c0 -23 -20 -44 -46 -44zM75 0v490h68v-490h-68zM178 -185l-1 62c58 2 87 39 87 107v506h68v-504c0 -112 -61 -166 -154 -171zM109 646c-25 0 -46 21 -46 44c0 25 21 44 46 44s46 -19 46 -44
c0 -23 -20 -44 -46 -44z" />
    <glyph glyph-name="oslashacute" unicode="&#x1ff;" horiz-adv-x="582" 
d="M63 -81l75 120c-66 46 -106 123 -106 208c0 139 110 252 259 252c43 0 83 -10 118 -27l84 134l47 -29l-84 -134c58 -46 94 -117 94 -196c0 -138 -107 -255 -259 -255c-38 0 -73 8 -104 20l-76 -121zM100 247c0 -61 28 -116 73 -151l201 320c-25 11 -53 18 -83 18
c-110 0 -191 -82 -191 -187zM291 57c113 0 191 87 191 190c0 56 -23 105 -61 139l-199 -317c21 -8 44 -12 69 -12zM257 575v17l116 142h83v-12l-155 -147h-44z" />
    <glyph glyph-name="uogonek" unicode="&#x173;" horiz-adv-x="576" 
d="M275 -9c-109 0 -216 79 -216 208l1 291h68v-283c0 -98 75 -153 153 -153c71 0 126 41 152 97v339h68v-490c-72 -19 -112 -49 -112 -87c0 -28 21 -44 57 -44c22 0 39 6 49 10l15 -40c-13 -7 -47 -16 -75 -16c-65 0 -104 34 -104 79c0 58 50 96 102 113v49
c-36 -41 -88 -73 -158 -73z" />
    <glyph glyph-name="Uogonek" unicode="&#x172;" horiz-adv-x="711" 
d="M379 -177c-66 0 -103 35 -103 80c0 37 18 66 45 86c-149 14 -245 131 -245 280v504h70v-500c0 -123 78 -219 208 -219c131 0 210 94 210 218v501h70v-504c0 -129 -71 -233 -188 -269h1c-71 -19 -112 -48 -112 -86c0 -28 20 -45 57 -45c21 0 38 6 49 10l14 -40
c-12 -7 -47 -16 -76 -16z" />
    <glyph glyph-name="eth" unicode="&#xf0;" horiz-adv-x="584" 
d="M430 747l23 -52l-97 -44c53 -83 98 -151 146 -240c37 -71 45 -114 45 -172c0 -132 -114 -250 -256 -250c-149 0 -259 117 -259 257c0 141 110 256 252 256c36 0 69 -7 100 -20c-32 55 -60 97 -89 141l-116 -53l-23 52l107 48c-22 33 -44 68 -70 110h81l51 -81zM290 53
c114 0 191 90 191 193c0 108 -81 192 -191 192c-109 0 -190 -84 -190 -192c0 -104 80 -193 190 -193z" />
    <glyph glyph-name="approxequal" unicode="&#x2248;" horiz-adv-x="529" 
d="M366 311c-103 0 -125 89 -204 89c-35 0 -64 -26 -70 -77l-55 8c8 72 52 129 125 129c100 0 125 -89 205 -89c35 0 63 25 70 79l55 -9c-6 -74 -53 -130 -126 -130zM366 134c-103 0 -125 89 -204 89c-35 0 -64 -26 -70 -77l-55 8c8 72 52 129 125 129
c100 0 125 -89 205 -89c35 0 63 25 70 79l55 -9c-6 -74 -53 -130 -126 -130z" />
    <glyph glyph-name="commaaccent" unicode="&#xf6c3;" horiz-adv-x="187" 
d="M37 606l70 139l43 -15l-58 -143z" />
    <glyph glyph-name="a.sup" horiz-adv-x="395" 
d="M182 432c-92 0 -156 46 -156 113s63 119 160 119c41 0 88 -17 112 -33v26c0 17 -4 34 -20 50c-16 17 -51 32 -90 32c-40 0 -77 -9 -111 -36l-30 46c44 32 93 44 142 44c78 0 168 -38 168 -131v-222h-58v32c-21 -19 -64 -40 -117 -40zM184 482c51 0 89 19 114 41v52
c-24 19 -68 39 -110 39c-71 0 -106 -30 -106 -68c0 -37 41 -64 102 -64z" />
    <glyph glyph-name="b.sup" horiz-adv-x="421" 
d="M47 440v540h61v-228c30 25 67 41 110 41c105 0 181 -81 181 -180c0 -98 -78 -180 -181 -180c-44 0 -81 14 -110 39v-32h-61zM215 736c-46 0 -86 -24 -107 -60v-124c20 -37 60 -63 107 -63c70 0 124 56 124 124c0 70 -52 123 -124 123z" />
    <glyph glyph-name="c.sup" horiz-adv-x="330" 
d="M201 434c-99 0 -179 81 -179 181c0 98 80 179 179 179c44 0 85 -15 116 -40l-34 -46c-22 18 -48 28 -80 28c-67 0 -120 -54 -120 -122s52 -122 120 -122c32 0 59 12 79 29l33 -48c-29 -23 -67 -39 -114 -39z" />
    <glyph glyph-name="d.sup" horiz-adv-x="424" 
d="M317 440v38c-31 -29 -71 -45 -115 -45c-104 0 -180 81 -180 180c0 98 78 180 181 180c45 0 85 -16 114 -42v229h60v-540h-60zM205 490c52 0 92 28 112 68v110c-20 41 -62 69 -111 69c-71 0 -123 -56 -123 -124c0 -70 51 -123 122 -123z" />
    <glyph glyph-name="e.sup" horiz-adv-x="396" 
d="M207 433c-115 0 -185 85 -185 184c0 96 68 176 176 176c102 0 174 -70 179 -163c1 -6 1 -14 1 -22h-299c0 -68 53 -122 128 -122c47 0 75 11 110 42l35 -38c-43 -40 -82 -57 -145 -57zM197 742c-66 0 -100 -38 -113 -86h230c-12 48 -53 86 -117 86z" />
    <glyph glyph-name="f.sup" horiz-adv-x="205" 
d="M11 736v53h55v76c0 74 50 114 111 114c36 0 69 -9 90 -30l-30 -41c-15 13 -34 17 -54 17c-36 0 -58 -23 -58 -64v-72h62v-53h-62v-296h-59v296h-55z" />
    <glyph glyph-name="g.sup" horiz-adv-x="425" 
d="M204 436c-107 0 -180 78 -180 178c0 97 77 179 180 179c45 0 85 -16 114 -43v39h60v-320c0 -90 -69 -149 -173 -149c-69 0 -133 22 -177 59l30 43c36 -29 87 -48 146 -48c40 0 67 11 86 27s28 40 28 69v12c-30 -29 -70 -46 -114 -46zM206 492c52 0 92 28 112 69v107
c-20 41 -62 69 -111 69c-70 0 -124 -56 -124 -123c0 -69 52 -122 123 -122z" />
    <glyph glyph-name="h.sup" horiz-adv-x="399" 
d="M302 440v198c0 61 -51 99 -103 99c-39 0 -70 -21 -91 -53v-244h-61v540h61v-226c21 22 53 40 99 40c78 0 155 -56 155 -148v-206h-60z" />
    <glyph glyph-name="i.sup" horiz-adv-x="155" 
d="M77 879c-21 0 -38 17 -38 38c0 23 17 38 38 38s38 -15 38 -38c0 -21 -16 -38 -38 -38zM47 440v349h61v-349h-61z" />
    <glyph glyph-name="j.sup" horiz-adv-x="155" 
d="M78 879c-22 0 -39 17 -39 38c0 23 17 38 39 38c20 0 38 -15 38 -38c0 -21 -17 -38 -38 -38zM-11 313v50c39 2 59 27 59 72v354h60v-351c0 -84 -46 -123 -119 -125z" />
    <glyph glyph-name="k.sup" horiz-adv-x="362" 
d="M269 789h75l-139 -137l150 -212h-72l-119 172l-56 -56v-116h-61v540h61v-351z" />
    <glyph glyph-name="l.sup" horiz-adv-x="157" 
d="M47 440v540h61v-540h-61z" />
    <glyph glyph-name="m.sup" horiz-adv-x="655" 
d="M302 440v199c0 61 -51 98 -103 98c-38 0 -70 -21 -91 -53v-244h-61v349h61v-36c21 23 53 41 99 41c51 0 102 -24 131 -66c27 39 71 65 124 65c79 0 156 -54 156 -145v-208h-60v200c0 60 -52 96 -104 96c-37 0 -74 -23 -95 -59c2 -9 3 -19 3 -29v-208h-60z" />
    <glyph glyph-name="n.sup" horiz-adv-x="400" 
d="M302 440v199c0 61 -51 98 -103 98c-38 0 -70 -21 -91 -53v-244h-61v349h61v-37c21 23 53 42 99 42c78 0 155 -55 155 -146v-208h-60z" />
    <glyph glyph-name="o.sup" horiz-adv-x="412" 
d="M206 490c72 0 123 58 123 125c0 70 -53 123 -123 123c-71 0 -124 -53 -124 -123c0 -68 52 -125 124 -125zM206 432c-110 0 -184 84 -184 183s78 181 184 181s184 -82 184 -181c0 -98 -76 -183 -184 -183z" />
    <glyph glyph-name="p.sup" horiz-adv-x="423" 
d="M221 433c-45 0 -84 14 -113 39v-157h-61v474h61v-39c30 27 68 43 113 43c104 0 180 -81 180 -180c0 -98 -77 -180 -180 -180zM219 736c-50 0 -91 -26 -111 -65v-114c19 -39 61 -68 110 -68c70 0 124 56 124 124c0 70 -52 123 -123 123z" />
    <glyph glyph-name="q.sup" horiz-adv-x="412" 
d="M305 315v152c-29 -22 -65 -34 -103 -34c-104 0 -180 81 -180 180c0 98 78 180 181 180c39 0 74 -12 102 -33v29h60v-474h-60zM205 490c43 0 78 19 100 48v150c-22 30 -59 49 -99 49c-71 0 -123 -56 -123 -124c0 -70 51 -123 122 -123z" />
    <glyph glyph-name="r.sup" horiz-adv-x="294" 
d="M47 440v349h61v-27c18 18 42 30 71 30c64 0 111 -48 111 -109v-10h-56c0 37 -25 64 -64 64c-29 0 -55 -21 -62 -48v-249h-61z" />
    <glyph glyph-name="s.sup" horiz-adv-x="367" 
d="M190 431c-65 0 -121 16 -175 46l30 49c43 -27 92 -43 146 -43c60 0 96 23 96 55c0 21 -14 38 -58 46l-97 18c-77 15 -96 56 -96 95c0 48 41 100 145 100c61 0 108 -17 141 -37l-29 -46c-32 19 -69 32 -114 32c-29 0 -84 -9 -84 -46c0 -22 11 -34 47 -40l93 -17
c46 -9 110 -32 110 -101s-67 -111 -155 -111z" />
    <glyph glyph-name="t.sup" horiz-adv-x="203" 
d="M14 736v53h57v129l59 35v-164h60v-53h-60v-296h-59v296h-57z" />
    <glyph glyph-name="u.sup" horiz-adv-x="400" 
d="M188 434c-76 0 -150 54 -150 148l1 207h60v-202c0 -62 47 -98 98 -98c46 0 79 25 96 62v238h60v-349h-60v38c-25 -26 -60 -44 -105 -44z" />
    <glyph glyph-name="v.sup" horiz-adv-x="345" 
d="M141 440l-141 349h65l108 -270l109 270h63l-142 -349h-62z" />
    <glyph glyph-name="w.sup" horiz-adv-x="571" 
d="M377 440l-92 268l-96 -268h-59l-128 349h64l97 -264l94 264h58l94 -269l100 269h60l-131 -349h-61z" />
    <glyph glyph-name="x.sup" horiz-adv-x="358" 
d="M277 440l-100 133l-99 -133h-72l133 177l-128 172h73l95 -126l96 126h71l-128 -170l134 -179h-75z" />
    <glyph glyph-name="y.sup" horiz-adv-x="358" 
d="M2 789h69l108 -269l113 269h64l-202 -473l-60 1l53 126z" />
    <glyph glyph-name="z.sup" horiz-adv-x="332" 
d="M322 495v-55h-313l200 294h-188v55h298l-201 -294h204z" />
    <glyph glyph-name="ordfeminine" unicode="&#xaa;" horiz-adv-x="423" 
d="M191 426c-90 0 -154 46 -154 114c0 67 62 117 159 117c43 0 89 -17 113 -34v27c0 17 -4 35 -20 50c-16 18 -52 32 -91 32s-76 -9 -110 -35l-30 45c44 32 93 45 143 45c77 0 166 -39 166 -132v-221h-56v32c-22 -19 -66 -40 -120 -40zM195 475c51 0 89 19 114 41v52
c-26 21 -67 40 -111 40c-70 0 -106 -30 -106 -69c0 -38 44 -64 103 -64z" />
    <glyph glyph-name="ordmasculine" unicode="&#xba;" horiz-adv-x="414" 
d="M207 484c72 0 123 58 123 125c0 70 -53 124 -123 124c-71 0 -123 -54 -123 -124c0 -68 51 -125 123 -125zM207 426c-109 0 -184 84 -184 183s78 181 184 181s183 -82 183 -181c0 -98 -75 -183 -183 -183z" />
    <glyph glyph-name="percent.alt1" horiz-adv-x="958" 
d="M706 52c67 0 116 51 116 117c0 64 -52 117 -116 117s-115 -53 -115 -117s50 -117 115 -117zM706 -6c-99 0 -176 78 -176 175c0 96 77 176 176 176s177 -83 177 -176c0 -99 -78 -175 -177 -175zM251 487c67 0 116 51 116 117c0 64 -52 117 -116 117s-115 -53 -115 -117
s50 -117 115 -117zM251 429c-99 0 -176 78 -176 175c0 96 77 176 176 176s177 -83 177 -176c0 -99 -78 -175 -177 -175zM183 0l509 773h71l-509 -773h-71z" />
    <glyph glyph-name="Ohorn" unicode="&#x1a0;" horiz-adv-x="889" 
d="M444 -14c-221 0 -401 179 -401 400c0 222 180 401 401 401c123 0 233 -56 307 -143c34 14 52 40 52 87v49h52v-32c0 -54 -13 -92 -39 -118c-12 -12 -23 -19 -36 -25c41 -63 65 -138 65 -219c0 -221 -180 -400 -401 -400zM444 54c184 0 330 147 330 332
c0 186 -147 333 -330 333c-184 0 -330 -147 -330 -333c0 -185 146 -332 330 -332z" />
    <glyph glyph-name="ohorn" unicode="&#x1a1;" horiz-adv-x="621" 
d="M291 -8c-152 0 -259 116 -259 255s110 252 259 252c101 0 184 -52 227 -130c33 14 51 41 51 87v49h52v-32c0 -54 -13 -92 -39 -118c-14 -14 -29 -23 -45 -29c8 -25 13 -52 13 -79c0 -138 -107 -255 -259 -255zM291 57c113 0 191 87 191 190c0 105 -81 187 -191 187
s-191 -82 -191 -187c0 -104 81 -190 191 -190z" />
    <glyph glyph-name="Uhorn" unicode="&#x1af;" horiz-adv-x="749" 
d="M354 -13c-167 0 -278 122 -278 282v504h70v-500c0 -123 78 -219 208 -219c131 0 210 94 210 218v501h70v-143c41 12 63 40 63 91v49h52v-32c0 -54 -13 -92 -39 -118c-22 -22 -47 -32 -76 -38v-313c0 -160 -110 -282 -280 -282z" />
    <glyph glyph-name="uhorn" unicode="&#x1b0;" horiz-adv-x="623" 
d="M497 305l-11 45c56 9 86 36 86 96v49h52v-32c0 -54 -13 -92 -39 -118c-25 -25 -53 -34 -88 -40z" />
    <glyph glyph-name="uacute" unicode="&#xfa;" horiz-adv-x="576" 
d="M275 -9c-109 0 -216 79 -216 208l1 291h68v-283c0 -98 75 -153 153 -153c71 0 126 41 152 97v339h68v-490h-68v64c-36 -41 -88 -73 -158 -73zM251 575v17l116 142h83v-12l-155 -147h-44z" />
    <glyph glyph-name="ucircumflex" unicode="&#xfb;" horiz-adv-x="576" 
d="M275 -9c-109 0 -216 79 -216 208l1 291h68v-283c0 -98 75 -153 153 -153c71 0 126 41 152 97v339h68v-490h-68v64c-36 -41 -88 -73 -158 -73zM128 582l136 152h43l136 -152h-68l-89 99l-90 -99h-68z" />
    <glyph glyph-name="udieresis" unicode="&#xfc;" horiz-adv-x="576" 
d="M275 -9c-109 0 -216 79 -216 208l1 291h68v-283c0 -98 75 -153 153 -153c71 0 126 41 152 97v339h68v-490h-68v64c-36 -41 -88 -73 -158 -73zM174 621c-23 0 -42 18 -42 42s19 44 42 44c24 0 44 -20 44 -44s-20 -42 -44 -42zM395 621c-24 0 -42 18 -42 42s18 44 42 44
s43 -20 43 -44s-19 -42 -43 -42z" />
    <glyph glyph-name="ugrave" unicode="&#xf9;" horiz-adv-x="576" 
d="M275 -9c-109 0 -216 79 -216 208l1 291h68v-283c0 -98 75 -153 153 -153c71 0 126 41 152 97v339h68v-490h-68v64c-36 -41 -88 -73 -158 -73zM275 575l-150 146l-1 13h78l131 -149v-10h-58z" />
    <glyph glyph-name="uhungarumlaut" unicode="&#x171;" horiz-adv-x="576" 
d="M275 -9c-109 0 -216 79 -216 208l1 291h68v-283c0 -98 75 -153 153 -153c71 0 126 41 152 97v339h68v-490h-68v64c-36 -41 -88 -73 -158 -73zM326 575l102 156h85l-129 -156h-58zM162 575l90 156h84l-117 -156h-57z" />
    <glyph glyph-name="Zdotaccent" unicode="&#x17b;" horiz-adv-x="621" 
d="M26 0v42l473 666h-446v65h542v-45l-470 -663h460v-65h-559zM320 846c-26 0 -45 20 -45 46c0 25 19 46 45 46s47 -21 47 -46c0 -26 -21 -46 -47 -46z" />
    <glyph glyph-name="Zacute" unicode="&#x179;" horiz-adv-x="621" 
d="M26 0v42l473 666h-446v65h542v-45l-470 -663h460v-65h-559zM286 824v17l96 112h81v-12l-133 -117h-44z" />
    <glyph glyph-name="kcommaaccent" unicode="&#x137;" horiz-adv-x="497" 
d="M387 490h86l-197 -191l214 -299h-81l-180 252l-86 -83v-169h-68v780h68v-528zM216 -190l-43 15l58 142l55 -19z" />
    <glyph glyph-name="estimated" unicode="&#x212e;" horiz-adv-x="816" 
d="M405 -15c-200 0 -355 125 -355 324c0 213 169 326 353 326c218 0 351 -134 358 -335h-566c-8 0 -14 -1 -14 -16v-165c0 -36 89 -108 224 -108c94 0 178 43 226 102h65c-85 -91 -177 -128 -291 -128zM403 609c-112 0 -222 -51 -222 -101v-166c0 -12 4 -16 15 -16h416
c15 0 17 5 17 16v166c0 52 -124 101 -226 101z" />
    <glyph glyph-name="at.case" horiz-adv-x="1032" 
d="M505 174c-122 0 -211 94 -211 206c0 113 93 206 210 206c53 0 99 -23 133 -55l1 63h62v-282c0 -54 32 -78 73 -78c82 0 123 88 123 183c0 189 -166 350 -381 350c-209 0 -379 -170 -379 -378c0 -220 170 -389 379 -389c82 0 158 20 223 60l31 -54
c-74 -44 -161 -67 -254 -67c-243 0 -441 196 -441 450c0 242 198 440 441 440c246 0 443 -188 443 -412c0 -119 -60 -244 -187 -244c-53 0 -99 27 -122 71c-28 -35 -77 -70 -144 -70zM505 237c59 0 107 34 131 84v116c-24 51 -73 87 -131 87c-83 0 -146 -65 -146 -144
c0 -81 61 -143 146 -143z" />
    <glyph glyph-name="perthousand.alt1" horiz-adv-x="1358" 
d="M706 52c67 0 116 51 116 117c0 64 -52 117 -116 117s-115 -53 -115 -117s50 -117 115 -117zM706 -6c-99 0 -176 78 -176 175c0 96 77 176 176 176s177 -83 177 -176c0 -99 -78 -175 -177 -175zM251 487c67 0 116 51 116 117c0 64 -52 117 -116 117s-115 -53 -115 -117
s50 -117 115 -117zM251 429c-99 0 -176 78 -176 175c0 96 77 176 176 176s177 -83 177 -176c0 -99 -78 -175 -177 -175zM183 0l509 773h71l-509 -773h-71zM1116 52c67 0 116 51 116 117c0 64 -52 117 -116 117s-115 -53 -115 -117s50 -117 115 -117zM1116 -6
c-99 0 -176 78 -176 175c0 96 77 176 176 176s177 -83 177 -176c0 -99 -78 -175 -177 -175z" />
    <glyph glyph-name="longs" unicode="&#x17f;" horiz-adv-x="234" 
d="M75 0v617c0 104 67 162 154 162c48 0 94 -13 124 -43l-39 -48c-22 21 -52 27 -82 27c-55 0 -90 -35 -90 -101v-614h-67z" />
    <glyph glyph-name="zero.num" horiz-adv-x="404" 
d="M202 410c83 0 95 71 95 154c0 78 -7 154 -95 154c-86 0 -95 -72 -95 -154c0 -78 11 -154 95 -154zM202 354c-84 0 -138 51 -150 128c-4 25 -5 43 -5 82c0 40 2 59 5 81c10 75 66 129 150 129c85 0 138 -52 150 -129c4 -24 5 -45 5 -81c0 -42 -1 -59 -5 -82
c-12 -77 -66 -128 -150 -128z" />
    <glyph glyph-name="one.num" horiz-adv-x="237" 
d="M120 360v340l-81 -42l-24 49l130 67h33v-414h-58z" />
    <glyph glyph-name="two.num" horiz-adv-x="366" 
d="M37 360v41l190 173c22 19 36 42 36 65c0 43 -29 81 -85 81c-48 0 -84 -38 -84 -89h-58c0 83 62 145 142 145c92 0 145 -62 145 -136c0 -45 -25 -78 -60 -108l-132 -118h197v-54h-291z" />
    <glyph glyph-name="three.num" horiz-adv-x="356" 
d="M175 353c-74 0 -143 50 -143 135h57c0 -47 34 -79 86 -79s81 32 81 69c0 41 -32 68 -84 68h-24v49h19c50 0 82 23 82 63c0 35 -27 64 -74 64c-46 0 -78 -25 -78 -71h-57c0 77 59 126 135 126c77 0 133 -53 133 -116c0 -43 -23 -73 -55 -89c34 -15 63 -47 63 -95
c0 -66 -59 -124 -141 -124z" />
    <glyph glyph-name="four.num" horiz-adv-x="357" 
d="M19 449v42l169 282h63l-163 -271h137v86h56v-86h47v-53h-47v-89h-56v89h-206z" />
    <glyph glyph-name="five.num" horiz-adv-x="385" 
d="M192 354c-77 0 -133 42 -152 105l57 17c12 -41 45 -70 94 -70c58 0 95 42 95 86c0 48 -38 84 -94 84c-37 0 -64 -16 -79 -34h-56v231h271v-54h-214v-114c21 14 49 24 81 24c88 0 150 -56 150 -137s-65 -138 -153 -138z" />
    <glyph glyph-name="six.num" horiz-adv-x="367" 
d="M183 354c-87 0 -151 64 -151 140c0 31 9 59 32 96l110 183h69l-89 -145c9 3 18 4 29 4c86 0 152 -62 152 -138s-66 -140 -152 -140zM183 409c55 0 93 41 93 85s-39 83 -93 83c-44 0 -92 -30 -92 -83c0 -40 30 -85 92 -85z" />
    <glyph glyph-name="seven.num" horiz-adv-x="315" 
d="M69 360l162 357h-208v56h282v-35l-172 -378h-64z" />
    <glyph glyph-name="eight.num" horiz-adv-x="355" 
d="M177 355c-81 0 -137 57 -137 123c0 40 21 74 55 95c-30 21 -48 53 -48 88c0 65 55 118 130 118c78 0 131 -53 131 -117c0 -36 -18 -68 -49 -89c35 -22 56 -56 56 -95c0 -66 -55 -123 -138 -123zM177 408c52 0 81 32 81 71c0 36 -28 70 -81 70c-52 0 -80 -33 -80 -70
c0 -36 30 -71 80 -71zM177 726c-45 0 -73 -31 -73 -66c0 -31 25 -62 66 -65h13c43 2 68 34 68 66c0 34 -27 65 -74 65z" />
    <glyph glyph-name="nine.num" horiz-adv-x="367" 
d="M184 779c87 0 151 -64 151 -140c0 -31 -9 -59 -32 -96l-110 -183h-69l88 144c-9 -2 -18 -3 -28 -3c-87 0 -152 62 -152 138s66 140 152 140zM184 724c-55 0 -93 -41 -93 -85s39 -83 93 -83c44 0 92 30 92 83c0 40 -30 85 -92 85z" />
    <glyph glyph-name="zero.den" horiz-adv-x="404" 
d="M202 50c83 0 95 71 95 154c0 78 -7 154 -95 154c-86 0 -95 -72 -95 -154c0 -78 11 -154 95 -154zM202 -6c-84 0 -138 51 -150 128c-4 25 -5 43 -5 82c0 40 2 59 5 81c10 75 66 129 150 129c85 0 138 -52 150 -129c4 -24 5 -45 5 -81c0 -42 -1 -59 -5 -82
c-12 -77 -66 -128 -150 -128z" />
    <glyph glyph-name="one.den" horiz-adv-x="237" 
d="M120 0v340l-81 -42l-24 49l130 67h33v-414h-58z" />
    <glyph glyph-name="two.den" horiz-adv-x="366" 
d="M37 0v41l190 173c22 19 36 42 36 65c0 43 -29 81 -85 81c-48 0 -84 -38 -84 -89h-58c0 83 62 145 142 145c92 0 145 -62 145 -136c0 -45 -25 -78 -60 -108l-132 -118h197v-54h-291z" />
    <glyph glyph-name="three.den" horiz-adv-x="356" 
d="M175 -7c-74 0 -143 50 -143 135h57c0 -47 34 -79 86 -79s81 32 81 69c0 41 -32 68 -84 68h-24v49h19c50 0 82 23 82 63c0 35 -27 64 -74 64c-46 0 -78 -25 -78 -71h-57c0 77 59 126 135 126c77 0 133 -53 133 -116c0 -43 -23 -73 -55 -89c34 -15 63 -47 63 -95
c0 -66 -59 -124 -141 -124z" />
    <glyph glyph-name="four.den" horiz-adv-x="357" 
d="M19 89v42l169 282h63l-163 -271h137v86h56v-86h47v-53h-47v-89h-56v89h-206z" />
    <glyph glyph-name="five.den" horiz-adv-x="385" 
d="M192 -6c-77 0 -133 42 -152 105l57 17c12 -41 45 -70 94 -70c58 0 95 42 95 86c0 48 -38 84 -94 84c-37 0 -64 -16 -79 -34h-56v231h271v-54h-214v-114c21 14 49 24 81 24c88 0 150 -56 150 -137s-65 -138 -153 -138z" />
    <glyph glyph-name="six.den" horiz-adv-x="367" 
d="M183 -6c-87 0 -151 64 -151 140c0 31 9 59 32 96l110 183h69l-89 -145c9 3 18 4 29 4c86 0 152 -62 152 -138s-66 -140 -152 -140zM183 49c55 0 93 41 93 85s-39 83 -93 83c-44 0 -92 -30 -92 -83c0 -40 30 -85 92 -85z" />
    <glyph glyph-name="seven.den" horiz-adv-x="315" 
d="M69 0l162 357h-208v56h282v-35l-172 -378h-64z" />
    <glyph glyph-name="eight.den" horiz-adv-x="355" 
d="M177 -5c-81 0 -137 57 -137 123c0 40 21 74 55 95c-30 21 -48 53 -48 88c0 65 55 118 130 118c78 0 131 -53 131 -117c0 -36 -18 -68 -49 -89c35 -22 56 -56 56 -95c0 -66 -55 -123 -138 -123zM177 48c52 0 81 32 81 71c0 36 -28 70 -81 70c-52 0 -80 -33 -80 -70
c0 -36 30 -71 80 -71zM177 366c-45 0 -73 -31 -73 -66c0 -31 25 -62 66 -65h13c43 2 68 34 68 66c0 34 -27 65 -74 65z" />
    <glyph glyph-name="nine.den" horiz-adv-x="367" 
d="M184 419c87 0 151 -64 151 -140c0 -31 -9 -59 -32 -96l-110 -183h-69l88 144c-9 -2 -18 -3 -28 -3c-87 0 -152 62 -152 138s66 140 152 140zM184 364c-55 0 -93 -41 -93 -85s39 -83 93 -83c44 0 92 30 92 83c0 40 -30 85 -92 85z" />
    <glyph glyph-name="zero.sub" horiz-adv-x="404" 
d="M202 -30c83 0 95 71 95 154c0 78 -7 154 -95 154c-86 0 -95 -72 -95 -154c0 -78 11 -154 95 -154zM202 -86c-84 0 -138 51 -150 128c-4 25 -5 43 -5 82c0 40 2 59 5 81c10 75 66 129 150 129c85 0 138 -52 150 -129c4 -24 5 -45 5 -81c0 -42 -1 -59 -5 -82
c-12 -77 -66 -128 -150 -128z" />
    <glyph glyph-name="one.sub" horiz-adv-x="237" 
d="M120 -80v340l-81 -42l-24 49l130 67h33v-414h-58z" />
    <glyph glyph-name="two.sub" horiz-adv-x="366" 
d="M37 -80v41l190 173c22 19 36 42 36 65c0 43 -29 81 -85 81c-48 0 -84 -38 -84 -89h-58c0 83 62 145 142 145c92 0 145 -62 145 -136c0 -45 -25 -78 -60 -108l-132 -118h197v-54h-291z" />
    <glyph glyph-name="three.sub" horiz-adv-x="356" 
d="M175 -87c-74 0 -143 50 -143 135h57c0 -47 34 -79 86 -79s81 32 81 69c0 41 -32 68 -84 68h-24v49h19c50 0 82 23 82 63c0 35 -27 64 -74 64c-46 0 -78 -25 -78 -71h-57c0 77 59 126 135 126c77 0 133 -53 133 -116c0 -43 -23 -73 -55 -89c34 -15 63 -47 63 -95
c0 -66 -59 -124 -141 -124z" />
    <glyph glyph-name="four.sub" horiz-adv-x="357" 
d="M19 9v42l169 282h63l-163 -271h137v86h56v-86h47v-53h-47v-89h-56v89h-206z" />
    <glyph glyph-name="five.sub" horiz-adv-x="385" 
d="M192 -86c-77 0 -133 42 -152 105l57 17c12 -41 45 -70 94 -70c58 0 95 42 95 86c0 48 -38 84 -94 84c-37 0 -64 -16 -79 -34h-56v231h271v-54h-214v-114c21 14 49 24 81 24c88 0 150 -56 150 -137s-65 -138 -153 -138z" />
    <glyph glyph-name="six.sub" horiz-adv-x="367" 
d="M183 -86c-87 0 -151 64 -151 140c0 31 9 59 32 96l110 183h69l-89 -145c9 3 18 4 29 4c86 0 152 -62 152 -138s-66 -140 -152 -140zM183 -31c55 0 93 41 93 85s-39 83 -93 83c-44 0 -92 -30 -92 -83c0 -40 30 -85 92 -85z" />
    <glyph glyph-name="seven.sub" horiz-adv-x="315" 
d="M69 -80l162 357h-208v56h282v-35l-172 -378h-64z" />
    <glyph glyph-name="eight.sub" horiz-adv-x="355" 
d="M177 -85c-81 0 -137 57 -137 123c0 40 21 74 55 95c-30 21 -48 53 -48 88c0 65 55 118 130 118c78 0 131 -53 131 -117c0 -36 -18 -68 -49 -89c35 -22 56 -56 56 -95c0 -66 -55 -123 -138 -123zM177 -32c52 0 81 32 81 71c0 36 -28 70 -81 70c-52 0 -80 -33 -80 -70
c0 -36 30 -71 80 -71zM177 286c-45 0 -73 -31 -73 -66c0 -31 25 -62 66 -65h13c43 2 68 34 68 66c0 34 -27 65 -74 65z" />
    <glyph glyph-name="nine.sub" horiz-adv-x="367" 
d="M184 339c87 0 151 -64 151 -140c0 -31 -9 -59 -32 -96l-110 -183h-69l88 144c-9 -2 -18 -3 -28 -3c-87 0 -152 62 -152 138s66 140 152 140zM184 284c-55 0 -93 -41 -93 -85s39 -83 93 -83c44 0 92 30 92 83c0 40 -30 85 -92 85z" />
    <glyph glyph-name="registered.alt" horiz-adv-x="929" 
d="M464 -12c-220 0 -397 178 -397 398s177 398 397 398s398 -178 398 -398s-178 -398 -398 -398zM464 45c189 0 338 152 338 341s-149 341 -338 341c-188 0 -338 -152 -338 -341s150 -341 338 -341zM580 161l-145 179h-56v-179h-57v453h170c79 0 143 -53 143 -134
c0 -77 -56 -131 -127 -139l145 -180h-73zM474 563h-95v-171h94c54 0 102 31 102 88c0 52 -44 83 -101 83z" />
    <glyph glyph-name="Ecaron" unicode="&#x11a;" horiz-adv-x="579" 
d="M514 359h-349v-294h363v-65h-433v773h431v-65h-361v-284h349v-65zM294 831l-116 122h68l70 -71l69 71h68l-116 -122h-43z" />
    <glyph glyph-name="Icaron" unicode="&#x1cf;" horiz-adv-x="261" 
d="M95 0v773h70v-773h-70zM109 831l-116 122h68l70 -71l69 71h68l-116 -122h-43z" />
    <glyph glyph-name="f_l.dlig" horiz-adv-x="483" 
d="M18 428v62h79v124c0 114 63 165 156 165s154 -49 154 -165v-614h-67v611c0 77 -32 105 -88 105c-55 0 -88 -28 -88 -105v-121h92v-62h-92v-428h-67v428h-79z" />
    <glyph glyph-name="thinspace" unicode="&#x2009;" horiz-adv-x="130" 
 />
    <glyph glyph-name="f_f_l.dlig" horiz-adv-x="761" 
d="M18 428v62h85v127c0 104 67 162 154 162c51 0 90 -12 122 -40l-37 -52c-24 20 -49 29 -82 29c-56 0 -90 -36 -90 -102v-124h205v124c0 114 63 165 156 165c92 0 154 -49 154 -165v-614h-67v611c0 77 -33 105 -88 105s-88 -28 -88 -105v-121h91v-62h-91v-428h-67v428h-205
v-428h-67v428h-85z" />
    <glyph glyph-name="colon.case" horiz-adv-x="229" 
d="M113 229c25 0 47 -18 47 -42c0 -23 -22 -44 -47 -44s-46 21 -46 44c0 24 21 42 46 42zM115 610c25 0 47 -18 47 -42c0 -23 -22 -44 -47 -44c-26 0 -46 21 -46 44c0 24 20 42 46 42z" />
    </font>
</defs>
</svg>
